<?xml version="1.0" encoding="UTF-8"?>
<svg width="110px" height="206px" viewBox="0 0 110 206" version="1.1" xmlns="http://www.w3.org/2000/svg" xmlns:xlink="http://www.w3.org/1999/xlink">
    <title>BlvdMonk</title>
    <g id="Page-1" stroke="none" stroke-width="1" fill="none" fill-rule="evenodd">
        <polygon id="BlvdMonk" fill="#00ADF2" stroke="#00ADF2" stroke-width="2" points="2 8.55417761 5.73556687 3 8.86296709 12.3669005 10.4266672 14.9556811 11.1214008 14.108599 13.8579676 19.3803752 15.72569 23.5225461 17.1591123 26.6762513 19.548068 25.6877856 23.0664238 31.3360564 37.7045469 54.2120283 35.4892135 56.6126226 44.1330918 71.0159446 53.4284813 88.9965129 57.1640482 86.5018255 61.7683373 94.7861672 58.1197037 97.4691629 64.0270152 107.824529 65.5472487 108.577762 67.1109488 111.543159 82.0097497 140.161495 81.5750833 140.820878 83.0085056 143.221472 83.8338833 143.221472 85.0935612 144.586433 95.0839285 162.708262 108.50584 182.289268 108.896552 183.701396 108.811084 192.550541 105.553406 203 100.731905 194.527472 103.902772 192.221093 98.7772497 184.266199 77.0590705 145.998561 65.7655587 126.276294 45.3938685 90.5503907 40.9633238 84.1488872 28.6708119 60.6140194 26.0646451 62.0260261 24.1534561 58.966536 26.7161563 56.9896047 19.9401225 44.8456153 5.04144372 18.1099958 4.21606598 18.721845 2.95651024 17.2156232"></polygon>
    </g>
</svg>