<?xml version="1.0" encoding="UTF-8"?>
<svg width="70px" height="204px" viewBox="0 0 70 204" version="1.1" xmlns="http://www.w3.org/2000/svg" xmlns:xlink="http://www.w3.org/1999/xlink">
    <title>MontRoyal</title>
    <g id="Page-1" stroke="none" stroke-width="1" fill="none" fill-rule="evenodd">
        <polygon id="MontRoyal" fill="#00ADF2" stroke="#00ADF2" stroke-width="2" points="61.3003462 3.51996559 67.7894737 5.95254769 62.6119902 23.2843906 58.6081508 37.1192445 60.126702 37.9550288 52.6021148 65.0168253 50.7382872 64.4846218 50.3244728 69.7298243 48.4606452 75.6590206 46.8035401 80.2961244 45.0780818 81.967693 42.1787944 93.52213 39.3484146 103.86037 39.8324297 105.836831 33.9647628 127.425552 30.6511069 135.939308 27.5447276 146.733669 25.1976239 156.159854 24.2314411 158.668331 22.6445367 165.281709 21.5397999 165.510332 20.6419704 170.907512 26.8549137 173.948193 24.8529017 179.117312 20.5728782 191.203953 16.0168553 189.987756 14.8437653 194.472882 12.4277541 193.788888 12.0822929 195.614121 11.2546641 195.31054 9.66775963 202 3.73081578 199.947456 5.24936694 196.906775 5.1754715 192.193776 2 190.368543 4.3471037 185.655544 2.48309139 185.426922 6.14183903 174.404501 7.17822248 169.767397 8.69677364 169.99602 12.7697052 153.652501 18.0851884 134.496362 24.5743159 110.551142 27.6806952 100.440962 28.646878 99.6051781 34.2385454 78.9286988 34.5840065 75.888018 38.6569381 59.620582 46.8026164 29.898143 50.5993638 16.3672448 52.0495617 12.2623444 55.2250332 2"></polygon>
    </g>
</svg>