<?xml version="1.0" encoding="UTF-8"?>
<svg width="97px" height="204px" viewBox="0 0 97 204" version="1.1" xmlns="http://www.w3.org/2000/svg" xmlns:xlink="http://www.w3.org/1999/xlink">
    <title>NotreDame</title>
    <g id="Page-1" stroke="none" stroke-width="1" fill="none" fill-rule="evenodd">
        <polygon id="NotreDame" stroke="#0098D6" stroke-width="2" points="91.6208275 4.49936075 95.1034483 7.52320922 81.4049768 30.5172303 71.4795077 46.8966134 69.9703312 46.7705993 68.4611548 49.1014927 67.4161238 48.4714223 65.7328163 51.0542215 67.7643859 52.5661458 59.6962329 64.9136901 56.8521334 64.0952104 55.8658396 66.1110686 56.9683839 67.1815765 53.5437661 71.2764223 52.9637372 73.9222285 52.7606047 74.5841083 51.2804297 74.1118614 49.6842489 78.4901776 48.9879695 78.3017682 47.9723071 81.262732 48.3492035 81.4829508 47.0722833 85.0422979 46.3172668 85.7824777 37.6975969 104.917899 33.4748887 107.563827 32.996426 114.462058 32.038277 117.107864 30.6886697 117.009989 30.1661542 119.372325 30.297089 119.798081 28.991045 123.90871 28.8601102 124.215792 27.9460141 127.310478 28.2286864 127.546601 26.9227648 132.082496 26.2485118 131.984621 25.3992712 134.9495 26.4222757 135.327542 26.2154722 136.213311 25.4751399 135.929474 25.3442051 136.673324 26.0735242 137.193285 25.4641267 139.189446 26.3892361 140.13394 26.1383797 140.87779 25.2891391 140.652677 24.5157672 143.617556 23.5686314 143.580853 23.2859591 143.495212 22.284981 146.944327 20.1954086 155.815107 19.3033388 158.815343 19.9567891 159.051466 19.0426929 162.618766 19.5003528 166.98913 17.6719158 173.367644 15.0163868 181.517941 13.0573821 191.392673 16.2136448 192.5268 13.8410329 202 2 197.842147 6.63631536 181.210858 2.89243686 179.93518 7.11514512 165.430103 11.3814167 166.635189 13.2098538 159.547937 14.3197403 157.469072 14.1888055 155.413819 11.3155822 149.744042 12.4695216 145.964232 15.2556182 145.775822 17.3234089 140.932844 18.8253656 141.263172 19.8703966 137.010748 18.7164572 136.279132 19.4788159 132.971691 21.0459952 133.656816 22.4172619 128.719389 23.1575941 126.357053 24.2674806 121.277829 21.8296461 120.592704 24.7463104 115.253745 27.2277082 110.717972 28.6643199 105.544299 27.5972625 100.724933 31.101665 90.4013218 32.3423639 91.0864469 38.4805136 81.8729827 36.2168101 78.1877438 37.566295 76.6758196 39.1988194 78.0931721 42.6596585 73.5337871 42.3549597 73.1557448 42.8774752 72.5415791 43.7046894 73.1324995 44.8145759 71.4315542 43.3779643 70.5580197 44.0314146 69.8251805 44.7056676 70.3206728 45.0544191 69.2807508 43.9225062 68.1943382 45.8597293 65.9264518 46.9047602 66.776741 49.1250227 62.9968081 50.1920801 63.6342191 53.6747009 58.7204041 54.3061247 58.8623229 55.590387 55.625841 59.1817938 49.2001018 67.9755947 36.3013988 70.3263026 35.1207814 74.004836 25.8366026 78.9676318 18.7966977 87.9354414 2"></polygon>
    </g>
</svg>