<?xml version="1.0" encoding="UTF-8"?>
<svg width="29px" height="204px" viewBox="0 0 29 204" version="1.1" xmlns="http://www.w3.org/2000/svg" xmlns:xlink="http://www.w3.org/1999/xlink">
    <title>ReuFleury</title>
    <g id="Page-1" stroke="none" stroke-width="1" fill="none" fill-rule="evenodd">
        <polygon id="ReuFleury" stroke="#0098D6" stroke-width="2" points="24.1521375 4.09212534 27.8064516 5.87432883 25.4677219 27.106421 23.2751334 73.4450871 23.1968993 79.2568859 21.881002 91.8100965 19.1769191 110.639989 15.2303225 141.558361 13.6224556 159.148413 22.5387942 160.077568 21.7345478 164.959448 14.4991468 164.262582 14.1330112 172.553909 10.8442068 202 2.95101353 200.914968 3.31558437 193.785848 3.82723528 189.833886 2 189.601598 2.14082135 183.789952 3.52869401 182.472631 5.13671739 155.118818 3.01719957 151.166856 4.04050139 142.875529 8.1332393 139.078528 9.52267664 121.953359 10.8385739 114.049435 11.4237649 94.5220655 11.2829435 91.4225413 12.0871899 83.4411366 12.3797854 77.9394124 14.7185151 69.0280893 15.5227615 63.3714042 13.2571024 60.8142433 14.7185151 34.932712 12.6720679 33.9256188 15.5955192 2"></polygon>
    </g>
</svg>