<?xml version="1.0" encoding="UTF-8"?>
<svg width="44px" height="204px" viewBox="0 0 44 204" version="1.1" xmlns="http://www.w3.org/2000/svg" xmlns:xlink="http://www.w3.org/1999/xlink">
    <title>RueOntario</title>
    <g id="Page-1" stroke="none" stroke-width="1" fill="none" fill-rule="evenodd">
        <polygon id="RueOntario" stroke="#0098D6" stroke-width="2" points="34.8789773 3.53382562 42.625 4.94446836 40.4633641 19.8544543 40.1034128 27.9141031 38.8414408 40.4061282 36.8595663 41.816771 35.5076064 50.9844035 34.0656588 56.5254258 30.6431222 65.8946102 30.8145275 73.5509344 31.9865117 76.3717783 30.4545763 86.0431802 25.7709246 85.5398523 30.9949317 94.5061536 27.1220274 97.4276632 22.8885292 139.941433 19.826158 140.343212 20.1861093 146.690222 19.0162677 148.90641 18.8448623 153.842997 33.1659949 155.858516 32.626068 172.682694 19.3856463 170.768723 18.1236742 181.447443 15.4214687 181.447443 14.7915539 186.182478 18.9346359 187.392232 15.0617316 202 2.81203292 199.682925 3.44194764 194.142124 2 193.437906 2.44993909 188.50154 3.62192327 188.50154 2.17997563 181.550316 3.25982944 168.856518 4.88175271 166.438778 4.07186236 160.998642 5.69378563 152.133227 5.33383436 151.025023 6.775782 143.771361 8.75765655 144.274689 8.12774183 140.647858 9.56968947 134.804839 7.04788802 133.495745 8.57982348 129.365365 9.84179548 130.069583 10.6516858 122.211707 11.551564 116.469353 12.0914909 104.984646 12.4300165 104.355486 12.7899678 104.355486 13.3534629 99.0917359 11.551564 97.4802035 12.6764117 82.8472687 13.8248277 69.1964855 18.5984671 49.4507986 22.1112058 34.8430301 23.6431413 28.1940241 24.1830682 22.9552193 25.8949793 20.9397 25.6250158 19.0257293 27.3369269 2"></polygon>
    </g>
</svg>