<?xml version="1.0" encoding="UTF-8"?>
<svg width="804px" height="203px" viewBox="0 0 804 203" version="1.1" xmlns="http://www.w3.org/2000/svg" xmlns:xlink="http://www.w3.org/1999/xlink">
    <title>RueStAnne</title>
    <g id="Page-1" stroke="none" stroke-width="1" fill="none" fill-rule="evenodd">
        <polygon id="RueStAnne" stroke="#0098D6" stroke-width="2" points="785.909759 118.426961 802 184.274742 631.471213 197.335458 555.388538 202 489.976004 185.347586 426.660366 200.896058 2 119.530903 33.4815176 18.8700925 72.3099708 22.2907564 75.8047968 33.6411413 101.689912 30.6869315 97.8362424 4.95420975 116.725465 2 120.579135 32.646039 145.765285 32.646039 158.714864 41.0422141 167.108687 26.7376195 211.533542 34.6673404 219.22528 58.8763119 297.581151 67.272487 298.985323 84.2980642 350.757113 78.23416 366.497872 60.4467076 464.792974 67.5990049 472.484712 83.5050921 500.819326 71.0663142 567.980833 44.198554 598.06442 64.2560833 677.4703 71.8748348 751.6277 28.3546607"></polygon>
    </g>
</svg>