<?xml version="1.0" encoding="UTF-8"?>
<svg width="77px" height="204px" viewBox="0 0 77 204" version="1.1" xmlns="http://www.w3.org/2000/svg" xmlns:xlink="http://www.w3.org/1999/xlink">
    <title>RueSaintCatherine</title>
    <g id="Page-1" stroke="none" stroke-width="1" fill="none" fill-rule="evenodd">
        <polygon id="RueSaintCatherine" stroke="#0098D6" stroke-width="2" points="69.7538096 3.24769379 75.0769231 5.49212182 69.1751983 34.5444114 72.0682546 35.4173736 69.2909481 43.7715804 61.5379151 70.4547136 51.0074379 103.871267 47.304546 102.998305 45.1058507 109.107947 49.3874915 111.103055 45.9158239 121.452097 41.9814325 120.204813 40.0721805 126.501616 43.080849 127.99781 41.5765147 132.299642 38.3363467 131.1152 37.236655 135.977968 38.6830455 136.85093 36.6580438 142.461932 35.0957658 142.461932 30.9878186 156.427004 38.9145451 159.544258 36.4265442 168.771153 28.3842055 166.152677 25.4333432 176.377126 25.8957917 177.000085 24.2757077 182.174606 28.5573485 183.982553 26.7057649 189.593555 21.5563449 187.9102 20.1677605 192.399056 23.0606791 193.209176 22.2513941 196.388725 22.8872609 196.950208 21.5563449 202 2 194.082274 4.25650134 187.099807 8.42239231 187.722766 10.3316443 182.548245 12.5881456 183.482683 15.0183405 171.200966 19.0105379 156.674822 14.6132851 154.679714 16.464731 148.507639 21.2670393 150.25329 24.5072073 138.532646 25.8957917 132.672324 27.457932 126.624841 28.731042 127.186324 30.0041519 121.700051 31.7399857 115.527976 35.5008212 104.80475 31.1613744 103.183827 34.1122368 91.6502072 36.4265442 85.4157001 38.3359338 83.0466803 39.1465952 77.1239258 36.4851761 70.7648269 32.7821466 69.1439042 35.3279536 62.099004 39.8987623 63.1591271 42.2132073 52.3736046 37.1793995 51.1263206 38.7994835 42.8969789 51.2392127 46.9492172 51.8750795 43.2085949 53.7844691 37.0365203 49.5028284 34.5427721 50.3134897 30.2410769 58.4715782 30.6153987 60.4387739 23.0094257 58.587328 22.3864668 60.9016354 15.0922464 62.6374691 15.7152053 63.6215487 12.6602476 62.5796631 12.2244496 63.3903244 8.04734624 65.2997141 2"></polygon>
    </g>
</svg>