<?xml version="1.0" encoding="UTF-8"?>
<svg width="402.540043px" height="102.154926px" viewBox="0 0 402.540043 102.154926" version="1.1" xmlns="http://www.w3.org/2000/svg" xmlns:xlink="http://www.w3.org/1999/xlink">
    <g id="Page-1" stroke="none" stroke-width="1" fill="none" fill-rule="evenodd">
        <g id="Montreal" transform="translate(-641.711, 1.1472)" fill="#00ADF2" stroke="#00ADF2" stroke-width="2">
            <polygon id="RueStAnne" points="1034.95488 58.2134805 1043 91.1373708 957.735606 97.6677291 919.694269 100 886.988002 91.673793 855.330183 99.4480292 643 58.7654513 658.740759 8.43504626 678.154985 10.1453782 679.902398 15.8205706 692.844956 14.3434658 690.918121 1.47710487 700.362733 0 702.289567 15.3230195 714.882642 15.3230195 721.357432 19.5211071 725.554343 12.3688098 747.766771 16.3336702 751.61264 28.438156 790.790576 32.6362435 791.492661 41.1490321 817.378557 38.11708 825.248936 29.2233538 874.396487 32.7995024 878.242356 40.7525461 892.409663 34.5331571 925.990417 21.099277 941.03221 31.1280417 980.73515 34.9374174 1017.81385 13.1773303"></polygon>
        </g>
    </g>
</svg>