<?xml version="1.0" encoding="UTF-8"?>
<svg width="56px" height="204px" viewBox="0 0 56 204" version="1.1" xmlns="http://www.w3.org/2000/svg" xmlns:xlink="http://www.w3.org/1999/xlink">
    <title>RueWellington</title>
    <g id="Page-1" stroke="none" stroke-width="1" fill="none" fill-rule="evenodd">
        <polygon id="RueWellington" stroke="#0098D6" stroke-width="2" points="8.03938671 2 13.0969386 3.91906409 13.4094014 8.30564112 14.9700441 15.1595621 14.7210765 15.7762714 15.5331454 18.5178398 18.0306751 20.9167544 18.5302813 23.3840984 16.9696386 23.5902313 18.5937764 32.5688425 20.4668819 33.7346765 21.2789508 38.395309 20.0307708 39.4225945 21.3424459 44.2202548 22.2798342 48.264009 24.4027427 49.22371 27.5870221 63.4798319 30.2718623 64.2334 30.5843251 65.946838 28.5864016 66.4266885 30.3346891 73.9660861 28.9611898 75.6795241 29.7097636 79.2434278 30.8961194 80.8891123 30.7791548 84.3845867 29.5309747 84.9337114 31.1551126 91.9932584 32.5286119 97.6818524 34.0892547 97.5466832 35.1502912 104.332006 36.710934 105.97769 38.2715768 112.968639 37.959114 120.302242 37.959114 123.59209 41.7054921 127.910069 42.7665287 135.449297 45.1392404 140.521182 41.7051579 143.194152 44.0778696 148.60869 45.7636645 157.450274 48.0113911 167.388248 46.3255962 168.347949 46.7633782 171.226545 48.2621968 170.952828 49.1360899 174.174078 48.0750533 174.927646 48.3875161 177.874671 49.1360899 182.19265 51.1341805 181.849658 54.3809524 199.052806 43.5790989 202 41.2688797 188.634981 38.896168 175.88684 37.0230625 169.238545 36.2109936 163.961034 37.4591736 163.618042 36.2728178 159.368662 33.8377806 153.542871 33.6506372 149.978799 34.836993 149.84363 32.9638875 141.961578 31.902851 135.793134 29.7799424 136.546702 27.9691623 127.636689 26.96995 121.056992 28.0944816 121.124577 25.5969519 110.089874 23.1619148 106.045951 20.3522565 92.4068761 18.6662945 85.1417029 15.3571972 85.9645451 13.9836979 79.7275024 16.6060456 77.19156 15.3578655 70.8859189 13.6719035 71.2964952 13.7387404 67.9382176 15.1740639 67.8030484 11.8649666 51.559433 10.366148 51.765566 8.30573195 41.8960211 11.9896175 40.6626026 11.4281871 38.0582309 9.18046052 38.4012226 2 3.72053439"></polygon>
    </g>
</svg>