<?xml version="1.0" encoding="UTF-8"?>
<svg width="575px" height="204px" viewBox="0 0 575 204" version="1.1" xmlns="http://www.w3.org/2000/svg" xmlns:xlink="http://www.w3.org/1999/xlink">
    <title>StDenis</title>
    <g id="Page-1" stroke="none" stroke-width="1" fill="none" fill-rule="evenodd">
        <polygon id="StDenis" fill="#00ADF2" stroke="#00ADF2" stroke-width="2" points="573.048352 187.998341 572.601767 193.883892 552.593452 185.122742 547.380502 202 520.769055 193.776261 516.995783 192.486547 514.314784 183.886657 508.555697 181.253042 507.910009 171.900664 504.583695 170.880027 502.10124 173.943794 489.490607 170.772582 489.886951 168.891454 485.666722 167.386478 481.943133 181.038708 476.531638 179.533732 475.686848 177.061192 478.616074 170.880027 466.154303 166.956512 463.026533 170.503876 454.784991 168.138966 453.642478 171.095103 443.464618 168.138966 447.188207 154.217845 441.677347 152.014196 441.031659 155.131594 437.109526 153.196651 437.109526 155.454115 428.570075 152.659239 429.662347 149.971623 423.853392 147.929235 424.100874 146.101366 423.157463 145.670843 423.157463 147.498711 422.065191 148.090681 421.972152 146.048293 414.7732 143.898274 413.88003 148.466832 407.475256 146.854225 405.340579 140.243094 404.745132 138.845748 401.617176 138.092332 401.524137 140.027461 396.708275 138.737746 396.360311 136.802804 390.700403 134.814045 387.969722 138.146519 382.210635 138.361781 382.154812 136.104317 372.274861 134.169188 355.245641 127.450611 333.896827 119.872101 332.557072 124.279399 326.748302 121.807044 327.691713 117.829528 318.109672 114.980836 286.831411 105.359752 272.234963 100.253597 236.68679 88.7512002 216.03316 82.3013292 175.470767 69.4554028 176.166696 66.4990805 171.847287 65.2631815 168.024519 67.1981243 144.540842 59.1894618 129.398258 55.4270217 129.54712 51.7183969 120.213306 48.5471841 107.751721 44.0858857 103.928767 41.9360524 96.2333612 39.8934789 96.0342586 40.4854485 94.0482575 39.9472943 91.7148504 47.6870652 78.1113104 44.4084071 79.3524448 37.3134934 73.2457659 35.4323661 72.4009758 34.8942119 68.9256134 35.163289 22.1074936 19.7371915 12.7239966 15.7060453 2 13.4485812 5.77327184 2 14.2133578 3.72023775 27.3204441 8.02008985 28.7104402 6.5689292 35.9590744 8.66513262 48.6193895 13.8787334 48.866872 15.3298941 51.2996443 16.0276389 51.4987468 14.9531862 77.0674178 22.2093605 79.7484169 23.4452595 80.7904488 25.8639843 84.4643555 26.938437 85.3091456 26.2406923 96.3310516 29.0355683 96.0835691 31.9380752 109.786474 36.4530034 111.722793 30.0031324 120.113382 32.2605965 123.886654 36.9906009 170.754457 51.6102093 202.231262 61.7150752 241.006385 74.3999265 268.660422 83.5372282 269.107007 85.0960197 271.291552 85.8494356 271.788378 87.0315191 275.363106 88.2136027 276.008793 85.5261719 291.151377 90.2023608 319.897687 99.9847053 323.819821 87.6223753 355.098082 98.8558804 350.331903 109.283268 357.33231 112.830632 357.977998 111.702364 364.481951 113.906012 367.262315 104.768711 375.801767 107.563587 373.468174 116.754704 386.227854 119.979732 389.479738 123.715264 396.107805 125.999636 397.596422 125.981079 418.647326 132.646026 420.931051 131.033419 468.196128 146.405701 469.586124 147.803047 472.564846 138.343224 493.019932 144.255683 512.084835 151.565487 510.198199 157.800282 513.872106 158.659473 518.042653 163.174401 537.10737 170.37676 541.377096 173.816679 543.363097 171.021803 573.052632 180.589071"></polygon>
    </g>
</svg>