<?xml version="1.0" encoding="UTF-8"?>
<svg width="294px" height="48px" viewBox="0 0 294 48" version="1.1" xmlns="http://www.w3.org/2000/svg" xmlns:xlink="http://www.w3.org/1999/xlink">
    <title>Combined Shape</title>
    <g id="Page-1" stroke="none" stroke-width="1" fill="none" fill-rule="evenodd">
        <path d="M120.550997,48.0000201 L119.217664,48.0000201 L119.217664,2.27373675e-13 L120.550997,2.27373675e-13 L120.550997,48.0000201 M-5.74847337e-14,3.52399991 L7.23177315,3.52399991 L7.23177315,5.10839987 L1.83333329,5.10839987 L1.83333329,7.85106647 L6.57187984,7.85106647 L6.57187984,9.34799977 L1.83333329,9.34799977 L1.83333329,13.9974663 L-5.6202104e-14,13.9974663 L-5.74847337e-14,3.52399991 M15.122333,13.9974663 L13.479133,13.9974663 L13.479133,12.941733 L13.449533,12.941733 C13.0389997,13.7035997 12.130213,14.2026663 11.2932264,14.2026663 C9.31406643,14.2026663 8.46250646,13.2051997 8.46250646,11.2255997 L8.46250646,6.41359984 L10.1343731,6.41359984 L10.1343731,11.0641331 C10.1343731,12.3983997 10.6770797,12.8827997 11.5875064,12.8827997 C12.980733,12.8827997 13.449533,11.9879997 13.449533,10.8146664 L13.449533,6.41359984 L15.122333,6.41359984 L15.122333,13.9974663 M16.8817996,6.41359984 L18.4651329,6.41359984 L18.4651329,7.52866648 L18.4947329,7.55786648 C18.9937995,6.72133317 19.8593995,6.20839984 20.8567328,6.20839984 C22.4989994,6.20839984 23.5405994,7.08853316 23.5405994,8.78959978 L23.5405994,13.9974663 L21.8687328,13.9974663 L21.8687328,9.23026644 C21.8385995,8.04173313 21.3697995,7.52866648 20.3869995,7.52866648 C19.2723329,7.52866648 18.5536662,8.40893312 18.5536662,9.52346643 L18.5536662,13.9974663 L16.8817996,13.9974663 L16.8817996,6.41359984 M28.7031326,12.8827997 C30.1995326,12.8827997 30.8296659,11.5182664 30.8296659,10.1979997 C30.8296659,8.52599979 30.0233992,7.52866648 28.7317993,7.52866648 C27.1629993,7.52866648 26.605666,8.92186644 26.605666,10.2865331 C26.605666,11.591733 27.2515327,12.8827997 28.7031326,12.8827997 Z M32.4443325,13.9974663 L30.8593992,13.9974663 L30.8593992,12.9707997 L30.8296659,12.9707997 C30.3895326,13.8359997 29.4364659,14.2026663 28.4833993,14.2026663 C26.0927327,14.2026663 24.9337994,12.4275997 24.9337994,10.1546664 C24.9337994,7.41093315 26.5613993,6.20839984 28.2187326,6.20839984 C29.1719326,6.20839984 30.2280659,6.56039984 30.7421992,7.39693315 L30.7708659,7.39693315 L30.7708659,3.52399991 L32.4443325,3.52399991 L32.4443325,13.9974663 M39.4676657,9.53799976 C39.4088657,8.48173312 38.6900657,7.52866648 37.5613991,7.52866648 C36.4025991,7.52866648 35.6109991,8.40893312 35.5667324,9.53799976 L39.4676657,9.53799976 Z M35.5667324,10.6379997 C35.5667324,11.8259997 36.2124658,12.8827997 37.6056657,12.8827997 C38.5728657,12.8827997 39.1604657,12.457333 39.4531323,11.621333 L41.0380656,11.621333 C40.6708656,13.2786663 39.262999,14.2026663 37.6056657,14.2026663 C35.2291325,14.2026663 33.8947325,12.5447997 33.8947325,10.2130664 C33.8947325,8.0567998 35.3020658,6.20839984 37.5613991,6.20839984 C39.9520657,6.20839984 41.4192656,8.36466646 41.140599,10.6379997 L35.5667324,10.6379997 M45.8192655,12.8827997 C47.3151322,12.8827997 47.9452655,11.5182664 47.9452655,10.1979997 C47.9452655,8.52599979 47.1395322,7.52866648 45.8479322,7.52866648 C44.2785989,7.52866648 43.7213989,8.92186644 43.7213989,10.2865331 C43.7213989,11.591733 44.3671322,12.8827997 45.8192655,12.8827997 L45.8192655,12.8827997 Z M49.5599321,13.9974663 L47.9755321,13.9974663 L47.9755321,12.9707997 L47.9452655,12.9707997 C47.5052655,13.8359997 46.5520655,14.2026663 45.5989989,14.2026663 C43.2083323,14.2026663 42.0495323,12.4275997 42.0495323,10.1546664 C42.0495323,7.41093315 43.6771322,6.20839984 45.3348655,6.20839984 C46.2880655,6.20839984 47.3437988,6.56039984 47.8583321,7.39693315 L47.8869988,7.39693315 L47.8869988,3.52399991 L49.5599321,3.52399991 L49.5599321,13.9974663 M59.2385985,7.52866648 C57.8307319,7.52866648 57.1119319,8.59893312 57.1119319,10.2130664 C57.1119319,11.738533 57.8895319,12.8827997 59.2385985,12.8827997 C60.7645985,12.8827997 61.3359318,11.533333 61.3359318,10.2130664 C61.3359318,8.83386645 60.6171318,7.52866648 59.2385985,7.52866648 Z M55.4973986,3.52399991 L57.1708652,3.52399991 L57.1708652,7.39693315 L57.1995319,7.39693315 C57.6552652,6.6630665 58.6083319,6.20839984 59.4583318,6.20839984 C61.8489985,6.20839984 63.0077984,8.0275998 63.0077984,10.2422664 C63.0077984,12.281333 61.9817985,14.2026663 59.7369985,14.2026663 C58.7109985,14.2026663 57.6109986,13.9531997 57.1119319,12.955733 L57.0823319,12.955733 L57.0823319,13.9974663 L55.4973986,13.9974663 L55.4973986,3.52399991 M63.5796651,6.41359984 L65.4129984,6.41359984 L67.393265,12.0755997 L67.4219316,12.0755997 L69.3437983,6.41359984 L71.0900649,6.41359984 L68.1405983,14.4083996 C67.5979316,15.7723996 67.202065,17.0046662 65.457265,17.0046662 C65.0599317,17.0046662 64.6785984,16.9755996 64.2984651,16.9166662 L64.2984651,15.5089329 C64.5613984,15.5521329 64.8255317,15.6109329 65.090065,15.6109329 C65.8671317,15.6109329 66.057265,15.200533 66.2629983,14.5546663 L66.4547317,13.9682663 L63.5796651,6.41359984 M75.3411314,6.41359984 L76.6031314,6.41359984 L76.6031314,4.14013323 L78.274998,4.14013323 L78.274998,6.41359984 L79.7864647,6.41359984 L79.7864647,7.66039981 L78.274998,7.66039981 L78.274998,11.708933 C78.274998,12.3983997 78.3348647,12.750533 79.0823314,12.750533 C79.3167314,12.750533 79.5520647,12.750533 79.7864647,12.6922663 L79.7864647,13.9822663 C79.4192647,14.012533 79.0676647,14.0707996 78.7004647,14.0707996 C76.9556647,14.0707996 76.6328648,13.3958663 76.6031314,12.134933 L76.6031314,7.66039981 L75.3411314,7.66039981 L75.3411314,6.41359984 M80.988598,3.52399991 L82.6604646,3.52399991 L82.6604646,7.41093315 L82.6900646,7.41093315 C83.1004646,6.72133317 83.9661979,6.20839984 84.9635312,6.20839984 C86.6067312,6.20839984 87.6484645,7.08853316 87.6484645,8.78959978 L87.6484645,13.9974663 L85.9755312,13.9974663 L85.9755312,9.23026644 C85.9468645,8.04173313 85.4765979,7.52866648 84.4947312,7.52866648 C83.3791312,7.52866648 82.6604646,8.40893312 82.6604646,9.52346643 L82.6604646,13.9974663 L80.988598,13.9974663 L80.988598,3.52399991 M94.613531,9.53799976 C94.554731,8.48173312 93.835931,7.52866648 92.7072643,7.52866648 C91.5484644,7.52866648 90.7567311,8.40893312 90.7124644,9.53799976 L94.613531,9.53799976 Z M90.7124644,10.6379997 C90.7124644,11.8259997 91.358331,12.8827997 92.751531,12.8827997 C93.718731,12.8827997 94.3061976,12.457333 94.5989976,11.621333 L96.1837976,11.621333 C95.8167309,13.2786663 94.4088643,14.2026663 92.751531,14.2026663 C90.3749977,14.2026663 89.0405978,12.5447997 89.0405978,10.2130664 C89.0405978,8.0567998 90.4479311,6.20839984 92.7072643,6.20839984 C95.097931,6.20839984 96.5651309,8.36466646 96.2864643,10.6379997 L90.7124644,10.6379997 M23.2801994,28.6641326 L22.1067328,28.6641326 L21.8280661,27.432266 C20.8452661,28.5469326 19.9504662,28.9141326 18.6744662,28.9141326 C15.5353996,28.9141326 13.6577997,26.4193327 13.6577997,23.4270661 C13.6577997,20.4349328 15.5353996,17.9417329 18.6744662,17.9417329 C20.9624661,17.9417329 22.8843328,19.1589329 23.1629994,21.5198661 L21.3723328,21.5198661 C21.1968661,20.1406662 19.9937995,19.4374662 18.6744662,19.4374662 C16.4296663,19.4374662 15.4911329,21.4182661 15.4911329,23.4270661 C15.4911329,25.437466 16.4296663,27.416666 18.6744662,27.416666 C20.5520662,27.4469326 21.5780661,26.3177327 21.6083328,24.5417327 L18.8203329,24.5417327 L18.8203329,23.1483994 L23.2801994,23.1483994 L23.2801994,28.6641326 M30.6708659,24.864666 C30.6708659,23.5589327 30.0104659,22.1953328 28.5145993,22.1953328 C27.0181993,22.1953328 26.3583327,23.5589327 26.3583327,24.864666 C26.3583327,26.1849327 27.0181993,27.549466 28.5145993,27.549466 C30.0104659,27.549466 30.6708659,26.1849327 30.6708659,24.864666 Z M24.686466,24.864666 C24.686466,22.5469328 26.079666,20.8750661 28.5145993,20.8750661 C30.9495326,20.8750661 32.3427325,22.5469328 32.3427325,24.864666 C32.3427325,27.1969327 30.9495326,28.8698659 28.5145993,28.8698659 C26.079666,28.8698659 24.686466,27.1969327 24.686466,24.864666 M32.9869992,21.0797328 L34.8061991,21.0797328 L36.7280657,26.9035993 L36.7567324,26.9035993 L38.6056657,21.0797328 L40.3359323,21.0797328 L37.6223324,28.6641326 L35.7447324,28.6641326 L32.9869992,21.0797328 M46.5547322,24.2046661 C46.4963322,23.1483994 45.7776655,22.1953328 44.6473989,22.1953328 C43.4885989,22.1953328 42.6968656,23.0755994 42.6525989,24.2046661 L46.5547322,24.2046661 Z M42.6525989,25.304666 C42.6525989,26.4937327 43.2984656,27.549466 44.6916655,27.549466 C45.6604655,27.549466 46.2463322,27.1239993 46.5405988,26.2879993 L48.1239321,26.2879993 C47.7577988,27.9453326 46.3489988,28.8698659 44.6916655,28.8698659 C42.3151323,28.8698659 40.9807323,27.2125327 40.9807323,24.8791994 C40.9807323,22.7229328 42.3895323,20.8750661 44.6473989,20.8750661 C47.0389988,20.8750661 48.5052655,23.0313328 48.2265988,25.304666 L42.6525989,25.304666 M49.5025988,21.0797328 L51.0719321,21.0797328 L51.0719321,22.5469328 L51.1015321,22.5469328 C51.2916654,21.7395995 52.2889987,20.8750661 53.316732,20.8750661 C53.697932,20.8750661 53.8009987,20.9035995 53.9468653,20.9193328 L53.9468653,22.5327994 C53.7124653,22.5026661 53.4624653,22.4583994 53.2280653,22.4583994 C52.0833987,22.4583994 51.1744654,23.3827994 51.1744654,25.056266 L51.1744654,28.6641326 L49.5025988,28.6641326 L49.5025988,21.0797328 M54.9260653,21.0797328 L56.5104653,21.0797328 L56.5104653,22.1953328 L56.5389986,22.2239994 C57.0380652,21.3879995 57.9036652,20.8750661 58.9009985,20.8750661 C60.5443318,20.8750661 61.5859318,21.7551995 61.5859318,23.4557327 L61.5859318,28.6641326 L59.9129985,28.6641326 L59.9129985,23.8958661 C59.8843318,22.7083994 59.4140652,22.1953328 58.4323319,22.1953328 C57.3167319,22.1953328 56.5979319,23.0755994 56.5979319,24.1901327 L56.5979319,28.6641326 L54.9260653,28.6641326 L54.9260653,21.0797328 M63.3452651,21.0797328 L64.9285984,21.0797328 L64.9285984,22.1369328 L64.972865,22.1369328 C65.4713984,21.3879995 66.1031317,20.8750661 67.3047317,20.8750661 C68.2291316,20.8750661 69.0952649,21.2707995 69.4323316,22.1369328 C69.9895316,21.3583995 70.7083316,20.8750661 71.8088649,20.8750661 C73.4077982,20.8750661 74.3463315,21.5781328 74.3463315,23.4270661 L74.3463315,28.6641326 L72.6744648,28.6641326 L72.6744648,24.2343994 C72.6744648,23.0313328 72.6004649,22.1953328 71.2957982,22.1953328 C70.1656649,22.1953328 69.6812649,22.9426661 69.6812649,24.2187994 L69.6812649,28.6641326 L68.0093983,28.6641326 L68.0093983,23.7942661 C68.0093983,22.7526661 67.686465,22.1953328 66.674465,22.1953328 C65.808865,22.1953328 65.0171317,22.8983994 65.0171317,24.1603994 L65.0171317,28.6641326 L63.3452651,28.6641326 L63.3452651,21.0797328 M81.311398,24.2046661 C81.252598,23.1483994 80.533798,22.1953328 79.4052647,22.1953328 C78.2463314,22.1953328 77.4547314,23.0755994 77.4104647,24.2046661 L81.311398,24.2046661 Z M77.4104647,25.304666 C77.4104647,26.4937327 78.056198,27.549466 79.4495313,27.549466 C80.4167313,27.549466 81.004198,27.1239993 81.2968646,26.2879993 L82.8817979,26.2879993 C82.5145979,27.9453326 81.1067313,28.8698659 79.4495313,28.8698659 C77.0728647,28.8698659 75.7385981,27.2125327 75.7385981,24.8791994 C75.7385981,22.7229328 77.1457981,20.8750661 79.4052647,20.8750661 C81.795798,20.8750661 83.2629979,23.0313328 82.9843313,25.304666 L77.4104647,25.304666 M84.2593979,21.0797328 L85.8437979,21.0797328 L85.8437979,22.1953328 L85.8723312,22.2239994 C86.3713978,21.3879995 87.2369978,20.8750661 88.2343311,20.8750661 C89.8776644,20.8750661 90.9192644,21.7551995 90.9192644,23.4557327 L90.9192644,28.6641326 L89.2463311,28.6641326 L89.2463311,23.8958661 C89.2176644,22.7083994 88.7473978,22.1953328 87.7656645,22.1953328 C86.6500645,22.1953328 85.9312645,23.0755994 85.9312645,24.1901327 L85.9312645,28.6641326 L84.2593979,28.6641326 L84.2593979,21.0797328 M91.9140644,21.0797328 L93.1760643,21.0797328 L93.1760643,18.8067995 L94.847931,18.8067995 L94.847931,21.0797328 L96.3593976,21.0797328 L96.3593976,22.3270661 L94.847931,22.3270661 L94.847931,26.3765327 C94.847931,27.065066 94.9077976,27.416666 95.6552643,27.416666 C95.8895309,27.416666 96.1249976,27.416666 96.3593976,27.3583993 L96.3593976,28.6499993 C95.9921976,28.6786659 95.6405976,28.7369326 95.2733976,28.7369326 C93.5285977,28.7369326 93.2056643,28.0625326 93.1760643,26.801066 L93.1760643,22.3270661 L91.9140644,22.3270661 L91.9140644,21.0797328 M33.3671325,39.5312657 C33.3671325,38.2265857 32.7072658,36.8619991 31.2109992,36.8619991 C29.7151326,36.8619991 29.0547326,38.2265857 29.0547326,39.5312657 C29.0547326,40.8515856 29.7151326,42.2161589 31.2109992,42.2161589 C32.7072658,42.2161589 33.3671325,40.8515856 33.3671325,39.5312657 Z M27.382866,39.5312657 C27.382866,37.2135591 28.7760659,35.5416924 31.2109992,35.5416924 C33.6457992,35.5416924 35.0389991,37.2135591 35.0389991,39.5312657 C35.0389991,41.863559 33.6457992,43.5364789 31.2109992,43.5364789 C28.7760659,43.5364789 27.382866,41.863559 27.382866,39.5312657 M35.6837991,35.7474124 L36.9312657,35.7474124 L36.9312657,35.1161591 C36.9312657,33.1797325 37.9427324,32.8567992 39.028599,32.8567992 C39.556199,32.8567992 39.9375323,32.8869325 40.2020657,32.9598658 L40.2020657,34.2655991 C39.981799,34.2073325 39.7619323,34.1770658 39.4244657,34.1770658 C38.9703324,34.1770658 38.6031324,34.3385325 38.6031324,34.9703325 L38.6031324,35.7474124 L40.0260657,35.7474124 L40.0260657,36.9937724 L38.6031324,36.9937724 L38.6031324,43.3307456 L36.9312657,43.3307456 L36.9312657,36.9937724 L35.6837991,36.9937724 L35.6837991,35.7474124 M52.4337987,36.1875191 C52.1265987,34.9843991 51.3489987,34.1041325 49.8228654,34.1041325 C47.5796655,34.1041325 46.6405988,36.0849191 46.6405988,38.0937724 C46.6405988,40.1041857 47.5796655,42.0833589 49.8228654,42.0833589 C51.4520654,42.0833589 52.346332,40.866159 52.4937987,39.341159 L54.2828653,39.341159 C54.1353986,41.8489723 52.3609987,43.5807456 49.8228654,43.5807456 C46.6837988,43.5807456 44.8061989,41.085959 44.8061989,38.0937724 C44.8061989,35.1015858 46.6837988,32.6083992 49.8228654,32.6083992 C52.1848654,32.6223992 54.0484653,33.9286658 54.2681986,36.1875191 L52.4337987,36.1875191 M60.3973985,39.5312657 C59.8843318,39.8687723 59.0771319,39.8541857 58.3437985,39.985959 C57.6249986,40.1041857 56.9791319,40.3672123 56.9791319,41.2474123 C56.9791319,41.9963723 57.9323319,42.2161589 58.5197985,42.2161589 C59.2525985,42.2161589 60.3973985,41.834919 60.3973985,40.7786656 L60.3973985,39.5312657 Z M62.0692651,41.6432523 C62.0692651,42.0547056 62.1577984,42.2161589 62.4651318,42.2161589 C62.5676651,42.2161589 62.7004651,42.2161589 62.8765984,42.1864789 L62.8765984,43.3453322 C62.6265984,43.4338789 62.0989984,43.5364789 61.8203318,43.5364789 C61.1447318,43.5364789 60.6613985,43.3010656 60.5285985,42.6119989 C59.8687318,43.2578256 58.7984652,43.5364789 57.9036652,43.5364789 C56.5389986,43.5364789 55.3072653,42.8021056 55.3072653,41.3218923 C55.3072653,39.4286657 56.8176652,39.1213724 58.2265985,38.959919 C59.4285985,38.739599 60.5000652,38.8713724 60.5000652,37.8880391 C60.5000652,37.0234524 59.6056652,36.8619991 58.9296652,36.8619991 C57.9911319,36.8619991 57.3307319,37.2437724 57.2577986,38.065119 L55.5859319,38.065119 C55.7031319,36.1135591 57.3609986,35.5416924 59.0328652,35.5416924 C60.5145985,35.5416924 62.0692651,36.1432524 62.0692651,37.7422124 L62.0692651,41.6432523 M63.8723317,35.7474124 L65.457265,35.7474124 L65.457265,36.8619991 L65.4859317,36.8906391 C65.9843317,36.0547058 66.850465,35.5416924 67.8479316,35.5416924 C69.4911316,35.5416924 70.5328649,36.4218924 70.5328649,38.1239724 L70.5328649,43.3307456 L68.8593983,43.3307456 L68.8593983,38.564079 C68.8307316,37.3750257 68.3609983,36.8619991 67.3791316,36.8619991 C66.2629983,36.8619991 65.5443317,37.7422124 65.5443317,38.8567857 L65.5443317,43.3307456 L63.8723317,43.3307456 L63.8723317,35.7474124 M76.9703314,39.5312657 C76.4572648,39.8687723 75.6509981,39.8541857 74.9167315,39.985959 C74.1979315,40.1041857 73.5536648,40.3672123 73.5536648,41.2474123 C73.5536648,41.9963723 74.5067315,42.2161589 75.0927315,42.2161589 C75.8271314,42.2161589 76.9703314,41.834919 76.9703314,40.7786656 L76.9703314,39.5312657 Z M78.6432647,41.6432523 C78.6432647,42.0547056 78.7307314,42.2161589 79.038998,42.2161589 C79.142198,42.2161589 79.273398,42.2161589 79.4495313,42.1864789 L79.4495313,43.3453322 C79.2004647,43.4338789 78.6719314,43.5364789 78.3932647,43.5364789 C77.7187314,43.5364789 77.2343314,43.3010656 77.1031314,42.6119989 C76.4427314,43.2578256 75.3713981,43.5364789 74.4765981,43.5364789 C73.1135315,43.5364789 71.8801982,42.8021056 71.8801982,41.3218923 C71.8801982,39.4286657 73.3921982,39.1213724 74.7995315,38.959919 C76.0025981,38.739599 77.0728647,38.8713724 77.0728647,37.8880391 C77.0728647,37.0234524 76.1785981,36.8619991 75.5041981,36.8619991 C74.5651315,36.8619991 73.9052648,37.2437724 73.8323315,38.065119 L72.1588649,38.065119 C72.2760649,36.1135591 73.9337982,35.5416924 75.6067314,35.5416924 C77.0885981,35.5416924 78.6432647,36.1432524 78.6432647,37.7422124 L78.6432647,41.6432523 M83.8489979,42.2161589 C85.3452645,42.2161589 85.9755312,40.8515856 85.9755312,39.5312657 C85.9755312,37.8593991 85.1692645,36.8619991 83.8776646,36.8619991 C82.3088646,36.8619991 81.7515313,38.2552257 81.7515313,39.6198123 C81.7515313,40.9244923 82.3973979,42.2161589 83.8489979,42.2161589 L83.8489979,42.2161589 Z M87.5900645,43.3307456 L86.0052645,43.3307456 L86.0052645,42.3036656 L85.9755312,42.3036656 C85.5353979,43.1692923 84.5823312,43.5364789 83.6291312,43.5364789 C81.238598,43.5364789 80.0796647,41.761999 80.0796647,39.486999 C80.0796647,36.7448124 81.7072646,35.5416924 83.3645979,35.5416924 C84.3176646,35.5416924 85.3739312,35.8932524 85.8880645,36.7291857 L85.9167312,36.7291857 L85.9167312,32.8567992 L87.5900645,32.8567992 L87.5900645,43.3307456 M94.085931,39.5312657 C93.5728643,39.8687723 92.767131,39.8541857 92.0328644,39.985959 C91.3140644,40.1041857 90.6692644,40.3672123 90.6692644,41.2474123 C90.6692644,41.9963723 91.622331,42.2161589 92.208331,42.2161589 C92.942731,42.2161589 94.085931,41.834919 94.085931,40.7786656 L94.085931,39.5312657 Z M95.7593976,41.6432523 C95.7593976,42.0547056 95.8463309,42.2161589 96.1552643,42.2161589 C96.2577976,42.2161589 96.3895309,42.2161589 96.5651309,42.1864789 L96.5651309,43.3453322 C96.3167309,43.4338789 95.7880643,43.5364789 95.5093976,43.5364789 C94.8348643,43.5364789 94.3504643,43.3010656 94.218731,42.6119989 C93.5588643,43.2578256 92.4869977,43.5364789 91.592731,43.5364789 C90.2291311,43.5364789 88.9963311,42.8021056 88.9963311,41.3218923 C88.9963311,39.4286657 90.5077977,39.1213724 91.9156644,38.959919 C93.118731,38.739599 94.1889976,38.8713724 94.1889976,37.8880391 C94.1889976,37.0234524 93.294331,36.8619991 92.6197977,36.8619991 C91.6812644,36.8619991 91.0208644,37.2437724 90.9479311,38.065119 L89.2749978,38.065119 C89.3921978,36.1135591 91.0495311,35.5416924 92.7228643,35.5416924 C94.204731,35.5416924 95.7593976,36.1432524 95.7593976,37.7422124 L95.7593976,41.6432523 M230.872328,19.1655995 C237.458994,19.1655995 239.948327,21.8322661 239.948327,25.0931994 L239.948941,25.815281 C239.948973,25.8702319 239.949005,25.9277793 239.949038,25.9877767 L239.949957,28.0963321 L239.950009,28.2355216 L239.950973,31.0568163 L239.95102,31.2069191 L239.951995,34.4766436 L239.952023,34.575272 L239.952327,35.6776258 C239.965661,40.5323057 241.848327,40.684919 242.486994,40.690639 C243.061661,40.6963723 243.900327,40.433359 244.316327,39.458879 C244.565661,38.8724124 245.260327,39.2260657 245.002994,39.8750257 C244.810994,40.358359 244.316327,41.9297056 240.997661,41.9433606 C237.729661,41.9573056 236.316327,40.6000257 235.909661,40.1463723 C235.542994,39.736999 235.581661,39.6484523 235.141661,40.0052257 C234.397661,40.6073057 232.729661,41.8297056 229.886994,41.8984523 C226.952328,41.9703323 222.750994,40.534919 222.660328,36.2854391 C222.569661,31.9813325 226.677661,30.9395992 228.138994,30.6067992 C228.597661,30.5021326 232.217661,29.9641326 233.506994,29.3275993 C234.718423,28.7294279 235.194178,28.1377217 235.270119,26.5344052 L235.274,26.42 L235.269661,25.552666 C235.269661,22.5691105 233.836713,20.4506168 231.509942,20.3352248 L231.308328,20.3302662 C228.444328,20.2854662 228.394994,22.4390661 228.157661,23.1359994 C227.930994,23.8041327 227.552328,25.5483994 225.945661,25.5437327 C224.164328,25.5385327 223.649661,24.5041327 223.702994,23.5234661 C223.748328,22.6578661 223.784328,19.1655995 230.872328,19.1655995 Z M279.03766,19.1655995 C285.624326,19.1655995 288.113659,21.8322661 288.113659,25.0931994 L288.113996,25.3947782 L288.114041,25.4541189 L288.114976,27.3007084 L288.115028,27.4280594 L288.11591,29.8473093 C288.115944,29.9478665 288.115977,30.0486776 288.116011,30.1495963 L288.116996,33.3241001 L288.117033,33.4513105 L288.117659,35.6776258 C288.130993,40.5323057 290.012326,40.684919 290.652326,40.690639 C291.226993,40.6963723 292.065659,40.433359 292.480326,39.458879 C292.730993,38.8724124 293.425659,39.2260657 293.168326,39.8750257 C292.976326,40.358359 292.480326,41.9297056 289.161659,41.9433606 C285.894993,41.9573056 284.480326,40.6000257 284.07366,40.1463723 C283.706993,39.736999 283.74566,39.6484523 283.30566,40.0052257 C282.562993,40.6073057 280.894993,41.8297056 278.052326,41.8984523 C275.116326,41.9703323 270.914993,40.534919 270.82566,36.2854391 C270.734993,31.9813325 274.842993,30.9395992 276.302993,30.6067992 C276.76166,30.5021326 280.382993,29.9641326 281.672326,29.3275993 C282.883755,28.7294279 283.35853,28.1377217 283.435032,26.5344052 L283.438,26.443 L283.43366,25.552666 C283.43366,22.5691105 282.001972,20.4506168 279.674045,20.3352248 L279.472326,20.3302662 C276.608326,20.2854662 276.558993,22.4390661 276.322993,23.1359994 C276.094993,23.8041327 275.716326,25.5483994 274.10966,25.5437327 C272.328327,25.5385327 271.814993,24.5041327 271.866993,23.5234661 C271.91366,22.6578661 271.94966,19.1655995 279.03766,19.1655995 Z M265.608327,6.39358236 C266.560327,6.38079984 266.600327,7.20319982 266.600327,7.51719981 L266.600327,32.6833325 C266.600327,40.6765856 269.182993,40.3734523 269.642993,40.4276257 C270.318993,40.5078257 270.496327,40.9968923 269.748327,41.1463723 C268.964327,41.3026256 265.24166,41.766159 263.622993,41.9297056 C262.198993,42.0739723 262.266993,41.0672123 262.15366,40.5057457 C262.00566,39.7765857 262.074993,39.740639 261.272327,40.2317857 C260.560327,40.6672123 258.556327,41.9297056 255.734994,41.9297056 C249.936327,41.9297056 244.345661,38.1812657 244.345661,30.2926659 C244.345661,22.8453328 250.458994,19.2969329 255.434994,19.3098662 C258.476327,19.3187995 260.90166,20.8207995 261.416327,21.2166661 C261.860216,21.5590272 261.989683,21.5572643 262.020337,21.0328735 L262.021,21.007 L262.004,31.358 L262.002624,31.1617106 C261.954076,24.629409 260.937361,20.9047204 256.501679,20.5158966 L256.256327,20.4979995 C252.788327,20.2958662 249.544327,24.1551994 249.544327,29.9797326 C249.544327,35.2297058 251.97366,40.714079 256.55766,40.7281456 C259.41766,40.7368409 261.993423,38.4033605 262.006186,31.893123 L262.005,31.688 L262.006683,31.7082152 C262.013594,32.14243 262.018164,31.7080878 262.021044,30.726768 L262.021858,30.4162844 L262.022046,30.3337617 L262.022956,29.8578406 L262.023121,29.7546544 L262.023845,29.2088342 C262.023931,29.1328692 262.024013,29.0556725 262.02409,28.9772971 L262.024955,27.7198575 L262.02501,27.5859134 L262.025074,24.5262784 C262.025047,24.4237013 262.025018,24.3207903 262.024986,24.2175984 L262.024013,22.027374 L262.023924,21.8706397 L262.023,20.959 L262.024764,20.9348724 C262.03058,20.7623741 262.028945,20.5437575 262.025345,20.274481 L262.022,20.118 L262.022124,19.2648874 C262.022046,19.1662229 262.021967,19.0681224 262.021888,18.9706387 L262.021165,18.1113642 C262.021083,18.0180565 262.021002,17.925524 262.020921,17.8338195 L262.02019,17.0322617 C262.02011,16.9460007 262.020029,16.8607261 262.019949,16.7764908 L262.019014,15.818932 L262.018902,15.7072623 L262.018157,14.9814226 C262.018089,14.9171955 262.018024,14.8544302 262.017959,14.7931794 L262.017106,13.9946121 C262.017058,13.9498273 262.017011,13.9068212 262.016967,13.8656464 L262.016327,13.2374663 C262.016327,7.66093314 258.63366,7.38599982 257.862994,7.32079982 C257.092327,7.25519982 257.432327,6.81199983 257.876327,6.77293316 C258.10467,6.75256745 259.891034,6.6563108 261.702164,6.5658111 L262.304688,6.53596975 C263.802776,6.46245944 265.199755,6.39924699 265.608327,6.39358236 Z M234.953661,29.8463993 C232.356328,30.8406659 231.000328,31.7161325 231.000328,31.7161325 C228.076328,33.4057325 227.441661,35.8375191 227.469661,37.0000257 C227.497661,38.162519 228.225661,40.6260657 231.188328,40.634399 C233.649661,40.634399 235.321661,38.0510657 235.321661,34.8119991 L235.296327,30.3849326 L235.294402,30.2670711 C235.278963,29.8301342 235.170276,29.7982762 234.953661,29.8463993 Z M283.118993,29.8463993 C280.52166,30.8406659 279.164326,31.7161325 279.164326,31.7161325 C276.24166,33.4057325 275.60566,35.8375191 275.63366,37.0000257 C275.66166,38.162519 276.390993,40.6260657 279.35366,40.634399 C281.814993,40.634399 283.486993,38.0510657 283.486993,34.8119991 L283.46,30.382 L283.458423,30.2670711 C283.443159,29.8301342 283.335608,29.7982762 283.118993,29.8463993 Z M274.85366,6.57453317 L274.85366,17.5515996 L269.364327,17.5515996 L269.364327,6.57453317 L274.85366,6.57453317 Z M291.310993,6.57453317 L291.310993,17.5515996 L285.822993,17.5515996 L285.822993,6.57453317 L291.310993,6.57453317 Z M280.319,7.412 L280.32726,7.42749978 C280.343437,7.45991436 280.382282,7.53771667 280.434193,7.64150191 L280.688771,8.14922196 C280.851378,8.47256512 281.015437,8.79650645 281.058993,8.87453311 C281.14966,9.04119977 281.242993,9.05893311 281.414993,8.95519978 C281.588326,8.85106645 282.112326,8.53959979 282.112326,8.53959979 C282.112326,8.53959979 281.73233,10.2887569 281.62941,10.7887015 L281.60566,10.9083997 C281.570993,11.1098664 281.754993,11.2426664 281.94566,11.0698664 L282.95366,9.95786642 L283.196326,10.5333331 C283.24166,10.6374664 283.29366,10.7073331 283.444326,10.6838664 C283.632326,10.6551997 284.43766,10.4734664 284.43766,10.4734664 L284.10166,11.6562664 C284.072326,11.7598664 284.044326,11.9155997 284.228326,12.002133 L284.53366,12.1515997 L282.602993,13.824533 C282.538993,13.8822663 282.418993,13.9322663 282.50966,14.208933 C282.52003,14.2397182 282.530878,14.2716984 282.541969,14.3042281 L282.609561,14.5008342 C282.676326,14.6937033 282.734993,14.8598663 282.734993,14.8598663 C282.734993,14.8598663 281.00566,14.509333 280.82166,14.4687996 C280.63766,14.4286663 280.48166,14.491733 280.48166,14.6759996 C280.48166,14.8598663 280.556326,16.7103996 280.556326,16.7103996 L280.082993,16.7103996 C280.082993,16.7103996 280.15766,14.8598663 280.15766,14.6759996 C280.15766,14.491733 280.002993,14.4286663 279.81766,14.4687996 C279.63366,14.509333 277.904326,14.8598663 277.904326,14.8598663 C277.904326,14.8598663 278.036326,14.4859996 278.128326,14.208933 C278.22166,13.9322663 278.100326,13.8822663 278.036326,13.824533 L276.10566,12.1515997 L276.410993,12.002133 C276.594993,11.9155997 276.56566,11.7598664 276.53766,11.6562664 L276.16966,10.4734664 C276.16966,10.4734664 277.006993,10.6551997 277.194993,10.6838664 C277.34566,10.7073331 277.396326,10.6374664 277.442993,10.5333331 L277.684326,9.95786642 L278.69366,11.0698664 C278.884326,11.2426664 279.068326,11.1098664 279.03366,10.9083997 C279.002993,10.7245331 278.526993,8.53959979 278.526993,8.53959979 C278.526993,8.53959979 279.050993,8.85106645 279.224326,8.95519978 C279.396326,9.05893311 279.488326,9.04119977 279.58166,8.87453311 C279.623971,8.79650645 279.787657,8.47256512 279.95022,8.14922196 L280.204943,7.64150191 C280.274246,7.50312159 280.320326,7.41093315 280.320326,7.41093315 L280.319,7.412 Z M168.244329,7.73133314 C168.636329,7.86933314 169.849662,8.33599979 170.232329,7.42866648 C170.614996,6.5202665 170.368329,7.14266649 170.497662,6.84119983 C170.689662,6.39373317 171.588329,6.01559985 171.761662,7.06466649 C171.936329,8.1135998 172.552329,17.1765329 172.580329,17.6609329 C172.642996,18.7286662 171.201662,18.8354662 171.121662,17.7807996 C171.017662,16.3833329 168.220329,7.18546649 160.580329,7.34119982 C153.770996,7.48079981 149.285663,15.3583996 149.54833,25.5437327 C149.794996,35.0651191 154.385663,40.311479 161.914996,40.1578257 C169.166996,40.009919 171.184329,34.4937325 172.253662,31.1193326 C172.696329,29.7202659 173.996329,30.1098659 173.692329,31.3874659 C172.352329,37.0161591 168.094996,41.7828256 160.400329,41.940119 C151.98433,42.1114789 142.90833,35.7526258 142.678996,24.5150661 C142.442996,12.9442663 151.585663,6.24426651 160.609663,6.05986652 C164.429663,5.98226652 166.905662,7.26039982 168.244329,7.73133314 M182.080329,19.1655995 C188.668329,19.1655995 191.156329,21.8322661 191.156329,25.0931994 L191.156931,25.3947782 C191.15698,25.4328331 191.157027,25.4739236 191.157074,25.5179033 L191.157989,26.8159764 C191.158029,26.8932315 191.158069,26.972351 191.158108,27.0531884 L191.158944,29.2481851 C191.158975,29.3471408 191.159005,29.4466433 191.159035,29.5465461 L191.159983,33.5761568 C191.159998,33.6585752 191.160013,33.7393444 191.160027,33.8183179 L191.160329,35.6776258 C191.173662,40.5323057 193.056329,40.684919 193.696328,40.690639 C194.270995,40.6963723 195.109662,40.433359 195.524328,39.458879 C195.774995,38.8724124 196.469662,39.2260657 196.210995,39.8750257 C196.020328,40.358359 195.524328,41.9297056 192.205662,41.9433606 C188.938995,41.9573056 187.524329,40.6000257 187.117662,40.1463723 C186.750995,39.736999 186.789662,39.6484523 186.349662,40.0052257 C185.606995,40.6073057 183.938995,41.8297056 181.094995,41.8984523 C178.160329,41.9703323 173.958996,40.534919 173.868329,36.2854391 C173.778996,31.9813325 177.886996,30.9395992 179.346996,30.6067992 C179.805662,30.5021326 183.425662,29.9641326 184.716329,29.3275993 C185.926614,28.7294279 186.402206,28.1377217 186.478125,26.5344052 L186.482,26.418 L186.477662,25.552666 C186.477662,22.5691105 185.045975,20.4506168 182.718048,20.3352248 L182.516329,20.3302662 C179.652329,20.2854662 179.602996,22.4390661 179.365662,23.1359994 C179.138996,23.8041327 178.760329,25.5483994 177.153662,25.5437327 C175.372329,25.5385327 174.858996,24.5041327 174.910996,23.5234661 C174.957662,22.6578661 174.993662,19.1655995 182.080329,19.1655995 Z M211.024328,19.7807995 C218.972328,19.7807995 218.746995,24.8775994 218.761661,26.8983993 L218.781661,35.3567858 C218.782995,39.9297057 220.225661,40.912519 221.088328,41.108879 C222.502994,41.4312656 221.953661,41.9427323 221.156328,41.9433598 L220.603065,41.9430272 C220.553421,41.9429801 220.500846,41.9429291 220.445507,41.9428744 L219.659682,41.9420587 C219.584955,41.9419787 219.508143,41.941896 219.429416,41.9418109 L218.935438,41.941273 C218.849731,41.9411792 218.762448,41.9410834 218.67376,41.9409859 L217.842187,41.940069 C217.74659,41.9399634 217.650096,41.9398569 217.552875,41.9397497 L216.962176,41.9390997 C216.862724,41.9389906 216.762883,41.9388812 216.662824,41.9387719 L216.061205,41.9381177 C215.96095,41.9380094 215.860817,41.9379015 215.760973,41.9377944 L215.166753,41.9371626 C215.068749,41.9370594 214.971375,41.9369574 214.8748,41.9368569 L214.306299,41.9362737 C214.213599,41.9361801 214.122038,41.9360884 214.031785,41.935999 L213.022391,41.9350471 C212.945316,41.9349792 212.870228,41.9349145 212.797296,41.9348532 L211.398995,41.934399 C210.861661,41.936999 210.617661,41.383359 211.764328,41.1557456 C213.004328,40.909399 214.062995,39.7312657 214.061661,36.0937724 L214.053661,27.101066 C214.029661,24.7193327 213.616328,21.1369328 209.326995,21.2755995 C203.181662,21.3349328 203.692328,28.1505326 203.722995,30.3202659 C203.728374,30.6913188 203.73161,31.8086778 203.733303,32.9650859 L203.733977,33.4990101 C203.734072,33.5876011 203.734158,33.6757793 203.734236,33.7632229 L203.734154,35.9536899 C203.73401,36.0183458 203.733845,36.0658984 203.733662,36.0937724 L203.733759,36.3874693 C203.763455,40.2245137 204.920068,40.9269609 206.136328,41.1297056 C207.425661,41.3442923 207.142995,41.9234523 206.501662,41.934399 L206.423123,41.9348162 C206.402258,41.9348888 206.377624,41.9349628 206.349399,41.9350381 L205.849688,41.9359986 C205.795575,41.9360828 205.738581,41.9361678 205.678885,41.9362537 L205.289693,41.9367772 C205.219896,41.9368657 205.147751,41.9369548 205.073436,41.9370443 L204.350811,41.9378593 C204.265076,41.9379505 204.177703,41.9380419 204.088872,41.9381333 L203.254786,41.9389531 C203.158799,41.9390436 203.061885,41.9391337 202.964222,41.9392235 L202.370686,41.9397559 C202.27074,41.9398435 202.170401,41.9399304 202.069846,41.9400166 L201.163833,41.9407691 C201.063584,41.9408498 200.963653,41.9409294 200.864217,41.9410078 L199.706126,41.9418847 C199.613494,41.9419519 199.522068,41.9420174 199.432026,41.9420812 L198.20737,41.9428938 C198.135605,41.9429375 198.066112,41.9429789 197.999069,41.9430179 L196.900328,41.9433598 C196.298995,41.9427323 195.713662,41.5067856 196.969662,41.160959 C197.932328,40.8953323 199.038995,40.413559 199.013662,35.2000258 L199.013131,34.8901433 C199.013086,34.8614897 199.013039,34.8309736 199.01299,34.7986473 L199.012008,34.0326544 C199.011951,33.9805014 199.011895,33.926854 199.01184,33.8717647 L199.011108,32.9438599 C199.011069,32.8756669 199.011032,32.8062949 199.010998,32.7357967 L199.010999,30.5969952 C199.011042,30.5104838 199.011092,30.4233193 199.011147,30.3355545 L199.011825,29.5308817 C199.011921,29.4399881 199.012024,29.3486519 199.012135,29.2569257 L199.012893,28.7023096 C199.013605,28.2369309 199.014524,27.7644322 199.015691,27.2913878 L199.017215,26.7238933 C199.017765,26.5349216 199.018357,26.3462834 199.018995,26.1583993 C199.032328,21.8365328 196.541662,21.6343995 195.984328,21.5417328 C195.426995,21.4494661 195.222995,21.1239995 195.992328,20.9322661 C196.761662,20.7411995 201.392328,20.0093328 202.164328,19.9010662 C202.936328,19.7926662 203.084328,20.0931995 203.206995,20.4494662 C203.328328,20.8046661 203.545662,21.4911995 203.669662,21.9026661 C203.830995,22.4401328 203.988328,22.3062661 204.353662,22.0223994 C204.588328,21.8390661 206.965661,19.7807995 211.024328,19.7807995 Z M186.502403,30.2670711 C186.486964,29.8301342 186.378277,29.7982762 186.161662,29.8463993 C183.564329,30.8406659 182.208329,31.7161325 182.208329,31.7161325 C179.284329,33.4057325 178.649662,35.8375191 178.677662,37.0000257 C178.705662,38.162519 179.434996,40.6260657 182.396329,40.634399 C184.858995,40.634399 186.530995,38.0510657 186.530995,34.8119991 L186.504,30.382 Z" id="Combined-Shape" fill="#FFFFFF" fill-rule="nonzero"></path>
    </g>
</svg>