<?xml version="1.0" encoding="UTF-8"?>
<svg width="235px" height="83px" viewBox="0 0 235 83" version="1.1" xmlns="http://www.w3.org/2000/svg" xmlns:xlink="http://www.w3.org/1999/xlink">
    <title>Combined Shape</title>
    <g id="Page-1" stroke="none" stroke-width="1" fill="none" fill-rule="evenodd">
        <path d="M208.114325,22.5 C203.714325,22.5 200.214325,26 200.214325,30.4 C200.214325,34.8 203.714325,38.3 208.114325,38.3 C212.514325,38.3 215.914325,34.8 215.914325,30.4 C215.914325,26 212.514325,22.5 208.114325,22.5 Z M230.314325,73.9 C227.914325,73.9 225.914325,75.9 225.914325,78.3 C225.914325,80.7 227.914325,82.7 230.314325,82.7 C232.714325,82.7 234.714325,80.7 234.714325,78.3 C234.714325,75.9 232.714325,73.9 230.314325,73.9 Z M230.314325,62.9 C227.914325,62.9 225.914325,64.9 225.914325,67.3 C225.914325,69.8 227.914325,71.7 230.314325,71.7 C232.714325,71.7 234.714325,69.7 234.714325,67.3 C234.714325,64.8 232.714325,62.9 230.314325,62.9 Z M230.314325,51.8 C227.914325,51.8 225.914325,53.8 225.914325,56.2 C225.914325,58.7 227.914325,60.6 230.314325,60.6 C232.714325,60.6 234.714325,58.6 234.714325,56.2 C234.714325,53.8 232.714325,51.8 230.314325,51.8 Z M219.214325,73.9 C216.814325,73.9 214.814325,75.9 214.814325,78.3 C214.814325,80.8 216.814325,82.7 219.214325,82.7 C221.614325,82.7 223.614325,80.7 223.614325,78.3 C223.614325,75.9 221.714325,73.9 219.214325,73.9 L219.214325,73.9 Z M219.214325,62.9 C216.814325,62.9 214.814325,64.9 214.814325,67.3 C214.814325,69.8 216.814325,71.7 219.214325,71.7 C221.614325,71.7 223.614325,69.7 223.614325,67.3 C223.614325,64.8 221.714325,62.8 219.214325,62.9 L219.214325,62.9 Z M208.114325,73.9 C205.614325,73.9 203.714325,75.9 203.714325,78.3 C203.714325,80.7 205.714325,82.7 208.114325,82.7 C210.514325,82.7 212.514325,80.7 212.514325,78.3 C212.614325,76 210.614325,74 208.114325,73.9 L208.114325,73.9 Z M208.114325,62.9 C205.614325,62.9 203.714325,64.9 203.714325,67.3 C203.714325,69.8 205.714325,71.7 208.114325,71.7 C210.514325,71.7 212.514325,69.7 212.514325,67.3 C212.614325,64.9 210.614325,62.9 208.114325,62.9 L208.114325,62.9 Z M208.114325,51.8 C205.614325,51.8 203.714325,53.8 203.714325,56.2 C203.714325,58.7 205.714325,60.6 208.114325,60.6 C210.514325,60.6 212.514325,58.6 212.514325,56.2 C212.614325,53.8 210.614325,51.8 208.114325,51.8 Z M197.014325,73.9 C194.514325,73.9 192.614325,75.9 192.614325,78.3 C192.614325,80.7 194.614325,82.7 197.014325,82.7 C199.414325,82.7 201.414325,80.7 201.414325,78.3 C201.414325,75.9 199.514325,73.9 197.014325,73.9 Z M197.014325,62.9 C194.514325,62.9 192.614325,64.9 192.614325,67.3 C192.614325,69.8 194.614325,71.7 197.014325,71.7 C199.414325,71.7 201.414325,69.7 201.414325,67.3 C201.514325,64.8 199.514325,62.9 197.014325,62.9 Z M197.014325,51.8 C194.514325,51.8 192.614325,53.8 192.614325,56.2 C192.614325,58.7 194.614325,60.6 197.014325,60.6 C199.414325,60.6 201.414325,58.6 201.414325,56.2 C201.514325,53.8 199.514325,51.8 197.014325,51.8 Z M186.014325,73.9 C183.514325,73.9 181.614325,75.9 181.614325,78.3 C181.614325,80.7 183.614325,82.7 186.014325,82.7 C188.514325,82.7 190.414325,80.7 190.414325,78.3 C190.414325,75.9 188.414325,73.9 186.014325,73.9 Z M186.014325,62.9 C183.514325,62.9 181.614325,64.9 181.614325,67.3 C181.614325,69.8 183.614325,71.7 186.014325,71.7 C188.514325,71.7 190.414325,69.7 190.414325,67.3 C190.414325,64.8 188.414325,62.9 186.014325,62.9 Z M186.014325,51.8 C183.514325,51.8 181.614325,53.8 181.614325,56.2 C181.614325,58.7 183.614325,60.6 186.014325,60.6 C188.514325,60.6 190.414325,58.6 190.414325,56.2 C190.414325,53.8 188.414325,51.8 186.014325,51.8 Z M186.014325,40.7 C183.514325,40.7 181.614325,42.7 181.614325,45.1 C181.614325,47.5 183.614325,49.5 186.014325,49.5 C188.514325,49.5 190.414325,47.5 190.414325,45.1 C190.414325,42.7 188.414325,40.7 186.014325,40.7 Z M208.114325,40.7 C205.614325,40.7 203.714325,42.7 203.714325,45.1 C203.714325,47.5 205.714325,49.5 208.114325,49.5 C210.514325,49.5 212.514325,47.5 212.514325,45.1 C212.514325,42.7 210.614325,40.7 208.114325,40.7 Z M208.114325,20 C210.514325,20 212.514325,18 212.514325,15.6 C212.514325,13.2 210.514325,11.2 208.114325,11.2 C205.714325,11.2 203.714325,13.2 203.714325,15.6 C203.714325,18 205.714325,20 208.114325,20 M208.114325,0 C205.614325,0 203.714325,2 203.714325,4.4 C203.714325,6.8 205.714325,8.8 208.114325,8.8 C210.514325,8.8 212.514325,6.8 212.514325,4.4 C212.514325,2 210.614325,0 208.114325,0 Z M186.014325,29.6 C183.514325,29.6 181.614325,31.6 181.614325,34 C181.614325,36.4 183.614325,38.4 186.014325,38.4 C188.514325,38.4 190.414325,36.4 190.414325,34 C190.414325,31.6 188.414325,29.6 186.014325,29.6 Z M174.914325,73.9 C172.414325,73.9 170.514325,75.9 170.514325,78.3 C170.514325,80.7 172.514325,82.7 174.914325,82.7 C177.314325,82.7 179.314325,80.7 179.314325,78.3 C179.314325,75.9 177.314325,73.9 174.914325,73.9 Z M174.914325,62.9 C172.414325,62.9 170.514325,64.9 170.514325,67.3 C170.514325,69.8 172.514325,71.7 174.914325,71.7 C177.314325,71.7 179.314325,69.7 179.314325,67.3 C179.314325,64.8 177.314325,62.9 174.914325,62.9 Z M174.914325,51.8 C172.414325,51.8 170.514325,53.8 170.514325,56.2 C170.514325,58.7 172.514325,60.6 174.914325,60.6 C177.314325,60.6 179.314325,58.6 179.314325,56.2 C179.314325,53.8 177.314325,51.8 174.914325,51.8 Z M156.414325,73.9 C153.914325,73.9 152.014325,75.9 152.014325,78.3 C152.014325,80.7 154.014325,82.7 156.414325,82.7 C158.814325,82.7 160.814325,80.7 160.814325,78.3 C160.814325,75.9 158.914325,73.9 156.414325,73.9 Z M163.814325,62.9 C161.314325,62.9 159.414325,64.9 159.414325,67.3 C159.414325,69.8 161.414325,71.7 163.814325,71.7 C166.214325,71.7 168.214325,69.7 168.214325,67.3 C168.214325,64.8 166.214325,62.9 163.814325,62.9 Z M163.814325,40.7 C161.314325,40.7 159.414325,42.7 159.414325,45.1 C159.414325,47.5 161.414325,49.5 163.814325,49.5 C166.214325,49.5 168.214325,47.5 168.214325,45.1 C168.214325,42.7 166.214325,40.7 163.814325,40.7 Z M156.414325,51.8 C153.914325,51.8 152.014325,53.8 152.014325,56.2 C152.014325,58.7 154.014325,60.6 156.414325,60.6 C158.814325,60.6 160.814325,58.6 160.814325,56.2 C160.814325,53.8 158.914325,51.8 156.414325,51.8 Z M12.5,30.5 C11.6,28 10.5,26.9 8.7,26.9 C6.9,26.9 5.9,28 5.9,29.9 C5.9,34 17.5,34.3 17.5,42.8 C17.5,47.5 14.3,50.5 8.9,50.5 C4.7,50.5 1.4,48.2 0,42.9 L5.1,41.8 C5.7,45.1 7.6,46.2 9.1,46.2 C10.9,46.2 12.3,45 12.3,43 C12.3,37.9 0.7,37.8 0.7,30.2 C0.7,25.5 3.5,22.6 8.8,22.6 C13.4,22.6 16.2,25.3 17.1,29.2 L12.5,30.5 L12.5,30.5 Z M26.4,42 C26.4,45 27.7,45.8 29.8,45.8 C31.9,45.8 33.2,45 33.2,42 L33.2,40.2 L38.4,40.2 L38.4,41.3 C38.4,48 34.9,50.4 29.8,50.4 C24.8,50.4 21.2,48 21.2,41.3 L21.2,31.6 C21.2,24.9 24.7,22.5 29.8,22.5 C34.8,22.5 38.4,24.9 38.4,31.6 L38.4,31.7 L33.2,31.7 L33.2,31 C33.2,28 31.9,27.2 29.8,27.2 C27.7,27.2 26.4,28 26.4,31 L26.4,42 L26.4,42 Z M42.4,50 L42.4,22.9 L47.6,22.9 L47.6,33.7 L54.9,33.7 L54.9,22.9 L60.1,22.9 L60.1,50 L54.9,50 L54.9,38.3 L47.6,38.3 L47.6,50 L42.4,50 Z M72.8,22.5 C77.8,22.5 81.4,24.9 81.4,31.6 L81.4,41.3 C81.4,48 77.9,50.4 72.8,50.4 C67.8,50.4 64.2,48 64.2,41.3 L64.2,31.6 C64.2,24.9 67.7,22.5 72.8,22.5 Z M72.8,27.2 C70.7,27.2 69.4,28 69.4,31 L69.4,42 C69.4,45 70.7,45.8 72.8,45.8 C74.9,45.8 76.2,45 76.2,42 L76.2,31 C76.2,28 74.9,27.2 72.8,27.2 Z M93.6,22.5 C98.7,22.5 102.2,24.9 102.2,31.6 L102.2,41.3 C102.2,48 98.7,50.4 93.6,50.4 C88.5,50.4 85,48 85,41.3 L85,31.6 C85,24.9 88.5,22.5 93.6,22.5 Z M93.6,27.2 C91.5,27.2 90.2,28 90.2,31 L90.2,42 C90.2,45 91.5,45.8 93.6,45.8 C95.7,45.8 97,45 97,42 L97,31 C97,28 95.7,27.2 93.6,27.2 Z M106.1,50 L106.1,22.9 L111.3,22.9 L111.3,45.4 L119.7,45.4 L119.7,50 L106.1,50 L106.1,50 Z M9.2,54.9 C14.3,54.9 17.8,57.3 17.8,64 L17.8,73.7 C17.8,80.4 14.3,82.8 9.2,82.8 C4.1,82.8 0.6,80.4 0.6,73.7 L0.6,64 C0.6,57.3 4.1,54.9 9.2,54.9 Z M9.2,59.6 C7.1,59.6 5.8,60.4 5.8,63.4 L5.8,74.4 C5.8,77.4 7.1,78.2 9.2,78.2 C11.3,78.2 12.6,77.4 12.6,74.4 L12.6,63.4 C12.6,60.4 11.3,59.6 9.2,59.6 Z M21.8,82.5 L21.8,55.3 L35.3,55.3 L35.3,59.9 L27,59.9 L27,66.1 L33.5,66.1 L33.5,70.7 L27,70.7 L27,82.4 L21.8,82.4 L21.8,82.5 Z M51.2,74.4 C51.2,77.4 52.5,78.2 54.6,78.2 C56.7,78.2 58,77.4 58,74.4 L58,72.6 L63.2,72.6 L63.2,73.7 C63.2,80.4 59.7,82.8 54.6,82.8 C49.5,82.8 46,80.4 46,73.7 L46,64 C46,57.3 49.5,54.9 54.6,54.9 C59.7,54.9 63.2,57.3 63.2,64 L63.2,64.1 L58,64.1 L58,63.4 C58,60.4 56.7,59.6 54.6,59.6 C52.5,59.6 51.2,60.4 51.2,63.4 L51.2,74.4 L51.2,74.4 Z M67.2,82.5 L67.2,55.3 L72.4,55.3 L72.4,82.5 L67.2,82.5 Z M93.1,55.3 L93.1,59.9 L87,59.9 L87,82.4 L81.8,82.4 L81.8,59.9 L75.8,59.9 L75.8,55.3 L93.1,55.3 Z M96.5,82.5 L96.5,55.3 L101.7,55.3 L101.7,82.5 L96.5,82.5 Z M106.2,82.5 L106.2,55.3 L120.4,55.3 L120.4,59.9 L111.3,59.9 L111.3,66.1 L118.2,66.1 L118.2,70.7 L111.3,70.7 L111.3,77.9 L120.7,77.9 L120.7,82.4 L106.2,82.4 L106.2,82.5 Z M136.3,62.9 C135.4,60.4 134.3,59.3 132.5,59.3 C130.7,59.3 129.7,60.4 129.7,62.3 C129.7,66.4 141.3,66.7 141.3,75.2 C141.3,79.9 138.1,82.9 132.7,82.9 C128.5,82.9 125.2,80.6 123.8,75.3 L128.9,74.2 C129.5,77.5 131.4,78.6 132.9,78.6 C134.7,78.6 136.1,77.4 136.1,75.4 C136.1,70.3 124.5,70.2 124.5,62.6 C124.5,57.9 127.3,55 132.6,55 C137.2,55 140,57.7 140.9,61.6 L136.3,62.9 L136.3,62.9 Z" id="Combined-Shape" fill="#FFFFFF" fill-rule="nonzero"></path>
    </g>
</svg>