<?xml version="1.0" encoding="UTF-8"?>
<svg width="202.719396px" height="205.343628px" viewBox="0 0 202.719396 205.343628" version="1.1" xmlns="http://www.w3.org/2000/svg" xmlns:xlink="http://www.w3.org/1999/xlink">
    <g id="Brampton" stroke="none" stroke-width="1" fill="none" fill-rule="evenodd">
        <g id="Brampton" transform="translate(-57.9829, -5.9163)" fill="#00ADF2" stroke="#00ADF2" stroke-width="2">
            <polygon points="131.89348 6.84498745 129.047088 8.41941137 131.615424 21.5012545 135.10561 28.348638 139.665976 48.5774595 145.787853 68.7025753 147.41256 68.7127992 148.640455 74.5710534 153.330757 73.6904828 155.842512 80.856924 176.772244 72.7166573 185.262048 101.242123 178.289264 102.758579 180.080904 110.37554 190.31906 107.579294 193.621319 119.236043 220.18342 126.227127 257.161747 110.400097 259.322253 114.443781 216.705767 134.266376 219.238038 139.807685 210.996296 144.111983 195.73865 148.112608 169.779252 160.887517 173.563655 170.337637 186.700084 164.438549 193.983963 180.086278 160.302242 197.104602 157.574148 191.626553 150.58083 194.768496 144.581139 180.428346 136.225298 183.366588 134.726719 178.351215 66.8692625 209.846144 59.1789545 179.760433 122.174576 157.728745 115.664169 137.404377 107.195145 107.251518 151.92676 116.634691 151.552233 110.06664 144.786973 110.544109 143.207254 101.563142 136.716269 100.872207 139.177214 91.0065978 132.443873 88.8839626 116.583513 46.7897884 111.385811 15.0348141"></polygon>
        </g>
    </g>
</svg>