<?xml version="1.0" encoding="UTF-8"?>
<svg width="266.553237px" height="270.278249px" viewBox="0 0 266.553237 270.278249" version="1.1" xmlns="http://www.w3.org/2000/svg" xmlns:xlink="http://www.w3.org/1999/xlink">
    <title>Brampton</title>
    <g id="Page-1" stroke="none" stroke-width="1" fill="none" fill-rule="evenodd">
        <polygon id="Brampton" stroke="#0098D6" stroke-width="2" fill-rule="nonzero" transform="translate(133.5511, 134.7041) rotate(38) translate(-133.5511, -134.7041)" points="55.7803255 34.7041199 54.5066505 37.6971965 64.5845138 46.424604 71.5504882 49.6716427 87.5982119 62.8045298 104.812575 74.8943338 106.099156 73.9021209 110.673452 77.7625205 113.827327 74.1809832 120.218719 78.2818249 131.699924 58.9815777 155.952011 76.2331062 151.391006 81.7209645 157.492307 86.6201675 163.838543 78.1134571 173.61737 85.266027 198.852732 74.4218144 218.247959 39.1838136 222.440001 41.0401397 201.06176 82.8978859 206.468788 85.7054758 202.624196 94.1714317 193.064038 106.717512 180.472772 132.766479 189.272998 137.883364 195.992804 125.147226 211.366283 132.993401 195.302251 167.140561 189.77986 164.503382 186.203423 171.284784 172.646924 163.67837 167.871394 171.138106 163.602726 168.108555 129.520535 234.70412 104.937876 215.730882 141.015042 159.585698 123.371841 147.578084 98.1342047 129.031359 139.160057 108.885868 134.82123 103.940755 129.784091 108.482116 123.01002 102.377589 117.469672 105.829374 113.335048 96.540059 106.722278 99.0128585 68.3083826 75.6068089 44.6622229 53.7835728"></polygon>
    </g>
</svg>