<?xml version="1.0" encoding="UTF-8"?>
<svg width="87.381784px" height="208.394739px" viewBox="0 0 87.381784 208.394739" version="1.1" xmlns="http://www.w3.org/2000/svg" xmlns:xlink="http://www.w3.org/1999/xlink">
    <g id="DowntownYonge" stroke="none" stroke-width="1" fill="none" fill-rule="evenodd">
        <polygon id="DowntownYonge" stroke="#0098D6" stroke-width="2" points="56.9544091 164.415513 57.7482381 207.381173 10.0442205 206.750099 9.83232595 195.035827 2.95042196 189.715249 2.6262093 166.583068 3.23216115 166.592932 2.70504763 129.109211 2.21761622 99.9548879 1.99729067 71.222046 0.999502722 28.4236745 1.31117669 18.5444219 2.41638432 15.7189214 2.9028994 11.7765618 2.73394034 1.02191404 35.723569 1.72594873 38.9456885 3.96940632 51.0460152 4.18354699 51.2615415 20.0136323 86.0239953 20.6352513 86.3663292 43.2806167 60.896551 42.9126739 60.9150552 48.3085763 47.1872515 48.1049628 47.537704 67.2772142 56.5152193 67.4201526 57.1282532 104.732747 71.5871349 104.980526 72.0500917 139.269207 72.1693694 147.605882 72.4070606 164.69669"></polygon>
    </g>
</svg>