<?xml version="1.0" encoding="UTF-8"?>
<svg width="226.003416px" height="248.51963px" viewBox="0 0 226.003416 248.51963" version="1.1" xmlns="http://www.w3.org/2000/svg" xmlns:xlink="http://www.w3.org/1999/xlink">
    <title>DowntownYonge</title>
    <g id="Page-1" stroke="none" stroke-width="1" fill="none" fill-rule="evenodd">
        <polygon id="DowntownYonge" stroke="#0098D6" stroke-width="2" fill-rule="nonzero" transform="translate(113.003, 124.259) rotate(28) translate(-113.003, -124.259)" points="182.563734 196.720857 185.730293 202.420568 180.210057 205.262889 178.132177 206.332847 172.80509 209.075924 157.264671 217.076764 155.098174 218.192016 143.313874 224.259042 140.991532 220.075165 139.908076 218.123795 137.627265 214.015433 134.995222 213.564908 129.053044 212.548499 127.194922 209.168995 124.653319 204.546296 122.785249 201.148595 121.799362 199.35539 117.90688 192.276204 118.446535 192.000437 112.663352 181.482825 111.498244 179.363831 107.298547 171.726699 100.38358 159.15174 88.8140641 138.243978 86.2660781 133.638836 72.58229 108.372679 69.5956992 103.058239 68.4936748 101.096929 59.9971275 85.9781825 55.9149783 78.7148579 51.6086772 71.052393 47.2458408 62.1832086 46.8951891 59.1695762 45.4739307 55.4602743 40.2757474 46.0438054 54.0448359 39.0955281 56.1906916 38.0127432 69.7343849 31.1777386 73.6325871 31.6459006 84.4170744 26.1542163 92.0391477 40.0301686 94.082129 38.9902718 101.368223 35.2820922 111.682771 30.0325054 113.967312 28.8696359 123.024405 24.2590421 126.774305 31.0614196 127.76873 32.865206 133.958023 44.0929969 111.296805 55.7254592 113.846366 60.4810711 107.995789 63.4814763 106.413711 64.2926631 101.629844 66.7461045 110.940102 83.5096702 118.933883 79.4211892 123.69628 88.0343275 127.861574 95.5674866 132.036733 103.117721 133.548929 105.851979 136.992362 112.078453 149.875122 105.509195 151.524594 108.513849 152.721452 110.694089 154.305685 113.579297 161.20714 126.14608 166.381449 135.566958 170.400597 142.871808 173.938697 149.308794 175.029945 151.293753 178.634114 157.850506 174.762605 159.819351 172.373697 161.034568 164.858228 164.856822 168.234349 170.932346 169.498104 173.206139 172.600833 178.789772 177.196442 187.059965 178.656828 189.688486"></polygon>
    </g>
</svg>