<?xml version="1.0" encoding="UTF-8"?>
<svg width="413.861414px" height="332.601812px" viewBox="0 0 413.861414 332.601812" version="1.1" xmlns="http://www.w3.org/2000/svg" xmlns:xlink="http://www.w3.org/1999/xlink">
    <title>EtobicokeLakeshore</title>
    <g id="Page-1" stroke="none" stroke-width="1" fill="none" fill-rule="evenodd">
        <polygon id="EtobicokeLakeshore" stroke="#0098D6" stroke-width="2" fill-rule="nonzero" transform="translate(206.9017, 166.325) rotate(24) translate(-206.9017, -166.325)" points="110.308711 214.014442 114.265111 212.09223 111.404751 207.251921 105.540608 197.458234 130.586228 185.616414 140.406386 184.871171 148.41107 181.098359 144.44386 174.501162 146.652541 173.461249 146.749057 173.641135 151.651125 171.331054 154.098974 175.428861 164.133013 170.700767 170.754038 167.574689 195.385602 155.938967 202.008172 152.811346 226.705368 141.163632 264.649826 123.314984 275.980658 117.967054 276.216158 117.2852 275.528961 116.132216 288.365257 110.073993 294.99188 106.955966 319.684829 95.334806 317.988071 92.4965451 316.281661 89.6425227 322.935501 86.5712664 362.629609 67.8822938 365.850361 66.3249937 378.459071 87.0059056 380.27937 90.2834314 386.901746 100.86365 383.594901 102.417524 377.57112 105.250474 375.563193 106.194448 368.946028 109.307164 354.510649 116.112 347.284659 119.518358 340.128933 121.733357 311.846153 135.071144 305.220109 138.19157 280.551096 149.836543 273.393439 152.071414 273.92621 152.962279 251.933211 163.337599 249.21666 164.619073 242.596407 167.747037 217.916391 179.385842 211.306562 182.503526 186.613613 194.126742 179.980427 197.231234 154.908361 209.058664 146.88032 212.863513 121.792811 224.709445 115.171207 227.834838 92.5224755 238.513223 85.8979758 241.633306 63.2172005 252.315117 57.1364742 256.300024 38.8304014 264.945866 35.0959888 266.324994 26.9017463 252.404546 51.9543156 240.314826 81.56825 226.78259"></polygon>
    </g>
</svg>