<?xml version="1.0" encoding="UTF-8"?>
<svg width="392.777761px" height="50.4641538px" viewBox="0 0 392.777761 50.4641538" version="1.1" xmlns="http://www.w3.org/2000/svg" xmlns:xlink="http://www.w3.org/1999/xlink">
    <g id="EtobicokeLakeshore" stroke="none" stroke-width="1" fill="none" fill-rule="evenodd">
        <g id="EtobicokeLakeshore" transform="translate(-4.5457, -136.8347)" fill="#00ADF2" stroke="#00ADF2" stroke-width="2">
            <polygon points="97.4726721 168.845693 101.868857 168.698878 101.22452 163.113623 99.8508097 151.781483 127.547624 151.150413 136.821903 154.463818 145.669086 154.272981 144.728181 146.632532 147.168882 146.580876 147.183888 146.784466 152.601745 146.667953 153.171238 151.407116 164.260877 151.168998 171.580975 151.006197 206.13784 150.231414 233.437403 149.635952 275.36109 148.763803 287.887519 148.48689 288.379994 147.959772 288.221169 146.62696 302.41181 146.31349 337.01863 145.58739 336.224942 139.003038 343.55272 138.903666 387.416582 137.975488 390.992296 137.862822 394.099241 161.884199 394.429077 165.61875 396.175556 177.977824 383.649042 178.235945 376.337905 178.388109 352.395993 178.906027 344.957991 178.019033 313.695419 178.700065 306.373035 178.855661 279.100333 179.460082 271.652484 178.590456 271.776847 179.621 244.462304 180.219731 237.142145 180.384569 202.555444 181.138566 175.269725 181.713375 167.947297 181.85151 140.232176 182.458677 131.350624 182.669281 96.2935217 183.449009 71.2595855 183.99213 38.8741486 184.681258 31.698321 185.848398 11.4583106 186.301017 7.48581314 186.04199 5.66195629 169.99213 33.4659493 169.137419 66.0236808 168.820178"></polygon>
        </g>
    </g>
</svg>