<?xml version="1.0" encoding="UTF-8"?>
<svg width="327.538916px" height="300.785018px" viewBox="0 0 327.538916 300.785018" version="1.1" xmlns="http://www.w3.org/2000/svg" xmlns:xlink="http://www.w3.org/1999/xlink">
    <title>GoldenMile</title>
    <g id="Page-1" stroke="none" stroke-width="1" fill="none" fill-rule="evenodd">
        <polygon id="GoldenMile" stroke="#0098D6" stroke-width="2" fill-rule="nonzero" transform="translate(163.8107, 150.2442) rotate(27) translate(-163.8107, -150.2442)" points="44.2510089 179.323281 67.2517298 167.889418 72.8353757 177.22018 86.9662846 170.647561 123.392859 152.422937 118.509816 142.752388 130.195327 138.205509 132.473922 144.659626 162.828718 129.379508 157.826623 119.486717 166.590737 116.076541 162.192524 108.410615 179.002414 99.698879 175.432689 93.0309936 260.777648 50.2442167 294.579885 114.482437 265.044746 129.645078 256.257222 115.428675 186.576716 152.858947 192.292771 164.085329 111.851964 204.493935 114.945764 210.272783 94.2848165 221.131973 91.0632034 214.015298 77.8752407 221.250543 48.6848378 250.244217 36.6757015 228.911275 45.8223944 214.676831 33.0414238 184.759198"></polygon>
    </g>
</svg>