<?xml version="1.0" encoding="UTF-8"?>
<svg width="283.781219px" height="84.8960928px" viewBox="0 0 283.781219 84.8960928" version="1.1" xmlns="http://www.w3.org/2000/svg" xmlns:xlink="http://www.w3.org/1999/xlink">
    <g id="GoldenMile" stroke="none" stroke-width="1" fill="none" fill-rule="evenodd">
        <g id="GoldenMile" transform="translate(-11.899, -101.7609)" fill="#00ADF2" stroke="#00ADF2" stroke-width="2">
            <polygon points="42.1852446 120.099334 67.8699022 120.353796 68.6088898 131.202488 84.1835284 131.76154 124.91365 132.0606 124.953164 121.227222 137.429271 122.481034 136.529406 129.266155 170.512756 129.432259 170.547089 118.346814 179.90416 119.28715 179.465581 110.460013 198.398348 110.32933 198.244856 102.767579 293.712562 103.390082 294.667034 175.97265 261.467337 176.07399 260.091708 159.417629 181.012934 161.133958 181.009306 173.731772 90.9908989 173.216742 91.1239528 179.770289 67.7849447 180.066024 68.1453692 172.262439 53.1100759 172.721879 13.9383841 185.303266 12.9231181 160.843442 27.5351835 152.312971 29.7295765 119.853726"></polygon>
        </g>
    </g>
</svg>