<?xml version="1.0" encoding="UTF-8"?>
<svg width="298.797422px" height="137.664309px" viewBox="0 0 298.797422 137.664309" version="1.1" xmlns="http://www.w3.org/2000/svg" xmlns:xlink="http://www.w3.org/1999/xlink">
    <g id="LibertyVillage" stroke="none" stroke-width="1" fill="none" fill-rule="evenodd">
        <g id="LibertyVillage" transform="translate(-52.4692, -66.9387)" stroke="#0098D6" stroke-width="2">
            <polygon points="112.501235 72.592631 117.77884 73.0570042 173.77582 77.9732733 190.579435 79.4277432 195.671383 79.8832142 207.984978 80.9544416 215.735478 81.5952526 225.620856 82.4668063 274.382573 102.972464 268.159326 118.668028 273.201845 120.788015 271.959889 123.813434 286.143253 129.769841 283.106001 142.76603 282.50643 145.028515 265.552909 140.543476 261.763919 150.820623 280.453895 162.388199 290.414543 168.556688 307.269622 179.088627 320.911148 187.643006 322.311731 188.711639 323.728055 189.95615 326.684271 193.073113 328.357601 190.559786 347.812866 202.794051 53.5343037 203.600115 58.5835588 123.437837 58.8894007 118.236915 62.4220852 68.5706811 62.0567697 68.1536513 91.3022299 70.732145"></polygon>
        </g>
    </g>
</svg>