<?xml version="1.0" encoding="UTF-8"?>
<svg width="378.980235px" height="338.644409px" viewBox="0 0 378.980235 338.644409" version="1.1" xmlns="http://www.w3.org/2000/svg" xmlns:xlink="http://www.w3.org/1999/xlink">
    <title>LibertyVillage</title>
    <g id="Page-1" stroke="none" stroke-width="1" fill="none" fill-rule="evenodd">
        <polygon id="LibertyVillage" stroke="#0098D6" stroke-width="2" fill-rule="nonzero" transform="translate(189.2222, 168.9985) rotate(31) translate(-189.2222, -168.9985)" points="82.3678691 124.01286 127.924174 101.810191 132.898715 99.3863484 148.051332 91.9785707 152.650568 89.7464386 153.820225 89.1758404 163.757102 84.3226894 170.730619 80.8801692 179.652925 76.5358905 196.879799 74.0557881 232.011069 68.9985283 234.760518 85.6574626 240.174675 84.8775562 240.668317 88.1105015 255.893609 85.9111655 259.983708 98.6153743 260.635041 100.863505 243.793071 105.750785 245.838395 116.511493 267.816573 116.800792 279.531522 116.958106 299.403494 117.304732 315.502395 117.611361 317.253316 117.806005 319.108313 118.143298 323.247639 119.292493 323.387504 116.276322 346.365033 116.742932 94.5342259 268.998528 57.5756568 197.685486 55.1591419 193.069906 32.6072418 148.678167 32.0793191 148.508854 53.7135934 137.977451 58.4755937 135.656529 77.6049089 126.332982"></polygon>
    </g>
</svg>