<?xml version="1.0" encoding="UTF-8"?>
<svg width="210.395017px" height="228.523099px" viewBox="0 0 210.395017 228.523099" version="1.1" xmlns="http://www.w3.org/2000/svg" xmlns:xlink="http://www.w3.org/1999/xlink">
    <title>MississaugaDundas</title>
    <g id="Page-1" stroke="none" stroke-width="1" fill="none" fill-rule="evenodd">
        <polygon id="MississaugaDundas" stroke="#0098D6" stroke-width="2" fill-rule="nonzero" transform="translate(105.265, 114.4004) rotate(37) translate(-105.265, -114.4004)" points="51.2109801 209.852115 58.130802 199.188576 55.6640843 197.453474 61.9775912 185.754195 63.7210104 186.811095 66.0443626 181.532482 71.8923411 171.560669 69.8463222 170.060189 70.3752021 168.30107 74.1235051 161.555257 83.3260648 144.216402 91.6036922 130.180449 99.0619896 115.589333 100.653564 116.350127 105.096725 106.567269 107.921087 108.121323 110.583339 103.64107 106.161725 100.583161 107.749307 92.9916452 111.763017 85.7385284 113.355731 86.6479545 116.568683 80.3223193 118.072556 81.3512862 124.023856 69.2386021 125.686245 62.6537362 133.19505 46.8435649 135.589366 43.0208714 142.618162 30.9595211 143.010446 27.4788724 148.959489 15.0689745 151.900785 16.2654659 154.848627 14.4003541 159.319088 23.8485083 153.881543 32.717433 153.446687 38.4573849 144.524014 53.2676062 143.182226 53.8722071 138.599047 61.4877642 140.312117 62.485448 137.457678 64.8254222 135.288179 66.7440847 133.976766 67.4079017 133.09282 69.1979834 134.119833 70.4683473 130.317601 77.9873948 129.174794 77.223201 122.448225 90.6234177 126.720251 93.6824592 122.138559 100.999325 121.204948 100.203823 111.509611 115.703504 113.016881 117.178341 109.139941 123.242922 111.363666 124.504271 108.28327 128.599644 105.490397 127.253437 92.0828083 150.301207 90.7038525 149.954925 84.7654462 160.792787 87.7686559 162.256343 85.8770362 165.302403 84.8872399 164.982921 74.3159152 183.312981 80.3234502 186.38865 59.0249636 214.400354"></polygon>
    </g>
</svg>