<?xml version="1.0" encoding="UTF-8"?>
<svg width="202.931223px" height="107.592442px" viewBox="0 0 202.931223 107.592442" version="1.1" xmlns="http://www.w3.org/2000/svg" xmlns:xlink="http://www.w3.org/1999/xlink">
    <g id="MississaugaDundas" stroke="none" stroke-width="1" fill="none" fill-rule="evenodd">
        <polygon id="MississaugaDundas" fill="#00ADF2" stroke="#00ADF2" stroke-width="2" points="1.32861889 98.0550419 13.2725123 93.7032138 12.3467145 90.832992 24.4297071 85.2890956 25.1860053 87.1823894 30.2182655 84.3649298 40.8898556 79.9204872 40.1588437 77.4908257 41.6398902 76.4042186 48.6931497 73.2725579 66.4774241 64.9633713 81.5352786 58.7353613 96.2728926 51.5708934 97.0861232 53.1363238 106.52206 47.9973471 107.842443 50.9382133 112.664896 48.9623074 110.973933 43.8591589 116.810521 38.7517356 124.381047 35.3746499 125.105738 37.0594691 131.478578 33.941195 132.060377 35.6680178 144.102892 29.5759799 149.393406 25.3175229 164.905003 17.2098703 169.117743 15.5978669 181.989891 10.1952793 184.397889 7.65159202 196.617469 1.32083033 198.246426 4.04650697 201.72313 4.33101806 199.607358 14.5670401 189.927289 18.377682 186.125608 22.7001086 170.086631 29.1582786 168.651174 28.8336261 160.407727 32.1574545 161.175425 33.9851914 157.487537 34.1361337 154.600218 34.3628086 153.153382 34.1037284 151.370133 35.0013792 151.425818 36.6340088 143.864145 40.3507468 143.411362 39.052676 129.974834 45.7064147 131.545648 50.7204432 123.483146 53.806621 123.216277 52.6094437 106.145295 59.1532399 106.461476 61.2381949 99.7154576 63.7483839 100.732305 66.0940131 95.807534 67.5108948 94.387214 64.7549731 69.8089433 75.0928524 68.916058 73.986423 57.6510477 79.0681023 59.1687276 82.0443268 55.8248482 83.3386133 55.2266308 82.4877894 35.7526901 90.7648442 38.699537 96.8366075 4.83194497 106.39"></polygon>
    </g>
</svg>