<?xml version="1.0" encoding="UTF-8"?>
<svg width="201.910445px" height="238.83522px" viewBox="0 0 201.910445 238.83522" version="1.1" xmlns="http://www.w3.org/2000/svg" xmlns:xlink="http://www.w3.org/1999/xlink">
    <title>Newmarket</title>
    <g id="Page-1" stroke="none" stroke-width="1" fill="none" fill-rule="evenodd">
        <polygon id="Newmarket" stroke="#0098D6" stroke-width="2" fill-rule="nonzero" transform="translate(100.5942, 119.5948) rotate(22) translate(-100.5942, -119.5948)" points="165.277194 210.953551 156.48189 214.561102 147.69671 219.594814 143.118925 218.77622 138.902408 208.313853 134.280217 208.807135 130.733206 201.705147 133.175466 197.235947 126.374848 186.452202 115.667556 170.908496 109.184399 159.380576 97.8385751 152.341418 90.2155837 146.869706 75.3666537 123.829174 67.8079165 112.31029 55.7094863 97.8041779 42.737059 73.8931728 34.8806074 58.3831679 36.3946404 51.9819806 33.9275205 45.4420577 34.0698621 27.7570397 41.7568069 19.5948136 49.2147021 32.0275454 55.591804 28.7246808 70.2258183 44.2941134 66.8513212 46.2608637 78.3496113 67.1036321 65.7614059 74.3355321 69.8059107 83.3160326 74.8991319 80.9932474 87.2286165 105.251783 94.5206136 117.058344 100.65774 125.337193 103.603608 123.602094 109.753064 133.592441 113.032733 133.394703 115.538245 137.766948 116.716974 137.130146 121.179983 144.452942 122.839966 143.413222 157.384656 197.897412 161.986498 194.551705 166.332125 200.506386 162.753438 204.014962 167.260854 210.025457"></polygon>
    </g>
</svg>