<?xml version="1.0" encoding="UTF-8"?>
<svg width="70.8475379px" height="227.623547px" viewBox="0 0 70.8475379 227.623547" version="1.1" xmlns="http://www.w3.org/2000/svg" xmlns:xlink="http://www.w3.org/1999/xlink">
    <g id="Newmarket" stroke="none" stroke-width="1" fill="none" fill-rule="evenodd">
        <polygon id="Newmarket" fill="#00ADF2" stroke="#00ADF2" stroke-width="2" points="64.7751425 225.157149 55.2688662 225.207233 45.2377276 226.583423 41.2999298 224.109568 41.309715 212.829495 36.8393074 211.555355 36.2110276 203.641773 40.1496435 200.412889 37.8838822 187.866819 33.7790287 169.443923 32.0863851 156.326789 24.2036353 145.549974 19.1854602 137.621069 14.0489072 110.695752 11.355618 97.1840762 5.57223412 79.2020916 2.50162914 52.1726369 1.02740416 34.8489322 4.82911808 29.4810214 4.99154258 22.4931111 11.7484438 6.14917005 21.9332786 1.460866 24.1907353 15.7820709 31.3407561 15.1086126 39.0767658 35.0263374 35.2112289 35.5857676 38.0644194 59.2181813 23.6837211 61.2078574 24.069566 71.0495307 29.6620491 70.803836 32.0063408 97.9146647 34.3445472 111.593148 36.9334802 121.568171 40.314821 121.062957 42.2740475 132.629472 45.3889776 133.674718 46.0741761 138.667174 47.4056248 138.518301 48.800487 146.979752 50.7290824 146.637581 62.3482244 210.095111 67.8683019 208.716906 69.6668344 215.865891 65.0343979 217.778386 66.9620301 225.039728"></polygon>
    </g>
</svg>