<?xml version="1.0" encoding="UTF-8"?>
<svg width="195.934596px" height="232.950928px" viewBox="0 0 195.934596 232.950928" version="1.1" xmlns="http://www.w3.org/2000/svg" xmlns:xlink="http://www.w3.org/1999/xlink">
    <title>NorthYorkCentre</title>
    <g id="Page-1" stroke="none" stroke-width="1" fill="none" fill-rule="evenodd">
        <polygon id="NorthYorkCentre" stroke="#0098D6" stroke-width="2" fill-rule="nonzero" transform="translate(98.0423, 116.1554) rotate(28) translate(-98.0423, -116.1554)" points="78.8659189 36.701856 78.6888436 38.1635103 78.3253608 41.1613881 77.8602136 45.1179962 77.6992051 46.4726961 77.3554809 49.3616395 77.3657362 50.444406 77.4265845 51.3411853 77.6597221 52.2046399 77.8986711 53.0962174 78.2398315 54.2883882 80.5946584 60.0136536 82.1390073 63.9526094 83.949892 68.3874081 84.1040637 68.4568764 84.0654353 68.75455 84.0449246 69.1580369 84.1526055 69.6484095 84.3283134 70.3087951 86.0145275 73.510581 86.5879709 75.5969805 88.0363984 79.5129815 90.6239527 84.6286371 94.5994623 91.8538482 97.7110637 97.2628481 99.4050719 100.105412 100.588844 102.091938 100.924876 102.655773 104.049775 108.4001 107.234121 114.219232 110.384829 120.004133 113.510481 125.712618 113.834549 126.285984 119.103528 134.051169 121.138594 137.818501 121.327634 138.43979 121.392584 138.900898 121.348486 139.374122 121.209356 139.929365 120.843617 140.464876 120.670985 140.899103 120.562621 141.375616 120.504507 141.733126 120.465879 142.095838 120.521941 142.513118 120.730808 143.137729 122.753192 148.164519 122.914542 148.554615 123.257822 149.413808 123.850306 151.00319 124.551838 152.806682 125.059408 153.896966 130.426463 151.15102 133.439305 156.645731 136.225915 161.872569 134.717836 162.752233 137.542596 167.874701 140.446801 173.142516 142.102556 176.287284 142.840905 176.731345 143.721017 177.723064 145.096051 180.241308 146.577569 182.954668 148.382984 186.212666 152.873994 189.54359 153.597849 190.064669 142.918778 203.728891 135.96273 212.6002 133.18887 216.155402 131.112168 211.030283 127.899756 212.69024 123.47438 201.671923 121.336624 202.769825 120.814936 201.470801 122.241964 200.743799 120.945008 198.370533 120.675634 197.763742 122.41986 196.817563 122.190824 196.232451 121.228841 193.825356 120.26655 191.418194 119.778465 190.196995 118.792689 187.726707 119.059327 187.584079 118.708356 186.71908 118.601359 186.773447 118.0072 185.308504 117.775088 184.747019 115.485143 179.058232 113.037334 173.023547 108.379675 175.392989 106.159808 171.524273 106.065117 171.299424 105.959829 171.082964 105.884282 170.942685 105.754723 170.725555 105.590637 170.484261 105.370832 170.20471 104.979933 169.798538 104.867808 169.698531 104.759102 169.608255 104.64561 169.519323 104.541689 169.441464 101.080962 166.446137 98.3726003 161.029922 98.0755378 160.691406 97.7675363 160.256004 97.3491192 159.511921 95.3558607 155.772443 93.6061319 152.480852 93.294712 151.914064 92.5247082 150.506072 89.666721 145.280207 88.1863995 142.57329 83.7263602 134.691251 82.1337087 131.501379 81.9983385 131.258072 75.5425793 119.645414 73.9346133 116.752981 72.9292157 114.639767 72.8157235 114.429348 72.634888 114.033412 72.6337599 114.030728 72.5079613 113.726678 72.4146379 113.512903 72.2939669 113.17224 72.2095314 112.891011 71.5964341 110.346993 70.5327864 105.925651 70.4862956 105.693083 70.4039111 105.380308 70.2685409 104.607766 70.182738 104.050979 70.1690643 103.473956 70.1188132 102.493177 69.1397718 100.63119 68.5025403 98.5573421 66.7863123 92.9716845 66.6892285 92.3388514 66.690425 91.8943547 66.7967385 91.2222233 66.9669768 90.5672744 67.4974504 89.7537564 68.7214573 87.8877763 69.0781373 86.9598202 69.2135076 86.2820172 69.2305998 85.9230303 69.1447969 85.4953805 67.7594397 82.8310178 64.5788201 76.8883869 61.5531242 71.0715709 57.2525551 62.3839672 52.8465271 53.8042911 48.0475835 45.2234405 47.9597296 45.066046 47.4054294 44.07285 47.1428932 43.4088736 42.4867379 31.6268411 47.6796567 28.9054271 56.9036007 23.8842754 58.0135341 23.0646832 59.4038139 22.3202644 66.7387276 18.4705771 68.2343979 17.6855513 71.1447898 16.1554019 74.6589124 22.6363286 77.7545496 28.3465929 78.3394448 30.0340696 78.6927407 31.0499854 79.033901 32.3026976 79.1231223 33.3404943 79.1026117 34.2821427"></polygon>
    </g>
</svg>