<?xml version="1.0" encoding="UTF-8"?>
<svg width="46.8760605px" height="208.404762px" viewBox="0 0 46.8760605 208.404762" version="1.1" xmlns="http://www.w3.org/2000/svg" xmlns:xlink="http://www.w3.org/1999/xlink">
    <g id="NorthYorkCentre" stroke="none" stroke-width="1" fill="none" fill-rule="evenodd">
        <polygon id="NorthYorkCentre" stroke="#0098D6" stroke-width="2" points="44.2797899 20.8097236 42.9348159 22.8350831 40.363908 26.5188396 38.0956924 29.7939438 35.65777 33.3039008 35.1584968 34.2647414 34.7912103 35.0851171 34.3841004 36.8563497 34.1256368 38.0691391 33.5169763 44.2297727 33.0313277 48.4326921 32.5482321 53.1985458 32.6517442 53.3322619 32.4778881 53.5769572 32.2703526 53.9235858 32.1352132 54.4071122 31.9803218 55.0726879 31.966013 58.6913267 31.4928283 60.8027234 30.9332627 64.9403426 30.8162828 70.6719816 30.9344182 78.917853 31.1424276 85.1545249 31.4482305 91.4249884 31.5105544 97.9639793 31.590248 104.596928 31.6563116 111.18386 31.7361271 117.691558 31.7530831 118.349951 32.7597819 127.679838 32.7879833 131.9616 32.6632182 132.598915 32.5040886 133.036541 32.2429871 133.43367 31.8594718 133.858603 31.2851363 134.159727 30.928854 134.462081 30.609465 134.831943 30.3903126 135.120323 30.1859231 135.422444 30.0395218 135.8172 29.9307034 136.466756 29.3564275 141.8546 29.3157521 142.274783 29.2154837 143.194566 28.9924463 144.876061 28.7651741 146.7978 28.7014745 147.998753 34.7294464 148.093906 34.8100174 154.359892 34.8165962 160.28315 33.0720642 160.351847 33.2524977 172.215508 33.2380634 175.769504 33.6815129 176.50822 33.9930218 177.797043 34.0591182 183.757346 34.1236676 187.481578 36.52522 192.531011 36.9197142 193.330926 21.0756905 200.382197 10.7690374 204.949432 6.65079821 206.78624 7.22327676 201.286076 3.60758271 201.243595 4.87299412 189.437411 2.47003384 189.403185 2.6192655 188.011297 4.22056321 188.039341 4.18959993 185.334988 4.23662792 184.67276 6.2208922 184.656198 6.29335886 184.032049 7.28618867 174.926595 7.58857584 174.925841 7.68477927 173.997321 7.56478277 173.995092 7.72792059 172.422684 7.7865791 171.817952 8.4354014 165.719987 9.10722733 159.2425 3.88237289 159.147954 3.73859881 154.689916 3.76055183 154.446932 3.76920986 154.206379 3.76836282 154.047053 3.75590537 153.794514 3.72430671 153.504431 3.66147166 153.15441 3.50701453 152.612265 3.45496447 152.471325 3.40136479 152.340581 3.28770413 152.091244 1.63828441 147.821815 1.78970188 141.768082 1.6863349 141.329728 1.61879457 140.800692 1.59868001 139.947271 1.5943158 135.70973 1.59470534 131.98198 1.46068427 120.689711 1.22309648 111.636422 1.31442286 108.072228 0.999004774 91.2009235 1.10338526 88.8630607 1.10196333 88.6239903 1.12843977 88.186603 1.16010902 87.859084 1.17807064 87.6265192 1.23145606 87.26908 1.28893295 86.9811294 3.07849344 80.0438975 3.14662856 79.816726 3.22072633 79.5018849 3.46388804 78.7562184 3.64952424 78.2243226 3.90834697 77.7084221 4.32442573 76.8188542 4.33413343 74.7151852 5.85207205 66.8473609 6.06344928 66.2430244 6.27318429 65.8511188 6.68260012 65.3075732 7.1403915 64.8092096 9.94745399 63.267032 10.6980327 62.6151465 11.1357669 62.0802344 11.3193925 61.7712921 11.4444025 61.3534177 11.4720472 58.3505393 11.453623 51.6102972 11.5129218 45.0538753 11.7943275 35.3641817 11.9319496 25.7202724 11.6963804 14.5734793 13.1964808 1.27511993 19.0591825 1.31018169 29.5607295 1.20714729 30.9255178 1.0045725 32.5025455 0.99998654 45.7634395 1.06879034 45.8760935 14.9360674 45.4353012 17.7634753 45.1484151 19.0297196 44.7399768 19.9879265"></polygon>
    </g>
</svg>