<?xml version="1.0" encoding="UTF-8"?>
<svg width="203.722564px" height="115.30925px" viewBox="0 0 203.722564 115.30925" version="1.1" xmlns="http://www.w3.org/2000/svg" xmlns:xlink="http://www.w3.org/1999/xlink">
    <g id="Pickering" stroke="none" stroke-width="1" fill="none" fill-rule="evenodd">
        <g id="Pickering" transform="translate(-9.4186, -61.8556)" stroke="#0098D6" stroke-width="2">
            <polygon points="12.3627397 148.697164 20.8944989 144.264621 21.9998428 140.931722 35.6816353 141.930201 35.8287885 135.292446 43.6453015 135.944115 44.224072 127.562559 77.9029828 111.446354 92.98616 112.599564 93.5280667 105.877398 99.9483777 106.074337 100.725567 98.7830817 121.557932 90.0781048 138.497099 86.8295912 140.006094 93.6501656 148.563483 90.5000406 149.652949 83.4544913 192.207233 63.5835111 205.798381 62.9084863 205.05169 83.2998968 209.970697 85.6343737 212.081239 90.3014375 209.655708 99.1188834 206.333945 103.997922 168.680444 119.931217 166.548197 114.193492 161.359548 109.397973 154.149654 109.369841 146.482894 111.338652 128.864836 132.510095 12.0025234 175.528643 15.432225 164.390741 10.6071861 167.569009"></polygon>
        </g>
    </g>
</svg>