<?xml version="1.0" encoding="UTF-8"?>
<svg width="228.84458px" height="247.38669px" viewBox="0 0 228.84458 247.38669" version="1.1" xmlns="http://www.w3.org/2000/svg" xmlns:xlink="http://www.w3.org/1999/xlink">
    <title>Pickering</title>
    <g id="Page-1" stroke="none" stroke-width="1" fill="none" fill-rule="evenodd">
        <polygon id="Pickering" stroke="#0098D6" stroke-width="2" fill-rule="nonzero" transform="translate(114.6882, 123.4084) rotate(33) translate(-114.6882, -123.4084)" points="45.4574134 200.709447 50.1986125 192.345274 49.3104054 188.948057 61.3287323 182.333813 57.836965 176.686778 64.7473691 172.976136 60.6678439 165.63155 80.1358409 133.772514 93.4137408 126.52479 90.2070682 120.591964 95.6988548 117.260379 92.3795583 110.72213 105.109979 92.0754032 117.547093 80.1252386 122.527394 85.0235958 127.988543 77.7209908 125.064965 71.2187302 149.931479 31.3767998 160.96233 23.4084066 171.44206 40.9167597 176.838934 40.1955333 181.150848 42.9601792 183.918952 51.6761503 183.790402 57.5772185 160.889414 91.4475703 155.976172 87.7968141 149.012777 86.6008939 142.95073 90.5040902 137.593135 96.3308906 134.348183 123.682239 59.7687815 223.408407 56.5790346 212.199426 54.2634258 217.492851"></polygon>
    </g>
</svg>