<?xml version="1.0" encoding="UTF-8"?>
<svg width="250.589243px" height="261.664039px" viewBox="0 0 250.589243 261.664039" version="1.1" xmlns="http://www.w3.org/2000/svg" xmlns:xlink="http://www.w3.org/1999/xlink">
    <title>SpadinaChinatown</title>
    <g id="Page-1" stroke="none" stroke-width="1" fill="none" fill-rule="evenodd">
        <polygon id="SpadinaChinatown" stroke="#0098D6" stroke-width="2" fill-rule="nonzero" transform="translate(125.2972, 130.8244) rotate(29) translate(-125.2972, -130.8244)" points="48.0308193 57.7598473 49.2958582 57.1444383 46.2175068 51.4563189 45.8664822 50.7871735 41.7511229 43.2254471 39.5828704 39.2792807 50.4356084 34.0728692 54.5002041 32.1300446 55.8885067 34.7554486 64.2508596 30.8243795 66.2892329 34.4066742 70.5525626 42.3170471 75.6270293 39.9091473 75.9848045 40.5808516 79.9303219 47.9252017 80.5068124 47.6411668 81.0157982 48.5265369 85.1753056 46.5194847 86.1743758 48.3071135 81.241669 50.7619686 81.7736064 51.6895602 82.3095941 52.4956053 82.336596 52.5595771 83.4625752 54.3660137 83.503078 54.4427799 89.1834673 64.8112065 94.0920074 62.4942747 95.5175726 61.8276882 99.4034158 68.7846249 100.591499 70.7924448 97.0238735 72.5386199 98.2916127 74.9062174 102.420608 82.4281534 105.440365 87.9303706 103.819576 88.7249008 105.390952 91.6028656 104.634899 91.967505 106.082065 94.5852324 107.010931 96.2642371 104.357724 97.5569798 107.540573 103.360376 108.667902 105.351948 116.788453 101.49048 118.049442 103.860764 123.328718 113.417004 124.001065 114.792527 129.254149 124.372181 130.482736 126.678365 127.437057 128.234032 128.615689 130.256694 133.820845 139.767258 152.312285 130.834231 156.909223 128.443604 177.152547 118.553175 177.006736 118.29217 178.91253 117.370975 179.094793 117.697232 183.793258 115.42572 183.625847 115.127611 197.169459 108.57971 201.446424 106.587755 207.790655 117.91013 209.970519 121.757908 211.011442 123.625118 206.769984 125.689233 200.224589 128.932988 204.478873 136.564956 201.530805 138.019419 201.611811 138.152481 200.333271 138.771728 201.869004 141.521621 200.402396 142.11528 181.242929 151.407316 180.238459 151.522466 179.575562 150.330031 179.749724 150.24047 176.688114 144.730193 168.344257 148.852793 169.278523 150.521307 164.570472 152.714005 158.387037 155.643531 159.025632 156.783509 157.85645 157.301681 151.796009 160.241443 143.587567 164.22548 150.244615 176.322554 150.066402 176.412114 152.02593 179.976497 155.105902 178.444755 157.348814 182.642843 162.26613 191.703685 163.238198 193.494896 168.279453 202.77964 170.626998 207.20969 159.419185 212.761421 161.876493 217.243927 152.613221 221.785032 137.891382 229.094453 134.397606 230.82438 127.98209 219.594508 122.607362 210.186811 121.323422 207.437941 120.43911 204.056518 120.219044 201.347823 120.414808 198.637208 120.607871 196.336269 121.178962 194.012045 117.515209 187.266983 115.179005 185.873804 111.69576 179.098931 110.254129 179.864034 110.26763 179.902417 109.192954 180.41803 105.530552 173.811915 66.8106395 192.969432 63.8986198 187.584923 66.0880687 186.503799 68.23958 185.470014 70.7121438 184.281417 67.1203513 177.998744 69.3397723 176.931694 68.7862334 175.931174 69.8528084 175.421958 74.9557621 172.933198 75.4809491 173.881261 75.507951 173.932438 75.8171227 173.778906 76.0641901 174.22287 83.0876538 170.703524 85.6196218 169.435602 88.8709204 175.124617 90.9025432 174.116421 96.063011 171.534262 93.5384685 166.946714 95.2532241 166.120198 93.8512855 163.603034 86.9705268 167.038834 86.5857497 166.346658 93.118319 163.096378 93.1993247 162.599956 91.4532469 159.400853 93.4539526 158.413128 98.382339 155.87818 96.2294777 151.870345 102.1005 148.932246 98.0793777 141.650716 97.0249536 139.700471 95.665678 137.186378 92.8708466 138.524029 92.3389092 137.63738 92.2984063 137.560613 91.2628835 135.67063 90.0612991 133.48049 87.6272129 129.088696 92.1909388 126.870153 89.0184858 121.058312 86.4342691 122.253306 83.0526864 116.064798 85.9239332 114.66791 84.3769945 111.777278 82.7260984 109.136137 79.5987385 103.263523 78.8777879 103.597456 76.0955123 98.2300915 76.4856897 97.0312593 74.9480666 94.2222562 72.8716206 95.2227756 70.5537777 90.7658581 65.9612948 82.3962954 65.4482588 81.4610272 60.7817907 72.9567398 58.0037004 68.6418398 53.8031501 61.0339257 52.5462117 58.6141272 51.2811728 59.2397717 50.9639005 58.6947317 49.0332648 59.6338382"></polygon>
    </g>
</svg>