<?xml version="1.0" encoding="UTF-8"?>
<svg width="228.629304px" height="200.090991px" viewBox="0 0 228.629304 200.090991" version="1.1" xmlns="http://www.w3.org/2000/svg" xmlns:xlink="http://www.w3.org/1999/xlink">
    <g id="Weston" stroke="none" stroke-width="1" fill="none" fill-rule="evenodd">
        <polygon id="Weston" stroke="#0098D6" stroke-width="2" points="73.3175254 75.0039818 73.387122 74.9128261 71.9925185 74.0298758 64.7958445 68.7308843 63.3283866 70.3630987 62.4889927 71.2931709 61.2440095 72.7026285 57.4503357 76.6130357 50.4641487 66.9228005 44.8245233 61.0375553 41.6417283 56.1062333 37.9290423 50.1899427 34.9133142 46.6723158 31.2208506 42.3455668 27.6938208 37.334941 21.9198873 32.1028351 21.6363115 31.8440911 21.6095061 31.82266 18.9902454 29.7965437 12.287899 24.0173155 8.83249579 20.7551667 1.41333609 13.4020698 7.13699375 7.61292298 8.52744736 6.87813165 12.6997094 3.92792037 15.8523911 2.23248779 19.7217688 1.09456581 21.3560578 2.23114454 22.1764078 3.0794435 27.1682328 8.47974149 30.1806188 7.57289331 32.5093485 14.6719903 34.5113817 16.953921 37.1315852 20.7886677 37.7322915 20.5125192 39.680303 24.2470183 42.1902616 26.6620398 44.3010814 30.8654573 50.4529419 29.2121121 54.5824252 28.018414 58.8913419 31.9758022 60.5824702 31.5146003 56.4503858 35.784186 58.421185 37.4152015 60.5138624 39.0455162 60.9246214 38.4744461 63.6150917 40.584131 62.6815601 41.8557129 66.0797809 44.4848486 65.514355 45.1708772 68.9962389 47.7489025 71.1713669 49.3564432 80.1439177 56.3414662 86.6049558 51.8852026 90.6271741 57.4730347 98.9678324 51.7192002 104.324278 47.5899719 107.907128 45.1895736 114.366928 40.8641446 122.506886 50.3799111 128.018635 56.8209986 130.994607 60.1932208 140.247425 71.1142857 142.287022 73.5673876 148.73237 81.2167555 149.613568 82.2650901 155.168302 88.8569148 156.0192 89.8698952 157.721495 91.891289 158.574989 92.9020204 159.425492 93.9147918 176.29245 113.93727 177.706581 115.614179 181.802138 120.188062 191.857128 132.241212 196.324418 137.511341 200.308473 142.208296 202.343348 144.609153 204.436331 147.075656 206.480813 149.490653 208.722408 152.133728 215.07779 159.631766 217.244813 162.186716 217.930008 162.996088 224.540377 170.874542 226.413336 173.108448 222.61529 172.961378 218.665674 177.452379 212.795544 184.127903 214.357919 185.534318 210.735407 189.480491 209.593408 190.735805 203.887184 197.101551 202.906238 197.919522 201.722792 198.541699 200.159629 198.945413 198.668725 199.094566 197.212539 198.9711 195.768409 198.479711 194.406174 197.795006 192.781214 196.79739 183.615682 188.780392 164.711582 172.372256 153.035763 162.335981 151.04108 160.563975 150.881892 160.419357 150.320422 159.588528 147.156695 155.80965 142.537621 151.528013 141.034369 150.135984 137.547546 147.504632 134.828019 145.743006 132.745886 144.689388 125.270261 141.429793 118.617859 138.671068 115.316904 137.824867 110.464488 137.206129 106.368915 137.17134 106.334585 137.165247 99.5259305 137.216961 91.4302918 136.193223 90.7824025 135.898641 89.297315 134.991953 88.0739594 133.987123 83.4472477 129.142644 81.2333108 126.228407 80.1123739 124.007076 78.3700146 119.466903 62.0327291 123.082536 61.1812381 113.10067 61.179354 113.003079 61.0004899 108.699307 61.1603641 108.145184 62.3642428 104.907533 63.3066684 102.147063 64.1218004 99.6232584 64.2977028 98.7854191 67.9767045 99.3838551 67.0783079 94.6921657 73.578625 90.1489865 74.736054 89.0752251 73.1060013 86.7123257 71.3155355 84.1134816 71.1103986 83.8165586 71.0008702 83.6619989 70.3695653 82.7833441 70.253263 82.556376 70.0697003 81.8579281 70.0264633 81.1371499 70.1017235 80.0733853 70.1336965 79.9067765 70.2540151 79.1011 70.5676693 78.6899404 71.947888 76.8501231 72.4646887 76.1769992"></polygon>
    </g>
</svg>