<?xml version="1.0" encoding="UTF-8"?>
<svg width="392.257472px" height="82.5450785px" viewBox="0 0 392.257472 82.5450785" version="1.1" xmlns="http://www.w3.org/2000/svg" xmlns:xlink="http://www.w3.org/1999/xlink">
    <g id="Page-1" stroke="none" stroke-width="1" fill="none" fill-rule="evenodd">
        <polygon id="WestQueenWest" stroke="#0098D6" stroke-width="2" points="390.81357 36.2016299 387.618167 36.2716035 379.669002 36.3804643 377.323612 36.3983859 377.317848 36.2701054 374.074362 36.2952979 367.428168 36.4099189 367.434831 36.5363565 362.303034 36.4983104 359.029894 36.5504444 354.989014 36.6033942 352.880536 36.748728 352.874985 36.6433632 349.691774 36.6897407 345.697765 36.7306475 337.616197 36.8424558 337.639758 37.8075143 334.325676 37.8541642 334.302114 36.8891071 295.01857 37.4347481 291.019981 37.2919467 272.659097 37.6286499 270.819153 37.7452683 270.894304 40.3601987 268.720799 40.3563326 260.816183 40.3801584 260.868071 43.7640474 261.069802 44.4852213 251.052819 44.614958 250.99794 40.7384559 250.962697 38.7162688 250.689812 38.3231099 244.113262 38.4569851 244.112399 37.7185776 240.944332 37.7684629 236.115595 37.9349185 233.413577 37.9478281 233.40021 35.978857 227.583337 36.0668068 227.640416 40.6033239 223.964585 40.7402184 209.817825 40.9361204 205.842959 40.9870478 189.593871 41.2057003 190.209867 66.4959512 189.989148 67.487866 190.079735 73.5163581 190.131328 77.4983637 190.172927 80.1148383 154.178321 80.8313998 100.137786 81.5424492 97.492859 80.4429172 97.4702668 78.7543749 96.2839416 78.7700328 96.2313121 74.7899171 96.5142749 74.7864901 96.467975 71.2886392 96.3795827 63.4789862 96.1242839 42.4443446 76.9590741 42.7128054 76.1365856 42.7553555 68.3101745 42.8378562 64.6016097 42.9209156 52.0980831 43.090864 30.3627599 43.4342869 30.4905118 57.0954018 29.3644474 58.1923393 26.3455523 60.3238567 10.9767435 45.5632082 9.32155825 43.7487453 1.04559816 34.7421134 1.50948543 30.7007035 1.41763224 23.4982283 5.93659405 23.4567176 9.93937196 23.8498771 9.78712538 11.1416737 16.4474962 11.0449167 16.3634297 7.38469962 16.5438197 7.38143166 16.5285326 6.46945699 17.7008244 6.45151615 17.6005675 1.09686815 22.2887846 1.0959337 24.4414998 1.03034831 24.8652844 23.6790297 28.961629 23.6122972 44.5834002 23.4369431 48.5441412 23.3488991 56.1577238 23.2479148 57.4096104 23.1912332 64.2751488 23.1412763 67.8859164 23.0845439 84.5087326 22.8631617 88.1237372 22.81899 104.480564 22.5844478 108.107588 22.5674693 123.894415 22.3399628 127.509387 22.2921255 135.06094 22.1733196 135.762832 22.2122475 135.789906 26.0084629 142.762461 25.8990338 146.653124 25.4818442 150.577529 25.4608281 150.55808 23.6117349 152.10063 23.6021471 152.093074 23.031569 155.448724 23.0729454 155.432945 22.3557789 160.426331 22.2269676 160.601925 22.4483459 165.439189 22.4318205 165.447925 22.9813016 166.523334 22.9548903 169.062602 22.9562484 174.475858 22.9470162 174.399717 15.9733739 180.862753 15.9293367 180.884547 22.4572913 183.08909 22.4899842 183.133608 22.3520087 183.926736 22.3533111 183.920259 20.5056414 185.317949 20.5086653 189.285029 19.7332916 205.450347 19.5178107 209.444438 20.3191845 218.642114 20.2046919 219.138432 19.6517437 221.518607 19.6220441 265.117328 19.1132105 268.125859 18.9544892 268.142854 19.7041859 268.923489 19.6914109 270.252498 19.5959208 276.298365 19.5117556 280.290919 19.6704343 288.286617 19.4881138 288.343375 19.1382485 293.224999 19.0657967 293.216184 18.6565738 296.568232 18.6499983 300.550505 18.8458659 306.274798 18.7541662 306.285676 19.8829905 307.481476 19.8719539 307.484295 20.3261589 308.800615 20.245012 308.735078 19.6438736 313.781536 19.5696919 314.799071 19.5241775 314.786924 18.0593891 316.181169 18.0265148 323.080575 17.8802671 323.08268 18.6044532 322.99467 20.6832115 327.609507 20.6452321 329.185652 20.7330138 329.173263 19.0585737 331.21922 19.0059341 335.919486 18.9410692 338.418283 18.8640595 341.876044 18.8156256 347.278817 18.6579044 348.315968 18.6538957 348.352855 17.6396173 349.717513 17.6459223 352.730408 17.6027074 352.72898 17.3487913 356.894493 17.3291402 356.891823 17.6848552 357.67111 17.6748438 357.670344 17.8398611 359.471591 17.8172912 359.466515 17.6642524 360.369877 17.6520219 361.932147 17.7843647 363.495115 17.7642035 363.492561 17.4378786 368.738665 17.4075751 368.704102 16.1288401 372.654566 16.0833486 388.914887 15.742196 391.030746 15.672322 391.257758 25.1546786 390.63333 29.276107"></polygon>
    </g>
</svg>