<?xml version="1.0" encoding="UTF-8"?>
<svg width="585.252462px" height="431.617147px" viewBox="0 0 585.252462 431.617147" version="1.1" xmlns="http://www.w3.org/2000/svg" xmlns:xlink="http://www.w3.org/1999/xlink">
    <title>Weston</title>
    <g id="Page-1" stroke="none" stroke-width="1" fill="none" fill-rule="evenodd">
        <polygon id="Weston" stroke="#0098D6" stroke-width="2" fill-rule="nonzero" transform="translate(292.0199, 215.6374) rotate(27) translate(-292.0199, -215.6374)" points="202.181648 213.155361 202.226757 212.931942 198.91285 212.679015 181.151321 210.077449 180.289746 213.07885 179.94241 214.282362 179.247737 216.681375 178.74252 218.500343 178.244069 220.29191 175.290355 229.267449 174.84378 230.622717 168.849743 227.67696 153.558138 220.161231 138.098278 215.097841 127.94139 209.429955 115.947678 202.532211 110.212114 200.29486 107.351099 199.177766 103.680834 197.736081 100.69419 196.562078 96.8078552 195.036084 85.9562942 189.547777 75.4734964 186.914174 72.5299318 186.174362 70.8338468 185.748601 70.0895542 185.558906 70.0218912 185.546259 67.0005142 185.031974 65.6156789 184.795909 63.4707628 184.429165 62.3565793 184.178345 46.1783641 180.532612 37.0118365 178.03032 32.3999287 176.649759 26.4616013 174.872946 17.019911 172.048594 22.2484539 156.655239 24.1159518 154.088029 29.0567016 145.083614 33.264887 139.211489 39.2683964 133.650465 43.242468 134.124704 45.4843676 134.847654 59.3383599 139.662964 63.993572 135.297021 74.5300491 145.538039 80.1896052 147.671901 88.3511122 151.945315 89.1946438 150.908314 96.0482257 155.627723 102.747085 157.524676 110.312932 162.912234 116.671447 157.285028 119.996405 154.342853 126.421906 148.444172 137.754325 151.371592 140.410322 149.004195 136.715924 160.274626 141.739899 161.301089 146.98423 162.213734 147.22105 160.837389 153.975619 162.034577 153.414016 165.116705 161.913838 166.56682 161.498838 168.286725 170.104891 169.57033 175.478458 170.36705 197.959479 174.271191 205.710497 160.523338 213.895686 164.555207 217.973282 166.561762 221.106303 161.004532 222.644508 158.272919 227.978154 148.812391 234.017299 136.655872 238.378403 129.15574 246.243546 115.637419 269.465927 124.728462 285.18832 130.880281 293.583489 134.017631 320.073541 144.533708 325.953452 146.931668 341.913116 153.318499 344.44326 154.330207 346.973404 155.346131 352.585145 157.590016 358.071258 159.786477 362.907807 161.721369 365.351568 162.70357 367.793524 163.681554 370.235932 164.659539 372.682399 165.635416 375.125258 166.617617 423.515781 185.987196 427.571274 187.608037 439.065182 191.808735 440.258306 192.293512 460.2579 200.410153 468.016586 203.559939 470.902186 204.704434 480.803759 208.632602 492.204969 213.151145 498.029848 215.462267 504.018472 217.834301 509.873348 220.161231 516.288474 222.704202 522.176506 225.041459 528.281961 227.463236 534.480565 229.921688 540.682101 232.379718 542.644327 233.159576 547.153613 234.974328 553.423263 237.498541 561.637096 240.805562 567.019911 242.974834 560.00281 246.226844 557.83534 254.089505 556.836183 257.715215 552.13045 274.791167 556.214135 275.802875 553.155995 286.037992 552.201947 289.284311 549.879303 297.403271 548.426804 302.484577 547.517865 305.668086 546.466834 308.002182 545.722541 309.022321 544.874499 310.18157 542.399387 312.330397 539.828871 313.9681 537.078823 315.097841 534.023389 315.574187 530.944498 315.637419 527.11094 315.397138 503.362141 309.869838 454.492789 298.691513 425.343809 292.169156 424.396528 291.958383 424.328865 291.940889 419.203846 290.707869 418.786591 290.602483 417.029609 289.670868 407.932324 285.997102 395.749155 282.790197 391.785459 281.748981 383.12302 280.376851 379.26172 280.041723 376.625346 279.814088 371.913071 279.898397 365.611845 280.364205 355.459693 281.114555 340.944408 282.44453 334.206755 284.016894 324.85844 287.419606 317.401756 291.142482 317.334093 291.16356 305.035221 297.543857 289.44635 303.23577 288.00964 303.320079 284.510562 303.109307 281.398742 302.48542 274.491932 300.210551 270.873091 299.017579 268.70111 298.30306 262.094949 295.26119 258.086821 292.419132 250.889511 286.103331 239.024359 295.720674 236.118234 298.076479 224.484038 307.507709 214.061912 290.869743 213.971694 290.701125 209.819444 283.353592 209.616455 282.238605 208.919526 275.474702 208.172978 269.785318 207.406131 264.626659 206.979854 263.001602 214.182577 260.647483 208.380703 253.287515 216.125632 239.351653 217.269136 236.408003 212.212006 233.789154 206.65417 230.906628 206.018138 230.577823 205.682079 230.409205 203.75594 229.45862 203.343196 229.169862 202.389148 228.120214 201.669665 226.901949 200.859965 224.975487 200.769747 224.655113 200.271297 223.13755 200.474286 222.130057 200.866731 220.096102 201.340372 217.643341 201.543361 216.648495 201.678687 215.990884"></polygon>
    </g>
</svg>