<?xml version="1.0" encoding="UTF-8"?>
<svg width="410.790372px" height="339.107156px" viewBox="0 0 410.790372 339.107156" version="1.1" xmlns="http://www.w3.org/2000/svg" xmlns:xlink="http://www.w3.org/1999/xlink">
    <title>WestQueenWest</title>
    <g id="Page-1" stroke="none" stroke-width="1" fill="none" fill-rule="evenodd">
        <polygon id="WestQueenWest" stroke="#0098D6" stroke-width="2" fill-rule="nonzero" transform="translate(205.3593, 169.6201) rotate(26) translate(-205.3593, -169.6201)" points="383.137126 88.1669629 380.295791 89.6306273 373.19885 93.2131554 371.098684 94.2574144 371.037269 94.1446434 369.153589 95.0816675 368.133087 95.5891368 364.42499 97.4769225 363.35679 98.0212987 362.209774 98.6056572 362.271189 98.7163778 357.642082 100.931814 354.723057 102.413522 351.11435 104.232518 349.282973 105.287439 349.231795 105.195171 346.391074 106.632283 342.819215 108.419908 339.654635 110.017872 335.604563 112.063127 336.048794 112.920187 334.865544 113.517873 334.273919 113.817228 333.090566 114.414914 332.646336 113.557855 329.940624 114.924332 329.066493 115.365163 322.772238 118.544484 317.694908 121.108691 316.274189 121.826324 310.371246 124.80768 304.47905 127.783193 297.577714 131.269046 293.921206 132.893563 287.373207 136.237119 277.566153 141.245072 275.963545 142.156466 277.1774 144.473806 275.222172 145.423133 268.127995 148.909703 269.658031 151.928376 270.155487 152.48813 268.510197 153.31751 267.719999 153.715283 266.920588 154.118183 262.796307 156.196244 261.209155 156.995893 259.460484 153.535773 258.542339 151.733693 258.124722 151.499949 252.272445 154.503245 251.947973 153.839947 251.565157 154.034733 249.122401 155.273573 244.855331 157.539961 242.432432 158.736051 241.557278 156.972211 240.16614 157.676517 236.367662 159.601209 236.755596 160.372153 237.128177 161.11234 237.500757 161.852528 237.873337 162.592715 238.407642 163.653582 235.163838 165.388 229.246053 168.376327 228.456879 168.775126 222.534692 171.765607 218.984431 173.553847 212.149524 177.001972 211.307124 177.427426 204.475698 180.873502 216.115868 203.334194 216.352314 204.322478 219.07645 209.70114 220.868418 213.257526 222.052794 215.590962 190.015176 232.014 141.755569 256.342898 138.896321 256.514105 138.135807 255.006357 137.076409 255.540481 135.284338 251.986248 135.537161 251.859125 133.96219 248.735574 130.459217 241.755053 121.008776 222.961158 114.124738 226.43922 110.897107 228.06958 103.900885 231.603924 103.18029 232.002723 96.1821242 235.507747 92.8852991 237.208128 81.7217043 242.842062 62.3366719 252.678867 68.4401331 264.901393 67.9088989 266.380948 66.1299297 269.62014 63.2164326 268.68209 45.8458934 263.090599 43.5628146 262.185356 32.1761834 257.718191 30.821485 253.882441 27.5815706 247.449165 31.6249895 245.430873 35.3950122 244.02954 29.6872642 232.674223 35.6311504 229.667544 33.9510583 226.414615 34.1117592 226.3326 33.6982359 225.519624 34.74402 224.9896 32.3065865 220.220824 36.5199185 218.164805 38.4260154 217.162169 48.7354389 237.332894 52.3879554 235.477196 58.3853745 232.468057 59.5645302 231.876522 66.3518402 228.471455 69.8731347 226.656047 76.6719088 223.227708 77.7722494 222.627972 83.9210548 219.573417 87.1415214 217.93957 94.2408164 214.359298 94.8866907 214.033287 101.984962 210.45363 105.214743 208.829215 112.189162 205.302868 112.835037 204.976857 119.813345 201.448049 123.06585 199.842806 129.787958 196.443479 130.432809 196.117469 137.155224 192.717835 140.383368 191.09014 147.118578 187.672975 147.766499 187.400274 149.454985 190.800421 155.673905 187.6455 158.987926 185.564978 162.505945 183.825743 161.677875 182.172315 163.060107 181.487488 162.803191 180.977968 165.837367 179.544137 165.5088 178.906469 169.940358 176.601738 170.195227 176.723736 174.535687 174.588366 174.784415 175.078407 175.739409 174.58324 178.022283 173.471319 182.883638 171.090006 179.758159 164.855516 185.547793 161.982727 188.429048 167.84046 190.181199 167.018257 190.42481 166.903436 190.404338 166.759909 191.117768 166.413395 190.301981 164.75556 191.559542 164.145571 194.785229 161.709616 201.464552 158.340635 202.540429 157.798309 209.22006 154.429534 213.161224 153.39891 221.37785 149.264009 221.581541 148.549451 223.707809 147.479357 262.671022 127.909599 265.305493 126.448088 265.649413 127.114461 266.345443 126.760771 267.498088 126.092346 272.895182 123.366365 276.553226 121.758764 280.222938 119.864417 283.659788 118.089812 283.557431 117.750474 287.913244 115.545392 287.72593 115.181449 290.735848 113.706098 294.400954 112.136429 297.374126 110.626733 299.505716 109.544645 300.010337 110.554457 301.080277 110.020333 301.281921 110.427334 302.429449 109.777363 302.107023 109.265793 306.610231 106.986897 307.504833 106.499931 306.851794 105.188713 308.090522 104.547969 313.262327 101.888215 314.227556 101.392022 314.546911 102.041993 315.379075 103.94895 319.510214 101.891803 320.965325 101.279764 320.220164 99.780218 322.035982 98.8360175 326.232118 96.7172564 328.444263 95.55264 329.534163 95.0021127 330.612702 94.4577366 331.530846 93.9933253 336.317686 91.4831465 337.248114 91.0248863 336.836637 90.097089 338.065948 89.5045289 340.754976 88.1449213 340.642383 87.917329 341.971697 87.2612071 344.377706 86.0736264 344.531242 86.3945111 345.227272 86.0438959 345.298922 86.1925485 346.907978 85.3826481 346.836328 85.2473229 347.642903 84.8403223 349.105077 84.2744172 350.501025 83.5711365 350.355678 83.2789572 355.057561 80.9519799 354.465936 79.8178117 357.996647 78.0451549 362.444377 75.7588776 367.019952 73.4073982 372.461775 70.6104736 374.332866 69.6201396 376.161888 73.153151 378.693695 78.0433095 379.939178 82.0213561"></polygon>
    </g>
</svg>