<?xml version="1.0" encoding="UTF-8"?>
<svg width="56px" height="213px" viewBox="0 0 56 213" version="1.1" xmlns="http://www.w3.org/2000/svg" xmlns:xlink="http://www.w3.org/1999/xlink">
    <title>BonnieDoonSC</title>
    <g id="Page-1" stroke="none" stroke-width="1" fill="none" fill-rule="evenodd">
        <polygon id="BonnieDoonSC" stroke="#0098D6" stroke-width="2" points="17.7740163 1.57797642 29.0635291 1.45064176 29.1847325 12.1073632 43.6956891 12.2911756 43.3433407 40.0629363 37.8145533 40.3149758 37.5375753 62.1369817 54.1512705 61.9493239 54.3498422 79.384549 53.7965119 123.017965 43.3995371 123.492049 41.6354095 126.822033 41.4561407 140.953219 46.9314202 140.703606 47.6116255 155.53523 47.2146786 186.830492 22.4756296 211.483217 8.70281093 210.778533 1 203.670495 1.22913954 185.639573 5.79091815 185.431687 12.1599408 177.938643 11.6842071 167.559577 2.84122719 166.534196 3.10177866 146.034545 8.38251732 145.793789 7.84894033 98.8445214 4.69839765 96.44391 2.36303937 96.4139579 2.49586079 85.9594376 8.0157797 85.7078872 8.43172728 52.9736139 10.7071502 53.0022217 10.8744117 39.8306379 7.83556706 39.9696435 7.68168397 36.6145014 8.0359926 8.72678441 18.0806054 8.26888242"></polygon>
    </g>
</svg>