<?xml version="1.0" encoding="UTF-8"?>
<svg width="77px" height="192px" viewBox="0 0 77 192" version="1.1" xmlns="http://www.w3.org/2000/svg" xmlns:xlink="http://www.w3.org/1999/xlink">
    <title>KingswayMall</title>
    <g id="Page-1" stroke="none" stroke-width="1" fill="none" fill-rule="evenodd">
        <polygon id="KingswayMall" stroke="#0098D6" stroke-width="2" points="6.81298729 1.99612231 55.9520425 2.44258513 56.2744321 59.1146476 55.7842097 85.175583 70.1987916 98.2775185 70.5307695 156.56999 72.7295027 156.557491 75.2339223 158.83371 74.6717993 188.735216 72.8751328 190.773238 35.6928949 190.982182 33.0210209 188.553639 33.5819719 158.749357 35.3290806 156.767594 37.1772364 156.757854 37.2490373 152.936977 46.534715 152.884857 46.9328918 131.717533 41.5107424 131.748009 41.4105429 137.073978 1.141489 136.317726 1 111.309691 7.53165803 111.273159 7.49728522 105.206307 7.6563215 96.7640318 2.27553492 91.8728864 2.86450169 60.6066494 2.79334423 48.0309573 1.30853138 46.1844903 1.23139302 32.5516059 6.23848447 32.5236067 6.33910639 27.1845916 5.418979 27.1672138"></polygon>
    </g>
</svg>