<?xml version="1.0" encoding="UTF-8"?>
<svg width="262px" height="152px" viewBox="0 0 262 152" version="1.1" xmlns="http://www.w3.org/2000/svg" xmlns:xlink="http://www.w3.org/1999/xlink">
    <title>WestEdmontonMall</title>
    <g id="Page-1" stroke="none" stroke-width="1" fill="none" fill-rule="evenodd">
        <polygon id="WestEdmontonMall" fill="#00ADF2" stroke="#00ADF2" stroke-width="2" points="10.5576466 14.4316514 32.4849681 15.9779828 32.0950292 21.4856321 122.301189 29.8372069 122.825905 26.5988952 133.841961 27.7439719 133.507599 37.9458977 153.296485 40.002632 158.024579 24.1709948 158.722815 13.6324632 175.892781 14.8415623 175.887472 17.0794597 185.394747 17.7488073 185.265713 16.5732907 187.236228 11.6388313 188.916642 10.1085104 192.017874 9.46947737 195.017264 10.8508508 197.317323 13.7677768 195.337422 41.7790305 194.930555 44.2908596 191.0395 46.2813578 191.351853 49.1263953 194.211443 52.7529331 203.345944 54.0113702 203.597284 46.3308232 211.933414 46.9176031 213.665109 36.2261107 209.505085 35.9332756 211.522685 7.38501633 213.785719 1.71776598 226.588933 2.61879552 225.743165 14.5884542 241.834844 16.5457756 235.782152 66.0911441 260.510327 67.8310307 259.359218 103.050732 233.095969 100.323048 230.633473 123.929746 234.366338 124.192429 236.349286 126.707066 234.244502 146.884754 230.626229 150.180098 202.702232 147.279367 200.489007 144.472606 201.845279 125.283121 205.273601 122.160946 205.784034 114.938711 182.931107 111.79026 181.271723 96.6752536 152.991442 94.6838459 151.827756 111.139707 128.588984 109.502849 130.192522 94.1416039 126.636522 93.7720503 127.346535 86.9704772 102.214907 84.3579758 99.379067 111.51872 97.0724764 113.619025 33.4197484 106.999778 34.183666 99.6868908 2 96.3390722"></polygon>
    </g>
</svg>