<?xml version="1.0" encoding="UTF-8"?>
<svg width="71px" height="195px" viewBox="0 0 71 195" version="1.1" xmlns="http://www.w3.org/2000/svg" xmlns:xlink="http://www.w3.org/1999/xlink">
    <title>104StreetNW</title>
    <g id="Page-1" stroke="none" stroke-width="1" fill="none" fill-rule="evenodd">
        <polygon id="104StreetNW" fill="#00ADF2" stroke="#00ADF2" stroke-width="2" points="2 31.0584216 2.60590607 4.89206909 7.05412016 2.13571055 11.6085106 1.84232901 30.5494843 1.94922773 29.7372357 31.3934082 22.7465618 31.3336696 22.6970254 40.5804934 22.6485285 52.972264 22.8464962 77.9474628 22.4073723 94.5587891 22.4840231 100.850037 24.2919392 104.088448 42.6774218 123.203078 34.8628628 130.822772 39.8133294 137.746483 43.1967713 148.992289 42.6278726 164.494617 53.9603157 164.692417 53.9969397 179.683256 69.7533372 181.326061 67.0887097 192.98828 14.0940957 191.242908 14.8925849 154.042371 14.8617681 125.900524 5.99011052 125.720291 6.38440656 103.130001 6.39159627 85.62816 6.50556641 57.7379317 6.74475689 31.2161653"></polygon>
    </g>
</svg>