<?xml version="1.0" encoding="UTF-8"?>
<svg width="478px" height="70px" viewBox="0 0 478 70" version="1.1" xmlns="http://www.w3.org/2000/svg" xmlns:xlink="http://www.w3.org/1999/xlink">
    <title>118AlbertaAve</title>
    <g id="Page-1" stroke="none" stroke-width="1" fill="none" fill-rule="evenodd">
        <polygon id="118AlbertaAve" fill="#00ADF2" stroke="#00ADF2" stroke-width="2" points="74.1304571 27.5897987 75.2016593 24.981409 83.059749 25.0425332 87.2337168 26.5999311 94.5718048 26.6572892 100.632671 26.7621218 100.663013 19.6711595 106.894446 19.8066947 113.438323 19.8577127 113.95397 19.8649774 113.906677 23.3166029 114.4637 23.3262009 121.008761 23.3775425 131.008826 23.6073595 138.589061 23.6689202 142.047939 23.685725 148.586537 23.7323186 149.111907 23.731847 149.077001 25.9822409 157.98164 26.1203266 158.006361 24.5270752 173.778923 24.6520483 177.27754 24.3278159 194.089301 24.4688882 194.84881 24.8582243 209.000751 25.0337815 212.45149 24.9128017 227.750587 25.1398464 227.734613 26.1754421 229.263487 26.2133081 242.676643 26.3236976 244.472054 26.3550272 244.621562 16.7042149 262.94793 16.8884556 264.815217 16.9173703 264.722999 22.871976 266.373061 22.8983963 274.21456 22.9641605 274.747627 22.9473841 274.652448 25.2367209 283.113766 25.3279113 286.528677 25.8380372 293.235572 25.8921717 293.619305 25.4708699 306.831471 25.4463391 323.59484 25.6261642 327.020548 26.1754361 335.283194 26.3032891 336.331642 27.0222116 347.232075 27.1140472 355.090219 27.1732024 356.138616 27.1920834 363.999777 27.2896011 367.439488 27.2687277 375.304391 27.3155097 386.626308 27.3585263 386.97841 4.59562472 423.874897 5.16627606 423.619889 21.6559252 425.027422 21.6808588 431.311674 21.7444691 431.837378 21.7380304 431.820162 25.7466225 457.480928 26.143343 457.438506 35.9731621 475.994799 36.1006162 476.455978 38.1636634 460.117706 61.7588966 455.975096 63.7610219 440.230309 63.5175945 440.45772 42.3683231 437.929484 42.3292169 424.877264 42.1871989 421.390371 42.3324776 407.795613 42.1222337 404.280148 43.8606267 395.898501 43.7708232 395.655742 63.3283028 383.944624 63.2467226 377.193984 63.1423062 377.248465 44.1755293 376.752098 44.0992076 370.46422 44.0582047 367.030422 40.5744061 360.749893 40.5585708 359.69457 40.5279327 353.406863 40.4879926 349.948162 40.4314814 343.645316 40.3438935 342.579813 41.6421234 332.88369 41.5717576 325.494742 41.4772963 319.178593 41.4143797 315.760977 41.9857514 309.473002 41.9407834 308.424927 41.939834 302.137213 41.8888268 298.699967 41.336213 280.220956 41.10988 276.799301 40.8975391 270.542809 40.9002472 269.447315 39.4886872 253.414005 39.4798294 252.369575 39.4639712 252.361422 41.1921537 246.074049 41.1757005 242.655321 40.6673767 229.05037 40.5960607 225.506838 40.541159 208.43905 40.475955 194.829375 40.3247807 177.653652 40.4171409 174.247096 40.6432089 167.417318 40.636945 167.399562 49.6488827 166.908971 49.6437184 160.619442 49.6171817 158.750882 49.6070893 158.804867 68.6015213 156.849296 68.6352869 150.821674 68.6220461 150.302225 68.6092634 150.369767 40.4934312 143.599377 40.5079732 140.103436 39.1977319 133.813818 39.1562067 132.776401 40.5493163 126.52486 40.4921928 123.009828 40.8847395 116.721958 40.872651 115.682725 40.4834199 95.4352813 40.2689869 94.3850265 40.827626 87.0642377 40.8063461 85.6436947 40.8239283 85.3106415 62.292359 62.2803828 61.7557729 56.2848506 52.8979918 69.1079204 42.6589886 63.8279563 32.8561728 1 31.8809722 1.00835404 24.9290978 22.3497812 25.2205932 22.5991641 1.460186 43.6531797 1.78695899 43.2965 24.7688275 45.3401334 24.7520407 53.1961454 24.8109545 54.2652433 22.1991444 62.121093 22.2578702 66.797054 27.5328756"></polygon>
    </g>
</svg>