<?xml version="1.0" encoding="UTF-8"?>
<svg width="556px" height="107px" viewBox="0 0 556 107" version="1.1" xmlns="http://www.w3.org/2000/svg" xmlns:xlink="http://www.w3.org/1999/xlink">
    <title>118Beverly</title>
    <g id="Page-1" stroke="none" stroke-width="1" fill="none" fill-rule="evenodd">
        <polygon id="118Beverly" fill="#00ADF2" stroke="#00ADF2" stroke-width="2" points="386.767242 17.6974353 437.92564 17.9946922 466.835963 18.4383116 477.519225 17.6871312 490.16922 15.9290825 501.718075 13.6050888 514.461628 9.71293999 531.695624 3.69367574 535.873234 1.68398392 540.558655 10.2963437 545.31463 18.2815246 551.34915 34.338919 554.413802 41.2550682 552.94441 49.5900926 551.356637 53.7140959 547.94731 57.3220384 543.762303 59.82008 537.633568 61.86317 524.175957 63.7919277 484.364622 63.1812805 484.256079 68.1087916 484.105347 86.407944 447.51965 86.246103 444.258147 86.1745585 443.931336 102.50354 439.966603 105.838427 418.551011 105.741003 400.902626 101.283539 398.547883 101.282381 398.691138 91.9509037 396.494376 87.0521789 396.66434 75.9825224 332.159498 75.5106728 279.139426 75.3064391 225.358186 75.0291775 177.071478 74.7445921 171.675859 74.661631 123.36236 74.5288902 69.7118481 74.0774363 64.3760229 74.0716293 16.2298735 73.8647635 10.8437436 74.6512027 2 74.5456483 2.03121028 73.7189829 2.12011978 63.28938 4.52973993 56.4079038 4.60526394 47.6048912 10.3666395 47.6935556 16.319378 47.236126 43.1494762 47.3438498 64.6604337 47.5527733 67.0990845 47.5903013 67.4532852 22.5809121 70.1576273 22.6134978 80.1113919 22.6686748 80.90128 22.6655064 80.6117102 47.4410267 96.5788804 47.686629 118.242724 47.8672519 145.051494 47.9744046 171.816607 48.1419144 203.982185 48.270274 225.669712 48.2984801 228.50471 48.3420796 228.640588 39.4985728 231.126698 39.5217005 241.070454 39.5807719 241.856624 39.5945643 241.784549 48.2560098 257.935589 48.4431542 284.641833 48.6704345 311.501445 48.8389325 374.514811 49.135508 375.634636 47.6886366 376.100362 17.3522705"></polygon>
    </g>
</svg>