<?xml version="1.0" encoding="UTF-8"?>
<svg width="120px" height="204px" viewBox="0 0 120 204" version="1.1" xmlns="http://www.w3.org/2000/svg" xmlns:xlink="http://www.w3.org/1999/xlink">
    <title>97StreetNW</title>
    <g id="Page-1" stroke="none" stroke-width="1" fill="none" fill-rule="evenodd">
        <polygon id="97StreetNW" stroke="#0098D6" stroke-width="2" points="79.8626354 10.4857769 86.5922833 12.9925023 81.8763159 23.0864511 117.957869 40.3874862 109.417862 61.9421337 79.6090943 51.2662961 72.9661979 70.4719403 67.1662293 68.2741199 64.7956907 75.0255647 63.428156 78.7829936 58.2506185 93.4852333 68.2261668 97.8107754 67.4057332 104.836337 64.3361258 111.361182 50.4782962 150.866934 38.4271643 146.279132 31.1352447 167.506478 19.0148859 202 6.46678574 197.346023 3.61601877 194.9189 2 189.815035 21.7729727 133.819091 28.1863919 136.240286 38.8763539 105.915543 32.4956299 103.881548 44.7344764 69.7785387 50.4506578 72.2064467 60.6935227 45.0190561 40.5050148 37.4973977 52.73026 2"></polygon>
    </g>
</svg>