<?xml version="1.0" encoding="UTF-8"?>
<svg width="51px" height="201px" viewBox="0 0 51 201" version="1.1" xmlns="http://www.w3.org/2000/svg" xmlns:xlink="http://www.w3.org/1999/xlink">
    <title>ParsonsRoadSW</title>
    <g id="Page-1" stroke="none" stroke-width="1" fill="none" fill-rule="evenodd">
        <polygon id="ParsonsRoadSW" stroke="#0098D6" stroke-width="2" points="45.8215723 199.560785 4.93365831 199.080687 12.9210733 174.370832 24.0542905 174.720897 24.0838024 168.567475 29.3036563 168.527771 29.7652301 151.008855 28.1852666 143.347427 20.5795578 128.336046 16.5670361 117.229501 13.794658 97.5509583 10.7612488 88.3574835 7.41872632 79.0294379 6.9918342 72.2448375 7.18116072 65.860469 9.53194323 60.6044939 2 54.7600648 6.77026509 49.2345908 5.2576939 46.6377121 10.8619367 42.4246068 6.81074482 37.9916157 5.28007479 31.9668386 5.22018898 4.15620373 4.47414078 2.27371148 9.08229387 1.57516083 31.5864942 2.04587064 30.4177245 51.1539415 30.7121628 74.4504713 10.2272206 74.3265668 10.4598704 78.8486819 13.7688781 90.0987321 17.1431165 102.07595 18.880665 114.102607 19.9535753 119.574077 21.7288098 124.980074 27.3858916 135.595116 28.9564092 139.336616 46.1732989 139.247509 46.2420667 144.234182 31.8367775 143.90492 32.1490613 152.790737 49.5176788 152.93811 49.4364889 162.050668 41.1021821 162.009624 40.7124147 188.799518 46.2428664 188.818229"></polygon>
    </g>
</svg>