<?xml version="1.0" encoding="UTF-8"?>
<svg width="98px" height="199px" viewBox="0 0 98 199" version="1.1" xmlns="http://www.w3.org/2000/svg" xmlns:xlink="http://www.w3.org/1999/xlink">
    <title>StAlbertRoad</title>
    <g id="Page-1" stroke="none" stroke-width="1" fill="none" fill-rule="evenodd">
        <polygon id="StAlbertRoad" fill="#00ADF2" stroke="#00ADF2" stroke-width="2" points="15.258787 11.589114 21.6294647 9.09501743 26.3123772 2.01218477 43.2637053 11.7057587 38.1372831 22.8748824 34.4392857 21.5076828 29.2831783 29.0474844 24.7804286 31.1405875 27.5593903 47.8443839 31.6904534 56.3837111 25.0569536 57.9427678 26.7468341 67.7421232 31.7158623 97.5738864 34.9659448 108.6101 41.2531331 121.560248 51.596992 134.830522 81.4736747 171.640113 84.1809514 171.129079 87.9260166 169.798771 92.3839228 164.945133 96.4198975 168.272207 75.0805232 196.744102 58.6944746 175.987884 57.7329805 172.435332 59.6111908 171.4446 57.8432581 167.93942 57.4674826 162.815306 52.3846362 150.165325 46.9009719 144.486822 46.5857235 141.224686 41.301642 134.773677 37.585327 129.126033 35.3772462 127.691791 33.472564 124.867156 35.0290581 120.986373 31.8075162 118.976182 29.0949163 114.462601 33.5290083 110.972607 22.2427241 91.2358829 25.5551764 88.03707 25.8910559 84.7863192 24.4661305 81.1326169 23.664669 79.0716096 22.3181005 76.2567204 24.5927587 73.8772217 23.8383943 69.1186777 22.0263568 55.6567536 20.4450474 55.6291486 14.3595282 47.1171432 18.3214869 44.0227235 4.11706474 20.8853737 2 14.2420915"></polygon>
    </g>
</svg>