<svg width="221" height="145" viewBox="0 0 221 145" fill="none" xmlns="http://www.w3.org/2000/svg">
<circle cx="70" cy="131" r="13.6" stroke="black" stroke-width="0.8"/>
<circle cx="70" cy="117" r="27.6" stroke="black" stroke-width="0.8"/>
<circle cx="70" cy="103" r="41.6" stroke="black" stroke-width="0.8"/>
<circle cx="70" cy="89" r="55.6" stroke="black" stroke-width="0.8"/>
<circle cx="70" cy="75" r="69.6" stroke="black" stroke-width="0.8"/>
<path d="M154.75 125.119C154.108 125.119 153.561 124.945 153.109 124.595C152.658 124.243 152.313 123.733 152.074 123.065C151.835 122.395 151.716 121.585 151.716 120.636C151.716 119.693 151.835 118.888 152.074 118.22C152.315 117.55 152.662 117.038 153.114 116.686C153.568 116.331 154.114 116.153 154.75 116.153C155.386 116.153 155.93 116.331 156.382 116.686C156.837 117.038 157.183 117.55 157.422 118.22C157.663 118.888 157.784 119.693 157.784 120.636C157.784 121.585 157.665 122.395 157.426 123.065C157.188 123.733 156.842 124.243 156.391 124.595C155.939 124.945 155.392 125.119 154.75 125.119ZM154.75 124.182C155.386 124.182 155.881 123.875 156.233 123.261C156.585 122.648 156.761 121.773 156.761 120.636C156.761 119.881 156.68 119.237 156.518 118.706C156.359 118.175 156.129 117.77 155.828 117.491C155.53 117.213 155.17 117.074 154.75 117.074C154.119 117.074 153.626 117.385 153.271 118.007C152.916 118.626 152.739 119.503 152.739 120.636C152.739 121.392 152.818 122.034 152.977 122.562C153.136 123.091 153.365 123.493 153.663 123.768C153.964 124.044 154.327 124.182 154.75 124.182ZM165.642 118.455V119.307H162.25V118.455H165.642ZM163.239 116.886H164.244V123.125C164.244 123.409 164.286 123.622 164.368 123.764C164.453 123.903 164.561 123.997 164.692 124.045C164.825 124.091 164.966 124.114 165.114 124.114C165.224 124.114 165.315 124.108 165.386 124.097C165.457 124.082 165.514 124.071 165.557 124.062L165.761 124.966C165.693 124.991 165.598 125.017 165.476 125.043C165.354 125.071 165.199 125.085 165.011 125.085C164.727 125.085 164.449 125.024 164.176 124.902C163.906 124.78 163.682 124.594 163.503 124.344C163.327 124.094 163.239 123.778 163.239 123.398V116.886ZM169.744 125.136C169.153 125.136 168.634 124.996 168.188 124.714C167.745 124.433 167.398 124.04 167.148 123.534C166.901 123.028 166.778 122.437 166.778 121.761C166.778 121.08 166.901 120.484 167.148 119.976C167.398 119.467 167.745 119.072 168.188 118.791C168.634 118.51 169.153 118.369 169.744 118.369C170.335 118.369 170.852 118.51 171.295 118.791C171.741 119.072 172.087 119.467 172.335 119.976C172.585 120.484 172.71 121.08 172.71 121.761C172.71 122.437 172.585 123.028 172.335 123.534C172.087 124.04 171.741 124.433 171.295 124.714C170.852 124.996 170.335 125.136 169.744 125.136ZM169.744 124.233C170.192 124.233 170.562 124.118 170.852 123.888C171.141 123.658 171.356 123.355 171.495 122.98C171.634 122.605 171.704 122.199 171.704 121.761C171.704 121.324 171.634 120.916 171.495 120.538C171.356 120.161 171.141 119.855 170.852 119.622C170.562 119.389 170.192 119.273 169.744 119.273C169.295 119.273 168.925 119.389 168.636 119.622C168.346 119.855 168.131 120.161 167.992 120.538C167.853 120.916 167.783 121.324 167.783 121.761C167.783 122.199 167.853 122.605 167.992 122.98C168.131 123.355 168.346 123.658 168.636 123.888C168.925 124.118 169.295 124.233 169.744 124.233ZM180.33 125.119C179.83 125.119 179.38 125.02 178.979 124.821C178.578 124.622 178.257 124.349 178.016 124.003C177.775 123.656 177.642 123.261 177.62 122.818H178.642C178.682 123.213 178.861 123.54 179.179 123.798C179.5 124.054 179.884 124.182 180.33 124.182C180.688 124.182 181.006 124.098 181.284 123.93C181.566 123.763 181.786 123.533 181.945 123.24C182.107 122.945 182.188 122.611 182.188 122.239C182.188 121.858 182.104 121.518 181.936 121.22C181.772 120.919 181.544 120.682 181.255 120.509C180.965 120.335 180.634 120.247 180.262 120.244C179.995 120.241 179.721 120.283 179.439 120.368C179.158 120.45 178.926 120.557 178.745 120.688L177.756 120.568L178.284 116.273H182.819V117.21H179.171L178.864 119.784H178.915C179.094 119.642 179.319 119.524 179.588 119.43C179.858 119.337 180.14 119.29 180.432 119.29C180.966 119.29 181.442 119.418 181.86 119.673C182.28 119.926 182.61 120.273 182.848 120.713C183.09 121.153 183.211 121.656 183.211 122.222C183.211 122.778 183.086 123.276 182.836 123.713C182.588 124.148 182.248 124.491 181.813 124.744C181.378 124.994 180.884 125.119 180.33 125.119Z" fill="black"/>
<path d="M154.631 96.1193C154.131 96.1193 153.68 96.0199 153.28 95.821C152.879 95.6222 152.558 95.3494 152.317 95.0028C152.075 94.6562 151.943 94.2614 151.92 93.8182H152.943C152.983 94.2131 153.162 94.5398 153.48 94.7983C153.801 95.054 154.185 95.1818 154.631 95.1818C154.989 95.1818 155.307 95.098 155.585 94.9304C155.866 94.7628 156.087 94.5327 156.246 94.2401C156.408 93.9446 156.489 93.6108 156.489 93.2386C156.489 92.858 156.405 92.5185 156.237 92.2202C156.072 91.919 155.845 91.6818 155.555 91.5085C155.266 91.3352 154.935 91.2472 154.562 91.2443C154.295 91.2415 154.021 91.2827 153.74 91.3679C153.459 91.4503 153.227 91.5568 153.045 91.6875L152.057 91.5682L152.585 87.2727H157.119V88.2102H153.472L153.165 90.7841H153.216C153.395 90.642 153.619 90.5241 153.889 90.4304C154.159 90.3366 154.44 90.2898 154.733 90.2898C155.267 90.2898 155.743 90.4176 156.161 90.6733C156.581 90.9261 156.911 91.2727 157.149 91.7131C157.391 92.1534 157.511 92.6562 157.511 93.2216C157.511 93.7784 157.386 94.2756 157.136 94.7131C156.889 95.1477 156.548 95.4915 156.114 95.7443C155.679 95.9943 155.185 96.1193 154.631 96.1193ZM165.443 89.4545V90.3068H162.051V89.4545H165.443ZM163.039 87.8864H164.045V94.125C164.045 94.4091 164.086 94.6222 164.169 94.7642C164.254 94.9034 164.362 94.9972 164.493 95.0455C164.626 95.0909 164.767 95.1136 164.914 95.1136C165.025 95.1136 165.116 95.108 165.187 95.0966C165.258 95.0824 165.315 95.071 165.358 95.0625L165.562 95.9659C165.494 95.9915 165.399 96.017 165.277 96.0426C165.154 96.071 165 96.0852 164.812 96.0852C164.528 96.0852 164.25 96.0241 163.977 95.902C163.707 95.7798 163.483 95.5938 163.304 95.3438C163.127 95.0938 163.039 94.7784 163.039 94.3977V87.8864ZM169.544 96.1364C168.953 96.1364 168.435 95.9957 167.989 95.7145C167.546 95.4332 167.199 95.0398 166.949 94.5341C166.702 94.0284 166.578 93.4375 166.578 92.7614C166.578 92.0795 166.702 91.4844 166.949 90.9759C167.199 90.4673 167.546 90.0724 167.989 89.7912C168.435 89.5099 168.953 89.3693 169.544 89.3693C170.135 89.3693 170.652 89.5099 171.096 89.7912C171.542 90.0724 171.888 90.4673 172.135 90.9759C172.385 91.4844 172.51 92.0795 172.51 92.7614C172.51 93.4375 172.385 94.0284 172.135 94.5341C171.888 95.0398 171.542 95.4332 171.096 95.7145C170.652 95.9957 170.135 96.1364 169.544 96.1364ZM169.544 95.233C169.993 95.233 170.363 95.1179 170.652 94.8878C170.942 94.6577 171.157 94.3551 171.296 93.9801C171.435 93.6051 171.505 93.1989 171.505 92.7614C171.505 92.3239 171.435 91.9162 171.296 91.5384C171.157 91.1605 170.942 90.8551 170.652 90.6222C170.363 90.3892 169.993 90.2727 169.544 90.2727C169.096 90.2727 168.726 90.3892 168.436 90.6222C168.147 90.8551 167.932 91.1605 167.793 91.5384C167.654 91.9162 167.584 92.3239 167.584 92.7614C167.584 93.1989 167.654 93.6051 167.793 93.9801C167.932 94.3551 168.147 94.6577 168.436 94.8878C168.726 95.1179 169.096 95.233 169.544 95.233ZM180.472 87.2727V96H179.415V88.3807H179.364L177.233 89.7955V88.7216L179.415 87.2727H180.472ZM185.828 96.1193C185.186 96.1193 184.639 95.9446 184.188 95.5952C183.736 95.2429 183.391 94.733 183.152 94.0653C182.913 93.3949 182.794 92.5852 182.794 91.6364C182.794 90.6932 182.913 89.8878 183.152 89.2202C183.393 88.5497 183.74 88.0384 184.192 87.6861C184.646 87.331 185.192 87.1534 185.828 87.1534C186.464 87.1534 187.009 87.331 187.46 87.6861C187.915 88.0384 188.261 88.5497 188.5 89.2202C188.741 89.8878 188.862 90.6932 188.862 91.6364C188.862 92.5852 188.743 93.3949 188.504 94.0653C188.266 94.733 187.92 95.2429 187.469 95.5952C187.017 95.9446 186.47 96.1193 185.828 96.1193ZM185.828 95.1818C186.464 95.1818 186.959 94.875 187.311 94.2614C187.663 93.6477 187.839 92.7727 187.839 91.6364C187.839 90.8807 187.759 90.2372 187.597 89.706C187.438 89.1747 187.207 88.7699 186.906 88.4915C186.608 88.2131 186.249 88.0739 185.828 88.0739C185.197 88.0739 184.705 88.3849 184.349 89.0071C183.994 89.6264 183.817 90.5028 183.817 91.6364C183.817 92.392 183.896 93.0341 184.055 93.5625C184.214 94.0909 184.443 94.4929 184.741 94.7685C185.043 95.044 185.405 95.1818 185.828 95.1818Z" fill="black"/>
<path d="M154.972 59.2727V68H153.915V60.3807H153.864L151.733 61.7955V60.7216L153.915 59.2727H154.972ZM160.328 68.1193C159.686 68.1193 159.139 67.9446 158.688 67.5952C158.236 67.2429 157.891 66.733 157.652 66.0653C157.413 65.3949 157.294 64.5852 157.294 63.6364C157.294 62.6932 157.413 61.8878 157.652 61.2202C157.893 60.5497 158.24 60.0384 158.692 59.6861C159.146 59.331 159.692 59.1534 160.328 59.1534C160.964 59.1534 161.509 59.331 161.96 59.6861C162.415 60.0384 162.761 60.5497 163 61.2202C163.241 61.8878 163.362 62.6932 163.362 63.6364C163.362 64.5852 163.243 65.3949 163.004 66.0653C162.766 66.733 162.42 67.2429 161.969 67.5952C161.517 67.9446 160.97 68.1193 160.328 68.1193ZM160.328 67.1818C160.964 67.1818 161.459 66.875 161.811 66.2614C162.163 65.6477 162.339 64.7727 162.339 63.6364C162.339 62.8807 162.259 62.2372 162.097 61.706C161.938 61.1747 161.707 60.7699 161.406 60.4915C161.108 60.2131 160.749 60.0739 160.328 60.0739C159.697 60.0739 159.205 60.3849 158.849 61.0071C158.494 61.6264 158.317 62.5028 158.317 63.6364C158.317 64.392 158.396 65.0341 158.555 65.5625C158.714 66.0909 158.943 66.4929 159.241 66.7685C159.543 67.044 159.905 67.1818 160.328 67.1818ZM171.22 61.4545V62.3068H167.828V61.4545H171.22ZM168.817 59.8864H169.822V66.125C169.822 66.4091 169.864 66.6222 169.946 66.7642C170.031 66.9034 170.139 66.9972 170.27 67.0455C170.403 67.0909 170.544 67.1136 170.692 67.1136C170.803 67.1136 170.893 67.108 170.964 67.0966C171.036 67.0824 171.092 67.071 171.135 67.0625L171.339 67.9659C171.271 67.9915 171.176 68.017 171.054 68.0426C170.932 68.071 170.777 68.0852 170.589 68.0852C170.305 68.0852 170.027 68.0241 169.754 67.902C169.484 67.7798 169.26 67.5938 169.081 67.3438C168.905 67.0938 168.817 66.7784 168.817 66.3977V59.8864ZM175.322 68.1364C174.731 68.1364 174.212 67.9957 173.766 67.7145C173.323 67.4332 172.977 67.0398 172.727 66.5341C172.479 66.0284 172.356 65.4375 172.356 64.7614C172.356 64.0795 172.479 63.4844 172.727 62.9759C172.977 62.4673 173.323 62.0724 173.766 61.7912C174.212 61.5099 174.731 61.3693 175.322 61.3693C175.913 61.3693 176.43 61.5099 176.873 61.7912C177.319 62.0724 177.665 62.4673 177.913 62.9759C178.163 63.4844 178.288 64.0795 178.288 64.7614C178.288 65.4375 178.163 66.0284 177.913 66.5341C177.665 67.0398 177.319 67.4332 176.873 67.7145C176.43 67.9957 175.913 68.1364 175.322 68.1364ZM175.322 67.233C175.771 67.233 176.14 67.1179 176.43 66.8878C176.719 66.6577 176.934 66.3551 177.073 65.9801C177.212 65.6051 177.282 65.1989 177.282 64.7614C177.282 64.3239 177.212 63.9162 177.073 63.5384C176.934 63.1605 176.719 62.8551 176.43 62.6222C176.14 62.3892 175.771 62.2727 175.322 62.2727C174.873 62.2727 174.504 62.3892 174.214 62.6222C173.924 62.8551 173.71 63.1605 173.57 63.5384C173.431 63.9162 173.362 64.3239 173.362 64.7614C173.362 65.1989 173.431 65.6051 173.57 65.9801C173.71 66.3551 173.924 66.6577 174.214 66.8878C174.504 67.1179 174.873 67.233 175.322 67.233ZM185.908 68.1193C185.408 68.1193 184.958 68.0199 184.557 67.821C184.157 67.6222 183.836 67.3494 183.594 67.0028C183.353 66.6562 183.221 66.2614 183.198 65.8182H184.221C184.26 66.2131 184.439 66.5398 184.757 66.7983C185.078 67.054 185.462 67.1818 185.908 67.1818C186.266 67.1818 186.584 67.098 186.863 66.9304C187.144 66.7628 187.364 66.5327 187.523 66.2401C187.685 65.9446 187.766 65.6108 187.766 65.2386C187.766 64.858 187.682 64.5185 187.515 64.2202C187.35 63.919 187.123 63.6818 186.833 63.5085C186.543 63.3352 186.212 63.2472 185.84 63.2443C185.573 63.2415 185.299 63.2827 185.017 63.3679C184.736 63.4503 184.505 63.5568 184.323 63.6875L183.334 63.5682L183.863 59.2727H188.397V60.2102H184.749L184.442 62.7841H184.493C184.672 62.642 184.897 62.5241 185.167 62.4304C185.436 62.3366 185.718 62.2898 186.01 62.2898C186.544 62.2898 187.02 62.4176 187.438 62.6733C187.858 62.9261 188.188 63.2727 188.426 63.7131C188.668 64.1534 188.789 64.6562 188.789 65.2216C188.789 65.7784 188.664 66.2756 188.414 66.7131C188.167 67.1477 187.826 67.4915 187.391 67.7443C186.956 67.9943 186.462 68.1193 185.908 68.1193ZM193.328 68.1193C192.686 68.1193 192.139 67.9446 191.688 67.5952C191.236 67.2429 190.891 66.733 190.652 66.0653C190.413 65.3949 190.294 64.5852 190.294 63.6364C190.294 62.6932 190.413 61.8878 190.652 61.2202C190.893 60.5497 191.24 60.0384 191.692 59.6861C192.146 59.331 192.692 59.1534 193.328 59.1534C193.964 59.1534 194.509 59.331 194.96 59.6861C195.415 60.0384 195.761 60.5497 196 61.2202C196.241 61.8878 196.362 62.6932 196.362 63.6364C196.362 64.5852 196.243 65.3949 196.004 66.0653C195.766 66.733 195.42 67.2429 194.969 67.5952C194.517 67.9446 193.97 68.1193 193.328 68.1193ZM193.328 67.1818C193.964 67.1818 194.459 66.875 194.811 66.2614C195.163 65.6477 195.339 64.7727 195.339 63.6364C195.339 62.8807 195.259 62.2372 195.097 61.706C194.938 61.1747 194.707 60.7699 194.406 60.4915C194.108 60.2131 193.749 60.0739 193.328 60.0739C192.697 60.0739 192.205 60.3849 191.849 61.0071C191.494 61.6264 191.317 62.5028 191.317 63.6364C191.317 64.392 191.396 65.0341 191.555 65.5625C191.714 66.0909 191.943 66.4929 192.241 66.7685C192.543 67.044 192.905 67.1818 193.328 67.1818Z" fill="black"/>
<path d="M154.631 40.1193C154.131 40.1193 153.68 40.0199 153.28 39.821C152.879 39.6222 152.558 39.3494 152.317 39.0028C152.075 38.6562 151.943 38.2614 151.92 37.8182H152.943C152.983 38.2131 153.162 38.5398 153.48 38.7983C153.801 39.054 154.185 39.1818 154.631 39.1818C154.989 39.1818 155.307 39.098 155.585 38.9304C155.866 38.7628 156.087 38.5327 156.246 38.2401C156.408 37.9446 156.489 37.6108 156.489 37.2386C156.489 36.858 156.405 36.5185 156.237 36.2202C156.072 35.919 155.845 35.6818 155.555 35.5085C155.266 35.3352 154.935 35.2472 154.562 35.2443C154.295 35.2415 154.021 35.2827 153.74 35.3679C153.459 35.4503 153.227 35.5568 153.045 35.6875L152.057 35.5682L152.585 31.2727H157.119V32.2102H153.472L153.165 34.7841H153.216C153.395 34.642 153.619 34.5241 153.889 34.4304C154.159 34.3366 154.44 34.2898 154.733 34.2898C155.267 34.2898 155.743 34.4176 156.161 34.6733C156.581 34.9261 156.911 35.2727 157.149 35.7131C157.391 36.1534 157.511 36.6562 157.511 37.2216C157.511 37.7784 157.386 38.2756 157.136 38.7131C156.889 39.1477 156.548 39.4915 156.114 39.7443C155.679 39.9943 155.185 40.1193 154.631 40.1193ZM162.051 40.1193C161.409 40.1193 160.862 39.9446 160.41 39.5952C159.958 39.2429 159.613 38.733 159.375 38.0653C159.136 37.3949 159.017 36.5852 159.017 35.6364C159.017 34.6932 159.136 33.8878 159.375 33.2202C159.616 32.5497 159.963 32.0384 160.414 31.6861C160.869 31.331 161.414 31.1534 162.051 31.1534C162.687 31.1534 163.231 31.331 163.683 31.6861C164.137 32.0384 164.484 32.5497 164.723 33.2202C164.964 33.8878 165.085 34.6932 165.085 35.6364C165.085 36.5852 164.966 37.3949 164.727 38.0653C164.488 38.733 164.143 39.2429 163.691 39.5952C163.24 39.9446 162.693 40.1193 162.051 40.1193ZM162.051 39.1818C162.687 39.1818 163.181 38.875 163.534 38.2614C163.886 37.6477 164.062 36.7727 164.062 35.6364C164.062 34.8807 163.981 34.2372 163.819 33.706C163.66 33.1747 163.43 32.7699 163.129 32.4915C162.831 32.2131 162.471 32.0739 162.051 32.0739C161.42 32.0739 160.927 32.3849 160.572 33.0071C160.217 33.6264 160.039 34.5028 160.039 35.6364C160.039 36.392 160.119 37.0341 160.278 37.5625C160.437 38.0909 160.666 38.4929 160.964 38.7685C161.265 39.044 161.627 39.1818 162.051 39.1818ZM172.943 33.4545V34.3068H169.551V33.4545H172.943ZM170.539 31.8864H171.545V38.125C171.545 38.4091 171.586 38.6222 171.669 38.7642C171.754 38.9034 171.862 38.9972 171.993 39.0455C172.126 39.0909 172.267 39.1136 172.414 39.1136C172.525 39.1136 172.616 39.108 172.687 39.0966C172.758 39.0824 172.815 39.071 172.858 39.0625L173.062 39.9659C172.994 39.9915 172.899 40.017 172.777 40.0426C172.654 40.071 172.5 40.0852 172.312 40.0852C172.028 40.0852 171.75 40.0241 171.477 39.902C171.207 39.7798 170.983 39.5938 170.804 39.3438C170.627 39.0938 170.539 38.7784 170.539 38.3977V31.8864ZM177.044 40.1364C176.453 40.1364 175.935 39.9957 175.489 39.7145C175.046 39.4332 174.699 39.0398 174.449 38.5341C174.202 38.0284 174.078 37.4375 174.078 36.7614C174.078 36.0795 174.202 35.4844 174.449 34.9759C174.699 34.4673 175.046 34.0724 175.489 33.7912C175.935 33.5099 176.453 33.3693 177.044 33.3693C177.635 33.3693 178.152 33.5099 178.596 33.7912C179.042 34.0724 179.388 34.4673 179.635 34.9759C179.885 35.4844 180.01 36.0795 180.01 36.7614C180.01 37.4375 179.885 38.0284 179.635 38.5341C179.388 39.0398 179.042 39.4332 178.596 39.7145C178.152 39.9957 177.635 40.1364 177.044 40.1364ZM177.044 39.233C177.493 39.233 177.863 39.1179 178.152 38.8878C178.442 38.6577 178.657 38.3551 178.796 37.9801C178.935 37.6051 179.005 37.1989 179.005 36.7614C179.005 36.3239 178.935 35.9162 178.796 35.5384C178.657 35.1605 178.442 34.8551 178.152 34.6222C177.863 34.3892 177.493 34.2727 177.044 34.2727C176.596 34.2727 176.226 34.3892 175.936 34.6222C175.647 34.8551 175.432 35.1605 175.293 35.5384C175.154 35.9162 175.084 36.3239 175.084 36.7614C175.084 37.1989 175.154 37.6051 175.293 37.9801C175.432 38.3551 175.647 38.6577 175.936 38.8878C176.226 39.1179 176.596 39.233 177.044 39.233ZM187.972 31.2727V40H186.915V32.3807H186.864L184.733 33.7955V32.7216L186.915 31.2727H187.972ZM193.328 40.1193C192.686 40.1193 192.139 39.9446 191.688 39.5952C191.236 39.2429 190.891 38.733 190.652 38.0653C190.413 37.3949 190.294 36.5852 190.294 35.6364C190.294 34.6932 190.413 33.8878 190.652 33.2202C190.893 32.5497 191.24 32.0384 191.692 31.6861C192.146 31.331 192.692 31.1534 193.328 31.1534C193.964 31.1534 194.509 31.331 194.96 31.6861C195.415 32.0384 195.761 32.5497 196 33.2202C196.241 33.8878 196.362 34.6932 196.362 35.6364C196.362 36.5852 196.243 37.3949 196.004 38.0653C195.766 38.733 195.42 39.2429 194.969 39.5952C194.517 39.9446 193.97 40.1193 193.328 40.1193ZM193.328 39.1818C193.964 39.1818 194.459 38.875 194.811 38.2614C195.163 37.6477 195.339 36.7727 195.339 35.6364C195.339 34.8807 195.259 34.2372 195.097 33.706C194.938 33.1747 194.707 32.7699 194.406 32.4915C194.108 32.2131 193.749 32.0739 193.328 32.0739C192.697 32.0739 192.205 32.3849 191.849 33.0071C191.494 33.6264 191.317 34.5028 191.317 35.6364C191.317 36.392 191.396 37.0341 191.555 37.5625C191.714 38.0909 191.943 38.4929 192.241 38.7685C192.543 39.044 192.905 39.1818 193.328 39.1818ZM200.828 40.1193C200.186 40.1193 199.639 39.9446 199.188 39.5952C198.736 39.2429 198.391 38.733 198.152 38.0653C197.913 37.3949 197.794 36.5852 197.794 35.6364C197.794 34.6932 197.913 33.8878 198.152 33.2202C198.393 32.5497 198.74 32.0384 199.192 31.6861C199.646 31.331 200.192 31.1534 200.828 31.1534C201.464 31.1534 202.009 31.331 202.46 31.6861C202.915 32.0384 203.261 32.5497 203.5 33.2202C203.741 33.8878 203.862 34.6932 203.862 35.6364C203.862 36.5852 203.743 37.3949 203.504 38.0653C203.266 38.733 202.92 39.2429 202.469 39.5952C202.017 39.9446 201.47 40.1193 200.828 40.1193ZM200.828 39.1818C201.464 39.1818 201.959 38.875 202.311 38.2614C202.663 37.6477 202.839 36.7727 202.839 35.6364C202.839 34.8807 202.759 34.2372 202.597 33.706C202.438 33.1747 202.207 32.7699 201.906 32.4915C201.608 32.2131 201.249 32.0739 200.828 32.0739C200.197 32.0739 199.705 32.3849 199.349 33.0071C198.994 33.6264 198.817 34.5028 198.817 35.6364C198.817 36.392 198.896 37.0341 199.055 37.5625C199.214 38.0909 199.443 38.4929 199.741 38.7685C200.043 39.044 200.405 39.1818 200.828 39.1818Z" fill="black"/>
<path d="M154.972 3.27273V12H153.915V4.38068H153.864L151.733 5.79545V4.72159L153.915 3.27273H154.972ZM160.328 12.1193C159.686 12.1193 159.139 11.9446 158.688 11.5952C158.236 11.2429 157.891 10.733 157.652 10.0653C157.413 9.39489 157.294 8.58523 157.294 7.63636C157.294 6.69318 157.413 5.88778 157.652 5.22017C157.893 4.54972 158.24 4.03835 158.692 3.68608C159.146 3.33097 159.692 3.15341 160.328 3.15341C160.964 3.15341 161.509 3.33097 161.96 3.68608C162.415 4.03835 162.761 4.54972 163 5.22017C163.241 5.88778 163.362 6.69318 163.362 7.63636C163.362 8.58523 163.243 9.39489 163.004 10.0653C162.766 10.733 162.42 11.2429 161.969 11.5952C161.517 11.9446 160.97 12.1193 160.328 12.1193ZM160.328 11.1818C160.964 11.1818 161.459 10.875 161.811 10.2614C162.163 9.64773 162.339 8.77273 162.339 7.63636C162.339 6.88068 162.259 6.23722 162.097 5.70597C161.938 5.17472 161.707 4.76989 161.406 4.49148C161.108 4.21307 160.749 4.07386 160.328 4.07386C159.697 4.07386 159.205 4.38494 158.849 5.0071C158.494 5.62642 158.317 6.50284 158.317 7.63636C158.317 8.39205 158.396 9.03409 158.555 9.5625C158.714 10.0909 158.943 10.4929 159.241 10.7685C159.543 11.044 159.905 11.1818 160.328 11.1818ZM167.828 12.1193C167.186 12.1193 166.639 11.9446 166.188 11.5952C165.736 11.2429 165.391 10.733 165.152 10.0653C164.913 9.39489 164.794 8.58523 164.794 7.63636C164.794 6.69318 164.913 5.88778 165.152 5.22017C165.393 4.54972 165.74 4.03835 166.192 3.68608C166.646 3.33097 167.192 3.15341 167.828 3.15341C168.464 3.15341 169.009 3.33097 169.46 3.68608C169.915 4.03835 170.261 4.54972 170.5 5.22017C170.741 5.88778 170.862 6.69318 170.862 7.63636C170.862 8.58523 170.743 9.39489 170.504 10.0653C170.266 10.733 169.92 11.2429 169.469 11.5952C169.017 11.9446 168.47 12.1193 167.828 12.1193ZM167.828 11.1818C168.464 11.1818 168.959 10.875 169.311 10.2614C169.663 9.64773 169.839 8.77273 169.839 7.63636C169.839 6.88068 169.759 6.23722 169.597 5.70597C169.438 5.17472 169.207 4.76989 168.906 4.49148C168.608 4.21307 168.249 4.07386 167.828 4.07386C167.197 4.07386 166.705 4.38494 166.349 5.0071C165.994 5.62642 165.817 6.50284 165.817 7.63636C165.817 8.39205 165.896 9.03409 166.055 9.5625C166.214 10.0909 166.443 10.4929 166.741 10.7685C167.043 11.044 167.405 11.1818 167.828 11.1818ZM178.72 5.45455V6.30682H175.328V5.45455H178.72ZM176.317 3.88636H177.322V10.125C177.322 10.4091 177.364 10.6222 177.446 10.7642C177.531 10.9034 177.639 10.9972 177.77 11.0455C177.903 11.0909 178.044 11.1136 178.192 11.1136C178.303 11.1136 178.393 11.108 178.464 11.0966C178.536 11.0824 178.592 11.071 178.635 11.0625L178.839 11.9659C178.771 11.9915 178.676 12.017 178.554 12.0426C178.432 12.071 178.277 12.0852 178.089 12.0852C177.805 12.0852 177.527 12.0241 177.254 11.902C176.984 11.7798 176.76 11.5938 176.581 11.3438C176.405 11.0938 176.317 10.7784 176.317 10.3977V3.88636ZM182.822 12.1364C182.231 12.1364 181.712 11.9957 181.266 11.7145C180.823 11.4332 180.477 11.0398 180.227 10.5341C179.979 10.0284 179.856 9.4375 179.856 8.76136C179.856 8.07955 179.979 7.48437 180.227 6.97585C180.477 6.46733 180.823 6.07244 181.266 5.79119C181.712 5.50994 182.231 5.36932 182.822 5.36932C183.413 5.36932 183.93 5.50994 184.373 5.79119C184.819 6.07244 185.165 6.46733 185.413 6.97585C185.663 7.48437 185.788 8.07955 185.788 8.76136C185.788 9.4375 185.663 10.0284 185.413 10.5341C185.165 11.0398 184.819 11.4332 184.373 11.7145C183.93 11.9957 183.413 12.1364 182.822 12.1364ZM182.822 11.233C183.271 11.233 183.64 11.1179 183.93 10.8878C184.219 10.6577 184.434 10.3551 184.573 9.98011C184.712 9.60511 184.782 9.19886 184.782 8.76136C184.782 8.32386 184.712 7.91619 184.573 7.53835C184.434 7.16051 184.219 6.85511 183.93 6.62216C183.64 6.3892 183.271 6.27273 182.822 6.27273C182.373 6.27273 182.004 6.3892 181.714 6.62216C181.424 6.85511 181.21 7.16051 181.07 7.53835C180.931 7.91619 180.862 8.32386 180.862 8.76136C180.862 9.19886 180.931 9.60511 181.07 9.98011C181.21 10.3551 181.424 10.6577 181.714 10.8878C182.004 11.1179 182.373 11.233 182.822 11.233ZM193.749 3.27273V12H192.692V4.38068H192.641L190.51 5.79545V4.72159L192.692 3.27273H193.749ZM199.105 12.1193C198.463 12.1193 197.917 11.9446 197.465 11.5952C197.013 11.2429 196.668 10.733 196.429 10.0653C196.191 9.39489 196.071 8.58523 196.071 7.63636C196.071 6.69318 196.191 5.88778 196.429 5.22017C196.671 4.54972 197.017 4.03835 197.469 3.68608C197.924 3.33097 198.469 3.15341 199.105 3.15341C199.742 3.15341 200.286 3.33097 200.738 3.68608C201.192 4.03835 201.539 4.54972 201.777 5.22017C202.019 5.88778 202.14 6.69318 202.14 7.63636C202.14 8.58523 202.02 9.39489 201.782 10.0653C201.543 10.733 201.198 11.2429 200.746 11.5952C200.294 11.9446 199.748 12.1193 199.105 12.1193ZM199.105 11.1818C199.742 11.1818 200.236 10.875 200.588 10.2614C200.941 9.64773 201.117 8.77273 201.117 7.63636C201.117 6.88068 201.036 6.23722 200.874 5.70597C200.715 5.17472 200.485 4.76989 200.184 4.49148C199.885 4.21307 199.526 4.07386 199.105 4.07386C198.475 4.07386 197.982 4.38494 197.627 5.0071C197.272 5.62642 197.094 6.50284 197.094 7.63636C197.094 8.39205 197.174 9.03409 197.333 9.5625C197.492 10.0909 197.721 10.4929 198.019 10.7685C198.32 11.044 198.682 11.1818 199.105 11.1818ZM206.605 12.1193C205.963 12.1193 205.417 11.9446 204.965 11.5952C204.513 11.2429 204.168 10.733 203.929 10.0653C203.691 9.39489 203.571 8.58523 203.571 7.63636C203.571 6.69318 203.691 5.88778 203.929 5.22017C204.171 4.54972 204.517 4.03835 204.969 3.68608C205.424 3.33097 205.969 3.15341 206.605 3.15341C207.242 3.15341 207.786 3.33097 208.238 3.68608C208.692 4.03835 209.039 4.54972 209.277 5.22017C209.519 5.88778 209.64 6.69318 209.64 7.63636C209.64 8.58523 209.52 9.39489 209.282 10.0653C209.043 10.733 208.698 11.2429 208.246 11.5952C207.794 11.9446 207.248 12.1193 206.605 12.1193ZM206.605 11.1818C207.242 11.1818 207.736 10.875 208.088 10.2614C208.441 9.64773 208.617 8.77273 208.617 7.63636C208.617 6.88068 208.536 6.23722 208.374 5.70597C208.215 5.17472 207.985 4.76989 207.684 4.49148C207.385 4.21307 207.026 4.07386 206.605 4.07386C205.975 4.07386 205.482 4.38494 205.127 5.0071C204.772 5.62642 204.594 6.50284 204.594 7.63636C204.594 8.39205 204.674 9.03409 204.833 9.5625C204.992 10.0909 205.221 10.4929 205.519 10.7685C205.82 11.044 206.182 11.1818 206.605 11.1818ZM214.105 12.1193C213.463 12.1193 212.917 11.9446 212.465 11.5952C212.013 11.2429 211.668 10.733 211.429 10.0653C211.191 9.39489 211.071 8.58523 211.071 7.63636C211.071 6.69318 211.191 5.88778 211.429 5.22017C211.671 4.54972 212.017 4.03835 212.469 3.68608C212.924 3.33097 213.469 3.15341 214.105 3.15341C214.742 3.15341 215.286 3.33097 215.738 3.68608C216.192 4.03835 216.539 4.54972 216.777 5.22017C217.019 5.88778 217.14 6.69318 217.14 7.63636C217.14 8.58523 217.02 9.39489 216.782 10.0653C216.543 10.733 216.198 11.2429 215.746 11.5952C215.294 11.9446 214.748 12.1193 214.105 12.1193ZM214.105 11.1818C214.742 11.1818 215.236 10.875 215.588 10.2614C215.941 9.64773 216.117 8.77273 216.117 7.63636C216.117 6.88068 216.036 6.23722 215.874 5.70597C215.715 5.17472 215.485 4.76989 215.184 4.49148C214.885 4.21307 214.526 4.07386 214.105 4.07386C213.475 4.07386 212.982 4.38494 212.627 5.0071C212.272 5.62642 212.094 6.50284 212.094 7.63636C212.094 8.39205 212.174 9.03409 212.333 9.5625C212.492 10.0909 212.721 10.4929 213.019 10.7685C213.32 11.044 213.682 11.1818 214.105 11.1818Z" fill="black"/>
<line x1="78.4" y1="117.6" x2="147.6" y2="117.6" stroke="black" stroke-width="0.8" stroke-linecap="round" stroke-dasharray="2 2"/>
<line x1="78.4" y1="88.6" x2="147.6" y2="88.6" stroke="black" stroke-width="0.8" stroke-linecap="round" stroke-dasharray="2 2"/>
<line x1="78.4" y1="60.6" x2="147.6" y2="60.6" stroke="black" stroke-width="0.8" stroke-linecap="round" stroke-dasharray="2 2"/>
<line x1="78.4" y1="32.6" x2="147.6" y2="32.6" stroke="black" stroke-width="0.8" stroke-linecap="round" stroke-dasharray="2 2"/>
<line x1="78.4" y1="4.6" x2="147.6" y2="4.6" stroke="black" stroke-width="0.8" stroke-linecap="round" stroke-dasharray="2 2"/>
</svg>
