<?xml version="1.0" encoding="UTF-8"?>
<svg width="117px" height="100px" viewBox="0 0 117 100" version="1.1" xmlns="http://www.w3.org/2000/svg" xmlns:xlink="http://www.w3.org/1999/xlink">
    <title>civic</title>
    <defs>
        <rect id="path-1" x="31" y="0" width="40" height="65" rx="5.33333333"></rect>
        <mask id="mask-2" maskContentUnits="userSpaceOnUse" maskUnits="objectBoundingBox" x="0" y="0" width="40" height="65" fill="white">
            <use xlink:href="#path-1"></use>
        </mask>
        <rect id="path-3" x="0" y="10.6122449" width="26" height="22.5510204" rx="5.33333333"></rect>
        <mask id="mask-4" maskContentUnits="userSpaceOnUse" maskUnits="objectBoundingBox" x="0" y="0" width="26" height="22.5510204" fill="white">
            <use xlink:href="#path-3"></use>
        </mask>
        <rect id="path-5" x="76" y="47" width="26.6666667" height="18" rx="5.33333349"></rect>
        <mask id="mask-6" maskContentUnits="userSpaceOnUse" maskUnits="objectBoundingBox" x="0" y="0" width="26.6666667" height="18" fill="white">
            <use xlink:href="#path-5"></use>
        </mask>
    </defs>
    <g id="civic" stroke="none" stroke-width="1" fill="none" fill-rule="evenodd">
        <g id="Group-2" transform="translate(7, 18)">
            <use id="Rectangle" stroke="#00ADF2" mask="url(#mask-2)" stroke-width="4" stroke-linejoin="round" stroke-dasharray="5.333333333333333,2.666666666666666" xlink:href="#path-1"></use>
            <use id="Rectangle" stroke="#00ADF2" mask="url(#mask-4)" stroke-width="4" stroke-linejoin="round" stroke-dasharray="5.333333333333333,2.666666666666666" xlink:href="#path-3"></use>
            <use id="Rectangle" stroke="#00ADF2" mask="url(#mask-6)" stroke-width="4" stroke-linejoin="round" stroke-dasharray="5.333333333333333,2.666666666666666" xlink:href="#path-5"></use>
            <path d="M80.5333333,27 L87.4666667,27 C87.7612185,27 88,26.7612185 88,26.4666667 L88,20.5333333 C88,20.2387815 87.7612185,20 87.4666667,20 L80.5333333,20 C80.2387815,20 80,20.2387815 80,20.5333333 L80,26.4666667 C80,26.7612185 80.2387815,27 80.5333333,27 Z M91.5333333,27 L98.4666667,27 C98.7612185,27 99,26.7612185 99,26.4666667 L99,20.5333333 C99,20.2387815 98.7612185,20 98.4666667,20 L91.5333333,20 C91.2387815,20 91,20.2387815 91,20.5333333 L91,26.4666667 C91,26.7612185 91.2387815,27 91.5333333,27 Z M76.5333333,42 L102.466667,42 C102.761219,42 103,41.7612185 103,41.4666667 L103,11.5333333 C103,11.2387815 102.761219,11 102.466667,11 L76.5333333,11 C76.2387815,11 76,11.2387815 76,11.5333333 L76,41.4666667 C76,41.7612185 76.2387815,42 76.5333333,42 Z" id="Fill-282" fill="#002940"></path>
            <path d="M0,38.5333333 L1.11022302e-16,64.4666667 C1.47094503e-16,64.7612185 0.23878147,65 0.533333341,65 L8.85020019,65 C9.14475206,65 9.38353353,64.7612185 9.38353353,64.4666667 L9.38353353,55.7939262 C9.38353353,55.4993743 9.622315,55.2605929 9.91686687,55.2605929 L16.4249669,55.2605929 C16.7195188,55.2605929 16.9583003,55.4993743 16.9583003,55.7939262 L16.9583003,64.4666667 C16.9583003,64.7612185 17.1970817,65 17.4916336,65 L25.4666667,65 C25.7612185,65 26,64.7612185 26,64.4666667 L26,38.5333333 C26,38.2387815 25.7612185,38 25.4666667,38 L0.533333341,38 C0.23878147,38 1.16713703e-15,38.2387815 1.22124533e-15,38.5333333 Z" id="Fill-281" fill="#002940"></path>
            <g id="?" transform="translate(45.6667, 23.5714)" fill="#00ADF2" fill-rule="nonzero">
                <path d="M3.78454069,13.1817252 L5.92186644,13.1817252 C6.01488679,13.1817252 6.09029467,13.1063173 6.09029467,13.013297 L6.09029467,13.013297 L6.09029467,13.013297 C6.12489862,10.9744289 6.69586375,10.0613706 8.16653149,9.13058302 C9.71505812,8.1732015 10.6666667,6.82577566 10.6666667,4.83123082 C10.6666667,1.95022162 8.53852393,0 5.36361179,0 C2.44822925,0 0.112462828,1.74633481 0,4.93760655 L2.62989997,4.93760655 C2.73371181,3.05830208 4.04001081,2.23389021 5.36361179,2.23389021 C6.83427954,2.23389021 8.02811571,3.23559495 8.02811571,4.80463689 C8.02811571,6.1254688 7.22357394,7.05625639 6.19410652,7.71224003 C4.58502298,8.72280941 3.63341444,9.72451415 3.61611246,13.013297 C3.61611246,13.1063173 3.69152035,13.1817252 3.78454069,13.1817252 Z M4.92241146,18.5714286 C5.86536902,18.5714286 6.65260881,17.7824753 6.65260881,16.7984998 C6.65260881,15.8322537 5.86536902,15.0344357 4.92241146,15.0344357 C3.97080292,15.0344357 3.19221411,15.8322537 3.19221411,16.7984998 C3.19221411,17.7824753 3.97080292,18.5714286 4.92241146,18.5714286 Z" id="Shape"></path>
            </g>
        </g>
    </g>
</svg>