<svg width="190" height="2221" viewBox="0 0 190 2221" fill="none" xmlns="http://www.w3.org/2000/svg">
<ellipse cx="95" cy="2006" rx="95" ry="215" fill="#002940"/>
<rect x="0.5" y="1353.5" width="189" height="680" rx="14.5" fill="#002940" stroke="#002940"/>
<path d="M95 1735.5C106.552 1735.5 117.61 1741.42 127.721 1752.24C137.833 1763.06 146.961 1778.74 154.639 1798.16C169.992 1836.99 179.5 1890.68 179.5 1950C179.5 2009.32 169.992 2063.01 154.639 2101.84C146.961 2121.26 137.833 2136.94 127.721 2147.76C117.61 2158.58 106.552 2164.5 95 2164.5C83.448 2164.5 72.3904 2158.58 62.2793 2147.76C52.1675 2136.94 43.0386 2121.26 35.3613 2101.84C20.0078 2063.01 10.5 2009.32 10.5 1950C10.5 1890.68 20.0078 1836.99 35.3613 1798.16C43.0386 1778.74 52.1675 1763.06 62.2793 1752.24C72.3904 1741.42 83.448 1735.5 95 1735.5Z" fill="white" stroke="#002940"/>
<path d="M95 1660.5C107.953 1660.5 120.332 1666.44 131.633 1677.26C142.937 1688.08 153.139 1703.76 161.718 1723.17C178.875 1762 189.5 1815.68 189.5 1875C189.5 1934.32 178.875 1988 161.718 2026.83C153.139 2046.24 142.937 2061.92 131.633 2072.74C120.332 2083.56 107.953 2089.5 95 2089.5C82.0469 2089.5 69.6684 2083.56 58.3672 2072.74C47.0635 2061.92 36.8612 2046.24 28.2822 2026.83C11.1248 1988 0.5 1934.32 0.5 1875C0.5 1815.68 11.1248 1762 28.2822 1723.17C36.8612 1703.76 47.0635 1688.08 58.3672 1677.26C69.6684 1666.44 82.0469 1660.5 95 1660.5Z" fill="#002940" stroke="#002940"/>
<rect x="0.5" y="678.5" width="189" height="635" rx="14.5" fill="#002940" stroke="#002940"/>
<rect x="0.5" y="0.5" width="189" height="635" rx="14.5" fill="#002940" stroke="#002940"/>
<path d="M113.26 636.5L106.419 653.5H82.8018L75.749 636.5H113.26Z" fill="#002940" stroke="#002940"/>
<path d="M75.7402 677.5L82.5811 660.5H106.198L113.251 677.5H75.7402Z" fill="#002940" stroke="#002940"/>
<circle cx="95" cy="657" r="9.5" fill="#0077B3" stroke="#002940"/>
<circle cx="94.9998" cy="657" r="6.64286" fill="#F1C500" stroke="#002940"/>
<path d="M113.26 1311.5L106.419 1328.5H82.8018L75.749 1311.5H113.26Z" fill="#002940" stroke="#002940"/>
<path d="M75.7402 1352.5L82.5811 1335.5H106.198L113.251 1352.5H75.7402Z" fill="#002940" stroke="#002940"/>
<circle cx="95" cy="1332" r="9.5" fill="#0077B3" stroke="#002940"/>
<circle cx="94.9998" cy="1332" r="6.64286" fill="#F1C500" stroke="#002940"/>
<line x1="62" y1="636" x2="62" y2="681" stroke="#002940" stroke-width="2"/>
<line x1="128" y1="634" x2="128" y2="679" stroke="#002940" stroke-width="2"/>
<line x1="62" y1="1313" x2="62" y2="1358" stroke="#002940" stroke-width="2"/>
<line x1="128" y1="1311" x2="128" y2="1356" stroke="#002940" stroke-width="2"/>
<path d="M34 442C34 430.954 42.9543 422 54 422H136C147.046 422 156 430.954 156 442V458C156 469.046 147.046 478 136 478H54C42.9543 478 34 469.046 34 458V442Z" fill="#00ADF2"/>
<path d="M34 1808C34 1796.95 42.9543 1788 54 1788H136C147.046 1788 156 1796.95 156 1808V1824C156 1835.05 147.046 1844 136 1844H54C42.9543 1844 34 1835.05 34 1824V1808Z" fill="#00ADF2"/>
<path d="M34 1131C34 1119.95 42.9543 1111 54 1111H136C147.046 1111 156 1119.95 156 1131V1147C156 1158.05 147.046 1167 136 1167H54C42.9543 1167 34 1158.05 34 1147V1131Z" fill="#00ADF2"/>
<line x1="129" y1="679" x2="129" y2="1111" stroke="#00ADF2" stroke-width="4"/>
<path d="M129 0L129 422" stroke="#00ADF2" stroke-width="4"/>
<line x1="64" y1="0.00473932" x2="63" y2="422.005" stroke="#00ADF2" stroke-width="4"/>
<line x1="63" y1="679" x2="63" y2="1111" stroke="#00ADF2" stroke-width="4"/>
<line x1="129" y1="1356" x2="129" y2="1788" stroke="#00ADF2" stroke-width="4"/>
<line x1="63" y1="1356" x2="63" y2="1788" stroke="#00ADF2" stroke-width="4"/>
<rect x="166" y="1363" width="11" height="128" rx="5" fill="white"/>
<rect x="10" y="1363" width="11" height="128" rx="5" fill="white"/>
<rect x="10" y="1510" width="11" height="128" rx="5" fill="white"/>
<rect x="166" y="1510" width="11" height="128" rx="5" fill="white"/>
<rect x="166" y="691" width="11" height="128" rx="5" fill="white"/>
<rect x="10" y="691" width="11" height="128" rx="5" fill="white"/>
<rect x="10" y="838" width="11" height="128" rx="5" fill="white"/>
<rect x="166" y="838" width="11" height="128" rx="5" fill="white"/>
<rect x="166" y="13" width="11" height="128" rx="5" fill="white"/>
<rect x="10" y="13" width="11" height="128" rx="5" fill="white"/>
<rect x="10" y="160" width="11" height="128" rx="5" fill="white"/>
<rect x="166" y="160" width="11" height="128" rx="5" fill="white"/>
</svg>
