<?xml version="1.0" encoding="UTF-8"?>
<svg width="117px" height="100px" viewBox="0 0 117 100" version="1.1" xmlns="http://www.w3.org/2000/svg" xmlns:xlink="http://www.w3.org/1999/xlink">
    <title>opennorth copy</title>
    <g id="opennorth-copy" stroke="none" stroke-width="1" fill="none" fill-rule="evenodd">
        <g id="noun-community-1173034" transform="translate(20, 12)" fill-rule="nonzero">
            <path d="M76.2208095,40.2562013 L74.7696371,38.4281227 C74.3003624,37.8216743 74.149591,37.0266434 74.3641625,36.2900191 L76.6369545,28.5821557 C77.110162,27.04595 76.4590123,25.3861576 75.0684079,24.5839019 L70.3734383,21.9861061 C69.6463884,21.5729687 68.7455341,21.6231106 68.0686351,22.1143923 L67.4497527,22.542013 C66.1873435,23.4394897 65.6660255,25.0629772 66.1693065,26.5295762 L68.4207578,33.1256258 C68.5251894,33.3845218 68.450446,33.681361 68.2359337,33.8596445 C68.0214214,34.0379279 67.716433,34.0566878 67.4817639,33.9060336 L66.9375742,33.5318655 C65.9250175,32.8159325 64.6100565,32.6898809 63.4803693,33.2004594 L55.9577476,36.7817829 C55.6202007,36.9483764 55.3685921,37.2500654 55.2649516,37.6124736 C55.1613111,37.9748818 55.2152817,38.3642896 55.413558,38.6846951 L55.7443399,39.219221 C56.0463508,39.7186929 56.6617369,39.930209 57.2061827,39.7216754 L62.722772,37.5835718 C63.4035658,37.3226171 64.1745529,37.5146607 64.6541117,38.0646451 C65.1116289,38.5829136 65.2357314,39.3164996 64.9742233,39.9568668 L63.608414,43.3136894 C62.9667488,44.9941891 61.6901871,46.3538152 60.0551756,47.0981328 L58.6466848,47.9213027 C54.3506823,50.401144 48.8766297,49.1968036 46.0129484,45.141768 L46.0129484,45.141768 C45.7027743,44.691616 45.1312378,44.5036584 44.6151279,44.6820757 L43.7935083,44.9600292 C43.1643058,45.1910253 42.8068184,45.856839 42.9612182,46.5101543 L43.8788714,50.7008374 C43.9790539,50.9960478 43.8214032,51.3167305 43.5267486,51.417102 C43.2320941,51.5174736 42.9120154,51.3595254 42.8118328,51.064315 L41.2859677,47.9106122 C41.0578902,47.4139646 40.6377177,47.0318337 40.1223119,46.8523116 C39.6069062,46.6727895 39.0407465,46.7113689 38.554349,46.9591561 L36.8684281,47.8143975 C36.3044744,48.1099071 36.0274696,48.7634395 36.2068643,49.3752131 L37.6260255,54.2928514 C38.405268,57.0972009 40.4812495,59.3560582 43.2066371,60.3650656 C45.2961167,61.112421 47.5948337,61.0087836 49.6088683,60.0764216 L67.6845012,52.7641073 C68.5516548,53.4189945 69.6603728,53.6633056 70.7217648,53.4333824 C71.7831568,53.2034593 72.6921011,52.5220737 73.2117608,51.5667693 L74.5348886,49.1400217 L76.6689657,44.1368593 C77.2370171,42.8582026 77.0652816,41.3711171 76.2208095,40.2562013 Z" id="Path" fill="#002940"></path>
            <path d="M53.2581401,34.8574897 L55.274843,34.9964664 C56.8418578,35.0825266 58.298751,34.1888682 58.9347852,32.7514577 L59.6176898,31.2654757 C60.0549539,30.3153429 60.2945684,29.2859666 60.3219353,28.2400591 L60.4179687,24.5839019 C60.4527014,23.8854913 60.2072373,23.2021647 59.7362441,22.6861067 C59.2652509,22.1700487 58.6078414,21.8641144 57.9104282,21.8364388 L53.2794809,21.7401598 C52.0336337,21.7321387 50.9088812,22.4862127 50.4411584,23.6431363 L48.1897071,28.9883953 C48.0712477,29.29057 47.8115848,29.5147124 47.4957764,29.5873999 C47.1799679,29.6600873 46.8487013,29.5719552 46.61049,29.3518729 L45.5434515,28.2828211 C44.6727649,27.4515343 43.641474,26.8075805 42.513062,26.3905995 L33.208486,22.9803242 C32.5844401,22.7607127 31.8983284,23.071458 31.6506097,23.6858984 L30.3701634,26.6578624 C30.2222782,26.9828743 30.2139103,27.3544304 30.3470129,27.6857944 C30.4801156,28.0171585 30.74304,28.2793299 31.0744089,28.4111074 L38.6397121,31.1371894 C38.8349813,31.2349415 38.965773,31.4270605 38.9853398,31.6448798 C39.0049066,31.8626991 38.9104557,32.0751282 38.7357456,32.2062412 L34.4675914,34.8574897 C33.6571554,35.3560058 32.6226172,35.2962903 31.8746878,34.7078225 L23.8185468,28.4004168 C23.4435749,28.1278197 22.9458714,28.0945769 22.5381005,28.3148927 L19.9025154,29.6084454 C19.5365407,29.7876372 19.2743554,30.1269211 19.1928627,30.5267797 C19.1113699,30.9266383 19.219808,31.341742 19.4863703,31.6503343 L23.9572618,36.8886881 C24.0308935,36.9857219 24.0296666,37.1203761 23.9542792,37.2160471 C23.8788918,37.311718 23.7484455,37.3441644 23.6371502,37.2949278 L15.5383277,33.0187206 C14.9832056,32.7303871 14.3003188,32.9106765 13.9591107,33.4356508 L11.696989,36.7710924 C11.4696696,37.0980455 11.4025857,37.5106333 11.5145804,37.8929648 C11.6265751,38.2752963 11.9055667,38.5861268 12.2731898,38.7381477 L25.0776523,43.5488808 C30.2336675,45.5080207 35.9272152,45.5080207 41.0832304,43.5488808 L44.700491,42.169804 C45.9239235,41.8162184 47.2393203,42.2386154 48.0296513,43.2388558 L48.936634,44.3079076 C50.640815,46.4067442 53.5238172,47.1255872 56.0110996,46.0718431 L61.1115438,43.8909774 C61.6597315,43.6510914 61.9790836,43.0725434 61.8904819,42.479829 L61.6877446,40.993847 C61.6441999,40.6087137 61.421926,40.2667062 61.0879876,40.0710152 C60.7540493,39.8753243 60.3475553,39.848868 59.9911533,39.9996289 L56.2671888,41.6459686 C55.7347511,41.8798091 55.1284674,41.8772926 54.5979819,41.63904 C54.0674965,41.4007875 53.6622325,40.9489961 53.4822182,40.395178 L52.1377497,36.4076148 C52.0005766,36.0471413 52.0540008,35.6416776 52.2798403,35.3292156 C52.5056798,35.0167535 52.8735075,34.8393909 53.2581401,34.8574897 Z" id="Path" fill="#DB3069"></path>
            <path d="M65.8491949,57.008243 C65.3548775,56.651692 64.6727712,56.7204899 64.2593075,57.1686007 L61.0581919,60.5147329 L61.0581919,60.5147329 C59.9625651,58.9577941 57.9009718,58.4278346 56.1924961,59.2639423 L49.5235052,62.5352408 C47.4403665,63.5668776 45.0645696,63.8426878 42.8011624,63.3156486 L41.3926716,62.9842425 C37.7156211,62.0748109 34.9005971,59.1084523 34.179491,55.3832842 L33.2831787,51.107077 C33.09098,49.9042525 32.235232,48.9143507 31.0744089,48.5520432 L19.838493,45.451793 C19.4882218,45.3631993 19.1168421,45.429611 18.8187912,45.6341407 C18.5207403,45.8386703 18.3247349,46.1616116 18.2806168,46.5208448 L17.9711756,48.9689734 C17.8857563,49.5742842 18.2385277,50.1558893 18.814136,50.3587408 L25.9953054,52.7106547 C26.8106638,52.9943351 27.361109,53.7595722 27.3717851,54.6242575 L27.4464778,58.8577026 C27.469565,59.1860197 27.2758326,59.4909083 26.969155,59.6088947 C26.6624774,59.7268811 26.3148572,59.6302641 26.1126797,59.3708474 L22.7621786,54.7632342 C22.1259135,53.8710705 20.9907266,53.4876529 19.9451969,53.8117781 L16.6693886,54.8273773 C15.712796,55.1384842 15.0660404,56.0326909 15.0688308,57.0403145 L15.0688308,59.5953483 C15.0783896,60.943865 15.7640267,62.1972123 16.8934667,62.9307899 L20.6387719,65.2720134 C20.8551538,65.3954174 20.9516107,65.6568488 20.8673687,65.8915891 C20.7831266,66.1263293 20.5425931,66.266367 20.2973196,66.2234695 L17.2029078,65.8386108 C15.4067178,65.5976845 13.9040295,64.3534502 13.3295579,62.6314554 L11.3768774,57.1792912 C11.178715,56.5872275 10.565937,56.241024 9.95771616,56.3775024 L8.66659953,56.719599 C8.32189764,56.8095276 8.02794544,57.0349012 7.85122238,57.3447501 C7.67449931,57.654599 7.62993414,58.0227484 7.72760561,58.3659387 L9.91503462,66.1272548 C10.6488216,68.8297064 12.5976883,71.0352113 15.186205,72.0925638 L20.3506715,74.1451433 C21.1046706,74.4177785 21.8969381,74.5693149 22.6981563,74.594145 L23.850558,74.594145 C27.2124641,74.6427341 30.5628106,75.0005878 33.8593795,75.6631968 L37.5406624,76.4970572 C42.1078176,77.5213277 46.8863404,76.9713822 51.1027223,74.9362416 L54.0904302,73.5037122 C60.0757465,70.6446145 65.0271734,65.9938935 68.260702,60.1940173 L68.260702,60.1940173 C68.5854867,59.6134528 68.4297371,58.8816132 67.8979089,58.4835344 L65.8491949,57.008243 Z" id="Path" fill="#002940"></path>
            <path d="M13.884418,51.37434 L14.9514565,47.8678501 C15.3168905,46.7948498 14.9296259,45.6090663 14.0017922,44.9600292 L10.8006766,42.768473 C9.34581971,41.7497147 8.56705708,40.012672 8.77330338,38.2463839 C9.02236556,35.863416 10.121085,33.6504435 11.8677151,32.0138119 L13.6283287,30.3674722 C14.7052463,29.3676123 15.0422054,27.7992919 14.4712892,26.4440521 L14.1084961,25.5888106 L15.6236908,24.648045 C17.0580701,23.728903 18.8488067,23.5654391 20.4253642,24.2097338 L25.7605569,26.4119805 C26.356208,26.6512658 27.0352862,26.390306 27.3184332,25.8133115 L28.9403318,22.6809897 C29.2812217,22.0458823 29.0479719,21.2541979 28.4174829,20.9063637 L21.7698328,17.4212549 C19.7620899,16.3808217 17.3753444,16.3808217 15.3676016,17.4212549 L11.4302293,19.3990007 C11.3198549,19.4486392 11.1901016,19.4208933 11.1095727,19.3304329 C11.0290437,19.2399724 11.016311,19.1076599 11.0781066,19.0034515 L11.8677151,17.7526609 C13.1579058,15.4748011 15.0772145,13.618691 17.3949748,12.4074019 L20.4040235,10.7503717 C20.9493651,10.4543891 21.2191076,9.82084878 21.054917,9.22162759 L20.0625711,5.58685147 C19.9766993,5.23640888 19.7402356,4.94210971 19.4168642,4.78321428 C19.0934927,4.62431885 18.7164646,4.6171658 18.3873206,4.76368159 L12.5506198,7.39354901 C10.9858197,8.10202578 9.60548091,9.1630139 8.51721413,10.4937992 L5.1773835,14.5561961 C3.56699932,16.5213394 2.34971869,18.7790094 1.592134,21.2056982 L1.24001129,22.27475 C-0.846389275,28.4331341 -0.282018668,35.1835039 2.79788755,40.9083229 C3.15105146,41.415462 3.29270393,42.040676 3.19269181,42.6508773 L2.50978715,47.0981328 C2.0817083,49.4369871 3.53033361,51.7096932 5.82827701,52.3044151 L10.395202,53.3734668 C11.8995187,53.713021 13.4136429,52.845512 13.884418,51.37434 Z" id="Path" fill="#002940"></path>
            <path d="M22.964916,5.9610196 C23.1812784,6.55619048 23.8166423,6.88608792 24.4267588,6.72004638 L29.1857507,5.40511267 C29.3441297,5.35488742 29.5156051,5.42615166 29.5919977,5.57394666 C29.6683902,5.72174166 29.6275288,5.90317352 29.4951918,6.00378168 L27.6812263,8.85814998 C26.3563702,10.9462649 26.5878799,13.6639775 28.2467567,15.4969616 C29.7715046,16.754845 31.9718385,16.754845 33.4965864,15.4969616 L38.138204,11.6269941 C38.3902599,11.3953496 38.7436179,11.3100828 39.0733009,11.4013513 C39.4029839,11.4926198 39.6625151,11.7475571 39.7601026,12.0759959 L41.0298785,16.2559884 C41.0885723,16.4439104 41.0530127,16.6486657 40.9344139,16.8056812 C40.8158151,16.9626967 40.6287963,17.052618 40.4323369,17.0470868 L35.203848,16.7049902 C34.606738,16.6807482 34.0735672,17.0769294 33.9234018,17.6564463 L33.6886533,18.4796162 C33.4873622,19.1581066 33.867755,19.8726888 34.5422841,20.0831939 L39.8027841,21.5798664 C40.7505428,21.8352538 41.7543562,21.7866508 42.6731178,21.4408896 L44.561776,20.767387 C45.1657147,20.5403528 45.553943,19.948268 45.5221107,19.302786 L45.3620549,14.4172193 C45.3482821,14.1925215 45.4457159,13.9754145 45.6226211,13.836613 C45.7995262,13.6978114 46.0332618,13.6550795 46.2476969,13.7223357 L52.2978054,15.8604393 C53.4852857,16.2820341 54.5590791,16.9736322 55.4348987,17.8809472 L57.323557,19.8373119 C57.6581308,20.1825843 58.1653338,20.2959754 58.6146736,20.1259559 L59.8844495,19.6769542 C60.2370351,19.5362125 60.5130767,19.2516429 60.6434356,18.8945201 C60.7737946,18.5373972 60.7461239,18.1415461 60.5673541,17.8061135 L59.2548967,15.3579849 C58.8922102,14.716517 58.3749714,14.1762505 57.7503724,13.7864788 L54.3251787,11.4559458 L58.209199,13.0809046 C58.9612875,13.3966661 59.5878722,13.9530103 59.9911533,14.6631012 L63.4376878,20.7032439 C63.7383394,21.2487868 64.4038533,21.4756737 64.9742233,21.2270793 L67.1083004,20.3183853 C67.7602286,20.021384 68.0616937,19.26158 67.791205,18.5972119 L66.9909261,16.2346074 C65.854535,12.8807801 63.9422444,9.84391584 61.4103146,7.37216798 C58.4800501,4.51685181 54.6094363,2.83261929 50.5265215,2.63626851 L44.5724464,2.34762453 C43.4964041,2.31881596 42.4250934,2.19359388 41.3713308,1.9734564 L32.2374809,0.0598536787 C31.7482143,-0.0402262068 31.2416151,-0.0144806599 30.7649677,0.134687305 L23.1249717,2.49729178 C22.7789992,2.61049858 22.4948484,2.86148906 22.3393907,3.19119579 C22.183933,3.52090251 22.1708975,3.90020753 22.3033521,4.23984621 L22.964916,5.9610196 Z" id="Path" fill="#002940"></path>
        </g>
    </g>
</svg>