<?xml version="1.0" encoding="UTF-8"?>
<svg width="117px" height="100px" viewBox="0 0 117 100" version="1.1" xmlns="http://www.w3.org/2000/svg" xmlns:xlink="http://www.w3.org/1999/xlink">
    <title>opennorth copy</title>
    <g id="opennorth-copy" stroke="none" stroke-width="1" fill="none" fill-rule="evenodd">
        <path d="M28.3617021,86 C29.7717909,86 30.9148936,84.8598879 30.9148936,83.4534884 C30.9148936,82.0470888 29.7717909,80.9069767 28.3617021,80.9069767 C26.9516134,80.9069767 25.8085106,82.0470888 25.8085106,83.4534884 C25.8085106,84.8598879 26.9516134,86 28.3617021,86 Z M35.1702128,86 C36.5803015,86 37.7234043,84.8598879 37.7234043,83.4534884 C37.7234043,82.0470888 36.5803015,80.9069767 35.1702128,80.9069767 C33.760124,80.9069767 32.6170213,82.0470888 32.6170213,83.4534884 C32.6170213,84.8598879 33.760124,86 35.1702128,86 Z M41.9787234,86 C43.3888121,86 44.5319149,84.8598879 44.5319149,83.4534884 C44.5319149,82.0470888 43.3888121,80.9069767 41.9787234,80.9069767 C40.5686347,80.9069767 39.4255319,82.0470888 39.4255319,83.4534884 C39.4255319,84.8598879 40.5686347,86 41.9787234,86 Z M48.787234,86 C50.1973228,86 51.3404255,84.8598879 51.3404255,83.4534884 C51.3404255,82.0470888 50.1973228,80.9069767 48.787234,80.9069767 C47.3771453,80.9069767 46.2340426,82.0470888 46.2340426,83.4534884 C46.2340426,84.8598879 47.3771453,86 48.787234,86 Z M28.3617021,79.2093023 C29.7717909,79.2093023 30.9148936,78.0691902 30.9148936,76.6627907 C30.9148936,75.2563912 29.7717909,74.1162791 28.3617021,74.1162791 C26.9516134,74.1162791 25.8085106,75.2563912 25.8085106,76.6627907 C25.8085106,78.0691902 26.9516134,79.2093023 28.3617021,79.2093023 Z M35.1702128,79.2093023 C36.5803015,79.2093023 37.7234043,78.0691902 37.7234043,76.6627907 C37.7234043,75.2563912 36.5803015,74.1162791 35.1702128,74.1162791 C33.760124,74.1162791 32.6170213,75.2563912 32.6170213,76.6627907 C32.6170213,78.0691902 33.760124,79.2093023 35.1702128,79.2093023 Z M41.9787234,79.2093023 C43.3888121,79.2093023 44.5319149,78.0691902 44.5319149,76.6627907 C44.5319149,75.2563912 43.3888121,74.1162791 41.9787234,74.1162791 C40.5686347,74.1162791 39.4255319,75.2563912 39.4255319,76.6627907 C39.4255319,78.0691902 40.5686347,79.2093023 41.9787234,79.2093023 Z M48.787234,79.2093023 C50.1973228,79.2093023 51.3404255,78.0691902 51.3404255,76.6627907 C51.3404255,75.2563912 50.1973228,74.1162791 48.787234,74.1162791 C47.3771453,74.1162791 46.2340426,75.2563912 46.2340426,76.6627907 C46.2340426,78.0691902 47.3771453,79.2093023 48.787234,79.2093023 Z M28.3617021,72.4186047 C29.7717909,72.4186047 30.9148936,71.2784926 30.9148936,69.872093 C30.9148936,68.4656935 29.7717909,67.3255814 28.3617021,67.3255814 C26.9516134,67.3255814 25.8085106,68.4656935 25.8085106,69.872093 C25.8085106,71.2784926 26.9516134,72.4186047 28.3617021,72.4186047 Z M35.1702128,72.4186047 C36.5803015,72.4186047 37.7234043,71.2784926 37.7234043,69.872093 C37.7234043,68.4656935 36.5803015,67.3255814 35.1702128,67.3255814 C33.760124,67.3255814 32.6170213,68.4656935 32.6170213,69.872093 C32.6170213,71.2784926 33.760124,72.4186047 35.1702128,72.4186047 Z M41.9787234,72.4186047 C43.3888121,72.4186047 44.5319149,71.2784926 44.5319149,69.872093 C44.5319149,68.4656935 43.3888121,67.3255814 41.9787234,67.3255814 C40.5686347,67.3255814 39.4255319,68.4656935 39.4255319,69.872093 C39.4255319,71.2784926 40.5686347,72.4186047 41.9787234,72.4186047 Z M48.787234,72.4186047 C50.1973228,72.4186047 51.3404255,71.2784926 51.3404255,69.872093 C51.3404255,68.4656935 50.1973228,67.3255814 48.787234,67.3255814 C47.3771453,67.3255814 46.2340426,68.4656935 46.2340426,69.872093 C46.2340426,71.2784926 47.3771453,72.4186047 48.787234,72.4186047 Z M28.3617021,65.627907 C29.7717909,65.627907 30.9148936,64.4877949 30.9148936,63.0813953 C30.9148936,61.6749958 29.7717909,60.5348837 28.3617021,60.5348837 C26.9516134,60.5348837 25.8085106,61.6749958 25.8085106,63.0813953 C25.8085106,64.4877949 26.9516134,65.627907 28.3617021,65.627907 Z M35.1702128,65.627907 C36.5803015,65.627907 37.7234043,64.4877949 37.7234043,63.0813953 C37.7234043,61.6749958 36.5803015,60.5348837 35.1702128,60.5348837 C33.760124,60.5348837 32.6170213,61.6749958 32.6170213,63.0813953 C32.6170213,64.4877949 33.760124,65.627907 35.1702128,65.627907 Z M41.9787234,65.627907 C43.3888121,65.627907 44.5319149,64.4877949 44.5319149,63.0813953 C44.5319149,61.6749958 43.3888121,60.5348837 41.9787234,60.5348837 C40.5686347,60.5348837 39.4255319,61.6749958 39.4255319,63.0813953 C39.4255319,64.4877949 40.5686347,65.627907 41.9787234,65.627907 Z M48.787234,65.627907 C50.1973228,65.627907 51.3404255,64.4877949 51.3404255,63.0813953 C51.3404255,61.6749958 50.1973228,60.5348837 48.787234,60.5348837 C47.3771453,60.5348837 46.2340426,61.6749958 46.2340426,63.0813953 C46.2340426,64.4877949 47.3771453,65.627907 48.787234,65.627907 Z M21.5531915,58.8372093 C22.9632802,58.8372093 24.106383,57.6970972 24.106383,56.2906977 C24.106383,54.8842981 22.9632802,53.744186 21.5531915,53.744186 C20.1431028,53.744186 19,54.8842981 19,56.2906977 C19,57.6970972 20.1431028,58.8372093 21.5531915,58.8372093 Z M28.3617021,58.8372093 C29.7717909,58.8372093 30.9148936,57.6970972 30.9148936,56.2906977 C30.9148936,54.8842981 29.7717909,53.744186 28.3617021,53.744186 C26.9516134,53.744186 25.8085106,54.8842981 25.8085106,56.2906977 C25.8085106,57.6970972 26.9516134,58.8372093 28.3617021,58.8372093 Z M35.1702128,58.8372093 C36.5803015,58.8372093 37.7234043,57.6970972 37.7234043,56.2906977 C37.7234043,54.8842981 36.5803015,53.744186 35.1702128,53.744186 C33.760124,53.744186 32.6170213,54.8842981 32.6170213,56.2906977 C32.6170213,57.6970972 33.760124,58.8372093 35.1702128,58.8372093 Z M41.9787234,58.8372093 C43.3888121,58.8372093 44.5319149,57.6970972 44.5319149,56.2906977 C44.5319149,54.8842981 43.3888121,53.744186 41.9787234,53.744186 C40.5686347,53.744186 39.4255319,54.8842981 39.4255319,56.2906977 C39.4255319,57.6970972 40.5686347,58.8372093 41.9787234,58.8372093 Z M48.787234,58.8372093 C50.1973228,58.8372093 51.3404255,57.6970972 51.3404255,56.2906977 C51.3404255,54.8842981 50.1973228,53.744186 48.787234,53.744186 C47.3771453,53.744186 46.2340426,54.8842981 46.2340426,56.2906977 C46.2340426,57.6970972 47.3771453,58.8372093 48.787234,58.8372093 Z M55.5957447,58.8372093 C57.0058334,58.8372093 58.1489362,57.6970972 58.1489362,56.2906977 C58.1489362,54.8842981 57.0058334,53.744186 55.5957447,53.744186 C54.185656,53.744186 53.0425532,54.8842981 53.0425532,56.2906977 C53.0425532,57.6970972 54.185656,58.8372093 55.5957447,58.8372093 Z M62.4042553,58.8372093 C63.814344,58.8372093 64.9574468,57.6970972 64.9574468,56.2906977 C64.9574468,54.8842981 63.814344,53.744186 62.4042553,53.744186 C60.9941666,53.744186 59.8510638,54.8842981 59.8510638,56.2906977 C59.8510638,57.6970972 60.9941666,58.8372093 62.4042553,58.8372093 Z M69.212766,58.8372093 C70.6228547,58.8372093 71.7659574,57.6970972 71.7659574,56.2906977 C71.7659574,54.8842981 70.6228547,53.744186 69.212766,53.744186 C67.8026772,53.744186 66.6595745,54.8842981 66.6595745,56.2906977 C66.6595745,57.6970972 67.8026772,58.8372093 69.212766,58.8372093 Z M76.0212766,58.8372093 C77.4313653,58.8372093 78.5744681,57.6970972 78.5744681,56.2906977 C78.5744681,54.8842981 77.4313653,53.744186 76.0212766,53.744186 C74.6111879,53.744186 73.4680851,54.8842981 73.4680851,56.2906977 C73.4680851,57.6970972 74.6111879,58.8372093 76.0212766,58.8372093 Z M82.8297872,58.8372093 C84.239876,58.8372093 85.3829787,57.6970972 85.3829787,56.2906977 C85.3829787,54.8842981 84.239876,53.744186 82.8297872,53.744186 C81.4196985,53.744186 80.2765957,54.8842981 80.2765957,56.2906977 C80.2765957,57.6970972 81.4196985,58.8372093 82.8297872,58.8372093 Z M89.6382979,58.8372093 C91.0483866,58.8372093 92.1914894,57.6970972 92.1914894,56.2906977 C92.1914894,54.8842981 91.0483866,53.744186 89.6382979,53.744186 C88.2282091,53.744186 87.0851064,54.8842981 87.0851064,56.2906977 C87.0851064,57.6970972 88.2282091,58.8372093 89.6382979,58.8372093 Z M96.4468085,58.8372093 C97.8568972,58.8372093 99,57.6970972 99,56.2906977 C99,54.8842981 97.8568972,53.744186 96.4468085,53.744186 C95.0367198,53.744186 93.893617,54.8842981 93.893617,56.2906977 C93.893617,57.6970972 95.0367198,58.8372093 96.4468085,58.8372093 Z M21.5531915,52.0465116 C22.9632802,52.0465116 24.106383,50.9063995 24.106383,49.5 C24.106383,48.0936005 22.9632802,46.9534884 21.5531915,46.9534884 C20.1431028,46.9534884 19,48.0936005 19,49.5 C19,50.9063995 20.1431028,52.0465116 21.5531915,52.0465116 Z M28.3617021,52.0465116 C29.7717909,52.0465116 30.9148936,50.9063995 30.9148936,49.5 C30.9148936,48.0936005 29.7717909,46.9534884 28.3617021,46.9534884 C26.9516134,46.9534884 25.8085106,48.0936005 25.8085106,49.5 C25.8085106,50.9063995 26.9516134,52.0465116 28.3617021,52.0465116 Z M35.1702128,52.0465116 C36.5803015,52.0465116 37.7234043,50.9063995 37.7234043,49.5 C37.7234043,48.0936005 36.5803015,46.9534884 35.1702128,46.9534884 C33.760124,46.9534884 32.6170213,48.0936005 32.6170213,49.5 C32.6170213,50.9063995 33.760124,52.0465116 35.1702128,52.0465116 Z M41.9787234,52.0465116 C43.3888121,52.0465116 44.5319149,50.9063995 44.5319149,49.5 C44.5319149,48.0936005 43.3888121,46.9534884 41.9787234,46.9534884 C40.5686347,46.9534884 39.4255319,48.0936005 39.4255319,49.5 C39.4255319,50.9063995 40.5686347,52.0465116 41.9787234,52.0465116 Z M48.787234,52.0465116 C50.1973228,52.0465116 51.3404255,50.9063995 51.3404255,49.5 C51.3404255,48.0936005 50.1973228,46.9534884 48.787234,46.9534884 C47.3771453,46.9534884 46.2340426,48.0936005 46.2340426,49.5 C46.2340426,50.9063995 47.3771453,52.0465116 48.787234,52.0465116 Z M55.5957447,52.0465116 C57.0058334,52.0465116 58.1489362,50.9063995 58.1489362,49.5 C58.1489362,48.0936005 57.0058334,46.9534884 55.5957447,46.9534884 C54.185656,46.9534884 53.0425532,48.0936005 53.0425532,49.5 C53.0425532,50.9063995 54.185656,52.0465116 55.5957447,52.0465116 Z M62.4042553,52.0465116 C63.814344,52.0465116 64.9574468,50.9063995 64.9574468,49.5 C64.9574468,48.0936005 63.814344,46.9534884 62.4042553,46.9534884 C60.9941666,46.9534884 59.8510638,48.0936005 59.8510638,49.5 C59.8510638,50.9063995 60.9941666,52.0465116 62.4042553,52.0465116 Z M69.212766,52.0465116 C70.6228547,52.0465116 71.7659574,50.9063995 71.7659574,49.5 C71.7659574,48.0936005 70.6228547,46.9534884 69.212766,46.9534884 C67.8026772,46.9534884 66.6595745,48.0936005 66.6595745,49.5 C66.6595745,50.9063995 67.8026772,52.0465116 69.212766,52.0465116 Z M76.0212766,52.0465116 C77.4313653,52.0465116 78.5744681,50.9063995 78.5744681,49.5 C78.5744681,48.0936005 77.4313653,46.9534884 76.0212766,46.9534884 C74.6111879,46.9534884 73.4680851,48.0936005 73.4680851,49.5 C73.4680851,50.9063995 74.6111879,52.0465116 76.0212766,52.0465116 Z M82.8297872,52.0465116 C84.239876,52.0465116 85.3829787,50.9063995 85.3829787,49.5 C85.3829787,48.0936005 84.239876,46.9534884 82.8297872,46.9534884 C81.4196985,46.9534884 80.2765957,48.0936005 80.2765957,49.5 C80.2765957,50.9063995 81.4196985,52.0465116 82.8297872,52.0465116 Z M89.6382979,52.0465116 C91.0483866,52.0465116 92.1914894,50.9063995 92.1914894,49.5 C92.1914894,48.0936005 91.0483866,46.9534884 89.6382979,46.9534884 C88.2282091,46.9534884 87.0851064,48.0936005 87.0851064,49.5 C87.0851064,50.9063995 88.2282091,52.0465116 89.6382979,52.0465116 Z M96.4468085,52.0465116 C97.8568972,52.0465116 99,50.9063995 99,49.5 C99,48.0936005 97.8568972,46.9534884 96.4468085,46.9534884 C95.0367198,46.9534884 93.893617,48.0936005 93.893617,49.5 C93.893617,50.9063995 95.0367198,52.0465116 96.4468085,52.0465116 Z M28.3617021,45.255814 C29.7717909,45.255814 30.9148936,44.1157019 30.9148936,42.7093023 C30.9148936,41.3029028 29.7717909,40.1627907 28.3617021,40.1627907 C26.9516134,40.1627907 25.8085106,41.3029028 25.8085106,42.7093023 C25.8085106,44.1157019 26.9516134,45.255814 28.3617021,45.255814 Z M35.1702128,45.255814 C36.5803015,45.255814 37.7234043,44.1157019 37.7234043,42.7093023 C37.7234043,41.3029028 36.5803015,40.1627907 35.1702128,40.1627907 C33.760124,40.1627907 32.6170213,41.3029028 32.6170213,42.7093023 C32.6170213,44.1157019 33.760124,45.255814 35.1702128,45.255814 Z M41.9787234,45.255814 C43.3888121,45.255814 44.5319149,44.1157019 44.5319149,42.7093023 C44.5319149,41.3029028 43.3888121,40.1627907 41.9787234,40.1627907 C40.5686347,40.1627907 39.4255319,41.3029028 39.4255319,42.7093023 C39.4255319,44.1157019 40.5686347,45.255814 41.9787234,45.255814 Z M48.787234,45.255814 C50.1973228,45.255814 51.3404255,44.1157019 51.3404255,42.7093023 C51.3404255,41.3029028 50.1973228,40.1627907 48.787234,40.1627907 C47.3771453,40.1627907 46.2340426,41.3029028 46.2340426,42.7093023 C46.2340426,44.1157019 47.3771453,45.255814 48.787234,45.255814 Z M55.5957447,45.255814 C57.0058334,45.255814 58.1489362,44.1157019 58.1489362,42.7093023 C58.1489362,41.3029028 57.0058334,40.1627907 55.5957447,40.1627907 C54.185656,40.1627907 53.0425532,41.3029028 53.0425532,42.7093023 C53.0425532,44.1157019 54.185656,45.255814 55.5957447,45.255814 Z M62.4042553,45.255814 C63.814344,45.255814 64.9574468,44.1157019 64.9574468,42.7093023 C64.9574468,41.3029028 63.814344,40.1627907 62.4042553,40.1627907 C60.9941666,40.1627907 59.8510638,41.3029028 59.8510638,42.7093023 C59.8510638,44.1157019 60.9941666,45.255814 62.4042553,45.255814 Z M69.212766,45.255814 C70.6228547,45.255814 71.7659574,44.1157019 71.7659574,42.7093023 C71.7659574,41.3029028 70.6228547,40.1627907 69.212766,40.1627907 C67.8026772,40.1627907 66.6595745,41.3029028 66.6595745,42.7093023 C66.6595745,44.1157019 67.8026772,45.255814 69.212766,45.255814 Z M76.0212766,45.255814 C77.4313653,45.255814 78.5744681,44.1157019 78.5744681,42.7093023 C78.5744681,41.3029028 77.4313653,40.1627907 76.0212766,40.1627907 C74.6111879,40.1627907 73.4680851,41.3029028 73.4680851,42.7093023 C73.4680851,44.1157019 74.6111879,45.255814 76.0212766,45.255814 Z M82.8297872,45.255814 C84.239876,45.255814 85.3829787,44.1157019 85.3829787,42.7093023 C85.3829787,41.3029028 84.239876,40.1627907 82.8297872,40.1627907 C81.4196985,40.1627907 80.2765957,41.3029028 80.2765957,42.7093023 C80.2765957,44.1157019 81.4196985,45.255814 82.8297872,45.255814 Z M89.6382979,45.255814 C91.0483866,45.255814 92.1914894,44.1157019 92.1914894,42.7093023 C92.1914894,41.3029028 91.0483866,40.1627907 89.6382979,40.1627907 C88.2282091,40.1627907 87.0851064,41.3029028 87.0851064,42.7093023 C87.0851064,44.1157019 88.2282091,45.255814 89.6382979,45.255814 Z M35.1702128,38.4651163 C36.5803015,38.4651163 37.7234043,37.3250042 37.7234043,35.9186047 C37.7234043,34.5122051 36.5803015,33.372093 35.1702128,33.372093 C33.760124,33.372093 32.6170213,34.5122051 32.6170213,35.9186047 C32.6170213,37.3250042 33.760124,38.4651163 35.1702128,38.4651163 Z M41.9787234,38.4651163 C43.3888121,38.4651163 44.5319149,37.3250042 44.5319149,35.9186047 C44.5319149,34.5122051 43.3888121,33.372093 41.9787234,33.372093 C40.5686347,33.372093 39.4255319,34.5122051 39.4255319,35.9186047 C39.4255319,37.3250042 40.5686347,38.4651163 41.9787234,38.4651163 Z M48.787234,38.4651163 C50.1973228,38.4651163 51.3404255,37.3250042 51.3404255,35.9186047 C51.3404255,34.5122051 50.1973228,33.372093 48.787234,33.372093 C47.3771453,33.372093 46.2340426,34.5122051 46.2340426,35.9186047 C46.2340426,37.3250042 47.3771453,38.4651163 48.787234,38.4651163 Z M55.5957447,38.4651163 C57.0058334,38.4651163 58.1489362,37.3250042 58.1489362,35.9186047 C58.1489362,34.5122051 57.0058334,33.372093 55.5957447,33.372093 C54.185656,33.372093 53.0425532,34.5122051 53.0425532,35.9186047 C53.0425532,37.3250042 54.185656,38.4651163 55.5957447,38.4651163 Z M62.4042553,38.4651163 C63.814344,38.4651163 64.9574468,37.3250042 64.9574468,35.9186047 C64.9574468,34.5122051 63.814344,33.372093 62.4042553,33.372093 C60.9941666,33.372093 59.8510638,34.5122051 59.8510638,35.9186047 C59.8510638,37.3250042 60.9941666,38.4651163 62.4042553,38.4651163 Z M69.212766,38.4651163 C70.6228547,38.4651163 71.7659574,37.3250042 71.7659574,35.9186047 C71.7659574,34.5122051 70.6228547,33.372093 69.212766,33.372093 C67.8026772,33.372093 66.6595745,34.5122051 66.6595745,35.9186047 C66.6595745,37.3250042 67.8026772,38.4651163 69.212766,38.4651163 Z M76.0212766,38.4651163 C77.4313653,38.4651163 78.5744681,37.3250042 78.5744681,35.9186047 C78.5744681,34.5122051 77.4313653,33.372093 76.0212766,33.372093 C74.6111879,33.372093 73.4680851,34.5122051 73.4680851,35.9186047 C73.4680851,37.3250042 74.6111879,38.4651163 76.0212766,38.4651163 Z M82.8297872,38.4651163 C84.239876,38.4651163 85.3829787,37.3250042 85.3829787,35.9186047 C85.3829787,34.5122051 84.239876,33.372093 82.8297872,33.372093 C81.4196985,33.372093 80.2765957,34.5122051 80.2765957,35.9186047 C80.2765957,37.3250042 81.4196985,38.4651163 82.8297872,38.4651163 Z M41.9787234,31.6744186 C43.3888121,31.6744186 44.5319149,30.5343065 44.5319149,29.127907 C44.5319149,27.7215074 43.3888121,26.5813953 41.9787234,26.5813953 C40.5686347,26.5813953 39.4255319,27.7215074 39.4255319,29.127907 C39.4255319,30.5343065 40.5686347,31.6744186 41.9787234,31.6744186 Z M48.787234,31.6744186 C50.1973228,31.6744186 51.3404255,30.5343065 51.3404255,29.127907 C51.3404255,27.7215074 50.1973228,26.5813953 48.787234,26.5813953 C47.3771453,26.5813953 46.2340426,27.7215074 46.2340426,29.127907 C46.2340426,30.5343065 47.3771453,31.6744186 48.787234,31.6744186 Z M55.5957447,31.6744186 C57.0058334,31.6744186 58.1489362,30.5343065 58.1489362,29.127907 C58.1489362,27.7215074 57.0058334,26.5813953 55.5957447,26.5813953 C54.185656,26.5813953 53.0425532,27.7215074 53.0425532,29.127907 C53.0425532,30.5343065 54.185656,31.6744186 55.5957447,31.6744186 Z M62.4042553,31.6744186 C63.814344,31.6744186 64.9574468,30.5343065 64.9574468,29.127907 C64.9574468,27.7215074 63.814344,26.5813953 62.4042553,26.5813953 C60.9941666,26.5813953 59.8510638,27.7215074 59.8510638,29.127907 C59.8510638,30.5343065 60.9941666,31.6744186 62.4042553,31.6744186 Z M69.212766,31.6744186 C70.6228547,31.6744186 71.7659574,30.5343065 71.7659574,29.127907 C71.7659574,27.7215074 70.6228547,26.5813953 69.212766,26.5813953 C67.8026772,26.5813953 66.6595745,27.7215074 66.6595745,29.127907 C66.6595745,30.5343065 67.8026772,31.6744186 69.212766,31.6744186 Z M76.0212766,31.6744186 C77.4313653,31.6744186 78.5744681,30.5343065 78.5744681,29.127907 C78.5744681,27.7215074 77.4313653,26.5813953 76.0212766,26.5813953 C74.6111879,26.5813953 73.4680851,27.7215074 73.4680851,29.127907 C73.4680851,30.5343065 74.6111879,31.6744186 76.0212766,31.6744186 Z M48.787234,24.8837209 C50.1973228,24.8837209 51.3404255,23.7436088 51.3404255,22.3372093 C51.3404255,20.9308098 50.1973228,19.7906977 48.787234,19.7906977 C47.3771453,19.7906977 46.2340426,20.9308098 46.2340426,22.3372093 C46.2340426,23.7436088 47.3771453,24.8837209 48.787234,24.8837209 Z M55.5957447,24.8837209 C57.0058334,24.8837209 58.1489362,23.7436088 58.1489362,22.3372093 C58.1489362,20.9308098 57.0058334,19.7906977 55.5957447,19.7906977 C54.185656,19.7906977 53.0425532,20.9308098 53.0425532,22.3372093 C53.0425532,23.7436088 54.185656,24.8837209 55.5957447,24.8837209 Z M62.4042553,24.8837209 C63.814344,24.8837209 64.9574468,23.7436088 64.9574468,22.3372093 C64.9574468,20.9308098 63.814344,19.7906977 62.4042553,19.7906977 C60.9941666,19.7906977 59.8510638,20.9308098 59.8510638,22.3372093 C59.8510638,23.7436088 60.9941666,24.8837209 62.4042553,24.8837209 Z M69.212766,24.8837209 C70.6228547,24.8837209 71.7659574,23.7436088 71.7659574,22.3372093 C71.7659574,20.9308098 70.6228547,19.7906977 69.212766,19.7906977 C67.8026772,19.7906977 66.6595745,20.9308098 66.6595745,22.3372093 C66.6595745,23.7436088 67.8026772,24.8837209 69.212766,24.8837209 Z M55.5957447,18.0930233 C57.0058334,18.0930233 58.1489362,16.9529112 58.1489362,15.5465116 C58.1489362,14.1401121 57.0058334,13 55.5957447,13 C54.185656,13 53.0425532,14.1401121 53.0425532,15.5465116 C53.0425532,16.9529112 54.185656,18.0930233 55.5957447,18.0930233 Z M62.4042553,18.0930233 C63.814344,18.0930233 64.9574468,16.9529112 64.9574468,15.5465116 C64.9574468,14.1401121 63.814344,13 62.4042553,13 C60.9941666,13 59.8510638,14.1401121 59.8510638,15.5465116 C59.8510638,16.9529112 60.9941666,18.0930233 62.4042553,18.0930233 Z M69.212766,86 C70.6228547,86 71.7659574,84.8598879 71.7659574,83.4534884 C71.7659574,82.0470888 70.6228547,80.9069767 69.212766,80.9069767 C67.8026772,80.9069767 66.6595745,82.0470888 66.6595745,83.4534884 C66.6595745,84.8598879 67.8026772,86 69.212766,86 Z M76.0212766,86 C77.4313653,86 78.5744681,84.8598879 78.5744681,83.4534884 C78.5744681,82.0470888 77.4313653,80.9069767 76.0212766,80.9069767 C74.6111879,80.9069767 73.4680851,82.0470888 73.4680851,83.4534884 C73.4680851,84.8598879 74.6111879,86 76.0212766,86 Z M82.8297872,86 C84.239876,86 85.3829787,84.8598879 85.3829787,83.4534884 C85.3829787,82.0470888 84.239876,80.9069767 82.8297872,80.9069767 C81.4196985,80.9069767 80.2765957,82.0470888 80.2765957,83.4534884 C80.2765957,84.8598879 81.4196985,86 82.8297872,86 Z M89.6382979,86 C91.0483866,86 92.1914894,84.8598879 92.1914894,83.4534884 C92.1914894,82.0470888 91.0483866,80.9069767 89.6382979,80.9069767 C88.2282091,80.9069767 87.0851064,82.0470888 87.0851064,83.4534884 C87.0851064,84.8598879 88.2282091,86 89.6382979,86 Z M69.212766,79.2093023 C70.6228547,79.2093023 71.7659574,78.0691902 71.7659574,76.6627907 C71.7659574,75.2563912 70.6228547,74.1162791 69.212766,74.1162791 C67.8026772,74.1162791 66.6595745,75.2563912 66.6595745,76.6627907 C66.6595745,78.0691902 67.8026772,79.2093023 69.212766,79.2093023 Z M76.0212766,79.2093023 C77.4313653,79.2093023 78.5744681,78.0691902 78.5744681,76.6627907 C78.5744681,75.2563912 77.4313653,74.1162791 76.0212766,74.1162791 C74.6111879,74.1162791 73.4680851,75.2563912 73.4680851,76.6627907 C73.4680851,78.0691902 74.6111879,79.2093023 76.0212766,79.2093023 Z M82.8297872,79.2093023 C84.239876,79.2093023 85.3829787,78.0691902 85.3829787,76.6627907 C85.3829787,75.2563912 84.239876,74.1162791 82.8297872,74.1162791 C81.4196985,74.1162791 80.2765957,75.2563912 80.2765957,76.6627907 C80.2765957,78.0691902 81.4196985,79.2093023 82.8297872,79.2093023 Z M89.6382979,79.2093023 C91.0483866,79.2093023 92.1914894,78.0691902 92.1914894,76.6627907 C92.1914894,75.2563912 91.0483866,74.1162791 89.6382979,74.1162791 C88.2282091,74.1162791 87.0851064,75.2563912 87.0851064,76.6627907 C87.0851064,78.0691902 88.2282091,79.2093023 89.6382979,79.2093023 Z M69.212766,72.4186047 C70.6228547,72.4186047 71.7659574,71.2784926 71.7659574,69.872093 C71.7659574,68.4656935 70.6228547,67.3255814 69.212766,67.3255814 C67.8026772,67.3255814 66.6595745,68.4656935 66.6595745,69.872093 C66.6595745,71.2784926 67.8026772,72.4186047 69.212766,72.4186047 Z M76.0212766,72.4186047 C77.4313653,72.4186047 78.5744681,71.2784926 78.5744681,69.872093 C78.5744681,68.4656935 77.4313653,67.3255814 76.0212766,67.3255814 C74.6111879,67.3255814 73.4680851,68.4656935 73.4680851,69.872093 C73.4680851,71.2784926 74.6111879,72.4186047 76.0212766,72.4186047 Z M82.8297872,72.4186047 C84.239876,72.4186047 85.3829787,71.2784926 85.3829787,69.872093 C85.3829787,68.4656935 84.239876,67.3255814 82.8297872,67.3255814 C81.4196985,67.3255814 80.2765957,68.4656935 80.2765957,69.872093 C80.2765957,71.2784926 81.4196985,72.4186047 82.8297872,72.4186047 Z M89.6382979,72.4186047 C91.0483866,72.4186047 92.1914894,71.2784926 92.1914894,69.872093 C92.1914894,68.4656935 91.0483866,67.3255814 89.6382979,67.3255814 C88.2282091,67.3255814 87.0851064,68.4656935 87.0851064,69.872093 C87.0851064,71.2784926 88.2282091,72.4186047 89.6382979,72.4186047 Z M69.212766,65.627907 C70.6228547,65.627907 71.7659574,64.4877949 71.7659574,63.0813953 C71.7659574,61.6749958 70.6228547,60.5348837 69.212766,60.5348837 C67.8026772,60.5348837 66.6595745,61.6749958 66.6595745,63.0813953 C66.6595745,64.4877949 67.8026772,65.627907 69.212766,65.627907 Z M76.0212766,65.627907 C77.4313653,65.627907 78.5744681,64.4877949 78.5744681,63.0813953 C78.5744681,61.6749958 77.4313653,60.5348837 76.0212766,60.5348837 C74.6111879,60.5348837 73.4680851,61.6749958 73.4680851,63.0813953 C73.4680851,64.4877949 74.6111879,65.627907 76.0212766,65.627907 Z M82.8297872,65.627907 C84.239876,65.627907 85.3829787,64.4877949 85.3829787,63.0813953 C85.3829787,61.6749958 84.239876,60.5348837 82.8297872,60.5348837 C81.4196985,60.5348837 80.2765957,61.6749958 80.2765957,63.0813953 C80.2765957,64.4877949 81.4196985,65.627907 82.8297872,65.627907 Z M89.6382979,65.627907 C91.0483866,65.627907 92.1914894,64.4877949 92.1914894,63.0813953 C92.1914894,61.6749958 91.0483866,60.5348837 89.6382979,60.5348837 C88.2282091,60.5348837 87.0851064,61.6749958 87.0851064,63.0813953 C87.0851064,64.4877949 88.2282091,65.627907 89.6382979,65.627907 Z" id="Combined-Shape" fill="#002940"></path>
    </g>
</svg>