<?xml version="1.0" encoding="UTF-8"?>
<svg width="117px" height="100px" viewBox="0 0 117 100" version="1.1" xmlns="http://www.w3.org/2000/svg" xmlns:xlink="http://www.w3.org/1999/xlink">
    <title>Artboard</title>
    <g id="Artboard" stroke="none" stroke-width="1" fill="none" fill-rule="evenodd">
        <g id="Group" transform="translate(5.2812, 13)">
            <path d="M71.90625,21.2962949 L71.90625,62.15625 C71.90625,62.6049814 72.2700186,62.96875 72.71875,62.96875 L99.125,62.96875 L99.125,62.96875 L99.125,35.7095554 C99.125,35.4161656 98.9668295,35.1455636 98.7111897,35.0015987 L73.1174397,20.5883381 C72.726446,20.3681479 72.2309835,20.5066114 72.0107933,20.8976052 C71.9422563,21.0193068 71.90625,21.1566216 71.90625,21.2962949 Z" id="Fill-281" fill="#00ADF2"></path>
            <path d="M69.0625,24.5462949 L69.0625,65.40625 C69.0625,65.8549814 69.4262686,66.21875 69.875,66.21875 L95.46875,66.21875 C95.9174814,66.21875 96.28125,65.8549814 96.28125,65.40625 L96.28125,38.9595554 C96.28125,38.6661656 96.1230795,38.3955636 95.8674397,38.2515987 L70.2736897,23.8383381 C69.882696,23.6181479 69.3872335,23.7566114 69.1670433,24.1476052 C69.0985063,24.2693068 69.0625,24.4066216 69.0625,24.5462949 Z" id="Fill-281" fill="#002940"></path>
            <path d="M0.8125,64.1875 L104.40625,64.1875 C104.854981,64.1875 105.21875,64.5512686 105.21875,65 L105.21875,67.4375 L105.21875,67.4375 L0,67.4375 L0,65 C-5.49537423e-17,64.5512686 0.363768641,64.1875 0.8125,64.1875 Z" id="Rectangle" fill="#002940"></path>
            <path d="M67.03125,53.21875 L67.03125,64.59375 C67.03125,65.4912127 66.3037127,66.21875 65.40625,66.21875 L60.9375,66.21875 L60.93675,53.218 L67.03125,53.21875 Z M43.06175,53.218 L43.0625,66.21875 L38.59375,66.21875 C37.6962873,66.21875 36.96875,65.4912127 36.96875,64.59375 L36.96875,53.21875 L43.06175,53.218 Z M51.59375,53.218 L51.59375,66.21875 L43.875,66.21875 L43.87475,53.218 L51.59375,53.218 Z M60.12475,53.218 L60.125,66.21875 L52.40625,66.21875 L52.40575,53.218 L60.12475,53.218 Z M51.59375,33.718 L51.59375,52.406 L43.87475,52.406 L43.87475,33.718 L51.59375,33.718 Z M60.12475,33.718 L60.12475,52.406 L52.40575,52.406 L52.40575,33.718 L60.12475,33.718 Z M67.03125,33.71875 L67.03125,52.40625 L60.93675,52.406 L60.93675,33.718 L67.03125,33.71875 Z M51.59375,14.218 L51.59375,32.906 L43.87475,32.906 L43.87475,14.218 L51.59375,14.218 Z M60.12475,14.218 L60.12475,32.906 L52.40575,32.906 L52.40575,14.218 L60.12475,14.218 Z M67.03125,14.21875 L67.03125,32.90625 L60.93675,32.906 L60.93675,14.218 L67.03125,14.21875 Z M43.06175,14.218 L43.06175,32.906 L36.96875,32.90625 L36.96875,14.21875 L43.06175,14.218 Z M51.59375,0 L51.59375,13.406 L43.87475,13.406 L43.875,0 L51.59375,0 Z M60.125,0 L60.12475,13.406 L52.40575,13.406 L52.40625,0 L60.125,0 Z M65.40625,0 C66.3037127,-2.19814969e-16 67.03125,0.727537282 67.03125,1.625 L67.03125,13.40625 L60.93675,13.406 L60.9375,0 Z M43.0625,0 L43.06175,13.406 L36.96875,13.40625 L36.96875,1.625 C36.96875,0.727537282 37.6962873,1.64861227e-16 38.59375,0 L43.0625,0 Z M36.96875,33.71875 L43.06175,33.718 L43.06175,52.406 L36.96875,52.40625 L36.96875,33.71875 Z" id="Combined-Shape" fill="#002940"></path>
            <path d="M10.15625,56.875 L21.125,56.875 C21.5737314,56.875 21.9375,56.5112314 21.9375,56.0625 L21.9375,44.28125 C21.9375,43.8325186 21.5737314,43.46875 21.125,43.46875 L10.15625,43.46875 C9.70751864,43.46875 9.34375,43.8325186 9.34375,44.28125 L9.34375,56.0625 C9.34375,56.5112314 9.70751864,56.875 10.15625,56.875 Z M21.125,56.0625 L30.0625,56.0625 C30.5112314,56.0625 30.875,55.6987314 30.875,55.25 L30.875,44.28125 C30.875,43.8325186 30.5112314,43.46875 30.0625,43.46875 L21.125,43.46875 C20.6762686,43.46875 20.3125,43.8325186 20.3125,44.28125 L20.3125,55.25 C20.3125,55.6987314 20.6762686,56.0625 21.125,56.0625 Z M5.28125,61.34375 L31.6875,61.34375 C32.1362314,61.34375 32.5,60.9799814 32.5,60.53125 L32.5,36.96875 C32.5,36.5200186 32.1362314,36.15625 31.6875,36.15625 L6.09375,36.15625 C5.64501864,36.15625 5.28125,36.5200186 5.28125,36.96875 L5.28125,61.34375 L5.28125,61.34375 Z" id="Fill-282" fill="#DB3069"></path>
            <path d="M12.1875,55.25 L19.5,55.25 C19.7243657,55.25 19.90625,55.0681157 19.90625,54.84375 L19.90625,46.71875 C19.90625,46.4943843 19.7243657,46.3125 19.5,46.3125 L12.1875,46.3125 C11.9631343,46.3125 11.78125,46.4943843 11.78125,46.71875 L11.78125,54.84375 C11.78125,55.0681157 11.9631343,55.25 12.1875,55.25 Z M23.15625,55.25 L30.46875,55.25 C30.6931157,55.25 30.875,55.0681157 30.875,54.84375 L30.875,46.71875 C30.875,46.4943843 30.6931157,46.3125 30.46875,46.3125 L23.15625,46.3125 C22.9318843,46.3125 22.75,46.4943843 22.75,46.71875 L22.75,54.84375 C22.75,55.0681157 22.9318843,55.25 23.15625,55.25 Z M8.125,65.8125 L34.53125,65.8125 C34.7556157,65.8125 34.9375,65.6306157 34.9375,65.40625 L34.9375,39.40625 C34.9375,39.1818843 34.7556157,39 34.53125,39 L8.125,39 C7.90063432,39 7.71875,39.1818843 7.71875,39.40625 L7.71875,65.40625 C7.71875,65.6306157 7.90063432,65.8125 8.125,65.8125 Z" id="Fill-282" fill="#002940"></path>
            <path d="M83.7015351,54.5645983 C83.366307,54.4152506 82.9741316,54.6882185 83.0181681,55.0684753 L85.2921889,74.9005921 C85.3856257,75.7165524 86.269471,76.1047711 86.8267698,75.530302 L91.092691,71.1266098 L95.731091,78.1033693 C96.5353084,79.3117245 98.1334326,79.6083725 99.2808993,78.7622941 C100.429349,77.9154907 100.711222,76.2326371 99.9070045,75.024282 L95.2686045,68.0475224 L100.656496,65.3322561 C101.360428,64.9783068 101.316288,63.9709355 100.619424,63.5983667 L83.7005519,54.5653233 L83.7015351,54.5645983 Z M76.8489933,46.8417579 C76.5451373,46.3838433 76.6508453,45.7527386 77.0849997,45.4327384 C77.5201543,45.1120009 78.119697,45.2232896 78.423553,45.6812042 L81.800691,50.7570159 C82.1045471,51.2149305 81.998989,51.84514 81.5646847,52.1660354 C81.12953,52.4867729 80.5299874,52.3754842 80.2261313,51.9175696 L76.8489933,46.8417579 Z M71.9968155,55.2878259 C71.4678579,55.1896394 71.0979268,54.7572017 71.170879,54.3215094 C71.2437609,53.886534 71.7319968,53.612661 72.2609544,53.7108475 L78.1337615,54.8009734 C78.6635806,54.8993198 79.033393,55.3324659 78.9605596,55.7674499 C78.8875589,56.2031337 78.3994416,56.4762982 77.8696226,56.3779518 L71.9968155,55.2878259 Z M75.3352773,64.5356869 C74.9009661,64.8566237 74.3014235,64.7453351 73.9967239,64.2872211 C73.6927249,63.8301603 73.7984442,63.1989885 74.2327554,62.8780516 L79.0553966,59.3238309 C79.4895578,59.0037894 80.0891005,59.115078 80.3939499,59.5722967 C80.697799,60.0302528 80.5920797,60.6614246 80.1579185,60.9814662 L75.3352773,64.5356869 Z M93.6574734,48.4354946 C94.0926018,48.1147522 94.6912516,48.2258751 94.9959318,48.6839428 C95.3007619,49.1411152 95.1950539,49.7722199 94.7599255,50.0929623 L89.9385025,53.6469355 C89.503374,53.9676779 88.9038739,53.8563971 88.6000441,53.3984874 C88.2953639,52.9404197 88.400922,52.3102102 88.8360504,51.9894678 L93.6574734,48.4354946 L93.6574734,48.4354946 Z M85.6343263,43.9682971 C85.7277477,43.4105469 86.1386803,43.0211417 86.55274,43.0979766 C86.9661183,43.1747329 87.2257538,43.6886108 87.1323324,44.2463609 L86.0967981,50.428772 C86.0035286,50.9856152 85.592596,51.3750205 85.1792095,51.2983105 C84.765158,51.2214293 84.5055224,50.7075514 84.5987919,50.1507081 L85.6343263,43.9682971 Z" id="Combined-Shape" fill="#58E965"></path>
        </g>
    </g>
</svg>