<?xml version="1.0" encoding="UTF-8"?>
<svg width="117px" height="100px" viewBox="0 0 117 100" version="1.1" xmlns="http://www.w3.org/2000/svg" xmlns:xlink="http://www.w3.org/1999/xlink">
    <title>Artboard</title>
    <g id="Artboard" stroke="none" stroke-width="1" fill="none" fill-rule="evenodd">
        <g id="Group" transform="translate(4.2812, 12)">
            <path d="M71.71875,24.3945768 L71.71875,65.1875 C71.71875,65.6362314 72.0825186,66 72.53125,66 L97.90625,66 C98.3549814,66 98.71875,65.6362314 98.71875,65.1875 L98.71875,38.7795148 C98.71875,38.4869486 98.5614587,38.2169734 98.3069444,38.0726908 L72.9319444,23.6877528 C72.5415762,23.4664554 72.0457233,23.6035143 71.8244259,23.9938824 C71.7551595,24.1160682 71.71875,24.2541232 71.71875,24.3945768 Z" id="Fill-281" fill="#002940"></path>
            <path d="M66.71875,53 L66.71875,64.375 C66.71875,65.2724627 65.9912127,66 65.09375,66 L60.71875,66 L60.71875,53 L66.71875,53 Z M42.71875,53 L42.71875,66 L38.34375,66 C37.4462873,66 36.71875,65.2724627 36.71875,64.375 L36.71875,53 L42.71875,53 Z M51.71875,53 L51.71875,66 L43.71875,66 L43.71875,53 L51.71875,53 Z M59.71875,53 L59.71875,66 L52.71875,66 L52.71875,53 L59.71875,53 Z M51.71875,34 L51.71875,52 L43.71875,52 L43.71875,34 L51.71875,34 Z M59.71875,34 L59.71875,52 L52.71875,52 L52.71875,34 L59.71875,34 Z M66.71875,34 L66.71875,52 L60.71875,52 L60.71875,34 L66.71875,34 Z M51.71875,14 L51.71875,33 L43.71875,33 L43.71875,14 L51.71875,14 Z M59.71875,14 L59.71875,33 L52.71875,33 L52.71875,14 L59.71875,14 Z M66.71875,14 L66.71875,33 L60.71875,33 L60.71875,14 L66.71875,14 Z M42.71875,14 L42.71875,33 L36.71875,33 L36.71875,14 L42.71875,14 Z M51.71875,0 L51.71875,13 L43.71875,13 L43.71875,0 L51.71875,0 Z M59.71875,0 L59.71875,13 L52.71875,13 L52.71875,0 L59.71875,0 Z M65.09375,0 C65.9912127,-2.19814969e-16 66.71875,0.727537282 66.71875,1.625 L66.71875,13 L60.71875,13 L60.71875,0 Z M42.71875,0 L42.71875,13 L36.71875,13 L36.71875,1.625 C36.71875,0.727537282 37.4462873,1.64861227e-16 38.34375,0 L42.71875,0 Z M36.71875,34 L42.71875,34 L42.71875,52 L36.71875,52 L36.71875,34 Z" id="Combined-Shape" fill="#002940"></path>
            <path d="M9.14860075,55.3636364 L16.4083022,55.3636364 C16.6292161,55.3636364 16.8083022,55.1845503 16.8083022,54.9636364 L16.8083022,46.7636364 C16.8083022,46.5427225 16.6292161,46.3636364 16.4083022,46.3636364 L9.14860075,46.3636364 C8.92768685,46.3636364 8.74860075,46.5427225 8.74860075,46.7636364 L8.74860075,54.9636364 C8.74860075,55.1845503 8.92768685,55.3636364 9.14860075,55.3636364 Z M20.0291978,55.3636364 L27.2888992,55.3636364 C27.5098132,55.3636364 27.6888993,55.1845503 27.6888993,54.9636364 L27.6888993,46.7636364 C27.6888993,46.5427225 27.5098132,46.3636364 27.2888992,46.3636364 L20.0291978,46.3636364 C19.8082839,46.3636364 19.6291978,46.5427225 19.6291978,46.7636364 L19.6291978,54.9636364 C19.6291978,55.1845503 19.8082839,55.3636364 20.0291978,55.3636364 Z M5.11875001,66 L31.31875,66 C31.5396639,66 31.71875,65.8209139 31.71875,65.6 L31.71875,39.4 C31.71875,39.1790861 31.5396639,39 31.31875,39 L5.11875001,39 C4.8978361,39 4.71875,39.1790861 4.71875,39.4 L4.71875,65.6 C4.71875,65.8209139 4.8978361,66 5.11875001,66 Z" id="Fill-282" fill="#002940"></path>
            <path d="M87.7015351,52.5645983 C87.366307,52.4152506 86.9741316,52.6882185 87.0181681,53.0684753 L89.2921889,72.9005921 C89.3856257,73.7165524 90.269471,74.1047711 90.8267698,73.530302 L95.092691,69.1266098 L99.731091,76.1033693 C100.535308,77.3117245 102.133433,77.6083725 103.280899,76.7622941 C104.429349,75.9154907 104.711222,74.2326371 103.907005,73.024282 L99.2686045,66.0475224 L104.656496,63.3322561 C105.360428,62.9783068 105.316288,61.9709355 104.619424,61.5983667 L87.7005519,52.5653233 L87.7015351,52.5645983 Z M80.8489933,44.8417579 C80.5451373,44.3838433 80.6508453,43.7527386 81.0849997,43.4327384 C81.5201543,43.1120009 82.119697,43.2232896 82.423553,43.6812042 L85.800691,48.7570159 C86.1045471,49.2149305 85.998989,49.84514 85.5646847,50.1660354 C85.12953,50.4867729 84.5299874,50.3754842 84.2261313,49.9175696 L80.8489933,44.8417579 Z M75.9968155,53.2878259 C75.4678579,53.1896394 75.0979268,52.7572017 75.170879,52.3215094 C75.2437609,51.886534 75.7319968,51.612661 76.2609544,51.7108475 L82.1337615,52.8009734 C82.6635806,52.8993198 83.033393,53.3324659 82.9605596,53.7674499 C82.8875589,54.2031337 82.3994416,54.4762982 81.8696226,54.3779518 L75.9968155,53.2878259 Z M79.3352773,62.5356869 C78.9009661,62.8566237 78.3014235,62.7453351 77.9967239,62.2872211 C77.6927249,61.8301603 77.7984442,61.1989885 78.2327554,60.8780516 L83.0553966,57.3238309 C83.4895578,57.0037894 84.0891005,57.115078 84.3939499,57.5722967 C84.697799,58.0302528 84.5920797,58.6614246 84.1579185,58.9814662 L79.3352773,62.5356869 Z M97.6574734,46.4354946 C98.0926018,46.1147522 98.6912516,46.2258751 98.9959318,46.6839428 C99.3007619,47.1411152 99.1950539,47.7722199 98.7599255,48.0929623 L93.9385025,51.6469355 C93.503374,51.9676779 92.9038739,51.8563971 92.6000441,51.3984874 C92.2953639,50.9404197 92.400922,50.3102102 92.8360504,49.9894678 L97.6574734,46.4354946 L97.6574734,46.4354946 Z M89.6343263,41.9682971 C89.7277477,41.4105469 90.1386803,41.0211417 90.55274,41.0979766 C90.9661183,41.1747329 91.2257538,41.6886108 91.1323324,42.2463609 L90.0967981,48.428772 C90.0035286,48.9856152 89.592596,49.3750205 89.1792095,49.2983105 C88.765158,49.2214293 88.5055224,48.7075514 88.5987919,48.1507081 L89.6343263,41.9682971 Z" id="Combined-Shape" fill="#58E965" transform="translate(90.1627, 59.1664) rotate(-9) translate(-90.1627, -59.1664)"></path>
        </g>
    </g>
</svg>