<?xml version="1.0" encoding="UTF-8"?>
<svg width="117px" height="100px" viewBox="0 0 117 100" version="1.1" xmlns="http://www.w3.org/2000/svg" xmlns:xlink="http://www.w3.org/1999/xlink">
    <title>opennorth</title>
    <g id="opennorth" stroke="none" stroke-width="1" fill="none" fill-rule="evenodd">
        <g id="opennorth_logo" transform="translate(11, 18)" fill="#002940" fill-rule="nonzero">
            <path d="M33.2918473,0.273873288 C33.4893092,0.273873288 33.6265361,0.275616182 33.7236751,0.278151302 C33.9860263,0.278151302 34.0136423,0.443147595 34.01556,0.49814636 L34.0152992,0.515745965 C34.0152992,1.5762311 33.204054,2.39332372 32.0779874,2.43968545 C31.6166911,2.4570711 31.1620226,2.48604719 30.8001436,2.50343284 C14.9159095,3.17565163 2.20043633,15.7797803 2.20043633,32.1390842 C2.20043633,48.4983881 15.6045401,61.809474 32.0779874,61.809474 C48.5514346,61.809474 61.9555384,48.4810025 61.9555384,32.0927225 C61.9555384,31.0148122 62.7727486,30.1861621 63.9220126,30.1861621 L63.9279777,30.1919573 C65.0136146,30.1919573 65.894452,31.0206074 65.894452,32.0985177 L65.894452,63.3103692 L63.6887134,63.3103692 L63.6887134,37.603776 C61.0568059,52.5780231 47.8860015,64 32.0839524,64 C14.3903234,64 0,49.3676048 0,32.1390842 C0,14.9104978 13.8422026,0.85185536 31.0626053,0.312921284 L32.188672,0.278151302 C32.5743282,0.275616182 32.8738462,0.273873288 33.1073728,0.273873288 L33.2918473,0.273873288 Z M39.9790119,0.0115759453 L39.9790119,0.527329813 C39.9790119,4.85040339 36.4371047,8.37375682 32.0779874,8.37375682 C18.8780205,8.37375682 8.14095164,19.0365603 8.14095164,32.1448794 C8.14095164,45.2531327 18.8720555,55.9159362 32.0779874,55.9159362 C45.2839193,55.9159362 56.0209881,45.2299518 56.0209881,32.0927225 C56.0209881,27.5725852 59.3415261,24.2926243 63.9226754,24.2926243 L63.9226754,24.3042147 C68.2758278,24.3042147 71.8237,27.8217795 71.8237,32.1506746 L71.8237,63.3161644 L69.6179614,63.3161644 L69.6179614,32.1506746 C69.6179614,29.0271187 67.0616111,26.4889455 63.9167104,26.4889455 C60.5027202,26.4889455 58.2154594,28.7490142 58.2154594,32.1043129 C58.2154594,46.4469473 46.4862058,58.1122574 32.0720223,58.1122574 C17.6585016,58.1122574 5.92924802,46.4643329 5.92924802,32.1506746 C5.92924802,17.8370163 17.6585016,6.18904575 32.0720223,6.18904575 C35.2175858,6.18904575 37.7732733,3.65083964 37.7732733,0.527329813 L37.7732733,0.0115759453 L39.9790119,0.0115759453 Z M45.914225,0 L45.914225,0.51575255 C45.914225,2.70626542 45.3886388,4.78087396 44.466709,6.62366724 C46.1355942,5.38355673 47.927094,4.29989073 49.8352434,3.39586986 C49.9870205,2.48605377 50.0685427,1.5530634 50.0745077,0.625861667 L50.0745077,0 L52.2802463,0 L52.2802463,0.631656883 C52.2802463,1.22274264 52.2510839,1.81383498 52.1927591,2.40492733 C55.8108862,1.03151366 59.7617299,0.278159863 63.9220126,0.278159863 L63.9167104,0.283955079 C81.6096766,0.283955079 96,14.5802363 96,32.1448794 L96,63.3103692 L93.7942614,63.3103692 L93.7942614,32.1448794 C93.7942614,15.7855755 80.6698517,2.47446334 63.9167104,2.47446334 C47.1629063,2.47446334 34.0384966,15.4900195 34.0384966,32.0985177 C34.0325316,33.1473861 33.1748916,34.0050781 32.1131148,34.0050781 C31.0506752,34.0050781 30.1870702,33.1473861 30.1870702,32.0927225 C30.1870702,31.1133309 30.9340256,30.3136568 31.8910828,30.2035477 C31.9613377,28.9344611 32.1131148,27.6942847 32.3232167,26.4715599 C32.2410317,26.4715599 32.1535445,26.4773551 32.0720223,26.4773551 C28.9264588,26.4773551 26.3707713,29.0155941 26.3707713,32.1390842 C26.3707713,35.2625743 28.9264588,37.8008133 32.0720223,37.8008133 C35.2175858,37.8008133 37.7732733,35.2393934 37.7732733,32.0927225 C37.7732733,17.5588459 49.5025269,6.17746849 63.9167104,6.17746849 C78.3302311,6.17746849 90.0594847,17.8254259 90.0594847,32.1390842 L90.0594847,63.304574 L87.8537461,63.304574 L87.8537461,32.1390842 C87.8537461,19.0307651 77.3380464,8.3679616 63.9167104,8.3679616 C50.4947116,8.3679616 39.9790119,18.787366 39.9790119,32.0927225 C39.9790119,36.4447985 36.4311397,39.9854783 32.0779874,39.9854783 C27.724835,39.9854783 24.1769628,36.4621183 24.1769628,32.1390842 C24.1769628,27.8159843 27.71887,24.2926243 32.0779874,24.2926243 C32.3112866,24.2926243 32.5505509,24.2810338 32.7838502,24.2752386 C33.1052995,22.977176 33.5076082,21.7196798 33.9742067,20.4968891 C33.3498661,20.5548412 32.7142581,20.5838173 32.0839524,20.5838173 C25.6708735,20.5838173 20.4474883,25.7703387 20.4474883,32.1390842 C20.4474883,38.5077639 25.6708735,43.6942852 32.0839524,43.6942852 C38.4970313,43.6942852 43.7197537,38.484583 43.7197537,32.0869273 C43.7197537,20.8619877 52.7819723,12.0709733 63.9220126,12.0709733 C75.062053,12.0709733 84.1249344,21.0706155 84.1249344,32.133289 L84.1249344,63.2987788 L81.9191958,63.2987788 L81.9191958,32.133289 C81.9191958,22.2759547 74.0115435,14.2557042 63.9167104,14.2557042 C53.8212145,14.2557042 45.914225,22.0905737 45.914225,32.0869273 C45.914225,39.6899881 39.7046201,45.8790161 32.0720223,45.8790161 C24.4394245,45.8790161 18.2304825,39.713169 18.2304825,32.133289 C18.2304825,24.553409 24.4394245,18.3875619 32.0720223,18.3875619 C33.0410096,18.3875619 34.0093342,18.3006337 34.9604264,18.149958 C35.8651239,16.2607833 36.9620281,14.4759224 38.2113722,12.8243515 C36.3555826,13.7399299 34.2717959,14.2557042 32.0660573,14.2557042 C22.1402336,14.2557042 14.0635718,22.2759547 14.0635718,32.133289 C14.0635718,41.9905574 22.1402336,50.0108738 32.0660573,50.0108738 C41.9925437,50.0108738 50.0685427,41.9673765 50.0685427,32.0869273 C50.0685427,24.2752386 56.2774847,18.3875619 63.9107454,18.3875619 C71.5433432,18.3875619 77.7522852,24.553409 77.7522852,32.133289 L77.7522852,63.2987788 L75.5465466,63.2987788 L75.5465466,32.133289 C75.5465466,25.7646093 70.5458562,20.5780221 63.9107454,20.5780221 C57.2756345,20.5780221 52.2742813,25.5270054 52.2742813,32.0869273 C52.2742813,43.1727816 43.2120626,52.1956047 32.0720223,52.1956047 C20.931982,52.1956047 11.8697633,43.1959625 11.8697633,32.133289 C11.8697633,21.0706155 20.931982,12.0709733 32.0720223,12.0709733 C38.4851012,12.0709733 43.7078236,6.89024721 43.7078236,0.51575255 L43.7078236,0 L45.914225,0 Z" id="Combined-Shape"></path>
        </g>
    </g>
</svg>