<?xml version="1.0" encoding="UTF-8"?>
<svg width="117px" height="100px" viewBox="0 0 117 100" version="1.1" xmlns="http://www.w3.org/2000/svg" xmlns:xlink="http://www.w3.org/1999/xlink">
    <title>mainstreets copy 2</title>
    <g id="mainstreets-copy-2" stroke="none" stroke-width="1" fill="none" fill-rule="evenodd">
        <g id="Group" transform="translate(9, 13)">
            <path d="M40.9476564,60.0464023 L48.231086,60.0464023 L48.231086,52.7374246 L40.9476564,52.7374246 L40.9476564,60.0464023 Z M40.9476564,39.2601804 L48.231086,39.2601804 L48.231086,31.9512026 L40.9476564,31.9512026 L40.9476564,39.2601804 Z M50.9936246,49.6532914 L58.2770542,49.6532914 L58.2770542,42.3443136 L50.9936246,42.3443136 L50.9936246,49.6532914 Z M37,75 L62,75 L62,19 L37,19 L37,75 Z" id="Fill-280" fill="#002940"></path>
            <polygon id="Fill-281" fill="#002940" points="68 32 68 75 77.0226284 75 77.0226284 62.832021 84.306058 62.832021 84.306058 75 93 75 93 32"></polygon>
            <path d="M10.9527868,60.271111 L18.2362164,60.271111 L18.2362164,53.0719657 L10.9527868,53.0719657 L10.9527868,60.271111 Z M20.998755,60.271111 L28.2821846,60.271111 L28.2821846,53.0719657 L20.998755,53.0719657 L20.998755,60.271111 Z M7,75 L32,75 L32,43 L7,43 L7,75 Z" id="Fill-282" fill="#002940"></path>
            <polygon id="Stroke-283" fill="#58E965" fill-rule="nonzero" points="42.9741584 0 44.4088772 2.56305043 72.6515431 53.0170426 96.0010003 21.5780499 99 23.8333473 73.9302997 57.588636 72.2100566 59.9048704 70.7997649 57.3854576 42.5811073 6.97474962 3.03371239 62 0 59.7922127 41.2609861 2.38362704"></polygon>
        </g>
    </g>
</svg>