<?xml version="1.0" encoding="UTF-8"?>
<svg width="117px" height="100px" viewBox="0 0 117 100" version="1.1" xmlns="http://www.w3.org/2000/svg" xmlns:xlink="http://www.w3.org/1999/xlink">
    <title>resiliency</title>
    <g id="resiliency" stroke="none" stroke-width="1" fill="none" fill-rule="evenodd">
        <g id="noun-compression-159452" transform="translate(19.4567, 12)" fill-rule="nonzero">
            <path d="M23.4441504,36.5579394 L13.2798882,26.7284591 C12.676415,26.4232444 11.9494646,26.4623745 11.3712086,26.8084584 C10.7877352,27.1528033 10.4346947,27.7693197 10.4346947,28.4319227 L10.4346947,34.7831721 L3.26084211,34.7831721 C1.45998771,34.7831721 0,36.4605489 0,38.261403 C0,40.062257 1.45998771,41.7396338 3.26084211,41.7396338 L10.4346947,41.7396338 L10.4346947,48.0926224 C10.4346947,48.7534862 10.7877352,49.3717417 11.3712086,49.7160866 C11.6825103,49.9021719 12.0398986,50.000432 12.3972869,50.000432 C12.6990235,50.000432 13.0016296,49.9317369 13.2798882,49.7960859 L23.4441504,39.9666056 C24.0476236,39.4031322 24.5215326,38.9831358 24.5215326,38.261403 C24.5215326,37.5414092 24.1171882,37.1492386 23.4441504,36.5579394 Z" id="Path" fill="#DB3069"></path>
            <path d="M54.8160601,39.9648665 L64.9803224,49.7943468 C65.5837955,50.0995615 66.3107459,50.0604314 66.8890019,49.7143475 C67.4724753,49.3700026 67.8255158,48.7534862 67.8255158,48.0908832 L67.8255158,41.7396338 L74.9993684,41.7396338 C76.8002228,41.7396338 78.2602105,40.062257 78.2602105,38.261403 C78.2602105,36.4605489 76.8002228,34.7831721 74.9993684,34.7831721 L67.8255158,34.7831721 L67.8255158,28.4301835 C67.8255158,27.7693197 67.4724753,27.1510642 66.8890019,26.8067193 C66.5777002,26.620634 66.2203119,26.5223739 65.8629236,26.5223739 C65.561187,26.5223739 65.2585809,26.591069 64.9803224,26.72672 L54.8160601,36.5553307 C54.2125869,37.1196737 53.7386779,37.5396701 53.7386779,38.261403 C53.7386779,38.9813967 54.1430223,39.3735673 54.8160601,39.9648665 Z" id="Path" fill="#DB3069"></path>
            <path d="M21.7841644,76.5228115 C21.4528628,76.5228115 21.1163439,76.4749859 20.7833032,76.3749867 C18.9433187,75.8228176 17.8989797,73.8845734 18.451149,72.0445893 C19.0067965,70.193301 19.5963567,68.3115781 20.1928734,66.4063772 C23.1128488,57.0908055 26.1310843,47.4587148 26.1310843,38.261403 C26.1310843,29.0632215 23.1128488,19.4311309 20.1928734,10.1164287 C19.5954872,8.21122778 19.0059269,6.33037447 18.451149,4.47908611 C17.8989797,2.63910201 18.9424492,0.699988328 20.7833032,0.148688744 C22.6232877,-0.406089072 24.5624019,0.639988847 25.1137016,2.48084251 C25.661523,4.30517457 26.2423877,6.1590716 26.8310784,8.03731624 C29.9067047,17.8502749 33.0875475,27.9988829 33.0875475,38.261403 C33.0875475,48.523923 29.9075742,58.6716614 26.831948,68.4854897 C26.2432573,70.3637343 25.6623926,72.2185009 25.1145711,74.0437025 C24.662401,75.5497765 23.279804,76.5228115 21.7841644,76.5228115 Z" id="Path" fill="#002940"></path>
            <path d="M56.4760461,76.5228115 C54.979537,76.5228115 53.5978095,75.5497765 53.146509,74.042833 C52.5986875,72.2167618 52.0169533,70.3619952 51.4282626,68.4820114 C48.3526363,58.6699223 45.1735326,48.5230534 45.1735326,38.261403 C45.1735326,27.9997525 48.3535059,17.8520141 51.4282626,8.03905536 C52.0169533,6.15994116 52.5986875,4.30517457 53.146509,2.47997295 C53.6986782,0.639988847 55.6369228,-0.402610841 57.4769073,0.147819186 C59.3168918,0.699988328 60.3603613,2.63910201 59.8090616,4.47908611 C59.2534141,6.33037447 58.6647234,8.2129669 58.0664675,10.1190374 C55.1473617,19.43287 52.1299958,29.0640911 52.1299958,38.261403 C52.1299958,47.4578452 55.1482312,57.0890664 58.0664675,66.402899 C58.6638538,68.3089694 59.2534141,70.1915619 59.8090616,72.0437198 C60.3612308,73.8837039 59.3177613,75.8228176 57.4769073,76.3741172 C57.1438666,76.4749859 56.8064781,76.5228115 56.4760461,76.5228115 Z" id="Path" fill="#002940"></path>
            <path d="M39.1301053,76.521942 C37.2092519,76.521942 35.6518737,74.9645641 35.6518737,73.0437111 L35.6518737,3.47909475 C35.6518737,1.55824178 37.2092519,0.000863933681 39.1301053,0.000863933681 C41.0509587,0.000863933681 42.6083368,1.55824178 42.6083368,3.47909475 L42.6083368,73.0437111 C42.6083368,74.9645641 41.0509587,76.521942 39.1301053,76.521942 Z" id="Path" fill="#002940"></path>
        </g>
    </g>
</svg>