<?xml version="1.0" encoding="UTF-8"?>
<svg width="117px" height="100px" viewBox="0 0 117 100" version="1.1" xmlns="http://www.w3.org/2000/svg" xmlns:xlink="http://www.w3.org/1999/xlink">
    <title>Artboard</title>
    <g id="Artboard" stroke="none" stroke-width="1" fill="none" fill-rule="evenodd">
        <g id="Group-2" transform="translate(12, 12)">
            <g id="Group" transform="translate(0, 8)" fill-rule="nonzero">
                <polygon id="Stroke-283" fill="#00ADF2" points="40.6174821 3.08333333 41.9005392 5.18820405 67.1577225 46.622867 88.0389495 20.8040168 90.7209302 22.6561495 68.301304 50.3772266 66.7629048 52.279403 65.5016925 50.2103691 40.2659797 8.81125271 4.89907049 54 2.18604651 52.1868843 39.0854061 5.040855"></polygon>
                <polygon id="Stroke-283" fill="#58E965" transform="translate(49.186, 31.5417) scale(-1, 1) translate(-49.186, -31.5417)" points="43.2779907 6.08333333 44.5768881 8.18820405 70.1458885 49.622867 91.2849084 23.8040168 94 25.6561495 71.3035882 53.3772266 69.7461964 55.279403 68.4694137 53.2103691 42.9221488 11.8112527 7.11861113 57 4.37209302 55.1868843 41.7270003 8.040855"></polygon>
                <polygon id="Stroke-283" fill="#DB3069" transform="translate(44.814, 25.3892) scale(-1, -1) translate(-44.814, -25.3892)" points="34.4518102 -7.09136695e-14 35.7507075 2.10487071 65.7737954 43.4012327 86.9128154 17.5823825 89.627907 19.4345152 66.9314952 47.1555924 65.3741034 49.0577687 64.0973207 46.9887348 34.0959683 5.72791938 2.7465181 50.7783657 0 48.9652501 32.9008197 1.95752167"></polygon>
            </g>
            <circle id="Oval" stroke="#2B8233" stroke-width="0.8" fill="#58E965" cx="28" cy="60.5" r="3.1"></circle>
            <circle id="Oval" stroke="#002940" stroke-width="0.8" fill="#00ADF2" cx="40" cy="14.5" r="3.1"></circle>
            <circle id="Oval" stroke="#802140" stroke-width="0.8" fill="#DB3069" cx="56" cy="55.5" r="3.1"></circle>
            <path d="M57.5403806,60.8793654 C58.1760377,60.6889848 58.3445474,60.7603862 58.4669948,60.8868611 L60.8516971,63.35 L77,63.35 C77.1794925,63.35 77.3419925,63.4227537 77.4596194,63.5403806 C77.5772463,63.6580075 77.65,63.8205075 77.65,64 L77.65,70 C77.65,70.1794925 77.5772463,70.3419925 77.4596194,70.4596194 C77.3419925,70.5772463 77.1794925,70.65 77,70.65 L55,70.65 C54.8205075,70.65 54.6580075,70.5772463 54.5403806,70.4596194 C54.4227537,70.3419925 54.35,70.1794925 54.35,70 L54.35,64 C54.35,63.8205075 54.4227537,63.6580075 54.5403806,63.5403806 C54.6580075,63.4227537 54.8205075,63.35 55,63.35 L57.35,63.35 L57.35,61.3389848 C57.35,61.1594923 57.4227537,60.9969923 57.5403806,60.8793654 Z" id="Combined-Shape" stroke="#8D3853" stroke-width="0.7" fill="#DB3069"></path>
            <path d="M25.6464466,66.0606602 C26.1380712,65.9142136 26.2630712,65.970178 26.3535534,66.0606602 C26.4440356,66.1511424 26.5,66.2761424 26.5,66.4142136 L26.5,68.5 L28,68.5 C28.1380712,68.5 28.2630712,68.5559644 28.3535534,68.6464466 C28.4440356,68.7369288 28.5,68.8619288 28.5,69 L28.5,75 C28.5,75.1380712 28.4440356,75.2630712 28.3535534,75.3535534 C28.2630712,75.4440356 28.1380712,75.5 28,75.5 L7,75.5 C6.86192881,75.5 6.73692881,75.4440356 6.64644661,75.3535534 C6.55596441,75.2630712 6.5,75.1380712 6.5,75 L6.5,69 C6.5,68.8619288 6.55596441,68.7369288 6.64644661,68.6464466 C6.73692881,68.5559644 6.86192881,68.5 7,68.5 L23.2071068,68.5 Z" id="Combined-Shape" stroke="#418F48" fill="#5BE968"></path>
            <path d="M57,0.5 L57.5,7 L45.7928932,7.5 L43.3535534,9.93933983 L42.5,7.5 L40,7.5 L39.5,1 L57,0.5 Z" id="Combined-Shape" stroke="#053852" fill="#05AEF2"></path>
        </g>
    </g>
</svg>