<?xml version="1.0" encoding="UTF-8"?>
<svg width="117px" height="100px" viewBox="0 0 117 100" version="1.1" xmlns="http://www.w3.org/2000/svg" xmlns:xlink="http://www.w3.org/1999/xlink">
    <title>Artboard</title>
    <g id="Artboard" stroke="none" stroke-width="1" fill="none" fill-rule="evenodd">
        <g id="Group-2" transform="translate(10, 11)">
            <g id="Group" transform="translate(2, 10)" fill-rule="nonzero" opacity="0.797479539">
                <polygon id="Stroke-283" fill="#00ADF2" points="40.6174821 3.08333333 41.9005392 5.18820405 67.1577225 46.622867 88.0389495 20.8040168 90.7209302 22.6561495 68.301304 50.3772266 66.7629048 52.279403 65.5016925 50.2103691 40.2659797 8.81125271 4.89907049 54 2.18604651 52.1868843 39.0854061 5.040855"></polygon>
                <polygon id="Stroke-283" fill="#58E965" transform="translate(49.186, 31.5417) scale(-1, 1) translate(-49.186, -31.5417)" points="43.2779907 6.08333333 44.5768881 8.18820405 70.1458885 49.622867 91.2849084 23.8040168 94 25.6561495 71.3035882 53.3772266 69.7461964 55.279403 68.4694137 53.2103691 42.9221488 11.8112527 7.11861113 57 4.37209302 55.1868843 41.7270003 8.040855"></polygon>
                <polygon id="Stroke-283" fill="#DB3069" transform="translate(44.814, 25.3892) scale(-1, -1) translate(-44.814, -25.3892)" points="34.4518102 -7.09136695e-14 35.7507075 2.10487071 65.7737954 43.4012327 86.9128154 17.5823825 89.627907 19.4345152 66.9314952 47.1555924 65.3741034 49.0577687 64.0973207 46.9887348 34.0959683 5.72791938 2.7465181 50.7783657 0 48.9652501 32.9008197 1.95752167"></polygon>
            </g>
            <circle id="Oval" stroke="#2B8233" stroke-width="0.8" fill="#58E965" cx="30" cy="62.5" r="3.1"></circle>
            <circle id="Oval" stroke="#002940" stroke-width="0.8" fill="#00ADF2" cx="42" cy="16.5" r="3.1"></circle>
            <circle id="Oval" stroke="#802140" stroke-width="0.8" fill="#DB3069" cx="58" cy="57.5" r="3.1"></circle>
            <path d="M59,62 L63,66 L79,66 C79.5522847,66 80,66.4477153 80,67 L80,73 C80,73.5522847 79.5522847,74 79,74 L57,74 C56.4477153,74 56,73.5522847 56,73 L56,67 C56,66.4477153 56.4477153,66 57,66 L59,66 L59,62 Z" id="Combined-Shape" fill="#DB3069"></path>
            <path d="M59,62 L63,66 L79,66 C79.5522847,66 80,66.4477153 80,67 L80,73 C80,73.5522847 79.5522847,74 79,74 L57,74 C56.4477153,74 56,73.5522847 56,73 L56,67 C56,66.4477153 56.4477153,66 57,66 L59,66 L59,62 Z M59.7,63.689 L59.7,66.7 L57,66.7 C56.8343146,66.7 56.7,66.8343146 56.7,67 L56.7,73 C56.7,73.1656854 56.8343146,73.3 57,73.3 L79,73.3 C79.1656854,73.3 79.3,73.1656854 79.3,73 L79.3,67 C79.3,66.8343146 79.1656854,66.7 79,66.7 L62.7100505,66.7 L62.5050253,66.4949747 L59.7,63.689 Z" id="Combined-Shape" fill="#8D3853" fill-rule="nonzero"></path>
            <path d="M28,67 L28,71 L29,71 C29.5522847,71 30,71.4477153 30,72 L30,78 C30,78.5522847 29.5522847,79 29,79 L1,79 C0.44771525,79 3.38176876e-17,78.5522847 0,78 L0,72 C-6.76353751e-17,71.4477153 0.44771525,71 1,71 L24,71 L28,67 Z" id="Combined-Shape" fill="#5BE968"></path>
            <path d="M28,67 L28,71 L29,71 C29.5522847,71 30,71.4477153 30,72 L30,78 C30,78.5522847 29.5522847,79 29,79 L1,79 C0.44771525,79 0,78.5522847 0,78 L0,72 C0,71.4477153 0.44771525,71 1,71 L24,71 L28,67 Z M27,69.414 L24.4142136,72 L1,72 L1,78 L29,78 L29,72 L27,72 L27,69.414 Z" id="Combined-Shape" fill="#418F48" fill-rule="nonzero"></path>
            <path d="M42,8 C41.4477153,8 41,7.55228475 41,7 L41,1 C41,0.44771525 41.4477153,6.76353751e-17 42,0 L59,0 C59.5522847,-1.01453063e-16 60,0.44771525 60,1 L60,7 C60,7.55228475 59.5522847,8 59,8 L48,8 L44,12 L44,8 L42,8 Z" id="Combined-Shape" fill="#05AEF2"></path>
            <path d="M59,0 C59.5522847,0 60,0.44771525 60,1 L60,7 C60,7.55228475 59.5522847,8 59,8 L48,8 L44,12 L44,8 L42,8 C41.4477153,8 41,7.55228475 41,7 L41,1 C41,0.44771525 41.4477153,0 42,0 L59,0 Z M59,1 L42,1 L42,7 L45,7 L45,9.584 L47.2928932,7.29289322 L47.5857864,7 L59,7 L59,1 Z" id="Combined-Shape" fill="#053852" fill-rule="nonzero"></path>
        </g>
    </g>
</svg>