<svg width="175" height="18" viewBox="0 0 175 18" fill="none" xmlns="http://www.w3.org/2000/svg">
<path d="M99 5C99 2.23858 101.239 0 104 0H124C126.761 0 129 2.23858 129 5V13C129 15.7614 126.761 18 124 18H114H104C101.239 18 99 15.7614 99 13V5Z" fill="#002940"/>
<path d="M99 4.5C99 2.01472 100.033 0 101.308 0H126.692C127.967 0 129 2.01472 129 4.5V13.5C129 15.9853 127.967 18 126.692 18H101.308C100.033 18 99 15.9853 99 13.5V4.5Z" fill="#002940"/>
<path d="M99 5C99 2.23858 101.239 0 104 0H124C126.761 0 129 2.23858 129 5V13C129 15.7614 126.761 18 124 18H114H104C101.239 18 99 15.7614 99 13V5Z" fill="#002940"/>
<path d="M99 4.5C99 2.01472 100.033 0 101.308 0H126.692C127.967 0 129 2.01472 129 4.5V13.5C129 15.9853 127.967 18 126.692 18H101.308C100.033 18 99 15.9853 99 13.5V4.5Z" fill="#002940"/>
<path d="M132 5C132 2.23858 134.239 0 137 0H158.509C160.048 0 161.502 0.709493 162.45 1.92327L168.695 9.92327C171.258 13.2063 168.919 18 164.754 18H137C134.239 18 132 15.7614 132 13V5Z" fill="#002940"/>
<path d="M145 3H150V8H145V3Z" fill="white"/>
<path d="M153 3H158V8H153V3Z" fill="white"/>
<path d="M145 3H150V8H145V3Z" fill="white"/>
<path d="M99 5C99 2.23858 101.239 0 104 0H124C126.761 0 129 2.23858 129 5V13C129 15.7614 126.761 18 124 18H114H104C101.239 18 99 15.7614 99 13V5Z" fill="#002940"/>
<path d="M99 4.5C99 2.01472 100.033 0 101.308 0H126.692C127.967 0 129 2.01472 129 4.5V13.5C129 15.9853 127.967 18 126.692 18H101.308C100.033 18 99 15.9853 99 13.5V4.5Z" fill="#002940"/>
<path d="M99 5C99 2.23858 101.239 0 104 0H124C126.761 0 129 2.23858 129 5V13C129 15.7614 126.761 18 124 18H114H104C101.239 18 99 15.7614 99 13V5Z" fill="#002940"/>
<path d="M99 4.5C99 2.01472 100.033 0 101.308 0H126.692C127.967 0 129 2.01472 129 4.5V13.5C129 15.9853 127.967 18 126.692 18H101.308C100.033 18 99 15.9853 99 13.5V4.5Z" fill="#002940"/>
<path d="M102.5 3H107.5V8H102.5V3Z" fill="white"/>
<path d="M110.5 3H115.5V8H110.5V3Z" fill="white"/>
<path d="M102.5 3H107.5V8H102.5V3Z" fill="white"/>
<path d="M118 3H123V8H118V3Z" fill="white"/>
<path d="M33 5C33 2.23858 35.2386 0 38 0H58C60.7614 0 63 2.23858 63 5V13C63 15.7614 60.7614 18 58 18H48H38C35.2386 18 33 15.7614 33 13V5Z" fill="#002940"/>
<path d="M33 4.5C33 2.01472 34.0332 0 35.3077 0H60.6923C61.9668 0 63 2.01472 63 4.5V13.5C63 15.9853 61.9668 18 60.6923 18H35.3077C34.0332 18 33 15.9853 33 13.5V4.5Z" fill="#002940"/>
<path d="M33 5C33 2.23858 35.2386 0 38 0H58C60.7614 0 63 2.23858 63 5V13C63 15.7614 60.7614 18 58 18H48H38C35.2386 18 33 15.7614 33 13V5Z" fill="#002940"/>
<path d="M33 4.5C33 2.01472 34.0332 0 35.3077 0H60.6923C61.9668 0 63 2.01472 63 4.5V13.5C63 15.9853 61.9668 18 60.6923 18H35.3077C34.0332 18 33 15.9853 33 13.5V4.5Z" fill="#002940"/>
<path d="M36.5 3H41.5V8H36.5V3Z" fill="white"/>
<path d="M44.5 3H49.5V8H44.5V3Z" fill="white"/>
<path d="M36.5 3H41.5V8H36.5V3Z" fill="white"/>
<path d="M52 3H57V8H52V3Z" fill="white"/>
<path d="M0 5C0 2.23858 2.23858 0 5 0H25C27.7614 0 30 2.23858 30 5V13C30 15.7614 27.7614 18 25 18H15H5C2.23858 18 0 15.7614 0 13V5Z" fill="#002940"/>
<path d="M0 4.5C0 2.01472 1.03319 0 2.30769 0H27.6923C28.9668 0 30 2.01472 30 4.5V13.5C30 15.9853 28.9668 18 27.6923 18H2.30769C1.03319 18 0 15.9853 0 13.5V4.5Z" fill="#002940"/>
<path d="M0 5C0 2.23858 2.23858 0 5 0H25C27.7614 0 30 2.23858 30 5V13C30 15.7614 27.7614 18 25 18H15H5C2.23858 18 0 15.7614 0 13V5Z" fill="#002940"/>
<path d="M0 4.5C0 2.01472 1.03319 0 2.30769 0H27.6923C28.9668 0 30 2.01472 30 4.5V13.5C30 15.9853 28.9668 18 27.6923 18H2.30769C1.03319 18 0 15.9853 0 13.5V4.5Z" fill="#002940"/>
<path d="M3.5 3H8.5V8H3.5V3Z" fill="white"/>
<path d="M11.5 3H16.5V8H11.5V3Z" fill="white"/>
<path d="M3.5 3H8.5V8H3.5V3Z" fill="white"/>
<path d="M19 3H24V8H19V3Z" fill="white"/>
<path d="M66 5C66 2.23858 68.2386 0 71 0H91C93.7614 0 96 2.23858 96 5V13C96 15.7614 93.7614 18 91 18H81H71C68.2386 18 66 15.7614 66 13V5Z" fill="#002940"/>
<path d="M66 4.5C66 2.01472 67.0332 0 68.3077 0H93.6923C94.9668 0 96 2.01472 96 4.5V13.5C96 15.9853 94.9668 18 93.6923 18H68.3077C67.0332 18 66 15.9853 66 13.5V4.5Z" fill="#002940"/>
<path d="M69.5 3H74.5V8H69.5V3Z" fill="white"/>
<path d="M77.5 3H82.5V8H77.5V3Z" fill="white"/>
<path d="M69.5 3H74.5V8H69.5V3Z" fill="white"/>
<path d="M85 3H90V8H85V3Z" fill="white"/>
</svg>
