<svg height="50" viewBox="0 0 50 50" width="50" xmlns="http://www.w3.org/2000/svg"><g fill="none" fill-rule="evenodd" transform="translate(.0007)"><path d="m24.999296 0c13.8091751 0 24.9992959 11.1915289 24.9992959 24.9978879 0 13.8091751-11.1901208 25.0021121-24.9992959 25.0021121-13.8091752 0-24.999296-11.192937-24.999296-25.0021121 0-13.806359 11.1901208-24.9978879 24.999296-24.9978879" fill="#005394"/><path d="m32.6403165 29.9598693c-.3956743.4041229-.916669.6054803-1.5390464.6054803-.5829508 0-1.0771917-.2013574-1.4742741-.6054803-.4027148-.4069391-.6054803-.9152609-.6054803-1.5390464 0-.5801346.2027655-1.081416.6054803-1.5094765.3970824-.4196119.8913233-.6378664 1.4742741-.6378664.6251936 0 1.1433721.2154383 1.5390464.6378664.4041229.4280605.6054803.9293419.6054803 1.5094765 0 .6237855-.2013574 1.1321073-.6054803 1.5390464zm-15.7255907-17.9447464c0-.6139288.2013574-1.1208426.5942156-1.5165169.3942662-.3970824.8997719-.59421556 1.517925-.59421556h11.9406348c.6209693 0 1.1306993.19713316 1.5531274.59421556.4196119.3956743.6280098.9025881.6280098 1.5165169v5.3211862c0 .6167451-.2083979 1.1236588-.6280098 1.517925-.4224281.3970825-.9363824.5899913-1.5531274.5899913h-11.9406348c-.6181531 0-1.1236588-.1929088-1.517925-.5899913-.3928582-.3942662-.5942156-.9011799-.5942156-1.517925zm.4407334 17.9405221c-.4041229-.4027148-.6040722-.9110366-.6040722-1.533414 0-.5815427.1999493-1.0828241.6040722-1.5066603.4069391-.4238362.9152609-.6378665 1.5418626-.6378665.5759103 0 1.0701512.2140303 1.4770903.6378665.3984905.4238362.6026641.9251176.6026641 1.5066603 0 .6223774-.2041736 1.1306992-.6026641 1.533414-.4069391.4041229-.90118.6068884-1.4770903.6068884-.6266017 0-1.1349235-.2027655-1.5418626-.6068884zm17.1773353 11.2605255h3.2287589l-5.7365738-8.5105184c1.1011293-.1731955 2.0121659-.6787012 2.734518-1.5137008.7293925-.8335914 1.0940888-1.8262975 1.0940888-2.9710777v-16.6253626c0-1.2278577-.436509-2.28111183-1.3207919-3.1625785-.8814667-.88146667-1.9614746-1.31797573-3.2329832-1.31797573h-12.6038469c-1.277141 0-2.3529246.43650906-3.2329832 1.31797573-.8786505.88146667-1.3193838 1.9347208-1.3193838 3.1625785v16.6253626c0 1.1447802.3773691 2.1459348 1.1250669 3.0034639.7448816.8575291 1.6460615 1.3503619 2.7063561 1.4813146l-5.7379819 8.5105184h3.2259427l3.8947873-5.8027542h11.2816469z" fill="#fff"/></g></svg>