<svg height="50" viewBox="0 0 50 50" width="50" xmlns="http://www.w3.org/2000/svg"><g fill="none" fill-rule="evenodd"><path d="m0 50h50v-50h-50z" fill="#0074c8"/><path d="m16.1443352 36.6735255c1.2749793.1874988 3.3749313.3749977 6.187382.3749977 5.0249083 0 8.0998352-.8249886 9.937311-2.2874508 1.574968-1.2749794 2.6249519-3.0749428 2.6249519-5.3623936 0-3.2624415-2.1374644-5.4374026-5.0249083-6.2248786v-.0750091c2.8499473-1.049968 4.1624232-3.1499359 4.1624232-5.3998901 0-2.2874508-1.2749793-4.0124208-3.0374461-4.9498992-1.83746-1.0874806-3.9749244-1.4249816-7.4623614-1.4249816-2.8499314 0-5.8873776.2249954-7.3873523.5249999zm5.662398-21.0370798c.4874874-.0750091 1.1999704-.1500023 2.437453-.1500023 2.5874394 0 4.0499176 1.0124873 4.0499176 2.9249405 0 1.8749724-1.6124645 3.1124393-4.6124141 3.1124393h-1.8749565zm0 9.9748076h1.9499497c2.8499473 0 5.137414 1.0124714 5.137414 3.5624301 0 2.6624487-2.2874667 3.6374233-4.8749061 3.6374233-.9749908 0-1.649977 0-2.2124576-.0749931z" fill="#fff"/></g></svg>