<svg height="50" viewBox="0 0 50 50" width="50" xmlns="http://www.w3.org/2000/svg"><g fill="none" fill-rule="evenodd"><path d="m0 50h50v-50h-50z" fill="#be1e2d"/><path d="m16.351934 36.788321h5.6623981v-9.9372951h1.7249542c2.3249633.0374966 3.4124438.8999817 4.08743 4.0499176.7499795 3.1124393 1.3499726 5.1748788 1.7624668 5.8873775h5.849881c-.4874875-.9749748-1.2749794-4.2749289-2.0624554-7.1248603-.6374897-2.3249474-1.6124804-4.012421-3.3749313-4.7249197v-.1124898c2.1749451-.7874919 4.4624118-2.9999495 4.4624118-6.2248786 0-2.3249474-.8249885-4.0874142-2.3249633-5.2874004-1.7999633-1.4249657-4.4249152-1.9874463-8.1748442-1.9874463-3.0374302 0-5.7748878.2249795-7.6123477.524984zm5.6623981-21.0370798c.4124782-.075025 1.1999702-.1875148 2.5874393-.1875148 2.6249518.0374966 4.1999198 1.1999862 4.1999198 3.5249336 0 2.2124576-1.6874577 3.6374233-4.537405 3.6374233h-2.2499541z" fill="#fff"/></g></svg>