<svg height="50" viewBox="0 0 50 50" width="50" xmlns="http://www.w3.org/2000/svg"><g fill="none" fill-rule="evenodd"><path d="m25 0c13.8051282 0 25 11.1948718 25 25s-11.1948718 25-25 25-25-11.1948718-25-25 11.1948718-25 25-25" fill="#fffffe"/><path d="m25 3.125c12.0794872 0 21.874359 9.7961538 21.874359 21.875641 0 12.0782052-9.7948718 21.874359-21.874359 21.874359s-21.87564103-9.7961538-21.87564103-21.874359c0-12.0794872 9.79615383-21.875641 21.87564103-21.875641" fill="#f6821f"/><path d="m17.8733915 25.1037493 3.3783646.8369815c.1623263-.1623226.3348004-.3145012.5174222-.4565358.1826218-.1521786.390598-.2840673.6239284-.3956662.2333418-.1115989.5021912-.202906.8065484-.2739214s.6645119-.1065231 1.0804642-.1065231c.618862 0 1.156561.0963791 1.6130967.2891374.456532.1927583.8369766.4666793 1.1413337.8217632.3043572.3550846.5275531.7811845.6695877 1.2782995.1521974.4869711.2282961 1.0246683.2282961 1.6130917 0 .5985684-.0608677 1.1565561-.182603 1.6739629-.1116064.5174068-.289145.9637969-.5326156 1.3391702-.2536373.3753726-.5833563.6695843-.9891571.882635-.3956643.21305-.8775637.319575-1.4456984.319575-.9232155 0-1.6841065-.2637759-2.2826731-.7913278-.5884715-.5275504-.9334329-1.273224-1.034884-2.2370207h-4.169689c.0304244 1.0246681.2586921 1.9377389.684803 2.7392122.4362467.7913279.9993069 1.4609131 1.6891806 2.0087556.6898775.5478426 1.4761323.9637969 2.3587643 1.2478631.8927835.2840654 1.8160009.4260982 2.7696521.4260982 1.2580083 0 2.3486203-.197832 3.2718357-.593496.9232155-.3956639 1.6891804-.9333611 2.2978947-1.6130916.6087144-.6797305 1.0601763-1.4659858 1.3543857-2.358766.2942282-.8927805.4413423-1.8362869.4413423-2.8305193 0-1.1667016-.1521786-2.2116604-.4565357-3.1348762-.3043572-.9232159-.7406012-1.7043986-1.3087321-2.3435483-.5782786-.6391497-1.2884459-1.1261208-2.130502-1.4609133-.8319083-.3449368-1.7804875-.5174053-2.8457376-.5174053-.7507452 0-1.4152571.0963792-1.9935357.2891375-.5782786.1927582-1.0246685.3804445-1.3391696.5630588l.5326156-4.8697108h8.8111343v-3.591408h-12.2960163z" fill="#fff" fill-rule="nonzero"/></g></svg>