<svg height="50" viewBox="0 0 50 50" width="50" xmlns="http://www.w3.org/2000/svg"><g fill="none" fill-rule="evenodd"><path d="m25 0c13.8051282 0 25 11.1948718 25 25s-11.1948718 25-25 25-25-11.1948718-25-25 11.1948718-25 25-25" fill="#fffffe"/><path d="m25.08 3.11717949c12.0794872 0 21.874359 9.79615381 21.874359 21.87564101 0 12.0782051-9.7948718 21.874359-21.874359 21.874359s-21.87564103-9.7961539-21.87564103-21.874359c0-12.0794872 9.79615383-21.87564101 21.87564103-21.87564101" fill="#a6dca8"/><path d="m7.859375 21.734375h-4.671875c.16666667-3.0520833.90364583-6.078125 2.2109375-9.078125s3.17447917-5.94791667 5.6015625-8.84375h-11v-3.8125h15.859375v3.359375c-2.4583333 2.70833333-4.3463542 5.57291667-5.6640625 8.59375-1.31770833 3.0208333-2.09635417 6.28125-2.3359375 9.78125z" fill="#000" fill-rule="nonzero" transform="translate(16.7373 14.697)"/></g></svg>