<svg height="50" viewBox="0 0 50 50" width="50" xmlns="http://www.w3.org/2000/svg"><g fill="none" fill-rule="evenodd"><path d="m25 0c13.8051282 0 25 11.1948718 25 25s-11.1948718 25-25 25-25-11.1948718-25-25 11.1948718-25 25-25" fill="#fffffe"/><path d="m25.08 3.11717949c12.0794872 0 21.874359 9.79615381 21.874359 21.87564101 0 12.0782051-9.7948718 21.874359-21.874359 21.874359s-21.87564103-9.7961539-21.87564103-21.874359c0-12.0794872 9.79615383-21.87564101 21.87564103-21.87564101" fill="#949599"/><path d="m29.6141131 13.3735897h-.5883266c-1.9186882 0-3.6094678.3153433-5.072339.9460298-1.4628751.6203476-2.6872367 1.4836644-3.6730846 2.5899504-.9858441 1.1166255-1.7278789 2.4400333-2.2261044 3.9702235-.4982236 1.5198509-.7473354 3.1741105-.7473354 4.9627789v1.6594297c0 1.29239.1855097 2.4865586.556529 3.5825057.3816186 1.085608.9222447 2.0264683 1.6218784 2.8225808.6890309.7961125 1.5317699 1.4216295 2.5282171 1.8765511.9964511.4445821 2.1148049.6668732 3.3550613.6668732 1.1872565 0 2.2579079-.1964434 3.2119543-.5893301.9540465-.4032258 1.7649859-.9511993 2.4328184-1.6439206s1.1819569-1.509512 1.5423731-2.4503721c.360428-.9408601.5406421-1.9592637.5406421-3.0552108 0-1.0235732-.1378015-1.9954509-.4134044-2.915633-.2650368-.9305211-.6731679-1.7473118-1.2243934-2.4503721-.5512256-.6927213-1.2402584-1.2406949-2.0670987-1.6439206-.8162371-.4135648-1.7755831-.6203472-2.8780381-.6203472-.5406263 0-1.0441495.0620348-1.5105695.1861044-.466424.1240696-.8957449.2843255-1.2879627.4807677-.4028209.2067839-.7632391.4394142-1.0812546.6978908-.3180155.2481392-.5989278.5014477-.8427371.7599254.0954086-.9408601.323319-1.7938377.6837313-2.5589328.3710115-.7650951.8745367-1.4216293 1.5105755-1.9696026.6254278-.5479738 1.3833634-.9718779 2.2738067-1.2717125.9010426-.2998361 1.9345909-.4497541 3.100645-.4497541h.2544163zm-2.9257404 11.4919358c.4346186.2067839.8003364.4962793 1.0971534.8684861.2968092.3825466.5247197.8322984.6837313 1.3492555.1590274.5169564.2385411 1.0804386.2385411 1.6904467 0 .6100082-.0795137 1.1734904-.2385411 1.6904467-.158988.506617-.3868985.9460296-.6837313 1.318238-.2968092.3722087-.6572274.6668738-1.0812546.8839952-.4240193.2067839-.8957409.3101758-1.4151649.3101758-.5088248 0-.9805484-.1033919-1.4151708-.3101758-.4346186-.2067824-.8109356-.516956-1.128951-.9305207-.3180155-.4032262-.5671283-.9150128-.7473384-1.53536-.1696069-.6203475-.2544104-1.3440862-.2544104-2.1712161v-1.2717118c.1484046-.310174.3286186-.5944999.5406421-.8529776.2226069-.2584771.4664181-.4859378.7314336-.6823824.307432-.2171217.6466498-.3825485 1.0176534-.4962802.3710115-.1240696.7685289-.1861044 1.1925522-.1861044.5512117 0 1.0388361.1085632 1.4628554.325685z" fill="#fff" fill-rule="nonzero"/></g></svg>