<svg height="51" viewBox="0 0 51 51" width="51" xmlns="http://www.w3.org/2000/svg"><g fill="none" transform="translate(.9458 .5686)"><rect fill="#3fa21c" height="50" rx="5" width="50"/><path d="m13.51 40v-31h13.01c2.65 0 4.77.31 6.38.94 1.6.63 2.85 1.59 3.76 2.9.91 1.3 1.36 2.67 1.36 4.09 0 1.33-.4 2.57-1.21 3.74-.8 1.17-2.02 2.11-3.64 2.83 2.1.55 3.71 1.49 4.84 2.81 1.13 1.33 1.69 2.89 1.69 4.69 0 1.45-.34 2.8-1.03 4.05s-1.53 2.21-2.54 2.89-2.27 1.19-3.8 1.53c-1.52.35-3.39.52-5.59.52h-13.23zm6.08-18.9h5.74c1.56 0 2.67-.09 3.35-.28.89-.24 1.57-.65 2.02-1.22s.68-1.28.68-2.14c0-.81-.21-1.53-.63-2.15s-1.03-1.04-1.81-1.27-2.13-.34-4.04-.34h-5.3v7.4zm0 14.1h6.7c1.15 0 1.96-.04 2.42-.12.82-.14 1.51-.36 2.06-.68s1-.78 1.36-1.39c.35-.61.53-1.31.53-2.11 0-.93-.26-1.74-.77-2.43s-1.23-1.17-2.14-1.45-2.22-.42-3.94-.42h-6.22z" fill="#fff"/></g></svg>