<svg height="50" viewBox="0 0 50 50" width="50" xmlns="http://www.w3.org/2000/svg"><g fill="none" fill-rule="evenodd"><path d="m24.9997577 49.068174c-13.2425488 0-24.03905448-10.7759506-24.0682199-24.0184995-.02564788-13.2716683 10.7503028-24.09044189 24.0202583-24.11784853 13.2922233 0 24.088729 10.77423773 24.1161878 24.01849953.0273545 13.2699554-10.7468833 24.0904419-24.0185517 24.1178485z" fill="#1e437b"/><path d="m25.0035261 0h-.0017129c-13.8369305.02911956-25.02911958 11.2658445-25.00176316 25.0513875.02916979 13.7564234 11.24362676 24.9486125 24.99833736 24.9486125 13.8386433-.0291196 25.0291195-11.2658445 25.0017631-25.0513875-.0274569-13.7564234-11.2419139-24.9486125-24.9966244-24.9486125zm-.0017129 1.86365194c12.7560808-.00171292 23.1089414 10.32545396 23.1346829 23.08838646.025646 12.7783487-10.3117984 23.156903-23.0884342 23.1843097h-.0496745c-12.7560809 0-23.10894146-10.3271669-23.13468299-23.0883865-.02564594-12.7783487 10.31179839-23.15861593 23.08843419-23.18430966z" fill="#8dc240"/><path d="m33.4798879 29.5853032-17.2096609.0359712-2.5042823-9.9486125c-.2141144-1.0071943.62864-1.7403221 1.4028777-1.7454608l19.3627955-.0393971c.7759507.001713 1.6221309.7314149 1.4097294 1.7403221zm-1.2247345 3.806098c-.6526208 0-1.1853375-.5292909-1.1870545-1.1836246-.0017088-.6543336.529295-1.1853374 1.1819157-1.1870503.6560466 0 1.1870504.5292908 1.1887674 1.1819116.0017088.6560466-.527582 1.1870503-1.1836286 1.1887633zm-4.6831148-1.1716342c-.0017088-.6543336.5310079-1.1904803 1.1870545-1.1904803.6491949-.0017088 1.1853374.5310079 1.1870544 1.1853416.0017088.6543337-.5327207 1.1853374-1.1836286 1.1870545-.6543337.0017088-1.1887633-.5275821-1.1904803-1.1819158zm-7.7577897.0154163c0-.6543337.5292909-1.1887633 1.1819117-1.1904803.6560466-.0017088 1.1870503.5310079 1.1887632 1.1853415 0 .6543337-.5275779 1.1870545-1.1836245 1.1870545-.6543337.0017088-1.1853374-.527582-1.1870504-1.1819157zm12.2918808 3.5388832-14.4381637.0291195-.2295307-.9455293 14.8937993-.0291195zm-15.7862281-3.5354574c0-.6543337.5327167-1.1853374 1.1870503-1.1870545.6543337-.0017088 1.1819116.5275821 1.1836287 1.1819158.0017088.6543336-.5241562 1.1870545-1.1784899 1.1870545-.6543337.0017087-1.1904762-.5275821-1.1921891-1.1819158zm4.8132922-18.2014388 7.4220623-.0137034.0051388 2.106886-7.4237753.0137033zm3.0421377-3.2425489-2.6807126-2.78348745 6.5656047-.01370332-2.6378897 2.79376497zm8.2494005 1.1647825-6.2161699.0119904 3.4635149-3.97567659 1.9099006-.00513874c.3562864 0 .6372045.2792052.6389175.63377869v.101062l1.1819116-.00171291-.0017129-.10106201c-.001713-1.0020555-.8187736-1.8156903-1.8208291-1.81227525l-13.5697156.02741742c-1.0037685.00171292-1.8174033.81877356-1.8156904 1.82082905v.0993491l1.1784858-.00171292v-.10106201c-.0017129-.3562864.2809182-.6354916.6389175-.6354916l1.9081877-.00513875 3.4789311 3.96197332-6.315519.0137033c-1.3326481.0017129-5.6183624 2.7458033-5.6149386 4.290853l.0428249 20.8787256 1.3001028 3.3693046 3.4755053-.0068517.0051387 2.2816033 2.1103118-.0051388-.0034259-2.2798903 13.0232957-.0274067.0051387 2.2816033 2.1103118-.0051387-.0051388-2.2798904 3.2853717-.0068517 1.2812608-3.3761562-.0428229-20.8787256c-.0034259-1.5450497-4.3028435-4.270298-5.6320658-4.2668722z" fill="#fffffe"/></g></svg>