<svg height="51" viewBox="0 0 51 51" width="51" xmlns="http://www.w3.org/2000/svg"><g fill="none" fill-rule="evenodd" transform="translate(.1688 .4759)"><path d="m49.9978853 25c0 13.8068855-11.1931145 25-25 25s-24.9978853-11.1931145-24.9978853-25 11.1909998-25 24.9978853-25 25 11.1931145 25 25" fill="#e7792b"/><path d="m18.0513027 37.2523685v-3.8677889c5.4072914-5.5870411 9.2750803-10.7067332 9.2750803-13.9316529 0-2.2183217-1.2159533-3.6140247-3.5082896-3.6140247-1.827102 0-3.5823042.8945187-4.9061073 1.9328371l-.3954491-4.3689731c1.9709017-.9304686 4.2272881-1.5035527 6.7332092-1.5035527 4.1553883 0 7.018694 2.5418711 7.018694 6.6951447 0 4.5846726-4.8701573 10.8166977-8.951531 14.8980714h9.2391304v3.7599391z" fill="#fffffe"/></g></svg>