<svg height="51" viewBox="0 0 51 51" width="51" xmlns="http://www.w3.org/2000/svg"><g fill="none" fill-rule="evenodd" transform="translate(.1688 .4759)"><path d="m47.9149044 50h-45.83192352c-1.15039756 0-2.08298088-.9325833-2.08298088-2.0829809v-45.83192352c0-1.15251226.93258332-2.08509558 2.08298088-2.08509558h45.83192352c1.1503976 0 2.0829809.93258332 2.0829809 2.08509558v45.83192352c0 1.1503976-.9325833 2.0829809-2.0829809 2.0829809" fill="#9290b7"/><g fill="#060403"><path d="m14.4719591 37.4966165v-19.5165793l-3.222805 3.3666047-2.32828623-3.4385045 6.37371003-5.4072915h3.9756386v24.9957706z"/><path d="m30.2641262 37.8550584c-2.7935205 0-4.7623076-.5730841-5.9465403-1.0383184l.2875993-4.0834884c1.2899679.6449839 3.0092201 1.3259177 5.0139571 1.3259177 2.5059211 0 4.5127728-1.5395026 4.5127728-3.9756386 0-2.3261715-1.6114025-3.6520893-4.4049231-3.6520893h-2.1485366v-3.5463543h1.359753c3.08112 0 5.1218068-1.1821181 5.1218068-3.5442395 0-2.2204365-1.7552021-3.4025546-4.1173236-3.4025546-1.5056674 0-3.2608696.5011842-4.6565725 1.2540179l-.3214346-3.8677888c1.8968871-.7528337 3.937574-1.1821181 5.9444256-1.1821181 4.3330232 0 7.9491626 1.6114025 7.9491626 6.3377601 0 3.4385045-2.3980714 5.4453561-4.8342074 5.8027407v.0718998c2.436136.3214346 5.0858569 2.1125867 5.0858569 5.9803756 0 4.5127728-3.2947048 7.5198782-8.845796 7.5198782"/></g></g></svg>