<svg height="51" viewBox="0 0 51 51" width="51" xmlns="http://www.w3.org/2000/svg"><g fill="none" fill-rule="evenodd" transform="translate(.1688 .4759)"><path d="m47.9149044 50h-45.83192352c-1.15039756 0-2.08298088-.9325833-2.08298088-2.0829809v-45.83192352c0-1.15039756.93258332-2.08509558 2.08298088-2.08509558h45.83192352c1.1503976 0 2.0829809.93469802 2.0829809 2.08509558v45.83192352c0 1.1503976-.9325833 2.0829809-2.0829809 2.0829809" fill="#57aea3"/><g fill="#060403"><path d="m14.2924209 37.4976738v-19.5165792l-3.2228049 3.3644899-2.32828628-3.4385045 6.37582478-5.4051768h3.9756386v24.9957706z"/><path d="m32.9138471 17.2282609h-.0718999l-5.9803756 11.6012519h6.0522755zm4.5127728 15.1476061v5.1218068h-4.5127728v-5.1218068h-9.45483v-4.404923l8.6322111-15.4690408h5.3353917v16.3276096h2.7216207v3.5463542z"/></g></g></svg>