<svg height="50" viewBox="0 0 50 50" width="50" xmlns="http://www.w3.org/2000/svg"><g fill="none" fill-rule="evenodd"><path d="m2.91627479 50c-1.61100531 0-2.91627479-1.3052682-2.91627479-2.9162748v-44.16745211c0-1.61100422 1.30526948-2.91627309 2.91627479-2.91627309h44.16745211c1.6110067 0 2.9162731 1.30526887 2.9162731 2.91627309v44.16745211c0 1.6110066-1.3052664 2.9162748-2.9162731 2.9162748z" fill="#00568a"/><g fill="#fffffe"><path d="m22.8371525 28.8779931c0-2.9329374-1.5124066-4.5959957-4.0741686-5.0797801v-.0604622c2.0678527-.6651711 3.3333944-1.9049067 3.3333944-4.3842912 0-4.7168332-4.3827499-5.4123222-8.3026279-5.4123222-2.3766133 0-5.03112911.1210113-7.28430996.3930912v20.0165489h9.19787206c4.5372199 0 7.12984-1.6025088 7.12984-5.4727844zm-4.7622493-9.2191969c0 2.5364746-1.3663529 3.0567747-4.0988783 3.0567747-1.4594887 0-2.4220725 0-3.3846564-.0650259v-5.7233008c.6829959-.1300517 2.297711-.1950775 3.2604754-.1950775 3.042978 0 4.2230593.8129163 4.2230593 2.9266295zm0 8.8441774c0 2.5364745-1.3663529 3.0567746-4.0988783 3.0567746-1.4594887 0-2.4220725 0-3.3846564-.0650258v-5.7233008c.6829959-.1300517 2.297711-.1950775 3.2604754-.1950775 3.042978 0 4.2230593.8129163 4.2230593 2.9266295z"/><path d="m44.6074353 34.3507775-3.3846048-7.7823095c-.1566609-.3633984-.4075005-.8781764-.814819-1.0295561v-.030276c2.6324501-1.0295561 3.5725979-2.9675645 3.5725979-5.5111787 0-5.0266767-4.4500812-6.0563198-8.6495049-6.0563198-2.4131248 0-4.7009209.1211908-7.0513813.3633984v20.0462417h4.1680915v-7.8428614h3.6354444c.7206403 0 1.0028121.1816556 1.2848018.8479004l2.8832897 6.994961zm-5.4425707-14.2703653c0 2.7278384-1.486422 3.3852239-3.5731617 3.3852239h-3.2300517v-6.6389142c.9146829-.0985795 1.8007871-.1642991 2.7727934-.1642991 2.1153183 0 4.03042.4601321 4.03042 3.4179894z"/></g></g></svg>