<svg height="50" viewBox="0 0 50 50" width="50" xmlns="http://www.w3.org/2000/svg"><g fill="none" fill-rule="evenodd"><path d="m47.0837269 50h-44.16745211c-1.61100531 0-2.91627479-1.3052682-2.91627479-2.9162748v-44.16745211c0-1.61100422 1.30526948-2.91627309 2.91627479-2.91627309h44.16745211c1.6110067 0 2.9162731 1.30526887 2.9162731 2.91627309v44.16745211c0 1.6110066-1.3052664 2.9162748-2.9162731 2.9162748" fill="#2b7bb3"/><g fill="#fffffe"><path d="m23.3974346 27.2054336v-12.3779843h-4.10538v11.8841012c0 3.2102401-.4631059 5.5870698-4.2598602 5.5870698-3.7658927 0-4.2288235-2.3768297-4.2288235-5.5870698v-11.8841012h-4.1053752v12.3779843c0 5.5253452 2.22242906 8.5503679 8.3341987 8.5503679 6.1119491 0 8.3652402-3.0250227 8.3652402-8.5503679z"/><path d="m43.2467926 21.3473727c0-5.0570184-3.7935802-6.3893715-8.15034-6.3893715-2.4303377 0-5.0977311.1513788-6.8167294.363353v20.0462871h3.9419123v-7.2978199h4.0898998c4.949399 0 6.9352573-2.6344744 6.9352573-6.7224487zm-4.081928-.3427564c0 3.203322-1.6579748 3.4778836-3.8018104 3.4778836h-3.001403v-6.6811613c1.1147878-.0915501 1.8294506-.122052 2.7156026-.122052 2.8870828 0 4.0876108.7932272 4.0876108 3.3253297z"/></g></g></svg>