<svg height="50" viewBox="0 0 50 50" width="50" xmlns="http://www.w3.org/2000/svg"><g fill="none" fill-rule="evenodd"><path d="m47.0837269 50h-44.16745211c-1.61100531 0-2.91627479-1.3052682-2.91627479-2.9162748v-44.16745211c0-1.61100422 1.30526948-2.91627309 2.91627479-2.91627309h44.16745211c1.6110067 0 2.9162731 1.30526887 2.9162731 2.91627309v44.16745211c0 1.6110066-1.3052664 2.9162748-2.9162731 2.9162748" fill="#00a0d3"/><g fill="#fffffe"><path d="m22.8371525 34.8828909-3.3845736-7.7822601c-.1566729-.3634123-.4075188-.8782101-.8148554-1.0295956v-.0302771c2.6325676-1.0295956 3.5727573-2.9675913 3.5727573-5.5112162 0-5.0266955-4.4502798-6.0562911-8.6497087-6.0562911-2.413233 0-4.70094851.1211084-7.05133166.3634123v20.0462278h4.16809536v-7.8429013h3.6354245c.7206724 0 1.0028568.1817494 1.2848591.8479329l2.8832362 6.9949684zm-5.4425707-14.2703174c0 2.7278575-1.4863284 3.385176-3.57317 3.385176h-3.2300433v-6.6388129c.9147275-.098678 1.800875-.1644004 2.7727626-.1644004 2.1152555 0 4.0304507.4601512 4.0304507 3.4180373z"/><path d="m43.3072482 35.3298324v-20.827243h-4.1055546v7.8687554h-8.2724745v-7.8687554h-4.1053752v20.827243h4.1053752v-9.0865518h8.2724745v9.0865518z"/></g></g></svg>