<svg height="51" viewBox="0 0 51 51" width="51" xmlns="http://www.w3.org/2000/svg"><g fill="none" fill-rule="evenodd" transform="translate(.1678 .4759)"><path d="m50 25.0010574c0 13.8074694-11.193588 24.9989426-25.0010574 24.9989426s-24.9989426-11.1914732-24.9989426-24.9989426 11.1914732-25.0010574 24.9989426-25.0010574 25.0010574 11.193588 25.0010574 25.0010574" fill="#0074b0"/><path d="m23.8355962 38.0996489c-2.5419786 0-4.2613036-.5731083-5.5872775-1.1102652l.2157087-3.9039039c1.0024109.5371569 2.7576873 1.2181196 4.620818 1.2181196 2.8993783 0 4.6546547-1.9709851 4.6546547-4.6927209 0-3.1150869-2.1486275-4.5489151-5.1579749-4.5489151-1.5755192 0-2.719621.3595144-3.9398554.7528655v-13.0715222h12.9657827v3.6184071h-8.6664129v5.5492112c.6450112-.1776424 1.6114707-.3214482 2.5779301-.3214482 4.155564 0 7.2706509 2.901493 7.2706509 7.664002 0 5.6951318-3.6184071 8.8461701-8.9540244 8.8461701" fill="#fffffe"/></g></svg>