<svg height="50" viewBox="0 0 50 50" width="50" xmlns="http://www.w3.org/2000/svg"><g fill="none" fill-rule="evenodd"><path d="m25 0c13.8051282 0 25 11.1948718 25 25s-11.1948718 25-25 25-25-11.1948718-25-25 11.1948718-25 25-25" fill="#fffffe"/><path d="m25 0c13.8051282 0 25 11.1948718 25 25s-11.1948718 25-25 25-25-11.1948718-25-25 11.1948718-25 25-25" fill="#fffffe"/><path d="m25 3.125c12.0794872 0 21.874359 9.7961538 21.874359 21.875641 0 12.0782052-9.7948718 21.874359-21.874359 21.874359s-21.87564103-9.7961538-21.87564103-21.874359c0-12.0794872 9.79615383-21.875641 21.87564103-21.875641" fill="#a11366"/><path d="m25.6492308 27.8321795v-9.9l-6.2833334 9.9zm-.1 8.5551282v-4.9897436h-9.7551282v-4.0666667l8.526923-13.4051282h5.7320513v13.7910257h2.6794872v3.6807692h-2.6794872v4.9897436z" fill="#fffffe"/></g></svg>