<svg height="50" viewBox="0 0 50 50" width="50" xmlns="http://www.w3.org/2000/svg"><g fill="none" fill-rule="evenodd"><path d="m0 50h50v-50h-50z" fill="#07aa4b"/><path d="m36.1415649 23.4267377h-9.1067974v4.4054228h3.7733344v5.256891c-.4353848.1851018-1.4512825.3331832-2.6848726.3331832-4.5352577 0-7.7280791-2.9986491-7.7280791-8.1814994 0-5.4419928 3.51936-8.0704383 8.1271818-8.0704383 2.6848725 0 4.3175653.4442444 5.6600016 1.0735905l1.1610259-4.5535042c-1.197308-.5553054-3.6282061-1.1846515-6.7847454-1.1846515-8.0183356 0-13.9323116 4.738606-13.9685937 13.0311664 0 3.6650156 1.2335901 6.9228072 3.4467959 9.1070084 2.2494878 2.1842011 5.4785912 3.3318323 9.9412848 3.3318323 3.2291034 0 6.4582069-.8144479 8.1634638-1.4067737z" fill="#fff" fill-rule="nonzero"/></g></svg>