<svg height="50" viewBox="0 0 50 50" width="50" xmlns="http://www.w3.org/2000/svg"><g fill="none" fill-rule="evenodd"><path d="m0 50h50v-50h-50z" fill="#4a8abc"/><path d="m34.2025352 26.2738764c-.1355884.6755618-.8107053 1.2261236-1.5041833 1.2261236h-15.0856162c-.6920656 0-1.3685949-.5505618-1.5027709-1.2261236l-2.0239386-10.0463483c-.134176-.6755618.3191976-1.2275281 1.0126755-1.2275281h20.1150966c.6934779 0 1.1468515.5519663 1.0126755 1.2275281zm-4.2025352 8.7261236h5v-3.75h-5zm-10 7.1875 3.1602904-2.1875h3.3669192l3.1602904 2.1875zm-5-7.1875h5v-3.75h-5zm8.125-28.125h4.0625l-2.004965 3.125zm3.6862427 3.12359551 2.0260646-3.23455057h3.6028285v-1.76404494h-14.9968089v1.76404494h3.7123455l2.0738027 3.23455057h-9.4788369c-1.3773869 0-2.5006382 1.12359549-2.5006382 2.50140449v4.9957865 16.255618c0 .6853933.3959461 1.6474719.8817523 2.1320225l3.2349637 3.2317415c.4844021.4859551 1.4461861.886236 2.1313694.886236h1.9460328l-7.0399775 4.9985955h3.4919075l2.3223221-1.5632022h13.5393903l2.320918 1.5632022h3.4933116l-7.0371694-4.9985955h1.9600735c.6851833 0 1.6455632-.4002809 2.1313694-.886236l3.2349637-3.2317415c.4858062-.4845506.8817523-1.4466292.8817523-2.1320225l.0070203-16.255618v-4.9957865c0-1.377809-1.1302716-2.50140449-2.5006382-2.50140449z" fill="#fffffe"/></g></svg>