<svg height="50" viewBox="0 0 50 50" width="50" xmlns="http://www.w3.org/2000/svg"><g fill="none" fill-rule="evenodd"><path d="m49.1524152 25.0057024c0 4.7769877-1.4165119 9.4466899-4.0704415 13.4185654-2.6539296 3.9718756-6.4261086 7.0675996-10.8394366 8.8956437-4.4133281 1.8281297-9.2696474 2.3064268-13.9548226 1.3744526s-8.9887385-3.232246-12.36659376-6.6100756c-3.37782105-3.3778296-5.67815266-7.6813929-6.61008416-12.3665681-.93194261-4.6851753-.45363432-9.5414945 1.37442692-13.9548226 1.82806123-4.413328 4.9237767-8.18550701 8.8957035-10.83944514 3.9718756-2.65392959 8.6415778-4.07046718 13.41848-4.07046718 6.4057628 0 12.5490819 2.54466069 17.0785862 7.07417348 4.5295042 4.52954694 7.074182 10.67286614 7.074182 17.07854344z" fill="#d30f1d" fill-rule="nonzero"/><g fill="#fff"><path d="m24.999989 50c-4.9447979 0-9.7784632-1.4663506-13.8898528-4.2136315-4.11132972-2.7472809-7.31563874-6.652135-9.207661-11.2206211-1.89202312-4.5684861-2.38677245-9.5954365-1.42167533-14.4450878.96509172-4.8497368 3.3466783-9.3042694 6.84356499-12.80034393 3.49691234-3.49608312 7.95195784-5.8766524 12.80186564-6.8406328 4.8499077-.96398596 9.8767727-.46808582 14.4448313 1.42498365 4.5680587 1.8930652 8.4721434 5.09827183 11.2184839 9.21024268 2.7463406 4.111988 4.2115798 8.9460808 4.2104692 13.8907932-.007609 6.6276003-2.6440993 12.9814728-7.3310698 17.6673319-4.6868849 4.6858591-11.0413558 7.3208962-17.6689561 7.3269657zm0-48.29401274c-4.6082374 0-9.113036 1.36650232-12.9446281 3.92671301-3.83159217 2.5601936-6.8180131 6.19909903-8.5815149 10.45658513s-2.22491539 8.9423194-1.32588766 13.4619927c.89902773 4.5197587 3.11811294 8.671327 6.37663752 11.9299029 3.25849034 3.2584903 7.41014414 5.4775499 11.92981744 6.3766118 4.5197587.8989765 9.204592.4376056 13.4619926-1.3258962 4.2574861-1.7635018 7.8963916-4.7498885 10.4566279-8.5814807 2.5602363-3.8316776 3.9267387-8.3363907 3.9267387-12.9447135-.0060696-6.1775993-2.4627817-12.1004486-6.8310584-16.46863973-4.3681911-4.36827663-10.2911259-6.82501442-16.4687251-6.83107541z"/><path d="m22.8818035 38.4073415v-22.6528214l-5.5644042 4.2878338-2.1640063-4.2878338 8.5871228-6.24000435h5.3240161v28.89282575z" fill-rule="nonzero"/></g></g></svg>