<svg height="50" viewBox="0 0 50 50" width="50" xmlns="http://www.w3.org/2000/svg"><g fill="none" fill-rule="evenodd"><path d="m49.1528334 25.0057024c0 4.7769877-1.4165119 9.4466899-4.0704415 13.4185654-2.6539296 3.9718756-6.4261086 7.0675996-10.8394366 8.8956437-4.4133281 1.8281297-9.2696474 2.3064268-13.9548226 1.3744526s-8.9887385-3.232246-12.36656811-6.6100756c-3.37784669-3.3778296-5.67817831-7.6813929-6.61010981-12.3665681-.93194005-4.6851753-.45363432-9.5414945 1.37442692-13.9548226 1.82806123-4.413328 4.9237767-8.18550701 8.8957035-10.83944514 3.9718756-2.65392959 8.6415778-4.07046718 13.41848-4.07046718 6.4057628 0 12.5490819 2.54466069 17.0785862 7.07417348 4.5295042 4.52954694 7.074182 10.67286614 7.074182 17.07854344z" fill="#76bd41" fill-rule="nonzero"/><g fill="#fff"><path d="m24.9999797 50c-4.9447123 0-9.7784631-1.4663506-13.8898527-4.2136315-4.11132121-2.7472809-7.31563023-6.652135-9.20765249-11.2206211-1.89202226-4.5684861-2.38677133-9.5954365-1.42167533-14.4450878.96509173-4.8497368 3.3466783-9.3042694 6.843565-12.80034393 3.49690382-3.49608312 7.95203472-5.8766524 12.80185702-6.8406328 4.8499078-.96398596 9.8767727-.46808582 14.4448314 1.42498365 4.5680587 1.8930652 8.4721434 5.09827183 11.2184839 9.21024268 2.7463405 4.111988 4.2115798 8.9460808 4.2104635 13.8907932-.0076033 6.6276003-2.6440936 12.9814728-7.3310641 17.6673319-4.6868849 4.6858591-11.0413558 7.3208962-17.6689562 7.3269657zm0-48.29401274c-4.6082373 0-9.1129504 1.36650232-12.9446281 3.92671301-3.8315921 2.5601936-6.81799593 6.19909903-8.58149773 10.45658513-1.76351035 4.2574861-2.2249154 8.9423194-1.32589621 13.4619927.89902773 4.5197587 3.11811294 8.671327 6.37662897 11.9299029 3.25857587 3.2584903 7.41014417 5.4775499 11.92990287 6.3766118 4.5196733.8989765 9.2045066.4376056 13.4619072-1.3258962 4.2574861-1.7635018 7.8963915-4.7498885 10.4566279-8.5814807 2.5602363-3.8316776 3.9267386-8.3363907 3.9267386-12.9447135-.0076083-6.1770863-2.4648333-12.0990808-6.8326825-16.46701549-4.3679347-4.36790048-10.2899292-6.82512554-16.467101-6.83269965z"/><path d="m15.4969542 38.4073415v-4.6313187l9.732044-8.8790593c2.9654425-2.730782 4.041718-4.7172327 4.041718-6.7552318 0-3.1200022-2.7707896-4.505397-5.5415793-4.505397-2.5532265 0-4.9805312.8644399-7.1902728 1.9063498l-.2175632-4.6771395c2.7707897-.99036154 5.5759449-1.78034265 8.5355744-1.78034265 5.3698369 0 10.6537598 2.16964835 10.6537598 8.31801115 0 3.9386213-2.2554768 6.8696982-6.5433106 10.7854091l-6.2972804 5.7992358h13.1841614v4.4194831z" fill-rule="nonzero"/></g></g></svg>