<svg height="50" viewBox="0 0 50 50" width="50" xmlns="http://www.w3.org/2000/svg"><g fill="none" fill-rule="evenodd"><path d="m49.1467715 24.9999746c.0011961 4.7760471-1.4140335 9.445236-4.0666806 13.4169403s-6.423458 7.0675991-10.8356744 8.8960705c-4.4122164 1.8285569-9.2675095 2.307538-13.951915 1.3764187-4.684491-.9310338-8.9876266-3.2303651-12.36519096-6.6071686-3.37759-3.3768035-5.67793855-7.6793407-6.61012644-12.3635753-.93217935-4.6842345-.45432673-9.5396986 1.37313597-13.9522569 1.8274627-4.4126439 4.92244277-8.18424129 8.89349733-10.8378031 3.9711059-2.65355326 8.6398674-4.06990268 13.416-4.06990268 6.4031977 0 12.5442083 2.54326709 17.0724299 7.07047142 4.5283071 4.52719576 7.0730702 10.66760796 7.0745242 17.07080566z" fill="#8f7200" fill-rule="nonzero"/><g fill="#fff"><path d="m25.005716 50c-4.9447975.0011094-9.7788045-1.4641297-13.8907922-4.2104701-4.11198769-2.7463403-7.31718554-6.6504248-9.21025916-11.2184831-1.89306677-4.5680584-2.3889668-9.5949229-1.42498355-14.4447449.96398033-4.8499074 3.34454945-9.3050381 6.84063232-12.80193308 3.49609139-3.49688645 7.95062369-5.87847285 12.80036009-6.84357306 4.849651-.96509115 9.8766011-.47034263 14.4450869 1.42168378 4.5684857 1.89202213 8.4733396 5.09633092 11.2206203 9.20764326 2.7472807 4.1113893 4.2136312 8.9451398 4.2136312 13.8898518-.0060696 6.6275999-2.6411919 12.9820703-7.3269653 17.6689549-4.6858587 4.6869702-11.0397308 7.3234603-17.6673306 7.3310705zm0-48.28828366c-4.6073822 0-9.1112402 1.36631415-12.9420627 3.92614852-3.83082244 2.55981728-6.81643104 6.19820954-8.57933431 10.45492594-1.76290328 4.2568019-2.22386376 8.9406945-1.32459673 13.4595126.89926703 4.5187327 3.11837773 8.6692748 6.37667127 11.9268246 3.25831917 3.2574643 7.40945967 5.4755834 11.92844877 6.3737049 4.5189036.898207 9.2027962.4360668 13.4590852-1.3278623 4.2563744-1.7639291 7.8939974-4.7504866 10.4528657-8.5819075 2.5588684-3.8315064 3.9240883-8.3357063 3.9229777-12.9430885-.0090623-6.1746067-2.4663726-12.0936943-6.8330247-16.459235-4.3667376-4.36562624-10.286338-6.8214577-16.4610302-6.82902326z"/><path d="m15.9489308 34.5660031c2.4312369.872732 4.9965168 1.3125602 7.5795779 1.2995662 3.3318376 0 6.4975748-1.2136523 6.4975748-4.7229599 0-3.5092222-3.5951361-4.5454044-6.8696977-4.5454044h-3.6981474v-3.9443486h3.1142744c3.8126993 0 7.058623-.8644398 7.058623-4.3737475 0-3.1142744-3.2459237-3.8069717-5.8850639-3.8069717-2.427732.0331687-4.8313569.4863328-7.1044438 1.3395739l-.2632985-4.2878335c2.6493131-.8310146 5.4097588-1.25366 8.1863613-1.25366 4.8546092 0 11.260628 1.6028725 11.260628 7.5337572 0 3.6409569-2.3357485 5.8048775-5.7992354 6.6693173 3.5494009.5725033 6.3659257 3.0741812 6.3659257 6.7151381 0 6.7552313-6.3659257 8.8790587-12.3024524 8.8790587-2.8435385.0536855-5.6783574-.3325426-8.4039246-1.1449212z" fill-rule="nonzero"/></g></g></svg>