<svg height="50" viewBox="0 0 50 50" width="50" xmlns="http://www.w3.org/2000/svg"><g fill="none" fill-rule="evenodd"><path d="m49.1464591 25.0058976c.0069586 4.7783382-1.4036425 9.4513855-4.053376 13.4278192-2.6496462 3.9764337-6.4192523 7.0775386-10.8318661 8.9109621-4.4127012 1.8333362-9.2699639 2.3166616-13.9573294 1.3886874-4.6874528-.9278869-8.9942519-3.2254285-12.37552141-6.6018089-3.38123457-3.376293-5.68500106-7.6797745-6.61976767-12.3658304-.93476661-4.6860559-.45852176-9.5440171 1.36846731-13.9593374 1.8269978-4.4152331 4.92259372-8.18941397 8.89518597-10.84484855 3.9725922-2.65544331 8.6435442-4.07284628 13.4219697-4.07284628 6.3999576-.00155333 12.5387834 2.53773823 17.0675141 7.05990352 4.5287307 4.52218271 7.0769274 10.65734171 7.0847235 17.05729931z" fill="#01a2df" fill-rule="nonzero"/><g fill="#fff"><path d="m24.9941342 50c-4.9444813-.001135-9.7776476-1.4684849-13.8882704-4.2164376-4.11055303-2.7480399-7.31395424-6.653232-9.20507821-11.2218614-1.89112398-4.5685422-2.38503081-9.595353-1.41926188-14.4446708.9657602-4.8493179 3.34782261-9.3033148 6.84495573-12.7988153 3.49712436-3.4955005 7.95225626-5.87547629 12.80201066-6.83897527 4.8497544-.96349811 9.8763032-.46723489 14.4440596 1.42601935 4.5676692 1.89326296 8.471377 5.09848887 11.2174962 9.21036012 2.7460319 4.1118452 4.2111119 8.9457099 4.2099776 13.8902785-.0092551 6.6280006-2.6472023 12.9817735-7.3350043 17.6673928-4.687802 4.6856194-11.0427971 7.3205982-17.670885 7.3267096zm0-48.29863518c-4.6077425 0-9.1120276 1.36629339-12.9433589 3.92612803-3.8313313 2.55979972-6.81759406 6.19827235-8.58119033 10.45513255-1.76358754 4.2569474-2.22532215 8.9412572-1.32681367 13.4605589.89850848 4.5193889 3.11691601 8.6707836 6.37473498 11.9293883 3.25773162 3.2586048 7.40860252 5.4780949 11.92772952 6.3776947 4.5191271.8996871 9.2035241.4391486 13.4609082-1.3233826 4.257384-1.7625311 7.896555-4.7478684 10.4573238-8.5785886 2.5607689-3.8306329 3.9282409-8.334656 3.9293759-12.9423985-.0077703-6.17628-2.4650816-12.0972776-6.8329076-16.46405584-4.3678259-4.36673463-10.2895219-6.8225967-16.4658019-6.82877795"/><path d="m11.3894333 33.711429v-5.0689795l12.8975232-17.7035375h6.5423536v18.3524821h4.1510454v4.4200349h-4.1510454v6.1038161h-5.9752146v-6.1038161zm4.5018404-4.2855838h9.0447148v-13.0320617z" fill-rule="nonzero"/></g></g></svg>