<svg xmlns="http://www.w3.org/2000/svg" xmlns:xlink="http://www.w3.org/1999/xlink" width="50" height="50" viewBox="0 0 50 50">
<g fill="none" fill-rule="evenodd">
<path d="M 7.125 0 L 42.875 0 C 46.8125 0 50 3.1875 50 7.125 L 50 42.875 C 50 46.8125 46.8125 50 42.875 50 L 7.125 50 C 3.1875 50 0 46.8125 0 42.875 L 0 7.125 C 0 3.1875 3.1875 0 7.125 0 Z M 7.125 0 " fill="#115a82"/>
<path d="M 25 2.386719 C 23.988281 2.386719 22.398438 2.496094 20.855469 2.71875 C 19.316406 2.941406 17.886719 3.207031 16.964844 3.835938 L 17.757812 5 C 18.164062 4.722656 19.59375 4.328125 21.058594 4.113281 C 21.34375 4.074219 21.632812 4.035156 21.917969 4.003906 L 23.425781 7.851562 L 18.191406 7.851562 C 15 7.851562 12.429688 10.417969 12.429688 13.609375 L 12.429688 32.347656 C 12.429688 35.539062 15 38.105469 18.191406 38.105469 L 18.609375 38.105469 L 12.945312 47.613281 L 15.597656 47.613281 L 15.929688 47.058594 L 34.070312 47.058594 L 34.402344 47.613281 L 37.054688 47.613281 L 31.390625 38.105469 L 31.808594 38.105469 C 35 38.105469 37.570312 35.539062 37.570312 32.347656 L 37.570312 13.609375 C 37.570312 10.417969 35 7.851562 31.808594 7.851562 L 26.574219 7.851562 L 28.082031 4.003906 C 28.367188 4.035156 28.65625 4.074219 28.941406 4.113281 C 30.40625 4.328125 31.835938 4.722656 32.242188 5 L 33.035156 3.835938 C 32.113281 3.207031 30.683594 2.941406 29.144531 2.71875 C 27.601562 2.496094 26.011719 2.386719 25 2.386719 Z M 25 3.796875 C 25.421875 3.796875 25.992188 3.820312 26.621094 3.867188 L 25.058594 7.851562 L 24.941406 7.851562 L 23.378906 3.867188 C 24.007812 3.820312 24.578125 3.796875 25 3.796875 Z M 23.125 9.121094 L 26.875 9.121094 C 27.75 9.121094 28.457031 9.824219 28.457031 10.703125 C 28.457031 11.582031 27.75 12.285156 26.875 12.285156 L 23.125 12.285156 C 22.25 12.285156 21.542969 11.582031 21.542969 10.703125 C 21.542969 9.824219 22.25 9.121094 23.125 9.121094 Z M 18.777344 13.335938 L 31.222656 13.335938 C 32.972656 13.335938 34.378906 14.742188 34.378906 16.492188 L 34.378906 19.503906 C 34.378906 21.25 32.972656 22.660156 31.222656 22.660156 L 18.777344 22.660156 C 17.027344 22.660156 15.621094 21.25 15.621094 19.503906 L 15.621094 16.492188 C 15.621094 14.742188 17.027344 13.335938 18.777344 13.335938 Z M 17.984375 30.292969 C 19.359375 30.292969 20.476562 31.40625 20.476562 32.78125 C 20.476562 34.15625 19.359375 35.273438 17.984375 35.273438 C 16.609375 35.273438 15.492188 34.15625 15.492188 32.78125 C 15.492188 31.40625 16.609375 30.292969 17.984375 30.292969 Z M 32.015625 30.292969 C 33.390625 30.292969 34.507812 31.40625 34.507812 32.78125 C 34.507812 34.15625 33.390625 35.273438 32.015625 35.273438 C 30.640625 35.273438 29.523438 34.15625 29.523438 32.78125 C 29.523438 31.40625 30.640625 30.292969 32.015625 30.292969 Z M 21.257812 38.105469 L 28.742188 38.105469 L 30.15625 40.484375 L 19.84375 40.484375 Z M 18.507812 42.726562 L 31.492188 42.726562 L 32.734375 44.8125 L 17.265625 44.8125 Z M 18.507812 42.726562 " fill="#fffffe"/>
</g>
</svg>
