<svg height="51" viewBox="0 0 51 51" width="51" xmlns="http://www.w3.org/2000/svg"><g fill="none" fill-rule="evenodd" transform="translate(.1688 .4759)"><path d="m47.9149044 50h-45.83192352c-1.15039756 0-2.08298088-.9325833-2.08298088-2.0829809v-45.83192352c0-1.15039756.93258332-2.08509558 2.08298088-2.08509558h45.83192352c1.1503976 0 2.0829809.93469802 2.0829809 2.08509558v45.83192352c0 1.1503976-.9325833 2.0829809-2.0829809 2.0829809" fill="#fcd97d"/><g fill="#060403"><path d="m14.4897226 37.4976738v-19.5165792l-3.222805 3.3644899-2.32828623-3.4363898 6.37582473-5.4072915h3.9735239v24.9957706z"/><path d="m24.730587 37.4976738v-3.8677888c5.4072915-5.5870411 9.2750804-10.708848 9.2750804-13.9316529 0-2.2204365-1.2159533-3.6161394-3.5082896-3.6161394-1.827102 0-3.5823042.8945187-4.9061073 1.9349518l-.3954491-4.3710878c1.9709017-.9304686 4.2272881-1.5035527 6.7332092-1.5035527 4.1553883 0 7.018694 2.5418711 7.018694 6.6972593 0 4.5846727-4.8701574 10.814583-8.9515311 14.8980714h9.2391305v3.7599391z"/></g></g></svg>