<svg height="51" viewBox="0 0 51 51" width="51" xmlns="http://www.w3.org/2000/svg"><g fill="none" fill-rule="evenodd" transform="translate(.1688 .4759)"><path d="m47.9149044 50h-45.83192352c-1.15039756 0-2.08298088-.9325833-2.08298088-2.0829809v-45.83192352c0-1.15039756.93258332-2.08509558 2.08298088-2.08509558h45.83192352c1.1503976 0 2.0829809.93469802 2.0829809 2.08509558v45.83192352c0 1.1503976-.9325833 2.0829809-2.0829809 2.0829809" fill="#bb5089"/><g fill="#1a1919"><path d="m14.9729318 37.4976738v-19.5165792l-3.2228049 3.3644899-2.32828626-3.4385045 6.37582476-5.4051768h3.9756386v24.9957706z"/><path d="m30.8010489 37.8548469c-2.5439858 0-4.2611233-.5730841-5.5870411-1.1102182l.2156995-3.9037388c1.0023685.5371341 2.7575707 1.218068 4.6206226 1.218068 2.8992556 0 4.6544578-1.968787 4.6544578-4.6904077 0-3.1170699-2.1485366-4.5487228-5.1577567-4.5487228-1.5754526 0-2.7216207.3573846-3.9396888.7528337v-13.0709693h12.9652344v3.6161394h-8.6660464v5.5510911c.6428692-.1797496 1.6114025-.3235493 2.577821-.3235493 4.1532736 0 7.2682287 2.9013704 7.2682287 7.6636779 0 5.6948909-3.6161394 8.845796-8.951531 8.845796"/></g></g></svg>