<svg height="50" viewBox="0 0 50 50" width="50" xmlns="http://www.w3.org/2000/svg"><g fill="none" fill-rule="evenodd"><path d="m47.0837269 50h-44.16745211c-1.61100531 0-2.91627479-1.3052682-2.91627479-2.9162748v-44.16745211c0-1.61100422 1.30526948-2.91627309 2.91627479-2.91627309h44.16745211c1.6110067 0 2.9162731 1.30526887 2.9162731 2.91627309v44.16745211c0 1.6110066-1.3052664 2.9162748-2.9162731 2.9162748" fill="#6b451f"/><g fill="#fffffe"><path d="m24.4813757 29.3405248c0-4.3091188-3.4264093-5.5269152-6.3897079-6.4636334-2.4695051-.7494821-4.5067617-1.3114592-4.5067617-3.0913223 0-1.7486423 1.6051874-2.2482671 3.4264093-2.2482671s3.673306.7493924 5.2165897 1.7174217l1.4508769-3.1849857c-2.1917464-1.1865754-4.3833134-1.8423051-6.9143633-1.8423051-3.6424439 0-7.31574986 1.3739012-7.31574986 5.6830199 0 3.6846102 2.59295356 5.0585113 5.27831386 6.0264504 2.8089882.9992497 5.7414246 1.5300956 5.7414246 3.715831 0 2.1858252-1.9755323 2.7478023-3.7965749 2.7478023-2.2534705 0-4.1981408-.9679391-6.0193628-2.1857355l-1.82122192 2.9664386c2.59295352 1.7485974 4.93883092 2.4667689 8.02575732 2.4667689 4.1979614 0 7.6243707-1.7173764 7.6243707-6.3074837z"/><path d="m41.7982358 18.0369268v-3.5284156h-15.7427143v3.5284156h5.8031492v17.2988274h4.1055542v-17.2988274z"/></g></g></svg>