<svg height="50" viewBox="0 0 50 50" width="50" xmlns="http://www.w3.org/2000/svg"><g fill="none" fill-rule="evenodd"><path d="m47.0837269 50h-44.16745211c-1.61100531 0-2.91627479-1.3052682-2.91627479-2.9162748v-44.16745211c0-1.61100422 1.30526948-2.91627309 2.91627479-2.91627309h44.16745211c1.6110067 0 2.9162731 1.30526887 2.9162731 2.91627309v44.16745211c0 1.6110066-1.3052664 2.9162748-2.9162731 2.9162748" fill="#76122f"/><g fill="#fffffe"><path d="m17.5673712 35.3357542v-3.4971948h-8.70472314v-17.3300482h-4.10537518v20.827243z"/><path d="m46.9534602 14.5085112h-4.3522719l-3.704168 15.8623946h-.1234484l-4.1670993-15.8623946h-4.1364167l-4.3214098 15.8623946h-.0925863l-3.5189955-15.8623946h-4.5067618l5.494528 20.827243h4.6610721l4.1670994-15.2691966h.1234483l4.1364167 15.2691966h4.4448582z"/></g></g></svg>