<svg height="50" viewBox="0 0 50 50" width="50" xmlns="http://www.w3.org/2000/svg"><g fill="none" fill-rule="evenodd" transform="translate(.0007)"><path d="m25.0007042 0c13.8066533 0 24.9978874 11.191234 24.9978874 25.0007042 0 13.8080618-11.1912341 24.9992958-24.9978874 24.9992958-13.8080617 0-25.0007042-11.191234-25.0007042-24.9992958 0-13.8094702 11.1926425-25.0007042 25.0007042-25.0007042" fill="#85219b"/><path d="m32.5183798 32.7097828c1.7365708-.6999803 3.1745584-2.0957156 3.1745584-4.44072v-17.0981099s-1.2281344-5.36041235-10.6687135-5.3972153c-9.4363539-.03643443-10.7165996 5.3972153-10.7165996 5.3972153v17.0981099c0 2.3450044 1.8506521 4.1688967 3.1985015 4.44072l-6.2040506 9.1856568h3.467508l.5901242-.8774401h19.281147l.5943494.8774401h3.4632828zm-7.4350019-10.6320948c-1.9168474 0-3.4689163-1.552069-3.4689163-3.4703248 0-1.9140306 1.5520689-3.4660996 3.4689163-3.4660996s3.4689164 1.552069 3.4689164 3.4660996c0 1.9182558-1.552069 3.4703248-3.4689164 3.4703248zm3.9942537 5.0759133c.5422383 0 .9802541.4366074.9802541.9802541 0 .5366046-.4380158.9718036-.9802541.9718036-.5366046 0-.973212-.435199-.973212-.9718036 0-.5436467.4366074-.9802541.973212-.9802541zm-7.2476831.949269c0 .5394215-.4408327.9760289-.9774373.9760289-.5422382 0-.9802541-.4366074-.9802541-.9760289 0-.5422382.4380159-.9830709.9802541-.9830709.5366046 0 .9774373.4408327.9774373.9830709zm12.2686684-.0746457c0 .8661727-.7070223 1.5647446-1.5675614 1.5647446-.8619476 0-1.5661531-.6985719-1.5661531-1.5647446 0-.8647644.7042055-1.5605195 1.5661531-1.5605195.8605391 0 1.5675614.6957551 1.5675614 1.5605195zm-16.8517403-17.1671221c0-.89715782.4550191-1.67741753 2.0070881-1.67741753h11.4884088c1.566153 0 2.0126952.78025971 2.0126952 1.67741753v.4802682c.0083746 1.0337737-.6887889 1.6703754-2.0126952 1.6703754h-11.4884088c-1.3140475 0-2.0168446-.6366017-2.0070881-1.6703754zm.1522107 18.6994733c-.8633559 0-1.5647446-.6957551-1.5647446-1.5605195 0-.8633559.7013887-1.5619278 1.5647446-1.5619278.8647644 0 1.5689699.6985719 1.5689699 1.5619278-.0042252.8647644-.7042055 1.5605195-1.5689699 1.5605195zm-.0718289 8.4969437 1.6210811-2.3928903h12.1067012l1.5746035 2.3928903z" fill="#fffffe"/></g></svg>