<svg height="50" viewBox="0 0 50 50" width="50" xmlns="http://www.w3.org/2000/svg"><g fill="none" fill-rule="evenodd"><path d="m25 0c13.8051282 0 25 11.1948718 25 25s-11.1948718 25-25 25-25-11.1948718-25-25 11.1948718-25 25-25" fill="#fffffe"/><path d="m25 3.12435897c12.0794872 0 21.875641 9.79615383 21.875641 21.87564103 0 12.0782051-9.7961538 21.874359-21.875641 21.874359s-21.87435897-9.7961539-21.87435897-21.874359c0-12.0794872 9.79487177-21.87564103 21.87435897-21.87564103" fill="#f9c623"/><path d="m23.4412821 36.5620513v-15.8089744h-5.523077v-3.2461538h.3525641c2.0179487 0 3.4833334-.3141026 4.4038462-.9371795s1.4615384-1.6641026 1.6205128-3.1307692h3.698718v23.1230769z" fill="#000203"/></g></svg>