<svg height="50" viewBox="0 0 50 50" width="50" xmlns="http://www.w3.org/2000/svg"><g fill="none" fill-rule="evenodd"><path d="m25 0c13.8051282 0 25 11.1948718 25 25s-11.1948718 25-25 25-25-11.1948718-25-25 11.1948718-25 25-25" fill="#fffffe"/><path d="m25 3.125c12.0794872 0 21.874359 9.7961538 21.874359 21.875641 0 12.0782052-9.7948718 21.874359-21.874359 21.874359s-21.87564103-9.7961538-21.87564103-21.874359c0-12.0794872 9.79615383-21.875641 21.87564103-21.875641" fill="#009949"/><path d="m16.6065385 36.1196154c.0217948-2.0666667.4628205-3.8192308 1.3230769-5.2589744.8602564-1.4320513 2.3923077-2.8871795 4.5858974-4.3641025.3307693-.2269231.8153846-.5410257 1.45-.9384616 2.9038462-1.8628205 4.3589744-3.6538461 4.3589744-5.3730769 0-1.025641-.3076923-1.8307692-.9205128-2.425641-.6115385-.5897436-1.4551282-.8871795-2.5179488-.8871795-1.1641025 0-2.0564102.3641026-2.6897435 1.0910256-.6282052.7282052-.9423077 1.7641026-.9423077 3.1089744v.1923077h-4.2615385c0-2.6461539.7102564-4.6910257 2.1333333-6.1179487 1.4153846-1.4333334 3.4448718-2.15 6.0679487-2.15 2.3820513 0 4.2833334.65 5.7 1.9461538 1.4217949 1.2948718 2.1320513 3.0205128 2.1320513 5.175641 0 1.5384616-.3679487 2.8717949-1.1128205 4.0012821-.7435897 1.1307692-2.1820513 2.4205128-4.3153846 3.8589743-.4525641.3141026-1.074359.7217949-1.8692308 1.2294872-2.0282051 1.3-3.1692307 2.2923077-3.4282051 2.9705128h10.5v3.9410257z" fill="#fffffe"/></g></svg>