<svg height="50" viewBox="0 0 50 50" width="50" xmlns="http://www.w3.org/2000/svg"><g fill="none" fill-rule="evenodd"><path d="m25 0c13.8038462 0 25 11.1948718 25 25 0 13.8038462-11.1961538 25-25 25-13.8051282 0-25-11.1961538-25-25 0-13.8051282 11.1948718-25 25-25" fill="#fffffe"/><path d="m25 3.12512821c12.0794872 0 21.874359 9.79615389 21.874359 21.87435899 0 12.0794872-9.7948718 21.875641-21.874359 21.875641s-21.87435897-9.7961538-21.87435897-21.875641c0-12.0782051 9.79487177-21.87435899 21.87435897-21.87435899" fill="#008fc9"/><path d="m16.7470513 29.3471795h4.4435897c.0102564 1.2897436.324359 2.2653846.9358975 2.9153846.6128205.65 1.5217948.975641 2.7282051.975641 1.1641026 0 2.0564102-.3025641 2.6910256-.9141025.6282052-.6064103.9423077-1.4833334.9423077-2.624359 0-1.1410257-.3692307-2.0064103-1.1076923-2.5910257-.7333333-.5897435-1.8307692-.8807692-3.2858974-.8807692-.0769231 0-.1923077.0051282-.3474359.0153846-.1538462.0115385-.2692308.0166667-.3474359.0166667v-3.1961538h.5025641c1.3333333 0 2.3205128-.2602565 2.9653846-.7833334.6397436-.5230769.9589744-1.3230769.9589744-2.3974359 0-.8923077-.2705129-1.5987179-.8153847-2.1217948-.5461538-.524359-1.2846153-.7833334-2.2217948-.7833334-1.0205128 0-1.8128205.3025641-2.3756411.9038462-.5564102.601282-.8384615 1.4615384-.8384615 2.5692307v.1923077h-4.3589743c.0551282-2.3705128.7487179-4.1833333 2.0884615-5.451282 1.3448718-1.2615385 3.2358974-1.8961539 5.6833333-1.8961539 2.3141026 0 4.15.5679488 5.5064103 1.698718 1.3564102 1.1294872 2.0333333 2.65 2.0333333 4.5628205 0 1.0141026-.2307692 1.901282-.6948718 2.6679487-.4628205.7615385-1.1564102 1.3948718-2.0833333 1.8858975 1.1858974.5179487 2.0782051 1.2333333 2.6846154 2.1435897.6115384.9089744.9153846 1.9897436.9153846 3.2525641 0 2.3141026-.7602564 4.15-2.2769231 5.5051282-1.5205128 1.3564103-3.5935897 2.0346154-6.2179487 2.0346154-2.5961539 0-4.5961539-.6615385-6.0012821-1.9782051-1.4064102-1.3179488-2.1064102-3.1923077-2.1064102-5.623077z" fill="#fffffe"/></g></svg>