<?xml version="1.0" encoding="UTF-8"?>
<svg width="198px" height="204px" viewBox="0 0 198 204" version="1.1" xmlns="http://www.w3.org/2000/svg" xmlns:xlink="http://www.w3.org/1999/xlink">
    <title>CarrefourLaval</title>
    <g id="Page-1" stroke="none" stroke-width="1" fill="none" fill-rule="evenodd">
        <polygon id="CarrefourLaval" fill="#00ADF2" stroke="#00ADF2" stroke-width="2" points="2 109.489264 17.5600636 85.4757279 11.0219976 69.6704612 13.0654121 66.5177181 23.9557359 67.0745885 27.6725993 69.8675077 29.935412 67.3787254 18.215677 58.5664657 30.8568844 39.0571542 37.5321818 28.755052 56.5010909 42.269868 61.7348132 33.7467525 50.4142969 25.2347744 65.4684541 2 95.8017592 24.8064126 88.968151 35.9348247 121.280342 58.9549899 125.040224 51.2753189 155.925036 44.4022532 165.867216 29.055762 190.85925 46.8593367 195.939394 51.6711252 181.612692 73.7861618 182.45587 118.74188 181.810581 126.516647 176.733018 134.354384 158.224846 142.686878 135.742984 151.120038 131.540003 138.038296 107.247031 182.497114 91.1599819 202 66.0509348 183.120809 86.143937 150.401247 85.97186 140.590475 62.1206959 123.597361 47.6877367 143.828034 41.6671923 142.046049"></polygon>
    </g>
</svg>