<?xml version="1.0" encoding="UTF-8"?>
<svg width="188px" height="204px" viewBox="0 0 188 204" version="1.1" xmlns="http://www.w3.org/2000/svg" xmlns:xlink="http://www.w3.org/1999/xlink">
    <title>CarrefourRichelieu</title>
    <g id="Page-1" stroke="none" stroke-width="1" fill="none" fill-rule="evenodd">
        <polygon id="CarrefourRichelieu" fill="#00ADF2" stroke="#00ADF2" stroke-width="2" points="145.98924 202 125.46173 167.451969 130.033018 164.391612 117.773654 143.762539 96.1743155 158.2879 85.9495205 141.081893 97.6241989 133.226976 90.0711836 123.977897 71.4056659 92.5638991 66.1821607 96.0776424 55.4615656 78.0328705 58.7399645 75.8226126 47.7532881 57.3301218 22.3791737 74.394446 2 40.0901105 3.2351714 32.6149051 8.83384548 28.8177954 11.0502278 32.5582318 15.3040657 29.7245679 16.1986992 31.2547464 58.4000038 2 79.2772863 34.774157 81.0203786 33.5273449 92.2131093 38.9113063 110.239685 26.788892 120.19205 43.5415132 109.268287 51.4134316 112.65635 56.7407198 98.4235972 66.3128365 110.59523 86.8002267 118.930328 81.1895721 121.516108 65.5704165 127.521119 61.5466138 135.965304 65.6270898 163.901534 47.7410031 167.001006 53.2383111 162.856833 55.9019552 181.338806 87.0042505 179.249404 92.1048456 144.060872 116.502692 148.343569 124.074242 154.517117 120.107112 161.99683 134.218759 156.680976 137.392462 159.509172 143.790876 165.24637 140.333806 186.036498 174.264097"></polygon>
    </g>
</svg>