<?xml version="1.0" encoding="UTF-8"?>
<svg width="104px" height="204px" viewBox="0 0 104 204" version="1.1" xmlns="http://www.w3.org/2000/svg" xmlns:xlink="http://www.w3.org/1999/xlink">
    <title>CentreRockland</title>
    <g id="Page-1" stroke="none" stroke-width="1" fill="none" fill-rule="evenodd">
        <polygon id="CentreRockland" fill="#00ADF2" stroke="#00ADF2" stroke-width="2" points="99.8990753 11.1357209 97.6442613 41.6656368 102 46.6402778 97.2361198 90.8912639 96.633944 96.4294385 92.1510792 138.105659 95.0549051 138.235207 94.5865461 142.374264 90.9868726 142.244716 90.7192388 151.114216 91.8098462 151.145955 91.6760294 155.356263 89.1535816 156.004003 89.0197647 161.879002 95.1552677 162.138098 90.3913875 202 57.8250478 198.754824 58.4941321 193.436881 4.53582946 188.850884 2 185.94901 7.99499525 135.815252 18.5290583 136.709132 25.1262294 81.5132884 46.3743393 84.2661822 48.9101687 60.7182527 50.9977117 43.2331669 48.1206493 42.844523 44.2867963 37.5395348 47.4448741 8.17943686 55.222979 2 96.2197808 6.08723758"></polygon>
    </g>
</svg>