<?xml version="1.0" encoding="UTF-8"?>
<svg width="338px" height="79px" viewBox="0 0 338 79" version="1.1" xmlns="http://www.w3.org/2000/svg" xmlns:xlink="http://www.w3.org/1999/xlink">
    <title>cui_logo.980df82d</title>
    <g id="Page-1" stroke="none" stroke-width="1" fill="none" fill-rule="evenodd">
        <g id="cui_logo.980df82d" transform="translate(0, 0)">
            <path d="M100,14.4 C100,8.7 104.7,4.4 110.3,4.4 C112.8,4.4 114.5,5 116,5.8 L116.1,10.4 L115.4,10.4 L114,6.8 C112.9,6 111.6,5.3 109.6,5.3 C106,5.3 103.2,8.7 103.2,13.4 C103.2,19.5 106.5,22.5 110.2,22.5 C112.1,22.5 113.4,21.6 114.1,21 L116.2,17 L117,17 L116.2,21.6 C114,22.7 112,23.4 109.4,23.4 C102.9,23.4 100,18.7 100,14.4 L100,14.4 Z M118.8,20 C118.8,17.8 120.4,16.8 123.2,16.1 L125.9,15.4 L125.9,13.9 C125.9,11.9 124.9,10.6 123.4,10.6 C122.6,10.6 122,10.8 121.7,11.1 L121.6,13.9 C121.3,14 120.9,14 120.5,14 C119.7,14 119.2,13.6 119.2,12.9 C119.2,11.6 121.6,9.6 124.6,9.6 C127.4,9.6 128.5,10.9 128.5,13.5 L128.5,21 C128.5,21.6 128.7,21.8 129.3,21.8 L130.6,21.8 L130.6,22.2 C130.6,22.2 129,23.1 128,23.1 C126.6,23.1 126,22.3 126,21 L125.9,21 C124.9,22.2 123.9,23.2 122.1,23.2 C120.5,23.2 118.8,22.2 118.8,20 L118.8,20 Z M125.9,20 L125.9,16.1 L123.3,17 C122,17.4 121.5,18.2 121.5,19.2 C121.5,20.4 122.1,21.4 123.6,21.4 C124.6,21.5 125.4,20.7 125.9,20 Z M131.7,22.2 L133.3,21.7 L133.3,12.4 L131.6,11.5 L131.6,11.1 L135.5,9.7 L135.6,9.7 L135.7,12.2 L135.8,12.2 C136.3,11.6 138.3,9.7 140.4,9.7 C142.7,9.7 143.9,10.8 143.9,14.2 L143.9,21.7 L145.6,22.3 L145.6,22.9 L139.8,22.9 L139.8,22.3 L141.4,21.8 L141.4,14.3 C141.3,12.7 140.7,11.6 138.9,11.6 C137.6,11.6 136.3,12.6 135.8,13 L135.8,21.8 L137.5,22.3 L137.5,22.9 L131.6,22.9 L131.6,22.2 L131.7,22.2 Z M146.9,20 C146.9,17.8 148.5,16.8 151.3,16.1 L154,15.4 L154,13.9 C154,11.9 153,10.6 151.5,10.6 C150.7,10.6 150.1,10.8 149.8,11.1 L149.7,13.9 C149.4,14 149,14 148.6,14 C147.8,14 147.3,13.6 147.3,12.9 C147.3,11.6 149.7,9.6 152.7,9.6 C155.5,9.6 156.6,10.9 156.6,13.5 L156.6,21 C156.6,21.6 156.8,21.8 157.4,21.8 L158.7,21.8 L158.7,22.2 C158.7,22.2 157.1,23.1 156.1,23.1 C154.7,23.1 154.1,22.3 154.1,21 L154,21 C153,22.2 152,23.2 150.2,23.2 C148.6,23.2 146.9,22.2 146.9,20 L146.9,20 Z M154,20 L154,16.1 L151.4,17 C150.1,17.4 149.6,18.2 149.6,19.2 C149.6,20.4 150.2,21.4 151.7,21.4 C152.7,21.5 153.5,20.7 154,20 Z M166.4,3.8 L170.9,2.6 L170.9,21.3 L172.7,21.8 L172.7,22.3 L168.7,23.1 L168.4,21.3 C167.6,22.1 166.2,23.2 164.6,23.2 C161.1,23.2 159.1,20.2 159.1,17 C159.1,12.6 162.9,9.6 166.3,9.6 C167,9.6 167.7,9.8 168.3,10 L168.3,5 L166.3,4.1 L166.3,3.8 L166.4,3.8 Z M168.4,20.6 L168.4,12.3 C168,11.8 167.2,10.8 165.5,10.8 C163.6,10.8 161.8,12.3 161.8,16 C161.8,18.4 163,21.6 166,21.6 C166.9,21.5 167.8,21.1 168.4,20.6 Z M174.1,22.2 L175.7,21.7 L175.7,12.4 L174.1,11.5 L174.1,11.1 L178.2,9.7 L178.2,21.7 L180.1,22.2 L180.1,22.8 L174.1,22.8 L174.1,22.2 Z M175.1,4.7 C175.1,3.8 175.9,3 176.9,3 C177.8,3 178.6,3.8 178.6,4.7 C178.6,5.6 177.8,6.4 176.9,6.4 C176,6.4 175.1,5.6 175.1,4.7 Z M181.4,20 C181.4,17.8 183,16.8 185.8,16.1 L188.5,15.4 L188.5,13.9 C188.5,11.9 187.5,10.6 186,10.6 C185.2,10.6 184.6,10.8 184.3,11.1 L184.2,13.9 C183.9,14 183.5,14 183.1,14 C182.3,14 181.8,13.6 181.8,12.9 C181.8,11.6 184.2,9.6 187.2,9.6 C190,9.6 191.1,10.9 191.1,13.5 L191.1,21 C191.1,21.6 191.3,21.8 191.9,21.8 L193.2,21.8 L193.2,22.2 C193.2,22.2 191.6,23.1 190.6,23.1 C189.2,23.1 188.6,22.3 188.6,21 L188.5,21 C187.5,22.2 186.5,23.2 184.7,23.2 C183.1,23.2 181.4,22.2 181.4,20 L181.4,20 Z M188.4,20 L188.4,16.1 L185.8,17 C184.5,17.4 184,18.2 184,19.2 C184,20.4 184.6,21.4 186.1,21.4 C187.1,21.5 188,20.7 188.4,20 Z M194.3,22.2 L195.9,21.7 L195.9,12.4 L194.2,11.5 L194.2,11.1 L198.1,9.7 L198.2,9.7 L198.3,12.2 L198.4,12.2 C198.9,11.6 200.9,9.7 203,9.7 C205.3,9.7 206.5,10.8 206.5,14.2 L206.5,21.7 L208.2,22.3 L208.2,22.9 L202.4,22.9 L202.4,22.3 L204,21.8 L204,14.3 C203.9,12.7 203.3,11.6 201.5,11.6 C200.2,11.6 198.9,12.6 198.4,13 L198.4,21.8 L200.1,22.3 L200.1,22.9 L194.2,22.9 L194.2,22.2 L194.3,22.2 Z M101.4,39.9 L101.4,30 L99.3,29.4 L99.3,28.8 L106.7,28.8 L106.7,29.4 L104.4,30 L104.4,39.3 C104.4,42.9 105.5,45.9 109.2,45.9 C112.8,45.9 114.3,43.7 114.5,40 L114.5,30.2 L111.4,29.4 L111.4,28.8 L117.9,28.8 L117.9,29.4 L115.8,30.1 L115.8,39.7 C115.8,44.8 112.7,47.3 108.6,47.3 C103.3,47.4 101.4,44.4 101.4,39.9 L101.4,39.9 Z M118.4,46.2 L120,45.7 L120,36.4 L118.3,35.5 L118.3,35.1 L122.2,33.7 L122.3,33.7 L122.4,37.2 L122.5,37.2 L122.8,36.6 C124.1,34.1 124.9,33.6 126,33.6 C126.8,33.6 127.5,34.1 127.5,34.9 C127.5,35.7 127.1,36.1 126.5,36.5 L124.7,35.8 C124.2,35.9 123.2,36.9 122.6,38.3 L122.6,45.6 L124.7,46.1 L124.7,46.7 L118.4,46.7 L118.4,46.2 L118.4,46.2 Z M130.2,46.6 L129.2,46.2 L129.2,29 L127.5,28.3 L127.5,28 L131.7,26.7 L131.7,35.9 C132.5,35 133.9,33.8 135.9,33.8 C138.4,33.8 140.9,35.6 140.9,39.8 C140.9,43.8 137,47.3 133.3,47.3 C132,47.2 130.9,46.9 130.2,46.6 L130.2,46.6 Z M131.7,36.4 L131.7,45 C132.2,45.7 133.3,46.1 134.3,46.1 C136.5,46.1 138.2,44.4 138.2,40.6 C138.2,37.5 136.4,35.3 134.3,35.3 C133.2,35.2 132.3,35.8 131.7,36.4 Z M142.5,44 C142.5,41.8 144.1,40.8 146.9,40.1 L149.6,39.4 L149.6,37.9 C149.6,35.9 148.6,34.6 147.1,34.6 C146.3,34.6 145.7,34.8 145.4,35.1 L145.3,37.9 C145,38 144.6,38 144.2,38 C143.4,38 142.9,37.6 142.9,36.9 C142.9,35.6 145.3,33.6 148.3,33.6 C151.1,33.6 152.2,34.9 152.2,37.5 L152.2,45 C152.2,45.6 152.4,45.8 153,45.8 L154.3,45.8 L154.3,46.2 C154.3,46.2 152.7,47.1 151.7,47.1 C150.3,47.1 149.7,46.3 149.7,45 L149.6,45 C148.6,46.2 147.6,47.2 145.8,47.2 C144.2,47.2 142.5,46.2 142.5,44 L142.5,44 Z M149.6,44 L149.6,40.1 L147,41 C145.7,41.4 145.2,42.2 145.2,43.2 C145.2,44.4 145.8,45.4 147.3,45.4 C148.2,45.5 149.1,44.7 149.6,44 L149.6,44 Z M155.4,46.2 L157,45.7 L157,36.4 L155.3,35.5 L155.3,35.1 L159.2,33.7 L159.3,33.7 L159.4,36.2 L159.5,36.2 C160,35.6 162,33.7 164.1,33.7 C166.4,33.7 167.6,34.8 167.6,38.2 L167.6,45.7 L169.3,46.3 L169.3,46.9 L163.5,46.9 L163.5,46.3 L165.1,45.8 L165.1,38.3 C165,36.7 164.4,35.6 162.6,35.6 C161.3,35.6 160,36.6 159.5,37 L159.5,45.8 L161.2,46.3 L161.2,46.9 L155.3,46.9 L155.3,46.2 L155.4,46.2 Z M99.6,70.1 L101.7,69.6 L101.7,54 L99.6,53.4 L99.6,52.8 L106.6,52.8 L106.6,53.4 L104.5,54 L104.5,69.6 L106.6,70.1 L106.6,70.7 L99.6,70.7 L99.6,70.1 Z M108.4,70.2 L110,69.7 L110,60.4 L108.3,59.5 L108.3,59.1 L112.2,57.7 L112.3,57.7 L112.4,60.2 L112.5,60.2 C113,59.6 115,57.7 117.1,57.7 C119.4,57.7 120.6,58.8 120.6,62.2 L120.6,69.7 L122.3,70.3 L122.3,70.9 L116.5,70.9 L116.5,70.3 L118.1,69.8 L118.1,62.3 C118,60.7 117.4,59.6 115.6,59.6 C114.3,59.6 113,60.6 112.5,61 L112.5,69.8 L114.2,70.3 L114.2,70.9 L108.3,70.9 L108.3,70.2 L108.4,70.2 Z M124,70.3 L123.8,66.4 L124.3,66.4 L125.6,69.6 C126.1,70.1 126.7,70.4 127.6,70.4 C129.2,70.4 130.2,69.3 130.2,68 C130.2,66.9 129.7,66.3 128.1,65.7 L126.3,64.9 C124.8,64.3 123.8,63.4 123.8,61.5 C123.8,59.2 126,57.6 128.8,57.6 C130.1,57.6 131.2,58 132.1,58.5 L132.1,61.9 L131.6,61.9 L130.4,59.2 C130,58.9 129.3,58.5 128.6,58.5 C127.2,58.5 126.4,59.5 126.4,60.6 C126.4,61.8 127.1,62.4 128.5,62.9 L129.7,63.4 C132,64.3 132.8,65.3 132.8,66.9 C132.8,69.5 130.3,71.2 127.5,71.2 C126.1,71.2 124.8,70.7 124,70.3 L124,70.3 Z M135.9,67.9 L136,59.3 L134,59.3 L134,58.5 L136,57.9 L137.8,54.5 L138.4,54.5 L138.4,58 L142.1,58 L142.1,59.4 L138.4,59.4 L138.4,67.9 C138.6,69.2 139.3,69.6 140.5,69.6 C141.4,69.6 142.3,69.2 142.4,69.2 L142.6,69.7 C142.5,69.8 141.1,71 138.9,71 C136.6,71.1 135.8,69.9 135.9,67.9 L135.9,67.9 Z M143.7,70.2 L145.3,69.7 L145.3,60.4 L143.7,59.5 L143.7,59.1 L147.8,57.7 L147.8,69.7 L149.7,70.2 L149.7,70.8 L143.7,70.8 L143.7,70.2 L143.7,70.2 Z M144.7,52.7 C144.7,51.8 145.5,51 146.5,51 C147.4,51 148.2,51.8 148.2,52.7 C148.2,53.6 147.4,54.4 146.5,54.4 C145.5,54.4 144.7,53.6 144.7,52.7 Z M151.8,67.9 L151.9,59.3 L149.9,59.3 L149.9,58.5 L151.9,57.9 L153.7,54.5 L154.3,54.5 L154.3,58 L158,58 L158,59.4 L154.3,59.4 L154.3,67.9 C154.5,69.2 155.2,69.6 156.4,69.6 C157.3,69.6 158.2,69.2 158.3,69.2 L158.5,69.7 C158.4,69.8 157,71 154.8,71 C152.4,71.1 151.7,69.9 151.8,67.9 L151.8,67.9 Z M169,68.8 C168.4,69.6 166.8,71.3 164.7,71.3 C162.2,71.3 160.9,69.6 160.9,67 L160.9,59.7 L159.2,59.1 L159.2,58.6 L163.4,57.9 L163.4,66.5 C163.4,68.6 164.4,69.5 166,69.5 C167.3,69.5 168.4,68.7 168.9,68.3 L168.9,59.7 L166.9,59.1 L166.9,58.6 L171.4,57.9 L171.4,69.4 L173.3,70.1 L173.3,70.6 L169.2,71.3 L169,68.8 Z M175.5,67.9 L175.6,59.3 L173.6,59.3 L173.6,58.5 L175.6,57.9 L177.4,54.5 L178,54.5 L178,58 L181.7,58 L181.7,59.4 L178,59.4 L178,67.9 C178.2,69.2 178.9,69.6 180.1,69.6 C181,69.6 181.9,69.2 182,69.2 L182.2,69.7 C182.1,69.8 180.7,71 178.5,71 C176.2,71.1 175.5,69.9 175.5,67.9 L175.5,67.9 Z M182.7,64.7 C182.7,60.8 185.6,57.6 188.9,57.6 C191.7,57.6 193.4,59.3 193.8,62.8 L185.1,62.8 L185.1,63.5 C185.1,67 186.9,69.1 189.6,69.1 C191.4,69.1 192.8,67.9 193.5,67.2 L193.9,67.5 C193,69 191.4,71.1 188.3,71.1 C184.7,71.2 182.7,67.9 182.7,64.7 L182.7,64.7 Z M185.2,62 L190.9,62 C190.6,59.8 189.8,58.5 188.2,58.5 C186.6,58.6 185.5,59.9 185.2,62 Z" id="Shape" fill="#FFFFFF" fill-rule="nonzero"></path>
            <path d="M227.2,22.1 L229.3,21.6 L229.3,6 L227.2,5.4 L227.2,4.9 L234.2,4.9 L234.2,5.5 L232.2,6 L232.2,21.6 L234.3,22.1 L234.3,22.7 L227.3,22.7 L227.3,22.1 L227.2,22.1 Z M236,22.2 L237.6,21.7 L237.6,12.4 L235.9,11.5 L235.9,11.1 L239.8,9.7 L239.9,9.7 L240,12.2 L240.1,12.2 C240.6,11.6 242.6,9.7 244.7,9.7 C247,9.7 248.2,10.8 248.2,14.2 L248.2,21.7 L249.9,22.3 L249.9,22.9 L244.1,22.9 L244.1,22.3 L245.7,21.8 L245.7,14.3 C245.6,12.7 245,11.6 243.2,11.6 C241.9,11.6 240.6,12.6 240.1,13 L240.1,21.8 L241.8,22.3 L241.8,22.9 L236,22.9 L236,22.2 L236,22.2 Z M251.6,22.3 L251.4,18.4 L251.9,18.4 L253.2,21.6 C253.7,22.1 254.3,22.4 255.2,22.4 C256.8,22.4 257.8,21.3 257.8,20 C257.8,18.9 257.3,18.3 255.7,17.7 L253.9,16.9 C252.4,16.3 251.4,15.4 251.4,13.5 C251.4,11.2 253.6,9.6 256.4,9.6 C257.7,9.6 258.8,10 259.7,10.5 L259.7,13.9 L259.2,13.9 L258,11.2 C257.6,10.9 256.9,10.5 256.2,10.5 C254.8,10.5 254,11.5 254,12.6 C254,13.8 254.7,14.4 256.1,14.9 L257.3,15.4 C259.6,16.3 260.4,17.3 260.4,18.9 C260.4,21.5 257.9,23.2 255.1,23.2 C253.7,23.2 252.4,22.7 251.6,22.3 L251.6,22.3 Z M263.5,19.9 L263.6,11.3 L261.6,11.3 L261.6,10.5 L263.6,9.9 L265.4,6.5 L266,6.5 L266,10 L269.7,10 L269.7,11.4 L266,11.4 L266,19.9 C266.2,21.2 266.9,21.6 268.1,21.6 C269,21.6 269.9,21.2 270,21.2 L270.2,21.7 C270.1,21.8 268.7,23 266.5,23 C264.2,23.1 263.4,21.9 263.5,19.9 L263.5,19.9 Z M271.3,22.2 L272.9,21.7 L272.9,12.4 L271.3,11.5 L271.3,11.1 L275.4,9.7 L275.4,21.7 L277.3,22.2 L277.3,22.8 L271.3,22.8 L271.3,22.2 L271.3,22.2 Z M272.3,4.7 C272.3,3.8 273.1,3 274.1,3 C275,3 275.8,3.8 275.8,4.7 C275.8,5.6 275,6.4 274.1,6.4 C273.1,6.4 272.3,5.6 272.3,4.7 Z M279.4,19.9 L279.5,11.3 L277.5,11.3 L277.5,10.5 L279.5,9.9 L281.3,6.5 L281.9,6.5 L281.9,10 L285.6,10 L285.6,11.4 L281.9,11.4 L281.9,19.9 C282.1,21.2 282.8,21.6 284,21.6 C284.9,21.6 285.8,21.2 285.9,21.2 L286.1,21.7 C286,21.8 284.6,23 282.4,23 C280,23.1 279.3,21.9 279.4,19.9 L279.4,19.9 Z M296.6,20.8 C296,21.6 294.4,23.3 292.3,23.3 C289.8,23.3 288.5,21.6 288.5,19 L288.5,11.7 L286.8,11.1 L286.8,10.6 L291,9.9 L291,18.5 C291,20.6 292,21.5 293.6,21.5 C294.9,21.5 296,20.7 296.5,20.3 L296.5,11.7 L294.5,11.1 L294.5,10.6 L299,9.9 L299,21.4 L301,22 L301,22.5 L296.9,23.2 L296.6,20.8 L296.6,20.8 Z M303.1,19.9 L303.2,11.3 L301.2,11.3 L301.2,10.5 L303.2,9.9 L305,6.5 L305.6,6.5 L305.6,10 L309.3,10 L309.3,11.4 L305.6,11.4 L305.6,19.9 C305.8,21.2 306.5,21.6 307.7,21.6 C308.6,21.6 309.5,21.2 309.6,21.2 L309.8,21.7 C309.7,21.8 308.3,23 306.1,23 C303.8,23.1 303.1,21.9 303.1,19.9 L303.1,19.9 Z M229,39.9 L229,30 L226.9,29.4 L226.9,28.8 L234.3,28.8 L234.3,29.4 L232,30 L232,39.3 C232,42.9 233.1,45.9 236.8,45.9 C240.4,45.9 241.9,43.7 242.1,40 L242.1,30.2 L239,29.4 L239,28.8 L245.5,28.8 L245.5,29.4 L243.4,30.1 L243.4,39.7 C243.4,44.8 240.3,47.3 236.2,47.3 C230.9,47.4 229,44.4 229,39.9 L229,39.9 Z M246,46.2 L247.6,45.7 L247.6,36.4 L245.9,35.5 L245.9,35.1 L249.8,33.7 L249.9,33.7 L250,37.2 L250.1,37.2 L250.4,36.6 C251.7,34.1 252.5,33.6 253.6,33.6 C254.4,33.6 255.1,34.1 255.1,34.9 C255.1,35.7 254.7,36.1 254.1,36.5 L252.3,35.8 C251.8,35.9 250.8,36.9 250.2,38.3 L250.2,45.6 L252.3,46.1 L252.3,46.7 L246,46.7 L246,46.2 L246,46.2 Z M257.8,46.6 L256.8,46.2 L256.8,29 L255.1,28.3 L255.1,28 L259.3,26.7 L259.3,35.9 C260.1,35 261.5,33.8 263.5,33.8 C266,33.8 268.5,35.6 268.5,39.8 C268.5,43.8 264.6,47.3 260.9,47.3 C259.6,47.2 258.5,46.9 257.8,46.6 L257.8,46.6 Z M259.3,36.4 L259.3,45 C259.8,45.7 260.9,46.1 261.9,46.1 C264.1,46.1 265.8,44.4 265.8,40.6 C265.8,37.5 264,35.3 261.9,35.3 C260.8,35.2 259.9,35.8 259.3,36.4 Z M270.1,44 C270.1,41.8 271.7,40.8 274.5,40.1 L277.2,39.4 L277.2,37.9 C277.2,35.9 276.2,34.6 274.7,34.6 C273.9,34.6 273.3,34.8 273,35.1 L272.9,37.9 C272.6,38 272.2,38 271.8,38 C271,38 270.5,37.6 270.5,36.9 C270.5,35.6 272.9,33.6 275.9,33.6 C278.7,33.6 279.8,34.9 279.8,37.5 L279.8,45 C279.8,45.6 280,45.8 280.6,45.8 L281.9,45.8 L281.9,46.2 C281.9,46.2 280.3,47.1 279.3,47.1 C277.9,47.1 277.3,46.3 277.3,45 L277.2,45 C276.2,46.2 275.2,47.2 273.4,47.2 C271.8,47.2 270.1,46.2 270.1,44 L270.1,44 Z M277.2,44 L277.2,40.1 L274.6,41 C273.3,41.4 272.8,42.2 272.8,43.2 C272.8,44.4 273.4,45.4 274.9,45.4 C275.8,45.5 276.7,44.7 277.2,44 L277.2,44 Z M283,46.2 L284.6,45.7 L284.6,36.4 L283,35.5 L283,35.1 L287.1,33.7 L287.1,45.7 L289,46.2 L289,46.8 L283,46.8 L283,46.2 Z M284,28.7 C284,27.8 284.8,27 285.8,27 C286.7,27 287.5,27.8 287.5,28.7 C287.5,29.6 286.7,30.4 285.8,30.4 C284.8,30.4 284,29.6 284,28.7 Z M290.3,46.2 L291.9,45.7 L291.9,36.4 L290.2,35.5 L290.2,35.1 L294.1,33.7 L294.2,33.7 L294.3,36.2 L294.4,36.2 C294.9,35.6 296.9,33.7 299,33.7 C301.3,33.7 302.5,34.8 302.5,38.2 L302.5,45.7 L304.2,46.3 L304.2,46.9 L298.4,46.9 L298.4,46.3 L300,45.8 L300,38.3 C299.9,36.7 299.3,35.6 297.5,35.6 C296.2,35.6 294.9,36.6 294.4,37 L294.4,45.8 L296.1,46.3 L296.1,46.9 L290.2,46.9 L290.2,46.2 L290.3,46.2 Z M317.1,27.8 L321.6,26.6 L321.6,45.3 L323.4,45.8 L323.4,46.3 L319.4,47.1 L319.1,45.3 C318.3,46.1 316.9,47.2 315.3,47.2 C311.8,47.2 309.8,44.2 309.8,41 C309.8,36.6 313.6,33.6 317,33.6 C317.7,33.6 318.4,33.8 319,34 L319,29 L317,28.1 L317,27.8 L317.1,27.8 Z M319.1,44.6 L319.1,36.3 C318.7,35.8 317.9,34.8 316.2,34.8 C314.3,34.8 312.5,36.3 312.5,40 C312.5,42.4 313.7,45.6 316.7,45.6 C317.6,45.5 318.5,45.1 319.1,44.6 L319.1,44.6 Z M333.6,44.8 C333,45.6 331.4,47.3 329.3,47.3 C326.8,47.3 325.5,45.6 325.5,43 L325.5,35.7 L323.8,35.1 L323.8,34.6 L328,33.9 L328,42.5 C328,44.6 329,45.5 330.6,45.5 C331.9,45.5 333,44.7 333.5,44.3 L333.5,35.7 L331.5,35.1 L331.5,34.6 L336,33.9 L336,45.4 L338,46 L338,46.5 L333.9,47.2 L333.6,44.8 L333.6,44.8 Z M227.6,62.4 C227.6,56.7 232.3,52.4 237.9,52.4 C240.4,52.4 242.1,53 243.6,53.8 L243.7,58.4 L243,58.4 L241.6,54.8 C240.5,54 239.2,53.3 237.2,53.3 C233.6,53.3 230.8,56.7 230.8,61.4 C230.8,67.5 234.1,70.5 237.8,70.5 C239.7,70.5 241,69.6 241.7,69 L243.8,65 L244.6,65 L243.8,69.6 C241.6,70.7 239.6,71.4 237,71.4 C230.5,71.4 227.6,66.7 227.6,62.4 L227.6,62.4 Z M246.4,68 C246.4,65.8 248,64.8 250.8,64.1 L253.5,63.4 L253.5,61.9 C253.5,59.9 252.5,58.6 251,58.6 C250.2,58.6 249.6,58.8 249.3,59.1 L249.2,61.9 C248.9,62 248.5,62 248.1,62 C247.3,62 246.8,61.6 246.8,60.9 C246.8,59.6 249.2,57.6 252.2,57.6 C255,57.6 256.1,58.9 256.1,61.5 L256.1,69 C256.1,69.6 256.3,69.8 256.9,69.8 L258.2,69.8 L258.2,70.2 C258.2,70.2 256.6,71.1 255.6,71.1 C254.2,71.1 253.6,70.3 253.6,69 L253.5,69 C252.5,70.2 251.5,71.2 249.7,71.2 C248.1,71.2 246.4,70.2 246.4,68 Z M253.5,68 L253.5,64.1 L250.9,65 C249.6,65.4 249.1,66.2 249.1,67.2 C249.1,68.4 249.7,69.4 251.2,69.4 C252.2,69.5 253,68.7 253.5,68 Z M259.3,70.2 L260.9,69.7 L260.9,60.4 L259.2,59.5 L259.2,59.1 L263.1,57.7 L263.2,57.7 L263.3,60.2 L263.4,60.2 C263.9,59.6 265.9,57.7 268,57.7 C270.3,57.7 271.5,58.8 271.5,62.2 L271.5,69.7 L273.2,70.3 L273.2,70.9 L267.4,70.9 L267.4,70.3 L269,69.8 L269,62.3 C268.9,60.7 268.3,59.6 266.5,59.6 C265.2,59.6 263.9,60.6 263.4,61 L263.4,69.8 L265.1,70.3 L265.1,70.9 L259.2,70.9 L259.2,70.2 L259.3,70.2 Z M274.5,68 C274.5,65.8 276.1,64.8 278.9,64.1 L281.6,63.4 L281.6,61.9 C281.6,59.9 280.6,58.6 279.1,58.6 C278.3,58.6 277.7,58.8 277.4,59.1 L277.3,61.9 C277,62 276.6,62 276.2,62 C275.4,62 274.9,61.6 274.9,60.9 C274.9,59.6 277.3,57.6 280.3,57.6 C283.1,57.6 284.2,58.9 284.2,61.5 L284.2,69 C284.2,69.6 284.4,69.8 285,69.8 L286.3,69.8 L286.3,70.2 C286.3,70.2 284.7,71.1 283.7,71.1 C282.3,71.1 281.7,70.3 281.7,69 L281.6,69 C280.6,70.2 279.6,71.2 277.8,71.2 C276.2,71.2 274.5,70.2 274.5,68 L274.5,68 Z M281.6,68 L281.6,64.1 L279,65 C277.7,65.4 277.2,66.2 277.2,67.2 C277.2,68.4 277.8,69.4 279.3,69.4 C280.3,69.5 281.1,68.7 281.6,68 Z M294,51.8 L298.5,50.6 L298.5,69.3 L300.3,69.8 L300.3,70.3 L296.3,71.1 L296,69.3 C295.2,70.1 293.8,71.2 292.2,71.2 C288.7,71.2 286.7,68.2 286.7,65 C286.7,60.6 290.5,57.6 293.9,57.6 C294.6,57.6 295.3,57.8 295.9,58 L295.9,53 L293.9,52.1 L293.9,51.8 L294,51.8 Z M296,68.6 L296,60.3 C295.6,59.8 294.8,58.8 293.1,58.8 C291.2,58.8 289.4,60.3 289.4,64 C289.4,66.4 290.6,69.6 293.6,69.6 C294.5,69.5 295.4,69.1 296,68.6 Z M301.7,68 C301.7,65.8 303.3,64.8 306.1,64.1 L308.8,63.4 L308.8,61.9 C308.8,59.9 307.8,58.6 306.3,58.6 C305.5,58.6 304.9,58.8 304.6,59.1 L304.5,61.9 C304.2,62 303.8,62 303.4,62 C302.6,62 302.1,61.6 302.1,60.9 C302.1,59.6 304.5,57.6 307.5,57.6 C310.3,57.6 311.4,58.9 311.4,61.5 L311.4,69 C311.4,69.6 311.6,69.8 312.2,69.8 L313.5,69.8 L313.5,70.2 C313.5,70.2 311.9,71.1 310.9,71.1 C309.5,71.1 308.9,70.3 308.9,69 L308.8,69 C307.8,70.2 306.8,71.2 305,71.2 C303.4,71.2 301.7,70.2 301.7,68 L301.7,68 Z M308.8,68 L308.8,64.1 L306.2,65 C304.9,65.4 304.4,66.2 304.4,67.2 C304.4,68.4 305,69.4 306.5,69.4 C307.5,69.5 308.3,68.7 308.8,68 Z" id="Shape" fill="#FFFFFF" fill-rule="nonzero"></path>
            <g id="Group" stroke="#FFFFFF">
                <path d="M36.7,0 L36.7,12.5 C36.7,13.8 37.7,14.8 39,14.8 C40.3,14.8 41.3,13.8 41.3,12.5 L41.3,0" id="Path"></path>
                <path d="M41.4,78.1 L41.4,65.6 C41.4,64.3 40.4,63.3 39.1,63.3 C37.8,63.3 36.8,64.3 36.8,65.6 L36.8,78.1" id="Path"></path>
                <path d="M21.9,3.9 L26.7,15.4 C27.2,16.6 28.6,17.2 29.8,16.7 C31,16.2 31.6,14.8 31.1,13.6 L26.3,2.1" id="Path"></path>
                <path d="M56.1,74.2 L51.3,62.7 C50.8,61.5 49.4,60.9 48.2,61.4 C47,61.9 46.4,63.3 46.9,64.5 L51.8,76" id="Path"></path>
                <path d="M9.8,13.1 L18.6,21.9 C19.5,22.8 21,22.8 21.9,21.9 C22.8,21 22.8,19.5 21.9,18.6 L13.1,9.8" id="Path"></path>
                <path d="M68.3,65 L59.5,56.2 C58.6,55.3 57.1,55.3 56.2,56.2 C55.3,57.1 55.3,58.6 56.2,59.5 L65,68.3" id="Path"></path>
                <path d="M2.1,26.3 L13.6,31 C14.8,31.5 16.2,30.9 16.7,29.7 C17.2,28.5 16.6,27.1 15.4,26.6 L3.9,21.9" id="Path"></path>
                <path d="M0,41.4 L12.5,41.4 C13.8,41.4 14.8,40.4 14.8,39.1 C14.8,37.8 13.8,36.8 12.5,36.8 L0,36.8" id="Path"></path>
                <path d="M3.9,56.1 L15.4,51.3 C16.6,50.8 17.2,49.4 16.7,48.2 C16.2,47 14.8,46.4 13.6,46.9 L2.1,51.8" id="Path"></path>
                <path d="M13.1,68.3 L21.9,59.5 C22.8,58.6 22.8,57.1 21.9,56.2 C21,55.3 19.5,55.3 18.6,56.2 L9.8,65" id="Path"></path>
                <path d="M65,9.8 L56.2,18.6 C55.3,19.5 55.3,21 56.2,21.9 C57.1,22.8 58.6,22.8 59.5,21.9 L68.3,13.1" id="Path"></path>
                <path d="M26.3,76 L31,64.5 C31.5,63.3 30.9,61.9 29.7,61.4 C28.5,60.9 27.1,61.5 26.6,62.7 L21.8,74.2" id="Path"></path>
                <path d="M51.8,2.1 L47,13.6 C46.5,14.8 47.1,16.2 48.3,16.7 C49.5,17.2 50.9,16.6 51.4,15.4 L56.2,3.9" id="Path"></path>
            </g>
        </g>
    </g>
</svg>