<svg width="294" height="76" viewBox="0 0 294 76" fill="none" xmlns="http://www.w3.org/2000/svg">
<circle cx="35.142" cy="68.7657" r="6.82759" stroke="black" stroke-width="0.401623"/>
<circle cx="35.142" cy="61.7373" r="13.856" stroke="black" stroke-width="0.401623"/>
<circle cx="35.142" cy="54.7089" r="20.8844" stroke="black" stroke-width="0.401623"/>
<circle cx="35.142" cy="47.6805" r="27.9128" stroke="black" stroke-width="0.401623"/>
<circle cx="35.142" cy="40.6521" r="34.9412" stroke="black" stroke-width="0.401623"/>
<path d="M194.907 66.0925C194.409 66.0925 193.985 65.9571 193.635 65.6862C193.285 65.4132 193.017 65.0179 192.832 64.5004C192.647 63.9807 192.555 63.3532 192.555 62.6177C192.555 61.8866 192.647 61.2623 192.832 60.7449C193.02 60.2252 193.288 59.8288 193.638 59.5558C193.991 59.2805 194.413 59.1429 194.907 59.1429C195.4 59.1429 195.822 59.2805 196.172 59.5558C196.524 59.8288 196.793 60.2252 196.978 60.7449C197.165 61.2623 197.258 61.8866 197.258 62.6177C197.258 63.3532 197.166 63.9807 196.981 64.5004C196.796 65.0179 196.528 65.4132 196.178 65.6862C195.828 65.9571 195.404 66.0925 194.907 66.0925ZM194.907 65.3658C195.4 65.3658 195.783 65.128 196.056 64.6524C196.329 64.1767 196.466 63.4985 196.466 62.6177C196.466 62.032 196.403 61.5332 196.277 61.1214C196.154 60.7096 195.976 60.3958 195.742 60.1801C195.511 59.9643 195.233 59.8564 194.907 59.8564C194.418 59.8564 194.036 60.0975 193.761 60.5797C193.485 61.0598 193.348 61.7391 193.348 62.6177C193.348 63.2034 193.409 63.7011 193.533 64.1107C193.656 64.5202 193.833 64.8318 194.064 65.0454C194.298 65.259 194.579 65.3658 194.907 65.3658ZM203.349 60.9265V61.5871H200.72V60.9265H203.349ZM201.486 59.711H202.266V64.5467C202.266 64.7669 202.298 64.932 202.362 65.0421C202.428 65.15 202.511 65.2227 202.613 65.2601C202.716 65.2954 202.825 65.313 202.94 65.313C203.026 65.313 203.096 65.3086 203.151 65.2998C203.206 65.2887 203.25 65.2799 203.283 65.2733L203.442 65.9736C203.389 65.9934 203.315 66.0132 203.22 66.033C203.126 66.0551 203.006 66.0661 202.86 66.0661C202.64 66.0661 202.424 66.0187 202.213 65.924C202.004 65.8293 201.83 65.6851 201.691 65.4913C201.555 65.2976 201.486 65.0531 201.486 64.7581V59.711ZM206.528 66.1057C206.07 66.1057 205.669 65.9967 205.323 65.7787C204.979 65.5607 204.711 65.2557 204.517 64.8638C204.325 64.4718 204.229 64.0138 204.229 63.4897C204.229 62.9612 204.325 62.4999 204.517 62.1057C204.711 61.7116 204.979 61.4055 205.323 61.1875C205.669 60.9695 206.07 60.8605 206.528 60.8605C206.986 60.8605 207.387 60.9695 207.731 61.1875C208.076 61.4055 208.345 61.7116 208.537 62.1057C208.73 62.4999 208.827 62.9612 208.827 63.4897C208.827 64.0138 208.73 64.4718 208.537 64.8638C208.345 65.2557 208.076 65.5607 207.731 65.7787C207.387 65.9967 206.986 66.1057 206.528 66.1057ZM206.528 65.4055C206.876 65.4055 207.163 65.3163 207.387 65.1379C207.612 64.9595 207.778 64.725 207.886 64.4344C207.994 64.1437 208.048 63.8288 208.048 63.4897C208.048 63.1506 207.994 62.8346 207.886 62.5417C207.778 62.2489 207.612 62.0121 207.387 61.8316C207.163 61.651 206.876 61.5607 206.528 61.5607C206.18 61.5607 205.894 61.651 205.67 61.8316C205.445 62.0121 205.279 62.2489 205.171 62.5417C205.063 62.8346 205.009 63.1506 205.009 63.4897C205.009 63.8288 205.063 64.1437 205.171 64.4344C205.279 64.725 205.445 64.9595 205.67 65.1379C205.894 65.3163 206.18 65.4055 206.528 65.4055ZM214.734 66.0925C214.346 66.0925 213.997 66.0154 213.687 65.8613C213.376 65.7071 213.128 65.4957 212.94 65.2271C212.753 64.9584 212.651 64.6524 212.633 64.3088H213.426C213.457 64.6149 213.596 64.8682 213.842 65.0685C214.091 65.2667 214.388 65.3658 214.734 65.3658C215.011 65.3658 215.258 65.3009 215.474 65.1709C215.692 65.041 215.863 64.8627 215.986 64.6358C216.111 64.4068 216.174 64.1481 216.174 63.8596C216.174 63.5646 216.109 63.3014 215.979 63.0702C215.851 62.8368 215.675 62.6529 215.451 62.5186C215.226 62.3843 214.97 62.316 214.681 62.3138C214.474 62.3116 214.262 62.3435 214.044 62.4096C213.826 62.4735 213.646 62.556 213.505 62.6573L212.739 62.5648L213.149 59.2354H216.663V59.9621H213.836L213.598 61.9571H213.637C213.776 61.847 213.95 61.7556 214.159 61.6829C214.368 61.6103 214.586 61.5739 214.813 61.5739C215.227 61.5739 215.596 61.673 215.92 61.8712C216.246 62.0672 216.501 62.3358 216.686 62.6771C216.873 63.0185 216.967 63.4082 216.967 63.8464C216.967 64.278 216.87 64.6634 216.676 65.0025C216.485 65.3394 216.22 65.6058 215.883 65.8018C215.547 65.9956 215.163 66.0925 214.734 66.0925ZM223.035 66.1057C222.546 66.1057 222.125 65.9978 221.77 65.782C221.418 65.564 221.146 65.2601 220.954 64.8704C220.765 64.4784 220.67 64.0226 220.67 63.5029C220.67 62.9832 220.765 62.5252 220.954 62.1288C221.146 61.7303 221.412 61.4198 221.754 61.1974C222.097 60.9728 222.498 60.8605 222.956 60.8605C223.22 60.8605 223.481 60.9045 223.739 60.9926C223.997 61.0807 224.231 61.2238 224.442 61.422C224.654 61.618 224.822 61.8778 224.948 62.2015C225.073 62.5252 225.136 62.9238 225.136 63.3972V63.7275H221.225V63.0537H224.343C224.343 62.7674 224.286 62.512 224.172 62.2874C224.059 62.0628 223.899 61.8855 223.689 61.7556C223.482 61.6257 223.238 61.5607 222.956 61.5607C222.646 61.5607 222.377 61.6378 222.15 61.7919C221.926 61.9439 221.753 62.1421 221.632 62.3865C221.51 62.6309 221.45 62.8929 221.45 63.1726V63.6218C221.45 64.005 221.516 64.3298 221.648 64.5962C221.782 64.8605 221.968 65.0619 222.206 65.2007C222.444 65.3372 222.72 65.4055 223.035 65.4055C223.24 65.4055 223.425 65.3768 223.59 65.3196C223.758 65.2601 223.902 65.172 224.023 65.0553C224.144 64.9364 224.238 64.7889 224.304 64.6127L225.057 64.8241C224.978 65.0796 224.844 65.3042 224.657 65.4979C224.47 65.6895 224.239 65.8393 223.963 65.9472C223.688 66.0528 223.379 66.1057 223.035 66.1057ZM226.322 66V60.9265H227.075V61.7193H227.141C227.247 61.4484 227.417 61.2381 227.653 61.0884C227.889 60.9364 228.172 60.8605 228.502 60.8605C228.837 60.8605 229.115 60.9364 229.338 61.0884C229.562 61.2381 229.737 61.4484 229.863 61.7193H229.916C230.045 61.4572 230.24 61.2491 230.5 61.095C230.76 60.9386 231.072 60.8605 231.435 60.8605C231.889 60.8605 232.26 61.0025 232.548 61.2866C232.837 61.5684 232.981 62.0077 232.981 62.6045V66H232.201V62.6045C232.201 62.2301 232.099 61.9626 231.894 61.8018C231.689 61.6411 231.448 61.5607 231.171 61.5607C230.814 61.5607 230.538 61.6686 230.342 61.8844C230.146 62.098 230.048 62.3689 230.048 62.697V66H229.255V62.5252C229.255 62.2367 229.161 62.0044 228.974 61.8283C228.787 61.6499 228.546 61.5607 228.251 61.5607C228.048 61.5607 227.859 61.6147 227.683 61.7226C227.509 61.8305 227.368 61.9802 227.26 62.1718C227.154 62.3612 227.101 62.5803 227.101 62.8291V66H226.322ZM234.406 67.9025V60.9265H235.159V61.7325H235.252C235.309 61.6444 235.388 61.5321 235.489 61.3956C235.593 61.2568 235.74 61.1335 235.932 61.0256C236.126 60.9155 236.388 60.8605 236.718 60.8605C237.145 60.8605 237.522 60.9673 237.848 61.1809C238.174 61.3945 238.428 61.6972 238.611 62.0892C238.794 62.4812 238.885 62.9436 238.885 63.4765C238.885 64.0138 238.794 64.4795 238.611 64.8737C238.428 65.2656 238.175 65.5695 237.851 65.7853C237.527 65.9989 237.154 66.1057 236.731 66.1057C236.405 66.1057 236.145 66.0517 235.949 65.9438C235.753 65.8337 235.602 65.7093 235.496 65.5706C235.39 65.4297 235.309 65.313 235.252 65.2205H235.186V67.9025H234.406ZM235.172 63.4633C235.172 63.8464 235.228 64.1844 235.341 64.4773C235.453 64.768 235.617 64.9959 235.833 65.161C236.049 65.324 236.313 65.4055 236.626 65.4055C236.952 65.4055 237.224 65.3196 237.442 65.1478C237.662 64.9739 237.827 64.7404 237.937 64.4476C238.049 64.1525 238.105 63.8244 238.105 63.4633C238.105 63.1065 238.05 62.785 237.94 62.4988C237.832 62.2103 237.668 61.9824 237.448 61.8151C237.23 61.6455 236.956 61.5607 236.626 61.5607C236.309 61.5607 236.042 61.6411 235.826 61.8018C235.611 61.9604 235.448 62.1828 235.337 62.4691C235.227 62.7531 235.172 63.0845 235.172 63.4633ZM240.854 59.2354V66H240.074V59.2354H240.854ZM244.342 66.1057C243.884 66.1057 243.482 65.9967 243.137 65.7787C242.793 65.5607 242.525 65.2557 242.331 64.8638C242.139 64.4718 242.043 64.0138 242.043 63.4897C242.043 62.9612 242.139 62.4999 242.331 62.1057C242.525 61.7116 242.793 61.4055 243.137 61.1875C243.482 60.9695 243.884 60.8605 244.342 60.8605C244.8 60.8605 245.201 60.9695 245.545 61.1875C245.89 61.4055 246.159 61.7116 246.351 62.1057C246.544 62.4999 246.641 62.9612 246.641 63.4897C246.641 64.0138 246.544 64.4718 246.351 64.8638C246.159 65.2557 245.89 65.5607 245.545 65.7787C245.201 65.9967 244.8 66.1057 244.342 66.1057ZM244.342 65.4055C244.69 65.4055 244.977 65.3163 245.201 65.1379C245.426 64.9595 245.592 64.725 245.7 64.4344C245.808 64.1437 245.862 63.8288 245.862 63.4897C245.862 63.1506 245.808 62.8346 245.7 62.5417C245.592 62.2489 245.426 62.0121 245.201 61.8316C244.977 61.651 244.69 61.5607 244.342 61.5607C243.994 61.5607 243.708 61.651 243.484 61.8316C243.259 62.0121 243.093 62.2489 242.985 62.5417C242.877 62.8346 242.823 63.1506 242.823 63.4897C242.823 63.8288 242.877 64.1437 242.985 64.4344C243.093 64.725 243.259 64.9595 243.484 65.1379C243.708 65.3163 243.994 65.4055 244.342 65.4055ZM248.152 67.9025C248.019 67.9025 247.902 67.8915 247.798 67.8695C247.695 67.8497 247.623 67.8299 247.583 67.8101L247.782 67.123C247.971 67.1715 248.138 67.1891 248.284 67.1759C248.429 67.1627 248.558 67.0977 248.67 66.981C248.785 66.8665 248.889 66.6804 248.984 66.4228L249.129 66.0264L247.253 60.9265H248.099L249.499 64.9695H249.552L250.953 60.9265H251.798L249.645 66.7399C249.548 67.0019 249.428 67.2188 249.285 67.3906C249.141 67.5645 248.975 67.6934 248.786 67.777C248.599 67.8607 248.387 67.9025 248.152 67.9025ZM254.773 66.1057C254.284 66.1057 253.862 65.9978 253.507 65.782C253.155 65.564 252.883 65.2601 252.692 64.8704C252.502 64.4784 252.408 64.0226 252.408 63.5029C252.408 62.9832 252.502 62.5252 252.692 62.1288C252.883 61.7303 253.15 61.4198 253.491 61.1974C253.834 60.9728 254.235 60.8605 254.693 60.8605C254.958 60.8605 255.218 60.9045 255.476 60.9926C255.734 61.0807 255.968 61.2238 256.18 61.422C256.391 61.618 256.559 61.8778 256.685 62.2015C256.811 62.5252 256.873 62.9238 256.873 63.3972V63.7275H252.962V63.0537H256.081C256.081 62.7674 256.023 62.512 255.909 62.2874C255.796 62.0628 255.636 61.8855 255.427 61.7556C255.22 61.6257 254.975 61.5607 254.693 61.5607C254.383 61.5607 254.114 61.6378 253.887 61.7919C253.663 61.9439 253.49 62.1421 253.369 62.3865C253.248 62.6309 253.187 62.8929 253.187 63.1726V63.6218C253.187 64.005 253.253 64.3298 253.385 64.5962C253.52 64.8605 253.706 65.0619 253.943 65.2007C254.181 65.3372 254.458 65.4055 254.773 65.4055C254.977 65.4055 255.162 65.3768 255.327 65.3196C255.495 65.2601 255.639 65.172 255.76 65.0553C255.881 64.9364 255.975 64.7889 256.041 64.6127L256.794 64.8241C256.715 65.0796 256.581 65.3042 256.394 65.4979C256.207 65.6895 255.976 65.8393 255.701 65.9472C255.425 66.0528 255.116 66.1057 254.773 66.1057ZM260.186 66.1057C259.697 66.1057 259.276 65.9978 258.921 65.782C258.569 65.564 258.297 65.2601 258.105 64.8704C257.916 64.4784 257.821 64.0226 257.821 63.5029C257.821 62.9832 257.916 62.5252 258.105 62.1288C258.297 61.7303 258.563 61.4198 258.905 61.1974C259.248 60.9728 259.649 60.8605 260.107 60.8605C260.371 60.8605 260.632 60.9045 260.89 60.9926C261.147 61.0807 261.382 61.2238 261.593 61.422C261.805 61.618 261.973 61.8778 262.099 62.2015C262.224 62.5252 262.287 62.9238 262.287 63.3972V63.7275H258.376V63.0537H261.494C261.494 62.7674 261.437 62.512 261.322 62.2874C261.21 62.0628 261.049 61.8855 260.84 61.7556C260.633 61.6257 260.389 61.5607 260.107 61.5607C259.796 61.5607 259.528 61.6378 259.301 61.7919C259.076 61.9439 258.904 62.1421 258.782 62.3865C258.661 62.6309 258.601 62.8929 258.601 63.1726V63.6218C258.601 64.005 258.667 64.3298 258.799 64.5962C258.933 64.8605 259.119 65.0619 259.357 65.2007C259.595 65.3372 259.871 65.4055 260.186 65.4055C260.391 65.4055 260.576 65.3768 260.741 65.3196C260.908 65.2601 261.053 65.172 261.174 65.0553C261.295 64.9364 261.389 64.7889 261.455 64.6127L262.208 64.8241C262.128 65.0796 261.995 65.3042 261.808 65.4979C261.621 65.6895 261.39 65.8393 261.114 65.9472C260.839 66.0528 260.53 66.1057 260.186 66.1057ZM267.066 62.0628L266.366 62.261C266.322 62.1443 266.257 62.0309 266.171 61.9208C266.088 61.8084 265.973 61.716 265.828 61.6433C265.682 61.5706 265.496 61.5343 265.27 61.5343C264.959 61.5343 264.7 61.6059 264.493 61.749C264.289 61.8899 264.186 62.0694 264.186 62.2874C264.186 62.4812 264.257 62.6342 264.398 62.7465C264.539 62.8588 264.759 62.9524 265.058 63.0273L265.811 63.2122C266.265 63.3223 266.603 63.4908 266.825 63.7176C267.048 63.9422 267.159 64.2318 267.159 64.5863C267.159 64.877 267.075 65.1368 266.908 65.3658C266.743 65.5948 266.512 65.7754 266.214 65.9075C265.917 66.0396 265.571 66.1057 265.177 66.1057C264.66 66.1057 264.231 65.9934 263.892 65.7688C263.553 65.5442 263.338 65.2161 263.248 64.7845L263.988 64.5995C264.058 64.8726 264.192 65.0774 264.388 65.2139C264.586 65.3504 264.845 65.4187 265.164 65.4187C265.527 65.4187 265.816 65.3416 266.029 65.1875C266.245 65.0311 266.353 64.8439 266.353 64.6259C266.353 64.4498 266.291 64.3022 266.168 64.1833C266.045 64.0622 265.855 63.9719 265.6 63.9125L264.754 63.7143C264.29 63.6042 263.948 63.4335 263.73 63.2023C263.515 62.9689 263.407 62.6771 263.407 62.327C263.407 62.0408 263.487 61.7875 263.648 61.5673C263.811 61.3471 264.032 61.1743 264.312 61.0487C264.594 60.9232 264.913 60.8605 265.27 60.8605C265.772 60.8605 266.166 60.9706 266.452 61.1908C266.741 61.411 266.945 61.7016 267.066 62.0628Z" fill="black"/>
<path d="M194.814 51.0925C194.427 51.0925 194.078 51.0154 193.767 50.8613C193.457 50.7071 193.208 50.4957 193.021 50.2271C192.833 49.9584 192.731 49.6524 192.713 49.3088H193.506C193.537 49.6149 193.676 49.8682 193.922 50.0685C194.171 50.2667 194.468 50.3658 194.814 50.3658C195.092 50.3658 195.338 50.3009 195.554 50.1709C195.772 50.041 195.943 49.8627 196.066 49.6358C196.192 49.4068 196.254 49.1481 196.254 48.8596C196.254 48.5646 196.189 48.3014 196.059 48.0702C195.932 47.8368 195.756 47.6529 195.531 47.5186C195.306 47.3843 195.05 47.316 194.761 47.3138C194.554 47.3116 194.342 47.3435 194.124 47.4096C193.906 47.4735 193.726 47.556 193.585 47.6573L192.819 47.5648L193.229 44.2354H196.743V44.9621H193.916L193.678 46.9571H193.718C193.856 46.847 194.03 46.7556 194.239 46.6829C194.449 46.6103 194.667 46.5739 194.893 46.5739C195.307 46.5739 195.676 46.673 196 46.8712C196.326 47.0672 196.581 47.3358 196.766 47.6771C196.953 48.0185 197.047 48.4082 197.047 48.8464C197.047 49.278 196.95 49.6634 196.756 50.0025C196.565 50.3394 196.301 50.6058 195.964 50.8018C195.627 50.9956 195.244 51.0925 194.814 51.0925ZM203.195 45.9265V46.5871H200.566V45.9265H203.195ZM201.332 44.711H202.111V49.5467C202.111 49.7669 202.143 49.932 202.207 50.0421C202.273 50.15 202.357 50.2227 202.458 50.2601C202.562 50.2954 202.671 50.313 202.785 50.313C202.871 50.313 202.942 50.3086 202.997 50.2998C203.052 50.2887 203.096 50.2799 203.129 50.2733L203.287 50.9736C203.234 50.9934 203.161 51.0132 203.066 51.033C202.971 51.0551 202.851 51.0661 202.706 51.0661C202.486 51.0661 202.27 51.0187 202.059 50.924C201.849 50.8293 201.675 50.6851 201.537 50.4913C201.4 50.2976 201.332 50.0531 201.332 49.7581V44.711ZM206.374 51.1057C205.916 51.1057 205.514 50.9967 205.168 50.7787C204.825 50.5607 204.556 50.2557 204.362 49.8638C204.171 49.4718 204.075 49.0138 204.075 48.4897C204.075 47.9612 204.171 47.4999 204.362 47.1057C204.556 46.7116 204.825 46.4055 205.168 46.1875C205.514 45.9695 205.916 45.8605 206.374 45.8605C206.832 45.8605 207.233 45.9695 207.576 46.1875C207.922 46.4055 208.191 46.7116 208.382 47.1057C208.576 47.4999 208.673 47.9612 208.673 48.4897C208.673 49.0138 208.576 49.4718 208.382 49.8638C208.191 50.2557 207.922 50.5607 207.576 50.7787C207.233 50.9967 206.832 51.1057 206.374 51.1057ZM206.374 50.4055C206.722 50.4055 207.008 50.3163 207.233 50.1379C207.457 49.9595 207.624 49.725 207.732 49.4344C207.839 49.1437 207.893 48.8288 207.893 48.4897C207.893 48.1506 207.839 47.8346 207.732 47.5417C207.624 47.2489 207.457 47.0121 207.233 46.8316C207.008 46.651 206.722 46.5607 206.374 46.5607C206.026 46.5607 205.74 46.651 205.515 46.8316C205.291 47.0121 205.124 47.2489 205.016 47.5417C204.909 47.8346 204.855 48.1506 204.855 48.4897C204.855 48.8288 204.909 49.1437 205.016 49.4344C205.124 49.725 205.291 49.9595 205.515 50.1379C205.74 50.3163 206.026 50.4055 206.374 50.4055ZM214.844 44.2354V51H214.025V45.0942H213.985L212.333 46.1908V45.3584L214.025 44.2354H214.844ZM218.996 51.0925C218.498 51.0925 218.074 50.9571 217.724 50.6862C217.374 50.4132 217.106 50.0179 216.921 49.5004C216.736 48.9807 216.644 48.3532 216.644 47.6177C216.644 46.8866 216.736 46.2623 216.921 45.7449C217.109 45.2252 217.377 44.8288 217.727 44.5558C218.08 44.2805 218.502 44.1429 218.996 44.1429C219.489 44.1429 219.911 44.2805 220.261 44.5558C220.613 44.8288 220.882 45.2252 221.067 45.7449C221.254 46.2623 221.347 46.8866 221.347 47.6177C221.347 48.3532 221.255 48.9807 221.07 49.5004C220.885 50.0179 220.617 50.4132 220.267 50.6862C219.917 50.9571 219.493 51.0925 218.996 51.0925ZM218.996 50.3658C219.489 50.3658 219.872 50.128 220.145 49.6524C220.418 49.1767 220.555 48.4985 220.555 47.6177C220.555 47.032 220.492 46.5332 220.366 46.1214C220.243 45.7096 220.065 45.3958 219.831 45.1801C219.6 44.9643 219.322 44.8564 218.996 44.8564C218.507 44.8564 218.125 45.0975 217.85 45.5797C217.574 46.0598 217.437 46.7391 217.437 47.6177C217.437 48.2034 217.498 48.7011 217.622 49.1107C217.745 49.5202 217.922 49.8318 218.153 50.0454C218.387 50.259 218.668 50.3658 218.996 50.3658ZM227.359 51.1057C226.87 51.1057 226.448 50.9978 226.094 50.782C225.742 50.564 225.47 50.2601 225.278 49.8704C225.089 49.4784 224.994 49.0226 224.994 48.5029C224.994 47.9832 225.089 47.5252 225.278 47.1288C225.47 46.7303 225.736 46.4198 226.077 46.1974C226.421 45.9728 226.822 45.8605 227.28 45.8605C227.544 45.8605 227.805 45.9045 228.063 45.9926C228.32 46.0807 228.555 46.2238 228.766 46.422C228.977 46.618 229.146 46.8778 229.271 47.2015C229.397 47.5252 229.46 47.9238 229.46 48.3972V48.7275H225.549V48.0537H228.667C228.667 47.7674 228.61 47.512 228.495 47.2874C228.383 47.0628 228.222 46.8855 228.013 46.7556C227.806 46.6257 227.562 46.5607 227.28 46.5607C226.969 46.5607 226.701 46.6378 226.474 46.7919C226.249 46.9439 226.076 47.1421 225.955 47.3865C225.834 47.6309 225.774 47.8929 225.774 48.1726V48.6218C225.774 49.005 225.84 49.3298 225.972 49.5962C226.106 49.8605 226.292 50.0619 226.53 50.2007C226.768 50.3372 227.044 50.4055 227.359 50.4055C227.564 50.4055 227.749 50.3768 227.914 50.3196C228.081 50.2601 228.225 50.172 228.347 50.0553C228.468 49.9364 228.561 49.7889 228.627 49.6127L229.38 49.8241C229.301 50.0796 229.168 50.3042 228.981 50.4979C228.794 50.6895 228.562 50.8393 228.287 50.9472C228.012 51.0528 227.703 51.1057 227.359 51.1057ZM230.646 51V45.9265H231.399V46.7193H231.465C231.57 46.4484 231.741 46.2381 231.977 46.0884C232.212 45.9364 232.495 45.8605 232.826 45.8605C233.16 45.8605 233.439 45.9364 233.661 46.0884C233.886 46.2381 234.061 46.4484 234.186 46.7193H234.239C234.369 46.4572 234.564 46.2491 234.824 46.095C235.084 45.9386 235.395 45.8605 235.759 45.8605C236.212 45.8605 236.583 46.0025 236.872 46.2866C237.16 46.5684 237.304 47.0077 237.304 47.6045V51H236.525V47.6045C236.525 47.2301 236.423 46.9626 236.218 46.8018C236.013 46.6411 235.772 46.5607 235.494 46.5607C235.138 46.5607 234.861 46.6686 234.665 46.8844C234.469 47.098 234.371 47.3689 234.371 47.697V51H233.579V47.5252C233.579 47.2367 233.485 47.0044 233.298 46.8283C233.111 46.6499 232.87 46.5607 232.574 46.5607C232.372 46.5607 232.183 46.6147 232.006 46.7226C231.832 46.8305 231.691 46.9802 231.584 47.1718C231.478 47.3612 231.425 47.5803 231.425 47.8291V51H230.646ZM238.73 52.9025V45.9265H239.483V46.7325H239.575C239.633 46.6444 239.712 46.5321 239.813 46.3956C239.917 46.2568 240.064 46.1335 240.256 46.0256C240.449 45.9155 240.712 45.8605 241.042 45.8605C241.469 45.8605 241.846 45.9673 242.171 46.1809C242.497 46.3945 242.752 46.6972 242.934 47.0892C243.117 47.4812 243.209 47.9436 243.209 48.4765C243.209 49.0138 243.117 49.4795 242.934 49.8737C242.752 50.2656 242.498 50.5695 242.175 50.7853C241.851 50.9989 241.478 51.1057 241.055 51.1057C240.729 51.1057 240.468 51.0517 240.272 50.9438C240.076 50.8337 239.925 50.7093 239.82 50.5706C239.714 50.4297 239.633 50.313 239.575 50.2205H239.509V52.9025H238.73ZM239.496 48.4633C239.496 48.8464 239.552 49.1844 239.664 49.4773C239.777 49.768 239.941 49.9959 240.157 50.161C240.372 50.324 240.637 50.4055 240.949 50.4055C241.275 50.4055 241.547 50.3196 241.765 50.1478C241.985 49.9739 242.151 49.7404 242.261 49.4476C242.373 49.1525 242.429 48.8244 242.429 48.4633C242.429 48.1065 242.374 47.785 242.264 47.4988C242.156 47.2103 241.992 46.9824 241.772 46.8151C241.554 46.6455 241.28 46.5607 240.949 46.5607C240.632 46.5607 240.366 46.6411 240.15 46.8018C239.934 46.9604 239.771 47.1828 239.661 47.4691C239.551 47.7531 239.496 48.0845 239.496 48.4633ZM245.177 44.2354V51H244.398V44.2354H245.177ZM248.666 51.1057C248.208 51.1057 247.806 50.9967 247.46 50.7787C247.117 50.5607 246.848 50.2557 246.654 49.8638C246.463 49.4718 246.367 49.0138 246.367 48.4897C246.367 47.9612 246.463 47.4999 246.654 47.1057C246.848 46.7116 247.117 46.4055 247.46 46.1875C247.806 45.9695 248.208 45.8605 248.666 45.8605C249.124 45.8605 249.525 45.9695 249.868 46.1875C250.214 46.4055 250.483 46.7116 250.674 47.1057C250.868 47.4999 250.965 47.9612 250.965 48.4897C250.965 49.0138 250.868 49.4718 250.674 49.8638C250.483 50.2557 250.214 50.5607 249.868 50.7787C249.525 50.9967 249.124 51.1057 248.666 51.1057ZM248.666 50.4055C249.014 50.4055 249.3 50.3163 249.525 50.1379C249.749 49.9595 249.916 49.725 250.024 49.4344C250.131 49.1437 250.185 48.8288 250.185 48.4897C250.185 48.1506 250.131 47.8346 250.024 47.5417C249.916 47.2489 249.749 47.0121 249.525 46.8316C249.3 46.651 249.014 46.5607 248.666 46.5607C248.318 46.5607 248.032 46.651 247.807 46.8316C247.583 47.0121 247.416 47.2489 247.309 47.5417C247.201 47.8346 247.147 48.1506 247.147 48.4897C247.147 48.8288 247.201 49.1437 247.309 49.4344C247.416 49.725 247.583 49.9595 247.807 50.1379C248.032 50.3163 248.318 50.4055 248.666 50.4055ZM252.475 52.9025C252.343 52.9025 252.225 52.8915 252.122 52.8695C252.018 52.8497 251.947 52.8299 251.907 52.8101L252.105 52.123C252.295 52.1715 252.462 52.1891 252.607 52.1759C252.753 52.1627 252.882 52.0977 252.994 51.981C253.108 51.8665 253.213 51.6804 253.308 51.4228L253.453 51.0264L251.577 45.9265H252.422L253.823 49.9695H253.876L255.276 45.9265H256.122L253.968 51.7399C253.871 52.0019 253.751 52.2188 253.608 52.3906C253.465 52.5645 253.299 52.6934 253.109 52.777C252.922 52.8607 252.711 52.9025 252.475 52.9025ZM259.096 51.1057C258.607 51.1057 258.186 50.9978 257.831 50.782C257.479 50.564 257.207 50.2601 257.015 49.8704C256.826 49.4784 256.731 49.0226 256.731 48.5029C256.731 47.9832 256.826 47.5252 257.015 47.1288C257.207 46.7303 257.473 46.4198 257.815 46.1974C258.158 45.9728 258.559 45.8605 259.017 45.8605C259.281 45.8605 259.542 45.9045 259.8 45.9926C260.057 46.0807 260.292 46.2238 260.503 46.422C260.715 46.618 260.883 46.8778 261.009 47.2015C261.134 47.5252 261.197 47.9238 261.197 48.3972V48.7275H257.286V48.0537H260.404C260.404 47.7674 260.347 47.512 260.232 47.2874C260.12 47.0628 259.959 46.8855 259.75 46.7556C259.543 46.6257 259.299 46.5607 259.017 46.5607C258.706 46.5607 258.438 46.6378 258.211 46.7919C257.986 46.9439 257.814 47.1421 257.692 47.3865C257.571 47.6309 257.511 47.8929 257.511 48.1726V48.6218C257.511 49.005 257.577 49.3298 257.709 49.5962C257.843 49.8605 258.029 50.0619 258.267 50.2007C258.505 50.3372 258.781 50.4055 259.096 50.4055C259.301 50.4055 259.486 50.3768 259.651 50.3196C259.818 50.2601 259.963 50.172 260.084 50.0553C260.205 49.9364 260.299 49.7889 260.365 49.6127L261.118 49.8241C261.038 50.0796 260.905 50.3042 260.718 50.4979C260.531 50.6895 260.3 50.8393 260.024 50.9472C259.749 51.0528 259.44 51.1057 259.096 51.1057ZM264.51 51.1057C264.021 51.1057 263.599 50.9978 263.245 50.782C262.892 50.564 262.621 50.2601 262.429 49.8704C262.24 49.4784 262.145 49.0226 262.145 48.5029C262.145 47.9832 262.24 47.5252 262.429 47.1288C262.621 46.7303 262.887 46.4198 263.228 46.1974C263.572 45.9728 263.973 45.8605 264.431 45.8605C264.695 45.8605 264.956 45.9045 265.213 45.9926C265.471 46.0807 265.706 46.2238 265.917 46.422C266.128 46.618 266.297 46.8778 266.422 47.2015C266.548 47.5252 266.611 47.9238 266.611 48.3972V48.7275H262.7V48.0537H265.818C265.818 47.7674 265.761 47.512 265.646 47.2874C265.534 47.0628 265.373 46.8855 265.164 46.7556C264.957 46.6257 264.712 46.5607 264.431 46.5607C264.12 46.5607 263.851 46.6378 263.625 46.7919C263.4 46.9439 263.227 47.1421 263.106 47.3865C262.985 47.6309 262.924 47.8929 262.924 48.1726V48.6218C262.924 49.005 262.99 49.3298 263.123 49.5962C263.257 49.8605 263.443 50.0619 263.681 50.2007C263.919 50.3372 264.195 50.4055 264.51 50.4055C264.715 50.4055 264.9 50.3768 265.065 50.3196C265.232 50.2601 265.376 50.172 265.497 50.0553C265.619 49.9364 265.712 49.7889 265.778 49.6127L266.531 49.8241C266.452 50.0796 266.319 50.3042 266.132 50.4979C265.945 50.6895 265.713 50.8393 265.438 50.9472C265.163 51.0528 264.853 51.1057 264.51 51.1057ZM271.39 47.0628L270.69 47.261C270.646 47.1443 270.581 47.0309 270.495 46.9208C270.411 46.8084 270.297 46.716 270.151 46.6433C270.006 46.5706 269.82 46.5343 269.593 46.5343C269.283 46.5343 269.024 46.6059 268.817 46.749C268.612 46.8899 268.51 47.0694 268.51 47.2874C268.51 47.4812 268.58 47.6342 268.721 47.7465C268.862 47.8588 269.082 47.9524 269.382 48.0273L270.135 48.2122C270.589 48.3223 270.927 48.4908 271.149 48.7176C271.371 48.9422 271.483 49.2318 271.483 49.5863C271.483 49.877 271.399 50.1368 271.232 50.3658C271.066 50.5948 270.835 50.7754 270.538 50.9075C270.241 51.0396 269.895 51.1057 269.501 51.1057C268.983 51.1057 268.555 50.9934 268.216 50.7688C267.877 50.5442 267.662 50.2161 267.572 49.7845L268.312 49.5995C268.382 49.8726 268.515 50.0774 268.711 50.2139C268.91 50.3504 269.168 50.4187 269.488 50.4187C269.851 50.4187 270.139 50.3416 270.353 50.1875C270.569 50.0311 270.677 49.8439 270.677 49.6259C270.677 49.4498 270.615 49.3022 270.492 49.1833C270.368 49.0622 270.179 48.9719 269.924 48.9125L269.078 48.7143C268.613 48.6042 268.272 48.4335 268.054 48.2023C267.838 47.9689 267.73 47.6771 267.73 47.327C267.73 47.0408 267.811 46.7875 267.971 46.5673C268.134 46.3471 268.356 46.1743 268.635 46.0487C268.917 45.9232 269.237 45.8605 269.593 45.8605C270.095 45.8605 270.489 45.9706 270.776 46.1908C271.064 46.411 271.269 46.7016 271.39 47.0628Z" fill="black"/>
<path d="M195.078 29.2354V36H194.259V30.0942H194.22L192.568 31.1908V30.3584L194.259 29.2354H195.078ZM199.23 36.0925C198.733 36.0925 198.309 35.9571 197.959 35.6862C197.609 35.4132 197.341 35.0179 197.156 34.5004C196.971 33.9807 196.879 33.3532 196.879 32.6177C196.879 31.8866 196.971 31.2623 197.156 30.7449C197.343 30.2252 197.612 29.8288 197.962 29.5558C198.314 29.2805 198.737 29.1429 199.23 29.1429C199.724 29.1429 200.145 29.2805 200.495 29.5558C200.848 29.8288 201.116 30.2252 201.301 30.7449C201.489 31.2623 201.582 31.8866 201.582 32.6177C201.582 33.3532 201.49 33.9807 201.305 34.5004C201.12 35.0179 200.852 35.4132 200.502 35.6862C200.152 35.9571 199.728 36.0925 199.23 36.0925ZM199.23 35.3658C199.724 35.3658 200.107 35.128 200.38 34.6524C200.653 34.1767 200.789 33.4985 200.789 32.6177C200.789 32.032 200.727 31.5332 200.601 31.1214C200.478 30.7096 200.299 30.3958 200.066 30.1801C199.835 29.9643 199.556 29.8564 199.23 29.8564C198.741 29.8564 198.359 30.0975 198.084 30.5797C197.809 31.0598 197.671 31.7391 197.671 32.6177C197.671 33.2034 197.733 33.7011 197.856 34.1107C197.98 34.5202 198.157 34.8318 198.388 35.0454C198.621 35.259 198.902 35.3658 199.23 35.3658ZM207.673 30.9265V31.5871H205.044V30.9265H207.673ZM205.81 29.711H206.59V34.5467C206.59 34.7669 206.621 34.932 206.685 35.0421C206.751 35.15 206.835 35.2227 206.936 35.2601C207.04 35.2954 207.149 35.313 207.263 35.313C207.349 35.313 207.42 35.3086 207.475 35.2998C207.53 35.2887 207.574 35.2799 207.607 35.2733L207.765 35.9736C207.713 35.9934 207.639 36.0132 207.544 36.033C207.449 36.0551 207.329 36.0661 207.184 36.0661C206.964 36.0661 206.748 36.0187 206.537 35.924C206.327 35.8293 206.154 35.6851 206.015 35.4913C205.878 35.2976 205.81 35.0531 205.81 34.7581V29.711ZM210.852 36.1057C210.394 36.1057 209.992 35.9967 209.646 35.7787C209.303 35.5607 209.034 35.2557 208.841 34.8638C208.649 34.4718 208.553 34.0138 208.553 33.4897C208.553 32.9612 208.649 32.4999 208.841 32.1057C209.034 31.7116 209.303 31.4055 209.646 31.1875C209.992 30.9695 210.394 30.8605 210.852 30.8605C211.31 30.8605 211.711 30.9695 212.054 31.1875C212.4 31.4055 212.669 31.7116 212.86 32.1057C213.054 32.4999 213.151 32.9612 213.151 33.4897C213.151 34.0138 213.054 34.4718 212.86 34.8638C212.669 35.2557 212.4 35.5607 212.054 35.7787C211.711 35.9967 211.31 36.1057 210.852 36.1057ZM210.852 35.4055C211.2 35.4055 211.486 35.3163 211.711 35.1379C211.935 34.9595 212.102 34.725 212.21 34.4344C212.318 34.1437 212.371 33.8288 212.371 33.4897C212.371 33.1506 212.318 32.8346 212.21 32.5417C212.102 32.2489 211.935 32.0121 211.711 31.8316C211.486 31.651 211.2 31.5607 210.852 31.5607C210.504 31.5607 210.218 31.651 209.993 31.8316C209.769 32.0121 209.602 32.2489 209.495 32.5417C209.387 32.8346 209.333 33.1506 209.333 33.4897C209.333 33.8288 209.387 34.1437 209.495 34.4344C209.602 34.725 209.769 34.9595 209.993 35.1379C210.218 35.3163 210.504 35.4055 210.852 35.4055ZM219.058 36.0925C218.67 36.0925 218.321 36.0154 218.011 35.8613C217.7 35.7071 217.451 35.4957 217.264 35.2271C217.077 34.9584 216.975 34.6524 216.957 34.3088H217.75C217.78 34.6149 217.919 34.8682 218.166 35.0685C218.415 35.2667 218.712 35.3658 219.058 35.3658C219.335 35.3658 219.582 35.3009 219.798 35.1709C220.016 35.041 220.186 34.8627 220.309 34.6358C220.435 34.4068 220.498 34.1481 220.498 33.8596C220.498 33.5646 220.433 33.3014 220.303 33.0702C220.175 32.8368 219.999 32.6529 219.774 32.5186C219.55 32.3843 219.293 32.316 219.005 32.3138C218.798 32.3116 218.585 32.3435 218.367 32.4096C218.149 32.4735 217.97 32.556 217.829 32.6573L217.063 32.5648L217.472 29.2354H220.987V29.9621H218.159L217.921 31.9571H217.961C218.1 31.847 218.274 31.7556 218.483 31.6829C218.692 31.6103 218.91 31.5739 219.137 31.5739C219.551 31.5739 219.92 31.673 220.243 31.8712C220.569 32.0672 220.825 32.3358 221.01 32.6771C221.197 33.0185 221.29 33.4082 221.29 33.8464C221.29 34.278 221.194 34.6634 221 35.0025C220.808 35.3394 220.544 35.6058 220.207 35.8018C219.87 35.9956 219.487 36.0925 219.058 36.0925ZM224.809 36.0925C224.311 36.0925 223.888 35.9571 223.537 35.6862C223.187 35.4132 222.92 35.0179 222.735 34.5004C222.55 33.9807 222.457 33.3532 222.457 32.6177C222.457 31.8866 222.55 31.2623 222.735 30.7449C222.922 30.2252 223.191 29.8288 223.541 29.5558C223.893 29.2805 224.316 29.1429 224.809 29.1429C225.302 29.1429 225.724 29.2805 226.074 29.5558C226.426 29.8288 226.695 30.2252 226.88 30.7449C227.067 31.2623 227.161 31.8866 227.161 32.6177C227.161 33.3532 227.068 33.9807 226.883 34.5004C226.698 35.0179 226.431 35.4132 226.081 35.6862C225.731 35.9571 225.307 36.0925 224.809 36.0925ZM224.809 35.3658C225.302 35.3658 225.685 35.128 225.959 34.6524C226.232 34.1767 226.368 33.4985 226.368 32.6177C226.368 32.032 226.305 31.5332 226.18 31.1214C226.056 30.7096 225.878 30.3958 225.645 30.1801C225.414 29.9643 225.135 29.8564 224.809 29.8564C224.32 29.8564 223.938 30.0975 223.663 30.5797C223.388 31.0598 223.25 31.7391 223.25 32.6177C223.25 33.2034 223.312 33.7011 223.435 34.1107C223.558 34.5202 223.736 34.8318 223.967 35.0454C224.2 35.259 224.481 35.3658 224.809 35.3658ZM233.172 36.1057C232.683 36.1057 232.262 35.9978 231.907 35.782C231.555 35.564 231.283 35.2601 231.091 34.8704C230.902 34.4784 230.807 34.0226 230.807 33.5029C230.807 32.9832 230.902 32.5252 231.091 32.1288C231.283 31.7303 231.549 31.4198 231.891 31.1974C232.234 30.9728 232.635 30.8605 233.093 30.8605C233.357 30.8605 233.618 30.9045 233.876 30.9926C234.134 31.0807 234.368 31.2238 234.579 31.422C234.791 31.618 234.959 31.8778 235.085 32.2015C235.21 32.5252 235.273 32.9238 235.273 33.3972V33.7275H231.362V33.0537H234.48C234.48 32.7674 234.423 32.512 234.309 32.2874C234.196 32.0628 234.036 31.8855 233.826 31.7556C233.619 31.6257 233.375 31.5607 233.093 31.5607C232.783 31.5607 232.514 31.6378 232.287 31.7919C232.063 31.9439 231.89 32.1421 231.769 32.3865C231.647 32.6309 231.587 32.8929 231.587 33.1726V33.6218C231.587 34.005 231.653 34.3298 231.785 34.5962C231.919 34.8605 232.105 35.0619 232.343 35.2007C232.581 35.3372 232.857 35.4055 233.172 35.4055C233.377 35.4055 233.562 35.3768 233.727 35.3196C233.895 35.2601 234.039 35.172 234.16 35.0553C234.281 34.9364 234.375 34.7889 234.441 34.6127L235.194 34.8241C235.115 35.0796 234.981 35.3042 234.794 35.4979C234.607 35.6895 234.376 35.8393 234.1 35.9472C233.825 36.0528 233.516 36.1057 233.172 36.1057ZM236.459 36V30.9265H237.212V31.7193H237.278C237.384 31.4484 237.554 31.2381 237.79 31.0884C238.026 30.9364 238.309 30.8605 238.639 30.8605C238.974 30.8605 239.252 30.9364 239.475 31.0884C239.699 31.2381 239.874 31.4484 240 31.7193H240.053C240.182 31.4572 240.377 31.2491 240.637 31.095C240.897 30.9386 241.209 30.8605 241.572 30.8605C242.026 30.8605 242.397 31.0025 242.685 31.2866C242.974 31.5684 243.118 32.0077 243.118 32.6045V36H242.338V32.6045C242.338 32.2301 242.236 31.9626 242.031 31.8018C241.826 31.6411 241.585 31.5607 241.308 31.5607C240.951 31.5607 240.675 31.6686 240.479 31.8844C240.283 32.098 240.185 32.3689 240.185 32.697V36H239.392V32.5252C239.392 32.2367 239.298 32.0044 239.111 31.8283C238.924 31.6499 238.683 31.5607 238.388 31.5607C238.185 31.5607 237.996 31.6147 237.82 31.7226C237.646 31.8305 237.505 31.9802 237.397 32.1718C237.291 32.3612 237.238 32.5803 237.238 32.8291V36H236.459ZM244.543 37.9025V30.9265H245.296V31.7325H245.389C245.446 31.6444 245.525 31.5321 245.626 31.3956C245.73 31.2568 245.877 31.1335 246.069 31.0256C246.263 30.9155 246.525 30.8605 246.855 30.8605C247.282 30.8605 247.659 30.9673 247.985 31.1809C248.311 31.3945 248.565 31.6972 248.748 32.0892C248.931 32.4812 249.022 32.9436 249.022 33.4765C249.022 34.0138 248.931 34.4795 248.748 34.8737C248.565 35.2656 248.312 35.5695 247.988 35.7853C247.664 35.9989 247.291 36.1057 246.868 36.1057C246.542 36.1057 246.282 36.0517 246.086 35.9438C245.89 35.8337 245.739 35.7093 245.633 35.5706C245.527 35.4297 245.446 35.313 245.389 35.2205H245.323V37.9025H244.543ZM245.309 33.4633C245.309 33.8464 245.365 34.1844 245.478 34.4773C245.59 34.768 245.754 34.9959 245.97 35.161C246.186 35.324 246.45 35.4055 246.763 35.4055C247.089 35.4055 247.361 35.3196 247.579 35.1478C247.799 34.9739 247.964 34.7404 248.074 34.4476C248.186 34.1525 248.242 33.8244 248.242 33.4633C248.242 33.1065 248.187 32.785 248.077 32.4988C247.969 32.2103 247.805 31.9824 247.585 31.8151C247.367 31.6455 247.093 31.5607 246.763 31.5607C246.446 31.5607 246.179 31.6411 245.963 31.8018C245.748 31.9604 245.585 32.1828 245.474 32.4691C245.364 32.7531 245.309 33.0845 245.309 33.4633ZM250.991 29.2354V36H250.211V29.2354H250.991ZM254.479 36.1057C254.021 36.1057 253.62 35.9967 253.274 35.7787C252.93 35.5607 252.662 35.2557 252.468 34.8638C252.276 34.4718 252.18 34.0138 252.18 33.4897C252.18 32.9612 252.276 32.4999 252.468 32.1057C252.662 31.7116 252.93 31.4055 253.274 31.1875C253.62 30.9695 254.021 30.8605 254.479 30.8605C254.937 30.8605 255.338 30.9695 255.682 31.1875C256.027 31.4055 256.296 31.7116 256.488 32.1057C256.681 32.4999 256.778 32.9612 256.778 33.4897C256.778 34.0138 256.681 34.4718 256.488 34.8638C256.296 35.2557 256.027 35.5607 255.682 35.7787C255.338 35.9967 254.937 36.1057 254.479 36.1057ZM254.479 35.4055C254.827 35.4055 255.114 35.3163 255.338 35.1379C255.563 34.9595 255.729 34.725 255.837 34.4344C255.945 34.1437 255.999 33.8288 255.999 33.4897C255.999 33.1506 255.945 32.8346 255.837 32.5417C255.729 32.2489 255.563 32.0121 255.338 31.8316C255.114 31.651 254.827 31.5607 254.479 31.5607C254.131 31.5607 253.845 31.651 253.621 31.8316C253.396 32.0121 253.23 32.2489 253.122 32.5417C253.014 32.8346 252.96 33.1506 252.96 33.4897C252.96 33.8288 253.014 34.1437 253.122 34.4344C253.23 34.725 253.396 34.9595 253.621 35.1379C253.845 35.3163 254.131 35.4055 254.479 35.4055ZM258.289 37.9025C258.156 37.9025 258.039 37.8915 257.935 37.8695C257.832 37.8497 257.76 37.8299 257.72 37.8101L257.919 37.123C258.108 37.1715 258.275 37.1891 258.421 37.1759C258.566 37.1627 258.695 37.0977 258.807 36.981C258.922 36.8665 259.026 36.6804 259.121 36.4228L259.266 36.0264L257.39 30.9265H258.236L259.636 34.9695H259.689L261.09 30.9265H261.935L259.782 36.7399C259.685 37.0019 259.565 37.2188 259.422 37.3906C259.278 37.5645 259.112 37.6934 258.923 37.777C258.736 37.8607 258.524 37.9025 258.289 37.9025ZM264.91 36.1057C264.421 36.1057 263.999 35.9978 263.644 35.782C263.292 35.564 263.02 35.2601 262.829 34.8704C262.639 34.4784 262.545 34.0226 262.545 33.5029C262.545 32.9832 262.639 32.5252 262.829 32.1288C263.02 31.7303 263.287 31.4198 263.628 31.1974C263.971 30.9728 264.372 30.8605 264.83 30.8605C265.095 30.8605 265.355 30.9045 265.613 30.9926C265.871 31.0807 266.105 31.2238 266.317 31.422C266.528 31.618 266.696 31.8778 266.822 32.2015C266.948 32.5252 267.01 32.9238 267.01 33.3972V33.7275H263.099V33.0537H266.218C266.218 32.7674 266.16 32.512 266.046 32.2874C265.933 32.0628 265.773 31.8855 265.564 31.7556C265.357 31.6257 265.112 31.5607 264.83 31.5607C264.52 31.5607 264.251 31.6378 264.024 31.7919C263.8 31.9439 263.627 32.1421 263.506 32.3865C263.385 32.6309 263.324 32.8929 263.324 33.1726V33.6218C263.324 34.005 263.39 34.3298 263.522 34.5962C263.657 34.8605 263.843 35.0619 264.08 35.2007C264.318 35.3372 264.595 35.4055 264.91 35.4055C265.114 35.4055 265.299 35.3768 265.464 35.3196C265.632 35.2601 265.776 35.172 265.897 35.0553C266.018 34.9364 266.112 34.7889 266.178 34.6127L266.931 34.8241C266.852 35.0796 266.719 35.3042 266.531 35.4979C266.344 35.6895 266.113 35.8393 265.838 35.9472C265.562 36.0528 265.253 36.1057 264.91 36.1057ZM270.323 36.1057C269.834 36.1057 269.413 35.9978 269.058 35.782C268.706 35.564 268.434 35.2601 268.242 34.8704C268.053 34.4784 267.958 34.0226 267.958 33.5029C267.958 32.9832 268.053 32.5252 268.242 32.1288C268.434 31.7303 268.7 31.4198 269.042 31.1974C269.385 30.9728 269.786 30.8605 270.244 30.8605C270.508 30.8605 270.769 30.9045 271.027 30.9926C271.284 31.0807 271.519 31.2238 271.73 31.422C271.942 31.618 272.11 31.8778 272.236 32.2015C272.361 32.5252 272.424 32.9238 272.424 33.3972V33.7275H268.513V33.0537H271.631C271.631 32.7674 271.574 32.512 271.459 32.2874C271.347 32.0628 271.186 31.8855 270.977 31.7556C270.77 31.6257 270.526 31.5607 270.244 31.5607C269.933 31.5607 269.665 31.6378 269.438 31.7919C269.213 31.9439 269.041 32.1421 268.919 32.3865C268.798 32.6309 268.738 32.8929 268.738 33.1726V33.6218C268.738 34.005 268.804 34.3298 268.936 34.5962C269.07 34.8605 269.256 35.0619 269.494 35.2007C269.732 35.3372 270.008 35.4055 270.323 35.4055C270.528 35.4055 270.713 35.3768 270.878 35.3196C271.045 35.2601 271.19 35.172 271.311 35.0553C271.432 34.9364 271.526 34.7889 271.592 34.6127L272.345 34.8241C272.265 35.0796 272.132 35.3042 271.945 35.4979C271.758 35.6895 271.527 35.8393 271.251 35.9472C270.976 36.0528 270.667 36.1057 270.323 36.1057ZM277.203 32.0628L276.503 32.261C276.459 32.1443 276.394 32.0309 276.308 31.9208C276.225 31.8084 276.11 31.716 275.965 31.6433C275.819 31.5706 275.633 31.5343 275.407 31.5343C275.096 31.5343 274.837 31.6059 274.63 31.749C274.426 31.8899 274.323 32.0694 274.323 32.2874C274.323 32.4812 274.394 32.6342 274.535 32.7465C274.676 32.8588 274.896 32.9524 275.195 33.0273L275.948 33.2122C276.402 33.3223 276.74 33.4908 276.962 33.7176C277.185 33.9422 277.296 34.2318 277.296 34.5863C277.296 34.877 277.212 35.1368 277.045 35.3658C276.88 35.5948 276.649 35.7754 276.351 35.9075C276.054 36.0396 275.708 36.1057 275.314 36.1057C274.797 36.1057 274.368 35.9934 274.029 35.7688C273.69 35.5442 273.475 35.2161 273.385 34.7845L274.125 34.5995C274.195 34.8726 274.329 35.0774 274.525 35.2139C274.723 35.3504 274.982 35.4187 275.301 35.4187C275.664 35.4187 275.953 35.3416 276.166 35.1875C276.382 35.0311 276.49 34.8439 276.49 34.6259C276.49 34.4498 276.428 34.3022 276.305 34.1833C276.182 34.0622 275.992 33.9719 275.737 33.9125L274.891 33.7143C274.427 33.6042 274.085 33.4335 273.867 33.2023C273.652 32.9689 273.544 32.6771 273.544 32.327C273.544 32.0408 273.624 31.7875 273.785 31.5673C273.948 31.3471 274.169 31.1743 274.449 31.0487C274.731 30.9232 275.05 30.8605 275.407 30.8605C275.909 30.8605 276.303 30.9706 276.589 31.1908C276.878 31.411 277.082 31.7016 277.203 32.0628Z" fill="black"/>
<path d="M194.814 23.0925C194.427 23.0925 194.078 23.0154 193.767 22.8613C193.457 22.7071 193.208 22.4957 193.021 22.2271C192.833 21.9584 192.731 21.6524 192.713 21.3088H193.506C193.537 21.6149 193.676 21.8682 193.922 22.0685C194.171 22.2667 194.468 22.3658 194.814 22.3658C195.092 22.3658 195.338 22.3009 195.554 22.1709C195.772 22.041 195.943 21.8627 196.066 21.6358C196.192 21.4068 196.254 21.1481 196.254 20.8596C196.254 20.5646 196.189 20.3014 196.059 20.0702C195.932 19.8368 195.756 19.6529 195.531 19.5186C195.306 19.3843 195.05 19.316 194.761 19.3138C194.554 19.3116 194.342 19.3435 194.124 19.4096C193.906 19.4735 193.726 19.556 193.585 19.6573L192.819 19.5648L193.229 16.2354H196.743V16.9621H193.916L193.678 18.9571H193.718C193.856 18.847 194.03 18.7556 194.239 18.6829C194.449 18.6103 194.667 18.5739 194.893 18.5739C195.307 18.5739 195.676 18.673 196 18.8712C196.326 19.0672 196.581 19.3358 196.766 19.6771C196.953 20.0185 197.047 20.4082 197.047 20.8464C197.047 21.278 196.95 21.6634 196.756 22.0025C196.565 22.3394 196.301 22.6058 195.964 22.8018C195.627 22.9956 195.244 23.0925 194.814 23.0925ZM200.566 23.0925C200.068 23.0925 199.644 22.9571 199.294 22.6862C198.944 22.4132 198.676 22.0179 198.491 21.5004C198.306 20.9807 198.214 20.3532 198.214 19.6177C198.214 18.8866 198.306 18.2623 198.491 17.7449C198.678 17.2252 198.947 16.8288 199.297 16.5558C199.65 16.2805 200.072 16.1429 200.566 16.1429C201.059 16.1429 201.481 16.2805 201.831 16.5558C202.183 16.8288 202.452 17.2252 202.637 17.7449C202.824 18.2623 202.917 18.8866 202.917 19.6177C202.917 20.3532 202.825 20.9807 202.64 21.5004C202.455 22.0179 202.187 22.4132 201.837 22.6862C201.487 22.9571 201.063 23.0925 200.566 23.0925ZM200.566 22.3658C201.059 22.3658 201.442 22.128 201.715 21.6524C201.988 21.1767 202.125 20.4985 202.125 19.6177C202.125 19.032 202.062 18.5332 201.936 18.1214C201.813 17.7096 201.635 17.3958 201.401 17.1801C201.17 16.9643 200.891 16.8564 200.566 16.8564C200.077 16.8564 199.695 17.0975 199.419 17.5797C199.144 18.0598 199.007 18.7391 199.007 19.6177C199.007 20.2034 199.068 20.7011 199.192 21.1107C199.315 21.5202 199.492 21.8318 199.723 22.0454C199.957 22.259 200.237 22.3658 200.566 22.3658ZM209.008 17.9265V18.5871H206.379V17.9265H209.008ZM207.145 16.711H207.925V21.5467C207.925 21.7669 207.957 21.932 208.021 22.0421C208.087 22.15 208.17 22.2227 208.272 22.2601C208.375 22.2954 208.484 22.313 208.599 22.313C208.684 22.313 208.755 22.3086 208.81 22.2998C208.865 22.2887 208.909 22.2799 208.942 22.2733L209.101 22.9736C209.048 22.9934 208.974 23.0132 208.879 23.033C208.785 23.0551 208.665 23.0661 208.519 23.0661C208.299 23.0661 208.083 23.0187 207.872 22.924C207.663 22.8293 207.489 22.6851 207.35 22.4913C207.214 22.2976 207.145 22.0531 207.145 21.7581V16.711ZM212.187 23.1057C211.729 23.1057 211.327 22.9967 210.982 22.7787C210.638 22.5607 210.37 22.2557 210.176 21.8638C209.984 21.4718 209.888 21.0138 209.888 20.4897C209.888 19.9612 209.984 19.4999 210.176 19.1057C210.37 18.7116 210.638 18.4055 210.982 18.1875C211.327 17.9695 211.729 17.8605 212.187 17.8605C212.645 17.8605 213.046 17.9695 213.39 18.1875C213.735 18.4055 214.004 18.7116 214.196 19.1057C214.389 19.4999 214.486 19.9612 214.486 20.4897C214.486 21.0138 214.389 21.4718 214.196 21.8638C214.004 22.2557 213.735 22.5607 213.39 22.7787C213.046 22.9967 212.645 23.1057 212.187 23.1057ZM212.187 22.4055C212.535 22.4055 212.822 22.3163 213.046 22.1379C213.271 21.9595 213.437 21.725 213.545 21.4344C213.653 21.1437 213.707 20.8288 213.707 20.4897C213.707 20.1506 213.653 19.8346 213.545 19.5417C213.437 19.2489 213.271 19.0121 213.046 18.8316C212.822 18.651 212.535 18.5607 212.187 18.5607C211.839 18.5607 211.553 18.651 211.329 18.8316C211.104 19.0121 210.938 19.2489 210.83 19.5417C210.722 19.8346 210.668 20.1506 210.668 20.4897C210.668 20.8288 210.722 21.1437 210.83 21.4344C210.938 21.725 211.104 21.9595 211.329 22.1379C211.553 22.3163 211.839 22.4055 212.187 22.4055ZM220.657 16.2354V23H219.838V17.0942H219.798L218.147 18.1908V17.3584L219.838 16.2354H220.657ZM224.809 23.0925C224.311 23.0925 223.888 22.9571 223.537 22.6862C223.187 22.4132 222.92 22.0179 222.735 21.5004C222.55 20.9807 222.457 20.3532 222.457 19.6177C222.457 18.8866 222.55 18.2623 222.735 17.7449C222.922 17.2252 223.191 16.8288 223.541 16.5558C223.893 16.2805 224.316 16.1429 224.809 16.1429C225.302 16.1429 225.724 16.2805 226.074 16.5558C226.426 16.8288 226.695 17.2252 226.88 17.7449C227.067 18.2623 227.161 18.8866 227.161 19.6177C227.161 20.3532 227.068 20.9807 226.883 21.5004C226.698 22.0179 226.431 22.4132 226.081 22.6862C225.731 22.9571 225.307 23.0925 224.809 23.0925ZM224.809 22.3658C225.302 22.3658 225.685 22.128 225.959 21.6524C226.232 21.1767 226.368 20.4985 226.368 19.6177C226.368 19.032 226.305 18.5332 226.18 18.1214C226.056 17.7096 225.878 17.3958 225.645 17.1801C225.414 16.9643 225.135 16.8564 224.809 16.8564C224.32 16.8564 223.938 17.0975 223.663 17.5797C223.388 18.0598 223.25 18.7391 223.25 19.6177C223.25 20.2034 223.312 20.7011 223.435 21.1107C223.558 21.5202 223.736 21.8318 223.967 22.0454C224.2 22.259 224.481 22.3658 224.809 22.3658ZM230.622 23.0925C230.125 23.0925 229.701 22.9571 229.351 22.6862C229.001 22.4132 228.733 22.0179 228.548 21.5004C228.363 20.9807 228.271 20.3532 228.271 19.6177C228.271 18.8866 228.363 18.2623 228.548 17.7449C228.735 17.2252 229.004 16.8288 229.354 16.5558C229.706 16.2805 230.129 16.1429 230.622 16.1429C231.116 16.1429 231.537 16.2805 231.887 16.5558C232.24 16.8288 232.508 17.2252 232.693 17.7449C232.881 18.2623 232.974 18.8866 232.974 19.6177C232.974 20.3532 232.882 20.9807 232.697 21.5004C232.512 22.0179 232.244 22.4132 231.894 22.6862C231.544 22.9571 231.12 23.0925 230.622 23.0925ZM230.622 22.3658C231.116 22.3658 231.499 22.128 231.772 21.6524C232.045 21.1767 232.181 20.4985 232.181 19.6177C232.181 19.032 232.119 18.5332 231.993 18.1214C231.87 17.7096 231.691 17.3958 231.458 17.1801C231.227 16.9643 230.948 16.8564 230.622 16.8564C230.134 16.8564 229.751 17.0975 229.476 17.5797C229.201 18.0598 229.063 18.7391 229.063 19.6177C229.063 20.2034 229.125 20.7011 229.248 21.1107C229.372 21.5202 229.549 21.8318 229.78 22.0454C230.014 22.259 230.294 22.3658 230.622 22.3658ZM238.986 23.1057C238.497 23.1057 238.075 22.9978 237.721 22.782C237.368 22.564 237.096 22.2601 236.905 21.8704C236.715 21.4784 236.621 21.0226 236.621 20.5029C236.621 19.9832 236.715 19.5252 236.905 19.1288C237.096 18.7303 237.363 18.4198 237.704 18.1974C238.048 17.9728 238.448 17.8605 238.906 17.8605C239.171 17.8605 239.432 17.9045 239.689 17.9926C239.947 18.0807 240.181 18.2238 240.393 18.422C240.604 18.618 240.773 18.8778 240.898 19.2015C241.024 19.5252 241.086 19.9238 241.086 20.3972V20.7275H237.176V20.0537H240.294C240.294 19.7674 240.236 19.512 240.122 19.2874C240.01 19.0628 239.849 18.8855 239.64 18.7556C239.433 18.6257 239.188 18.5607 238.906 18.5607C238.596 18.5607 238.327 18.6378 238.1 18.7919C237.876 18.9439 237.703 19.1421 237.582 19.3865C237.461 19.6309 237.4 19.8929 237.4 20.1726V20.6218C237.4 21.005 237.466 21.3298 237.598 21.5962C237.733 21.8605 237.919 22.0619 238.157 22.2007C238.394 22.3372 238.671 22.4055 238.986 22.4055C239.19 22.4055 239.375 22.3768 239.541 22.3196C239.708 22.2601 239.852 22.172 239.973 22.0553C240.094 21.9364 240.188 21.7889 240.254 21.6127L241.007 21.8241C240.928 22.0796 240.795 22.3042 240.607 22.4979C240.42 22.6895 240.189 22.8393 239.914 22.9472C239.639 23.0528 239.329 23.1057 238.986 23.1057ZM242.272 23V17.9265H243.025V18.7193H243.091C243.197 18.4484 243.368 18.2381 243.603 18.0884C243.839 17.9364 244.122 17.8605 244.452 17.8605C244.787 17.8605 245.065 17.9364 245.288 18.0884C245.512 18.2381 245.688 18.4484 245.813 18.7193H245.866C245.996 18.4572 246.191 18.2491 246.451 18.095C246.71 17.9386 247.022 17.8605 247.385 17.8605C247.839 17.8605 248.21 18.0025 248.498 18.2866C248.787 18.5684 248.931 19.0077 248.931 19.6045V23H248.152V19.6045C248.152 19.2301 248.049 18.9626 247.844 18.8018C247.64 18.6411 247.399 18.5607 247.121 18.5607C246.764 18.5607 246.488 18.6686 246.292 18.8844C246.096 19.098 245.998 19.3689 245.998 19.697V23H245.205V19.5252C245.205 19.2367 245.112 19.0044 244.925 18.8283C244.737 18.6499 244.496 18.5607 244.201 18.5607C243.999 18.5607 243.809 18.6147 243.633 18.7226C243.459 18.8305 243.318 18.9802 243.21 19.1718C243.105 19.3612 243.052 19.5803 243.052 19.8291V23H242.272ZM250.356 24.9025V17.9265H251.109V18.7325H251.202C251.259 18.6444 251.338 18.5321 251.44 18.3956C251.543 18.2568 251.691 18.1335 251.882 18.0256C252.076 17.9155 252.338 17.8605 252.669 17.8605C253.096 17.8605 253.472 17.9673 253.798 18.1809C254.124 18.3945 254.378 18.6972 254.561 19.0892C254.744 19.4812 254.835 19.9436 254.835 20.4765C254.835 21.0138 254.744 21.4795 254.561 21.8737C254.378 22.2656 254.125 22.5695 253.801 22.7853C253.478 22.9989 253.105 23.1057 252.682 23.1057C252.356 23.1057 252.095 23.0517 251.899 22.9438C251.703 22.8337 251.552 22.7093 251.446 22.5706C251.341 22.4297 251.259 22.313 251.202 22.2205H251.136V24.9025H250.356ZM251.123 20.4633C251.123 20.8464 251.179 21.1844 251.291 21.4773C251.403 21.768 251.567 21.9959 251.783 22.161C251.999 22.324 252.263 22.4055 252.576 22.4055C252.902 22.4055 253.174 22.3196 253.392 22.1478C253.612 21.9739 253.777 21.7404 253.887 21.4476C254 21.1525 254.056 20.8244 254.056 20.4633C254.056 20.1065 254.001 19.785 253.891 19.4988C253.783 19.2103 253.619 18.9824 253.398 18.8151C253.18 18.6455 252.906 18.5607 252.576 18.5607C252.259 18.5607 251.992 18.6411 251.777 18.8018C251.561 18.9604 251.398 19.1828 251.288 19.4691C251.178 19.7531 251.123 20.0845 251.123 20.4633ZM256.804 16.2354V23H256.024V16.2354H256.804ZM260.293 23.1057C259.835 23.1057 259.433 22.9967 259.087 22.7787C258.744 22.5607 258.475 22.2557 258.281 21.8638C258.09 21.4718 257.994 21.0138 257.994 20.4897C257.994 19.9612 258.09 19.4999 258.281 19.1057C258.475 18.7116 258.744 18.4055 259.087 18.1875C259.433 17.9695 259.835 17.8605 260.293 17.8605C260.751 17.8605 261.152 17.9695 261.495 18.1875C261.841 18.4055 262.109 18.7116 262.301 19.1057C262.495 19.4999 262.592 19.9612 262.592 20.4897C262.592 21.0138 262.495 21.4718 262.301 21.8638C262.109 22.2557 261.841 22.5607 261.495 22.7787C261.152 22.9967 260.751 23.1057 260.293 23.1057ZM260.293 22.4055C260.641 22.4055 260.927 22.3163 261.152 22.1379C261.376 21.9595 261.542 21.725 261.65 21.4344C261.758 21.1437 261.812 20.8288 261.812 20.4897C261.812 20.1506 261.758 19.8346 261.65 19.5417C261.542 19.2489 261.376 19.0121 261.152 18.8316C260.927 18.651 260.641 18.5607 260.293 18.5607C259.945 18.5607 259.659 18.651 259.434 18.8316C259.209 19.0121 259.043 19.2489 258.935 19.5417C258.827 19.8346 258.773 20.1506 258.773 20.4897C258.773 20.8288 258.827 21.1437 258.935 21.4344C259.043 21.725 259.209 21.9595 259.434 22.1379C259.659 22.3163 259.945 22.4055 260.293 22.4055ZM264.102 24.9025C263.97 24.9025 263.852 24.8915 263.749 24.8695C263.645 24.8497 263.573 24.8299 263.534 24.8101L263.732 24.123C263.921 24.1715 264.089 24.1891 264.234 24.1759C264.379 24.1627 264.508 24.0977 264.621 23.981C264.735 23.8665 264.84 23.6804 264.934 23.4228L265.08 23.0264L263.204 17.9265H264.049L265.45 21.9695H265.502L266.903 17.9265H267.749L265.595 23.7399C265.498 24.0019 265.378 24.2188 265.235 24.3906C265.092 24.5645 264.926 24.6934 264.736 24.777C264.549 24.8607 264.338 24.9025 264.102 24.9025ZM270.723 23.1057C270.234 23.1057 269.812 22.9978 269.458 22.782C269.106 22.564 268.834 22.2601 268.642 21.8704C268.453 21.4784 268.358 21.0226 268.358 20.5029C268.358 19.9832 268.453 19.5252 268.642 19.1288C268.834 18.7303 269.1 18.4198 269.441 18.1974C269.785 17.9728 270.186 17.8605 270.644 17.8605C270.908 17.8605 271.169 17.9045 271.426 17.9926C271.684 18.0807 271.919 18.2238 272.13 18.422C272.341 18.618 272.51 18.8778 272.635 19.2015C272.761 19.5252 272.824 19.9238 272.824 20.3972V20.7275H268.913V20.0537H272.031C272.031 19.7674 271.974 19.512 271.859 19.2874C271.747 19.0628 271.586 18.8855 271.377 18.7556C271.17 18.6257 270.925 18.5607 270.644 18.5607C270.333 18.5607 270.064 18.6378 269.838 18.7919C269.613 18.9439 269.44 19.1421 269.319 19.3865C269.198 19.6309 269.137 19.8929 269.137 20.1726V20.6218C269.137 21.005 269.204 21.3298 269.336 21.5962C269.47 21.8605 269.656 22.0619 269.894 22.2007C270.132 22.3372 270.408 22.4055 270.723 22.4055C270.928 22.4055 271.113 22.3768 271.278 22.3196C271.445 22.2601 271.589 22.172 271.711 22.0553C271.832 21.9364 271.925 21.7889 271.991 21.6127L272.744 21.8241C272.665 22.0796 272.532 22.3042 272.345 22.4979C272.158 22.6895 271.926 22.8393 271.651 22.9472C271.376 23.0528 271.066 23.1057 270.723 23.1057ZM276.137 23.1057C275.648 23.1057 275.226 22.9978 274.872 22.782C274.519 22.564 274.247 22.2601 274.056 21.8704C273.866 21.4784 273.772 21.0226 273.772 20.5029C273.772 19.9832 273.866 19.5252 274.056 19.1288C274.247 18.7303 274.514 18.4198 274.855 18.1974C275.199 17.9728 275.599 17.8605 276.057 17.8605C276.322 17.8605 276.582 17.9045 276.84 17.9926C277.098 18.0807 277.332 18.2238 277.544 18.422C277.755 18.618 277.924 18.8778 278.049 19.2015C278.175 19.5252 278.237 19.9238 278.237 20.3972V20.7275H274.327V20.0537H277.445C277.445 19.7674 277.387 19.512 277.273 19.2874C277.161 19.0628 277 18.8855 276.791 18.7556C276.584 18.6257 276.339 18.5607 276.057 18.5607C275.747 18.5607 275.478 18.6378 275.251 18.7919C275.027 18.9439 274.854 19.1421 274.733 19.3865C274.612 19.6309 274.551 19.8929 274.551 20.1726V20.6218C274.551 21.005 274.617 21.3298 274.749 21.5962C274.884 21.8605 275.07 22.0619 275.308 22.2007C275.545 22.3372 275.822 22.4055 276.137 22.4055C276.341 22.4055 276.526 22.3768 276.691 22.3196C276.859 22.2601 277.003 22.172 277.124 22.0553C277.245 21.9364 277.339 21.7889 277.405 21.6127L278.158 21.8241C278.079 22.0796 277.946 22.3042 277.758 22.4979C277.571 22.6895 277.34 22.8393 277.065 22.9472C276.789 23.0528 276.48 23.1057 276.137 23.1057ZM283.017 19.0628L282.317 19.261C282.273 19.1443 282.208 19.0309 282.122 18.9208C282.038 18.8084 281.923 18.716 281.778 18.6433C281.633 18.5706 281.447 18.5343 281.22 18.5343C280.909 18.5343 280.651 18.6059 280.444 18.749C280.239 18.8899 280.137 19.0694 280.137 19.2874C280.137 19.4812 280.207 19.6342 280.348 19.7465C280.489 19.8588 280.709 19.9524 281.009 20.0273L281.762 20.2122C282.215 20.3223 282.553 20.4908 282.776 20.7176C282.998 20.9422 283.109 21.2318 283.109 21.5863C283.109 21.877 283.026 22.1368 282.858 22.3658C282.693 22.5948 282.462 22.7754 282.165 22.9075C281.867 23.0396 281.522 23.1057 281.127 23.1057C280.61 23.1057 280.182 22.9934 279.843 22.7688C279.503 22.5442 279.289 22.2161 279.198 21.7845L279.938 21.5995C280.009 21.8726 280.142 22.0774 280.338 22.2139C280.536 22.3504 280.795 22.4187 281.114 22.4187C281.478 22.4187 281.766 22.3416 281.98 22.1875C282.195 22.0311 282.303 21.8439 282.303 21.6259C282.303 21.4498 282.242 21.3022 282.118 21.1833C281.995 21.0622 281.806 20.9719 281.55 20.9125L280.705 20.7143C280.24 20.6042 279.899 20.4335 279.681 20.2023C279.465 19.9689 279.357 19.6771 279.357 19.327C279.357 19.0408 279.437 18.7875 279.598 18.5673C279.761 18.3471 279.982 18.1743 280.262 18.0487C280.544 17.9232 280.863 17.8605 281.22 17.8605C281.722 17.8605 282.116 17.9706 282.402 18.1908C282.691 18.411 282.896 18.7016 283.017 19.0628Z" fill="black"/>
<path d="M195.078 2.23538V9H194.259V3.09417H194.22L192.568 4.19078V3.35842L194.259 2.23538H195.078ZM199.23 9.09248C198.733 9.09248 198.309 8.95706 197.959 8.68621C197.609 8.41316 197.341 8.0179 197.156 7.50042C196.971 6.98074 196.879 6.35317 196.879 5.61769C196.879 4.88662 196.971 4.26235 197.156 3.74487C197.343 3.22519 197.612 2.82883 197.962 2.55578C198.314 2.28052 198.737 2.1429 199.23 2.1429C199.724 2.1429 200.145 2.28052 200.495 2.55578C200.848 2.82883 201.116 3.22519 201.301 3.74487C201.489 4.26235 201.582 4.88662 201.582 5.61769C201.582 6.35317 201.49 6.98074 201.305 7.50042C201.12 8.0179 200.852 8.41316 200.502 8.68621C200.152 8.95706 199.728 9.09248 199.23 9.09248ZM199.23 8.36582C199.724 8.36582 200.107 8.128 200.38 7.65236C200.653 7.17672 200.789 6.4985 200.789 5.61769C200.789 5.03195 200.727 4.53319 200.601 4.12142C200.478 3.70964 200.299 3.39585 200.066 3.18005C199.835 2.96425 199.556 2.85635 199.23 2.85635C198.741 2.85635 198.359 3.09748 198.084 3.57972C197.809 4.05976 197.671 4.73908 197.671 5.61769C197.671 6.20343 197.733 6.70109 197.856 7.11066C197.98 7.52024 198.157 7.83183 198.388 8.04542C198.621 8.25902 198.902 8.36582 199.23 8.36582ZM205.044 9.09248C204.546 9.09248 204.122 8.95706 203.772 8.68621C203.422 8.41316 203.154 8.0179 202.969 7.50042C202.784 6.98074 202.692 6.35317 202.692 5.61769C202.692 4.88662 202.784 4.26235 202.969 3.74487C203.157 3.22519 203.425 2.82883 203.775 2.55578C204.128 2.28052 204.55 2.1429 205.044 2.1429C205.537 2.1429 205.959 2.28052 206.309 2.55578C206.661 2.82883 206.93 3.22519 207.115 3.74487C207.302 4.26235 207.395 4.88662 207.395 5.61769C207.395 6.35317 207.303 6.98074 207.118 7.50042C206.933 8.0179 206.665 8.41316 206.315 8.68621C205.965 8.95706 205.541 9.09248 205.044 9.09248ZM205.044 8.36582C205.537 8.36582 205.92 8.128 206.193 7.65236C206.466 7.17672 206.603 6.4985 206.603 5.61769C206.603 5.03195 206.54 4.53319 206.414 4.12142C206.291 3.70964 206.113 3.39585 205.879 3.18005C205.648 2.96425 205.37 2.85635 205.044 2.85635C204.555 2.85635 204.173 3.09748 203.898 3.57972C203.622 4.05976 203.485 4.73908 203.485 5.61769C203.485 6.20343 203.546 6.70109 203.67 7.11066C203.793 7.52024 203.97 7.83183 204.201 8.04542C204.435 8.25902 204.716 8.36582 205.044 8.36582ZM213.486 3.92654V4.58714H210.857V3.92654H213.486ZM211.623 2.71102H212.403V7.54666C212.403 7.76687 212.435 7.93202 212.499 8.04212C212.565 8.15002 212.648 8.22269 212.75 8.26012C212.853 8.29535 212.962 8.31297 213.077 8.31297C213.163 8.31297 213.233 8.30856 213.288 8.29976C213.343 8.28875 213.387 8.27994 213.42 8.27333L213.579 8.97358C213.526 8.99339 213.452 9.01321 213.357 9.03303C213.263 9.05505 213.143 9.06606 212.997 9.06606C212.777 9.06606 212.561 9.01872 212.35 8.92403C212.141 8.82934 211.967 8.68511 211.828 8.49133C211.692 8.29755 211.623 8.05313 211.623 7.75806V2.71102ZM216.665 9.1057C216.207 9.1057 215.806 8.9967 215.46 8.7787C215.116 8.5607 214.848 8.25572 214.654 7.86376C214.462 7.4718 214.367 7.01377 214.367 6.48969C214.367 5.96121 214.462 5.49988 214.654 5.10572C214.848 4.71156 215.116 4.40548 215.46 4.18748C215.806 3.96948 216.207 3.86048 216.665 3.86048C217.123 3.86048 217.524 3.96948 217.868 4.18748C218.213 4.40548 218.482 4.71156 218.674 5.10572C218.867 5.49988 218.964 5.96121 218.964 6.48969C218.964 7.01377 218.867 7.4718 218.674 7.86376C218.482 8.25572 218.213 8.5607 217.868 8.7787C217.524 8.9967 217.123 9.1057 216.665 9.1057ZM216.665 8.40545C217.013 8.40545 217.3 8.31627 217.524 8.13791C217.749 7.95954 217.915 7.72503 218.023 7.43436C218.131 7.14369 218.185 6.8288 218.185 6.48969C218.185 6.15058 218.131 5.83459 218.023 5.54172C217.915 5.24885 217.749 5.01214 217.524 4.83157C217.3 4.651 217.013 4.56072 216.665 4.56072C216.317 4.56072 216.031 4.651 215.807 4.83157C215.582 5.01214 215.416 5.24885 215.308 5.54172C215.2 5.83459 215.146 6.15058 215.146 6.48969C215.146 6.8288 215.2 7.14369 215.308 7.43436C215.416 7.72503 215.582 7.95954 215.807 8.13791C216.031 8.31627 216.317 8.40545 216.665 8.40545ZM225.135 2.23538V9H224.316V3.09417H224.276L222.625 4.19078V3.35842L224.316 2.23538H225.135ZM229.287 9.09248C228.789 9.09248 228.366 8.95706 228.015 8.68621C227.665 8.41316 227.398 8.0179 227.213 7.50042C227.028 6.98074 226.935 6.35317 226.935 5.61769C226.935 4.88662 227.028 4.26235 227.213 3.74487C227.4 3.22519 227.669 2.82883 228.019 2.55578C228.371 2.28052 228.794 2.1429 229.287 2.1429C229.78 2.1429 230.202 2.28052 230.552 2.55578C230.905 2.82883 231.173 3.22519 231.358 3.74487C231.545 4.26235 231.639 4.88662 231.639 5.61769C231.639 6.35317 231.546 6.98074 231.361 7.50042C231.176 8.0179 230.909 8.41316 230.559 8.68621C230.209 8.95706 229.785 9.09248 229.287 9.09248ZM229.287 8.36582C229.78 8.36582 230.164 8.128 230.437 7.65236C230.71 7.17672 230.846 6.4985 230.846 5.61769C230.846 5.03195 230.783 4.53319 230.658 4.12142C230.535 3.70964 230.356 3.39585 230.123 3.18005C229.892 2.96425 229.613 2.85635 229.287 2.85635C228.798 2.85635 228.416 3.09748 228.141 3.57972C227.866 4.05976 227.728 4.73908 227.728 5.61769C227.728 6.20343 227.79 6.70109 227.913 7.11066C228.036 7.52024 228.214 7.83183 228.445 8.04542C228.678 8.25902 228.959 8.36582 229.287 8.36582ZM235.1 9.09248C234.603 9.09248 234.179 8.95706 233.829 8.68621C233.479 8.41316 233.211 8.0179 233.026 7.50042C232.841 6.98074 232.749 6.35317 232.749 5.61769C232.749 4.88662 232.841 4.26235 233.026 3.74487C233.213 3.22519 233.482 2.82883 233.832 2.55578C234.184 2.28052 234.607 2.1429 235.1 2.1429C235.594 2.1429 236.015 2.28052 236.366 2.55578C236.718 2.82883 236.987 3.22519 237.171 3.74487C237.359 4.26235 237.452 4.88662 237.452 5.61769C237.452 6.35317 237.36 6.98074 237.175 7.50042C236.99 8.0179 236.722 8.41316 236.372 8.68621C236.022 8.95706 235.598 9.09248 235.1 9.09248ZM235.1 8.36582C235.594 8.36582 235.977 8.128 236.25 7.65236C236.523 7.17672 236.66 6.4985 236.66 5.61769C236.66 5.03195 236.597 4.53319 236.471 4.12142C236.348 3.70964 236.17 3.39585 235.936 3.18005C235.705 2.96425 235.426 2.85635 235.1 2.85635C234.612 2.85635 234.23 3.09748 233.954 3.57972C233.679 4.05976 233.541 4.73908 233.541 5.61769C233.541 6.20343 233.603 6.70109 233.726 7.11066C233.85 7.52024 234.027 7.83183 234.258 8.04542C234.492 8.25902 234.772 8.36582 235.1 8.36582ZM240.914 9.09248C240.416 9.09248 239.992 8.95706 239.642 8.68621C239.292 8.41316 239.024 8.0179 238.84 7.50042C238.655 6.98074 238.562 6.35317 238.562 5.61769C238.562 4.88662 238.655 4.26235 238.84 3.74487C239.027 3.22519 239.295 2.82883 239.645 2.55578C239.998 2.28052 240.421 2.1429 240.914 2.1429C241.407 2.1429 241.829 2.28052 242.179 2.55578C242.531 2.82883 242.8 3.22519 242.985 3.74487C243.172 4.26235 243.266 4.88662 243.266 5.61769C243.266 6.35317 243.173 6.98074 242.988 7.50042C242.803 8.0179 242.536 8.41316 242.185 8.68621C241.835 8.95706 241.411 9.09248 240.914 9.09248ZM240.914 8.36582C241.407 8.36582 241.79 8.128 242.063 7.65236C242.336 7.17672 242.473 6.4985 242.473 5.61769C242.473 5.03195 242.41 4.53319 242.285 4.12142C242.161 3.70964 241.983 3.39585 241.749 3.18005C241.518 2.96425 241.24 2.85635 240.914 2.85635C240.425 2.85635 240.043 3.09748 239.768 3.57972C239.492 4.05976 239.355 4.73908 239.355 5.61769C239.355 6.20343 239.416 6.70109 239.54 7.11066C239.663 7.52024 239.84 7.83183 240.072 8.04542C240.305 8.25902 240.586 8.36582 240.914 8.36582ZM249.277 9.1057C248.788 9.1057 248.367 8.9978 248.012 8.782C247.66 8.564 247.388 8.26012 247.196 7.87036C247.007 7.4784 246.912 7.02258 246.912 6.50291C246.912 5.98323 247.007 5.52521 247.196 5.12884C247.388 4.73028 247.654 4.41979 247.996 4.19739C248.339 3.97278 248.74 3.86048 249.198 3.86048C249.462 3.86048 249.723 3.90452 249.981 3.9926C250.238 4.08068 250.473 4.22381 250.684 4.42199C250.896 4.61797 251.064 4.87781 251.19 5.20151C251.315 5.52521 251.378 5.92377 251.378 6.39721V6.72751H247.467V6.05369H250.585C250.585 5.76743 250.528 5.51199 250.413 5.28739C250.301 5.06278 250.14 4.88552 249.931 4.7556C249.724 4.62568 249.48 4.56072 249.198 4.56072C248.887 4.56072 248.619 4.63779 248.392 4.79193C248.167 4.94387 247.994 5.14205 247.873 5.38648C247.752 5.6309 247.692 5.89294 247.692 6.1726V6.62181C247.692 7.00497 247.758 7.32977 247.89 7.59621C248.024 7.86045 248.21 8.06194 248.448 8.20067C248.686 8.33719 248.962 8.40545 249.277 8.40545C249.482 8.40545 249.667 8.37683 249.832 8.31957C249.999 8.26012 250.144 8.17204 250.265 8.05533C250.386 7.93642 250.479 7.78889 250.545 7.61273L251.299 7.82412C251.219 8.07955 251.086 8.30416 250.899 8.49794C250.712 8.68951 250.481 8.83925 250.205 8.94715C249.93 9.05285 249.621 9.1057 249.277 9.1057ZM252.564 9V3.92654H253.317V4.71927H253.383C253.488 4.44842 253.659 4.23812 253.895 4.08839C254.13 3.93645 254.413 3.86048 254.744 3.86048C255.078 3.86048 255.357 3.93645 255.579 4.08839C255.804 4.23812 255.979 4.44842 256.104 4.71927H256.157C256.287 4.45723 256.482 4.24913 256.742 4.09499C257.002 3.93865 257.313 3.86048 257.677 3.86048C258.13 3.86048 258.501 4.00251 258.79 4.28657C259.078 4.56843 259.223 5.00773 259.223 5.60448V9H258.443V5.60448C258.443 5.23014 258.341 4.96259 258.136 4.80184C257.931 4.64109 257.69 4.56072 257.412 4.56072C257.056 4.56072 256.779 4.66862 256.583 4.88442C256.387 5.09801 256.289 5.36886 256.289 5.69696V9H255.497V5.52521C255.497 5.23674 255.403 5.00443 255.216 4.82827C255.029 4.6499 254.788 4.56072 254.493 4.56072C254.29 4.56072 254.101 4.61467 253.924 4.72257C253.751 4.83047 253.61 4.98021 253.502 5.17178C253.396 5.36116 253.343 5.58026 253.343 5.82909V9H252.564ZM260.648 10.9025V3.92654H261.401V4.73248H261.493C261.551 4.6444 261.63 4.53209 261.731 4.39557C261.835 4.25684 261.982 4.13353 262.174 4.02563C262.368 3.91553 262.63 3.86048 262.96 3.86048C263.387 3.86048 263.764 3.96728 264.09 4.18087C264.415 4.39447 264.67 4.69725 264.853 5.08921C265.035 5.48117 265.127 5.94359 265.127 6.47648C265.127 7.01377 265.035 7.4795 264.853 7.87366C264.67 8.26563 264.417 8.5695 264.093 8.7853C263.769 8.9989 263.396 9.1057 262.973 9.1057C262.647 9.1057 262.386 9.05175 262.19 8.94385C261.994 8.83375 261.844 8.70933 261.738 8.57061C261.632 8.42968 261.551 8.31297 261.493 8.22048H261.427V10.9025H260.648ZM261.414 6.46327C261.414 6.84642 261.47 7.18443 261.583 7.4773C261.695 7.76797 261.859 7.99588 262.075 8.16103C262.291 8.32398 262.555 8.40545 262.867 8.40545C263.193 8.40545 263.465 8.31957 263.683 8.14782C263.904 7.97386 264.069 7.74044 264.179 7.44757C264.291 7.1525 264.347 6.8244 264.347 6.46327C264.347 6.10654 264.292 5.78505 264.182 5.49878C264.074 5.21032 263.91 4.98241 263.69 4.81505C263.472 4.6455 263.198 4.56072 262.867 4.56072C262.55 4.56072 262.284 4.64109 262.068 4.80184C261.852 4.96039 261.689 5.18279 261.579 5.46905C261.469 5.75312 261.414 6.08452 261.414 6.46327ZM267.095 2.23538V9H266.316V2.23538H267.095ZM270.584 9.1057C270.126 9.1057 269.724 8.9967 269.379 8.7787C269.035 8.5607 268.766 8.25572 268.573 7.86376C268.381 7.4718 268.285 7.01377 268.285 6.48969C268.285 5.96121 268.381 5.49988 268.573 5.10572C268.766 4.71156 269.035 4.40548 269.379 4.18748C269.724 3.96948 270.126 3.86048 270.584 3.86048C271.042 3.86048 271.443 3.96948 271.786 4.18748C272.132 4.40548 272.401 4.71156 272.592 5.10572C272.786 5.49988 272.883 5.96121 272.883 6.48969C272.883 7.01377 272.786 7.4718 272.592 7.86376C272.401 8.25572 272.132 8.5607 271.786 8.7787C271.443 8.9967 271.042 9.1057 270.584 9.1057ZM270.584 8.40545C270.932 8.40545 271.218 8.31627 271.443 8.13791C271.668 7.95954 271.834 7.72503 271.942 7.43436C272.05 7.14369 272.104 6.8288 272.104 6.48969C272.104 6.15058 272.05 5.83459 271.942 5.54172C271.834 5.24885 271.668 5.01214 271.443 4.83157C271.218 4.651 270.932 4.56072 270.584 4.56072C270.236 4.56072 269.95 4.651 269.725 4.83157C269.501 5.01214 269.335 5.24885 269.227 5.54172C269.119 5.83459 269.065 6.15058 269.065 6.48969C269.065 6.8288 269.119 7.14369 269.227 7.43436C269.335 7.72503 269.501 7.95954 269.725 8.13791C269.95 8.31627 270.236 8.40545 270.584 8.40545ZM274.393 10.9025C274.261 10.9025 274.143 10.8915 274.04 10.8695C273.936 10.8497 273.865 10.8299 273.825 10.8101L274.023 10.123C274.213 10.1715 274.38 10.1891 274.526 10.1759C274.671 10.1627 274.8 10.0977 274.912 9.981C275.026 9.8665 275.131 9.68043 275.226 9.42279L275.371 9.02642L273.495 3.92654H274.341L275.741 7.96945H275.794L277.194 3.92654H278.04L275.886 9.73988C275.789 10.0019 275.669 10.2188 275.526 10.3906C275.383 10.5645 275.217 10.6934 275.028 10.777C274.84 10.8607 274.629 10.9025 274.393 10.9025ZM281.014 9.1057C280.525 9.1057 280.104 8.9978 279.749 8.782C279.397 8.564 279.125 8.26012 278.933 7.87036C278.744 7.4784 278.649 7.02258 278.649 6.50291C278.649 5.98323 278.744 5.52521 278.933 5.12884C279.125 4.73028 279.391 4.41979 279.733 4.19739C280.076 3.97278 280.477 3.86048 280.935 3.86048C281.199 3.86048 281.46 3.90452 281.718 3.9926C281.976 4.08068 282.21 4.22381 282.421 4.42199C282.633 4.61797 282.801 4.87781 282.927 5.20151C283.052 5.52521 283.115 5.92377 283.115 6.39721V6.72751H279.204V6.05369H282.322C282.322 5.76743 282.265 5.51199 282.151 5.28739C282.038 5.06278 281.878 4.88552 281.668 4.7556C281.461 4.62568 281.217 4.56072 280.935 4.56072C280.625 4.56072 280.356 4.63779 280.129 4.79193C279.905 4.94387 279.732 5.14205 279.611 5.38648C279.489 5.6309 279.429 5.89294 279.429 6.1726V6.62181C279.429 7.00497 279.495 7.32977 279.627 7.59621C279.761 7.86045 279.947 8.06194 280.185 8.20067C280.423 8.33719 280.699 8.40545 281.014 8.40545C281.219 8.40545 281.404 8.37683 281.569 8.31957C281.737 8.26012 281.881 8.17204 282.002 8.05533C282.123 7.93642 282.217 7.78889 282.283 7.61273L283.036 7.82412C282.957 8.07955 282.823 8.30416 282.636 8.49794C282.449 8.68951 282.218 8.83925 281.942 8.94715C281.667 9.05285 281.358 9.1057 281.014 9.1057ZM286.428 9.1057C285.939 9.1057 285.517 8.9978 285.163 8.782C284.811 8.564 284.539 8.26012 284.347 7.87036C284.158 7.4784 284.063 7.02258 284.063 6.50291C284.063 5.98323 284.158 5.52521 284.347 5.12884C284.539 4.73028 284.805 4.41979 285.146 4.19739C285.49 3.97278 285.891 3.86048 286.349 3.86048C286.613 3.86048 286.874 3.90452 287.132 3.9926C287.389 4.08068 287.624 4.22381 287.835 4.42199C288.046 4.61797 288.215 4.87781 288.34 5.20151C288.466 5.52521 288.529 5.92377 288.529 6.39721V6.72751H284.618V6.05369H287.736C287.736 5.76743 287.679 5.51199 287.564 5.28739C287.452 5.06278 287.291 4.88552 287.082 4.7556C286.875 4.62568 286.631 4.56072 286.349 4.56072C286.038 4.56072 285.77 4.63779 285.543 4.79193C285.318 4.94387 285.145 5.14205 285.024 5.38648C284.903 5.6309 284.843 5.89294 284.843 6.1726V6.62181C284.843 7.00497 284.909 7.32977 285.041 7.59621C285.175 7.86045 285.361 8.06194 285.599 8.20067C285.837 8.33719 286.113 8.40545 286.428 8.40545C286.633 8.40545 286.818 8.37683 286.983 8.31957C287.15 8.26012 287.294 8.17204 287.416 8.05533C287.537 7.93642 287.63 7.78889 287.696 7.61273L288.449 7.82412C288.37 8.07955 288.237 8.30416 288.05 8.49794C287.863 8.68951 287.631 8.83925 287.356 8.94715C287.081 9.05285 286.772 9.1057 286.428 9.1057ZM293.308 5.06278L292.608 5.26096C292.564 5.14426 292.499 5.03085 292.413 4.92075C292.329 4.80845 292.215 4.71596 292.07 4.6433C291.924 4.57063 291.738 4.5343 291.511 4.5343C291.201 4.5343 290.942 4.60586 290.735 4.74899C290.53 4.88992 290.428 5.06939 290.428 5.28739C290.428 5.48117 290.498 5.63421 290.639 5.74651C290.78 5.85881 291.001 5.9524 291.3 6.02727L292.053 6.21224C292.507 6.32234 292.845 6.49079 293.067 6.7176C293.29 6.94221 293.401 7.23177 293.401 7.5863C293.401 7.87697 293.317 8.13681 293.15 8.36582C292.985 8.59483 292.753 8.77539 292.456 8.90752C292.159 9.03964 291.813 9.1057 291.419 9.1057C290.901 9.1057 290.473 8.99339 290.134 8.76879C289.795 8.54418 289.58 8.21608 289.49 7.78448L290.23 7.59951C290.3 7.87256 290.433 8.07735 290.629 8.21388C290.828 8.3504 291.086 8.41867 291.406 8.41867C291.769 8.41867 292.057 8.34159 292.271 8.18745C292.487 8.03111 292.595 7.84394 292.595 7.62594C292.595 7.44978 292.533 7.30224 292.41 7.18333C292.286 7.06222 292.097 6.97194 291.842 6.91248L290.996 6.7143C290.531 6.6042 290.19 6.43354 289.972 6.20233C289.756 5.96891 289.648 5.67715 289.648 5.32702C289.648 5.04076 289.729 4.78753 289.89 4.56733C290.053 4.34712 290.274 4.17427 290.553 4.04875C290.835 3.92323 291.155 3.86048 291.511 3.86048C292.013 3.86048 292.408 3.97058 292.694 4.19078C292.982 4.41098 293.187 4.70165 293.308 5.06278Z" fill="black"/>
<line x1="40.2008" y1="62.7992" x2="188.799" y2="62.7992" stroke="black" stroke-width="0.401623" stroke-linecap="round" stroke-dasharray="1 1"/>
<line x1="40.2008" y1="47.7992" x2="188.799" y2="47.7992" stroke="black" stroke-width="0.401623" stroke-linecap="round" stroke-dasharray="1 1"/>
<line x1="40.2008" y1="32.7992" x2="188.799" y2="32.7992" stroke="black" stroke-width="0.401623" stroke-linecap="round" stroke-dasharray="1 1"/>
<line x1="40.2008" y1="19.7992" x2="188.799" y2="19.7992" stroke="black" stroke-width="0.401623" stroke-linecap="round" stroke-dasharray="1 1"/>
<line x1="40.2008" y1="5.79919" x2="188.799" y2="5.79919" stroke="black" stroke-width="0.401623" stroke-linecap="round" stroke-dasharray="1 1"/>
</svg>
