<?xml version="1.0" encoding="UTF-8"?>
<svg width="758px" height="224px" viewBox="0 0 758 224" version="1.1" xmlns="http://www.w3.org/2000/svg" xmlns:xlink="http://www.w3.org/1999/xlink">
    <title>Group</title>
    <g id="Page-1" stroke="none" stroke-width="1" fill="none" fill-rule="evenodd">
        <g id="Group" transform="translate(4.5731, 10.5519)">
            <g id="Measuring" transform="translate(310.4269, 84.4481)" fill="#002940" fill-rule="nonzero">
                <polygon id="Path" points="0 0 13.7759784 0 29.1956815 43.0602241 29.3522267 43.0602241 44.3805668 0 58 0 58 55 48.6855601 55 48.6855601 12.5560224 48.5290148 12.5560224 33.0310391 55 24.9689609 55 9.47098516 12.5560224 9.31443995 12.5560224 9.31443995 55 0 55"></polygon>
                <path d="M95.8622306,31.493578 C95.7574508,30.106422 95.456209,28.7706422 94.9585052,27.4862385 C94.4608013,26.2018349 93.7797329,25.0844037 92.9152999,24.133945 C92.0508669,23.1834862 91.0030694,22.412844 89.7719072,21.8220183 C88.5407451,21.2311927 87.1655108,20.9357798 85.6462043,20.9357798 C84.074508,20.9357798 82.6468838,21.2055046 81.3633318,21.7449541 C80.0797798,22.2844037 78.9795923,23.0293578 78.0627694,23.9798165 C77.1459466,24.9302752 76.4124883,26.0477064 75.8623946,27.3321101 C75.3123008,28.6165138 75.011059,30.0036697 74.9586692,31.493578 L95.8622306,31.493578 Z M74.9586692,37.2733945 C74.9586692,38.8146789 75.1813261,40.3045872 75.6266401,41.7431193 C76.0719541,43.1816514 76.739925,44.440367 77.630553,45.5192661 C78.5211809,46.5981651 79.6475633,47.4587156 81.0097001,48.1009174 C82.3718369,48.7431193 83.9959231,49.0642202 85.8819588,49.0642202 C88.5014527,49.0642202 90.6101453,48.5119266 92.2080366,47.4073394 C93.8059278,46.3027523 94.9977976,44.6458716 95.7836457,42.4366972 L104.270806,42.4366972 C103.799297,44.5944954 102.987254,46.5211009 101.834677,48.2165138 C100.682099,49.9119266 99.2937676,51.3376147 97.6696813,52.493578 C96.0455951,53.6495413 94.2250469,54.5229358 92.2080366,55.1137615 C90.1910262,55.7045872 88.0823336,56 85.8819588,56 C82.6861762,56 79.8571228,55.4862385 77.3947985,54.4587156 C74.9324742,53.4311927 72.8499766,51.9926606 71.1473055,50.1431193 C69.4446345,48.293578 68.1610825,46.0844037 67.2966495,43.5155963 C66.4322165,40.946789 66,38.1211009 66,35.0385321 C66,32.212844 66.4584114,29.5284404 67.3752343,26.9853211 C68.2920572,24.4422018 69.6018041,22.2073394 71.3044752,20.2807339 C73.0071462,18.3541284 75.0634489,16.8256881 77.4733833,15.6954128 C79.8833177,14.5651376 82.6075914,14 85.6462043,14 C88.8419869,14 91.7103327,14.6550459 94.2512418,15.9651376 C96.7921509,17.2752294 98.9008435,19.0091743 100.57732,21.1669725 C102.253796,23.3247706 103.47186,25.8036697 104.231514,28.6036697 C104.991167,31.4036697 105.187629,34.293578 104.8209,37.2733945 L74.9586692,37.2733945 Z" id="Shape"></path>
                <path d="M144.736434,46.0587156 C144.736434,47.1376147 144.878553,47.9082569 145.162791,48.3706422 C145.447028,48.8330275 146.002584,49.0642202 146.829457,49.0642202 C147.087855,49.0642202 147.397933,49.0642202 147.75969,49.0642202 C148.121447,49.0642202 148.534884,49.012844 149,48.9100917 L149,54.9981651 C148.689922,55.1009174 148.289406,55.2165138 147.79845,55.3449541 C147.307494,55.4733945 146.803618,55.5889908 146.286822,55.6917431 C145.770026,55.7944954 145.25323,55.8715596 144.736434,55.9229358 C144.219638,55.9743119 143.780362,56 143.418605,56 C141.609819,56 140.111111,55.640367 138.922481,54.9211009 C137.73385,54.2018349 136.958656,52.9431193 136.596899,51.1449541 C134.839793,52.840367 132.682171,54.0733945 130.124031,54.8440367 C127.565891,55.6146789 125.098191,56 122.72093,56 C120.912145,56 119.180879,55.7559633 117.527132,55.2678899 C115.873385,54.7798165 114.413437,54.0605505 113.147287,53.1100917 C111.881137,52.159633 110.873385,50.9522936 110.124031,49.4880734 C109.374677,48.0238532 109,46.3155963 109,44.3633028 C109,41.8972477 109.452196,39.893578 110.356589,38.3522936 C111.260982,36.8110092 112.449612,35.6036697 113.922481,34.7302752 C115.395349,33.8568807 117.049096,33.2275229 118.883721,32.8422018 C120.718346,32.4568807 122.565891,32.1614679 124.426357,31.9559633 C126.028424,31.6477064 127.552972,31.4293578 129,31.3009174 C130.447028,31.1724771 131.726098,30.9541284 132.837209,30.6458716 C133.94832,30.3376147 134.826873,29.8623853 135.472868,29.2201835 C136.118863,28.5779817 136.44186,27.6146789 136.44186,26.3302752 C136.44186,25.2 136.170543,24.2752294 135.627907,23.5559633 C135.085271,22.8366972 134.413437,22.2844037 133.612403,21.8990826 C132.81137,21.5137615 131.919897,21.2568807 130.937984,21.1284404 C129.956072,21 129.02584,20.9357798 128.147287,20.9357798 C125.666667,20.9357798 123.625323,21.4495413 122.023256,22.4770642 C120.421189,23.5045872 119.516796,25.0972477 119.310078,27.2550459 L110.472868,27.2550459 C110.627907,24.6862385 111.248062,22.5541284 112.333333,20.8587156 C113.418605,19.1633028 114.801034,17.8018349 116.48062,16.7743119 C118.160207,15.746789 120.059432,15.0275229 122.178295,14.6165138 C124.297158,14.2055046 126.4677,14 128.689922,14 C130.653747,14 132.591731,14.2055046 134.503876,14.6165138 C136.416021,15.0275229 138.134367,15.6954128 139.658915,16.6201835 C141.183463,17.5449541 142.410853,18.7394495 143.341085,20.2036697 C144.271318,21.6678899 144.736434,23.453211 144.736434,25.559633 L144.736434,46.0587156 Z M135.899225,34.9614679 C134.555556,35.8348624 132.901809,36.3614679 130.937984,36.5412844 C128.97416,36.7211009 127.010336,36.9908257 125.046512,37.3504587 C124.116279,37.5045872 123.211886,37.7229358 122.333333,38.0055046 C121.45478,38.2880734 120.679587,38.6733945 120.007752,39.1614679 C119.335917,39.6495413 118.806202,40.2917431 118.418605,41.0880734 C118.031008,41.8844037 117.837209,42.8477064 117.837209,43.9779817 C117.837209,44.9541284 118.121447,45.7761468 118.689922,46.4440367 C119.258398,47.1119266 119.943152,47.6385321 120.744186,48.0238532 C121.54522,48.4091743 122.423773,48.6788991 123.379845,48.8330275 C124.335917,48.987156 125.20155,49.0642202 125.976744,49.0642202 C126.958656,49.0642202 128.018088,48.9357798 129.155039,48.6788991 C130.29199,48.4220183 131.364341,47.9853211 132.372093,47.3688073 C133.379845,46.7522936 134.219638,45.9688073 134.891473,45.0183486 C135.563307,44.0678899 135.899225,42.8990826 135.899225,41.5119266 L135.899225,34.9614679 Z" id="Shape"></path>
                <path d="M160.921739,42.1284404 C161.182609,44.6972477 162.173913,46.4954128 163.895652,47.5229358 C165.617391,48.5504587 167.678261,49.0642202 170.078261,49.0642202 C170.913043,49.0642202 171.865217,49 172.934783,48.8715596 C174.004348,48.7431193 175.008696,48.4990826 175.947826,48.1394495 C176.886957,47.7798165 177.656522,47.253211 178.256522,46.559633 C178.856522,45.866055 179.130435,44.9541284 179.078261,43.8238532 C179.026087,42.693578 178.608696,41.7688073 177.826087,41.0495413 C177.043478,40.3302752 176.03913,39.7522936 174.813043,39.3155963 C173.586957,38.8788991 172.191304,38.506422 170.626087,38.1981651 C169.06087,37.8899083 167.469565,37.5559633 165.852174,37.1963303 C164.182609,36.8366972 162.578261,36.4 161.03913,35.8862385 C159.5,35.3724771 158.117391,34.6788991 156.891304,33.8055046 C155.665217,32.9321101 154.686957,31.8146789 153.956522,30.453211 C153.226087,29.0917431 152.86087,27.4091743 152.86087,25.4055046 C152.86087,23.2477064 153.395652,21.4366972 154.465217,19.9724771 C155.534783,18.5082569 156.891304,17.3266055 158.534783,16.4275229 C160.178261,15.5284404 162.004348,14.8990826 164.013043,14.5394495 C166.021739,14.1798165 167.93913,14 169.765217,14 C171.852174,14 173.847826,14.2183486 175.752174,14.6550459 C177.656522,15.0917431 179.378261,15.7981651 180.917391,16.7743119 C182.456522,17.7504587 183.734783,19.0220183 184.752174,20.5889908 C185.769565,22.1559633 186.408696,24.0440367 186.669565,26.253211 L177.356522,26.253211 C176.93913,24.146789 175.96087,22.733945 174.421739,22.0146789 C172.882609,21.2954128 171.121739,20.9357798 169.13913,20.9357798 C168.513043,20.9357798 167.769565,20.987156 166.908696,21.0899083 C166.047826,21.1926606 165.23913,21.3853211 164.482609,21.6678899 C163.726087,21.9504587 163.086957,22.3614679 162.565217,22.9009174 C162.043478,23.440367 161.782609,24.146789 161.782609,25.0201835 C161.782609,26.0990826 162.16087,26.9724771 162.917391,27.640367 C163.673913,28.3082569 164.665217,28.8605505 165.891304,29.2972477 C167.117391,29.733945 168.513043,30.106422 170.078261,30.4146789 C171.643478,30.7229358 173.26087,31.0568807 174.930435,31.4165138 C176.547826,31.7761468 178.13913,32.212844 179.704348,32.7266055 C181.269565,33.240367 182.665217,33.933945 183.891304,34.8073394 C185.117391,35.6807339 186.108696,36.7853211 186.865217,38.1211009 C187.621739,39.4568807 188,41.1009174 188,43.053211 C188,45.4165138 187.452174,47.4201835 186.356522,49.0642202 C185.26087,50.7082569 183.83913,52.0440367 182.091304,53.0715596 C180.343478,54.0990826 178.4,54.8440367 176.26087,55.306422 C174.121739,55.7688073 172.008696,56 169.921739,56 C167.365217,56 165.004348,55.7174312 162.83913,55.1522936 C160.673913,54.587156 158.795652,53.7266055 157.204348,52.5706422 C155.613043,51.4146789 154.36087,49.9761468 153.447826,48.2550459 C152.534783,46.533945 152.052174,44.4917431 152,42.1284404 L160.921739,42.1284404 Z" id="Path"></path>
                <path d="M230,54.9190207 L221.365639,54.9190207 L221.365639,49.3596987 L221.211454,49.3596987 C220.132159,51.3672316 218.526065,52.9758318 216.393172,54.1854991 C214.260279,55.3951664 212.08884,56 209.878855,56 C204.636564,56 200.846182,54.7002511 198.507709,52.1007533 C196.169236,49.5012555 195,45.5762712 195,40.3258004 L195,15 L203.788546,15 L203.788546,39.4764595 C203.788546,42.9767734 204.456681,45.4475832 205.792952,46.8888889 C207.129222,48.3301946 209.00514,49.0508475 211.420705,49.0508475 C213.270925,49.0508475 214.812775,48.7677338 216.046256,48.2015066 C217.279736,47.6352793 218.281938,46.8760201 219.052863,45.9237288 C219.823789,44.9714375 220.376285,43.8261142 220.710352,42.4877589 C221.04442,41.1494036 221.211454,39.7080979 221.211454,38.1638418 L221.211454,15 L230,15 L230,54.9190207 Z" id="Path"></path>
                <path d="M239,15.0809793 L247.475248,15.0809793 L247.475248,22.8022599 L247.633663,22.8022599 C247.89769,21.7212806 248.412541,20.6660389 249.178218,19.6365348 C249.943894,18.6070308 250.867987,17.6676083 251.950495,16.8182674 C253.033003,15.9689266 254.234323,15.2868801 255.554455,14.7721281 C256.874587,14.257376 258.221122,14 259.594059,14 C260.650165,14 261.376238,14.0257376 261.772277,14.0772128 C262.168317,14.128688 262.577558,14.1801632 263,14.2316384 L263,22.7250471 C262.366337,22.6220967 261.719472,22.5320151 261.059406,22.4548023 C260.39934,22.3775895 259.752475,22.3389831 259.118812,22.3389831 C257.587459,22.3389831 256.148515,22.6349655 254.80198,23.2269303 C253.455446,23.8188952 252.280528,24.6939736 251.277228,25.8521657 C250.273927,27.0103578 249.481848,28.4387947 248.90099,30.1374765 C248.320132,31.8361582 248.029703,33.7922159 248.029703,36.0056497 L248.029703,55 L239,55 L239,15.0809793 Z" id="Path"></path>
                <path d="M267,0 L276,0 L276,8.31932773 L267,8.31932773 L267,0 Z M267,15.17507 L276,15.17507 L276,55 L267,55 L267,15.17507 Z" id="Shape"></path>
                <path d="M285,15.0809793 L293.325991,15.0809793 L293.325991,20.9491525 L293.480176,21.1035782 C294.816446,18.8901444 296.563877,17.1528562 298.722467,15.8917137 C300.881057,14.6305712 303.270925,14 305.89207,14 C310.260646,14 313.704112,15.1324545 316.222467,17.3973635 C318.740822,19.6622724 320,23.0596359 320,27.5894539 L320,55 L311.211454,55 L311.211454,29.905838 C311.108664,26.7658506 310.440529,24.4880728 309.207048,23.0725047 C307.973568,21.6569366 306.046256,20.9491525 303.42511,20.9491525 C301.934655,20.9491525 300.598385,21.2193974 299.4163,21.759887 C298.234214,22.3003766 297.232012,23.0467671 296.409692,23.9990584 C295.587372,24.9513497 294.944934,26.0709353 294.482379,27.3578154 C294.019824,28.6446955 293.788546,30.0087884 293.788546,31.4500942 L293.788546,55 L285,55 L285,15.0809793 Z" id="Path"></path>
                <path d="M367,53.0326087 C367,59.0733696 365.307157,63.578125 361.921471,66.546875 C358.535785,69.515625 353.664016,71 347.306163,71 C345.290258,71 343.261431,70.7934783 341.219682,70.3804348 C339.177932,69.9673913 337.317097,69.2703804 335.637177,68.2894022 C333.957256,67.3084239 332.548708,66.017663 331.411531,64.4171196 C330.274354,62.8165761 329.602386,60.8546196 329.395626,58.53125 L338.234592,58.53125 C338.493042,59.7703804 338.932406,60.7771739 339.552684,61.5516304 C340.172962,62.326087 340.909543,62.9327446 341.762425,63.3716033 C342.615308,63.810462 343.558648,64.0944293 344.592445,64.2235054 C345.626243,64.3525815 346.71173,64.4171196 347.848907,64.4171196 C351.415507,64.4171196 354.025845,63.5394022 355.67992,61.7839674 C357.333996,60.0285326 358.161034,57.4986413 358.161034,54.1942935 L358.161034,48.076087 L358.005964,48.076087 C356.765408,50.2961957 355.072565,52.0258152 352.927435,53.2649457 C350.782306,54.5040761 348.469185,55.1236413 345.988072,55.1236413 C342.7833,55.1236413 340.05666,54.5686141 337.808151,53.4585598 C335.559642,52.3485054 333.698807,50.8254076 332.225646,48.8892663 C330.752485,46.953125 329.67992,44.7201087 329.007952,42.1902174 C328.335984,39.6603261 328,36.9497283 328,34.0584239 C328,31.3736413 328.413519,28.8179348 329.240557,26.3913043 C330.067594,23.9646739 331.256461,21.8349185 332.807157,20.002038 C334.357853,18.1691576 336.257455,16.7105978 338.505964,15.6263587 C340.754473,14.5421196 343.300199,14 346.143141,14 C348.675944,14 351.001988,14.529212 353.121272,15.5876359 C355.240557,16.6460598 356.868787,18.3111413 358.005964,20.5828804 L358.161034,20.5828804 L358.161034,15.0842391 L367,15.0842391 L367,53.0326087 Z M347.383698,48.1535326 C349.347913,48.1535326 351.014911,47.7533967 352.384692,46.953125 C353.754473,46.1528533 354.865805,45.0944293 355.718688,43.7778533 C356.571571,42.4612772 357.191849,40.9639946 357.579523,39.2860054 C357.967197,37.6080163 358.161034,35.9171196 358.161034,34.2133152 C358.161034,32.5095109 357.954274,30.857337 357.540755,29.2567935 C357.127237,27.65625 356.494036,26.236413 355.641153,24.9972826 C354.78827,23.7581522 353.676938,22.7771739 352.307157,22.0543478 C350.937376,21.3315217 349.296223,20.9701087 347.383698,20.9701087 C345.419483,20.9701087 343.765408,21.3831522 342.421471,22.2092391 C341.077535,23.0353261 339.992048,24.1066576 339.16501,25.4232337 C338.337972,26.7398098 337.743539,28.2370924 337.38171,29.9150815 C337.019881,31.5930707 336.838966,33.2581522 336.838966,34.9103261 C336.838966,36.5625 337.045726,38.1759511 337.459245,39.7506793 C337.872763,41.3254076 338.505964,42.732337 339.358847,43.9714674 C340.21173,45.2105978 341.297217,46.2173913 342.615308,46.9918478 C343.9334,47.7663043 345.522863,48.1535326 347.383698,48.1535326 Z" id="Shape"></path>
            </g>
            <g id="Main-Streets" transform="translate(310.4269, 155.4481)" fill="#002940" fill-rule="nonzero">
                <polygon id="Path" points="0 2 13.7759784 2 29.1956815 45.0602241 29.3522267 45.0602241 44.3805668 2 58 2 58 57 48.6855601 57 48.6855601 14.5560224 48.5290148 14.5560224 33.0310391 57 24.9689609 57 9.47098516 14.5560224 9.31443995 14.5560224 9.31443995 57 0 57"></polygon>
                <path d="M101.736434,48.0587156 C101.736434,49.1376147 101.878553,49.9082569 102.162791,50.3706422 C102.447028,50.8330275 103.002584,51.0642202 103.829457,51.0642202 C104.087855,51.0642202 104.397933,51.0642202 104.75969,51.0642202 C105.121447,51.0642202 105.534884,51.012844 106,50.9100917 L106,56.9981651 C105.689922,57.1009174 105.289406,57.2165138 104.79845,57.3449541 C104.307494,57.4733945 103.803618,57.5889908 103.286822,57.6917431 C102.770026,57.7944954 102.25323,57.8715596 101.736434,57.9229358 C101.219638,57.9743119 100.780362,58 100.418605,58 C98.6098191,58 97.1111111,57.640367 95.9224806,56.9211009 C94.7338501,56.2018349 93.9586563,54.9431193 93.5968992,53.1449541 C91.8397933,54.840367 89.6821705,56.0733945 87.124031,56.8440367 C84.5658915,57.6146789 82.0981912,58 79.7209302,58 C77.9121447,58 76.1808786,57.7559633 74.5271318,57.2678899 C72.873385,56.7798165 71.4134367,56.0605505 70.1472868,55.1100917 C68.881137,54.159633 67.873385,52.9522936 67.124031,51.4880734 C66.374677,50.0238532 66,48.3155963 66,46.3633028 C66,43.8972477 66.4521964,41.893578 67.3565891,40.3522936 C68.2609819,38.8110092 69.4496124,37.6036697 70.9224806,36.7302752 C72.3953488,35.8568807 74.0490956,35.2275229 75.8837209,34.8422018 C77.7183463,34.4568807 79.5658915,34.1614679 81.4263566,33.9559633 C83.0284238,33.6477064 84.5529716,33.4293578 86,33.3009174 C87.4470284,33.1724771 88.7260982,32.9541284 89.8372093,32.6458716 C90.9483204,32.3376147 91.8268734,31.8623853 92.4728682,31.2201835 C93.118863,30.5779817 93.4418605,29.6146789 93.4418605,28.3302752 C93.4418605,27.2 93.1705426,26.2752294 92.627907,25.5559633 C92.0852713,24.8366972 91.4134367,24.2844037 90.6124031,23.8990826 C89.8113695,23.5137615 88.9198966,23.2568807 87.9379845,23.1284404 C86.9560724,23 86.0258398,22.9357798 85.1472868,22.9357798 C82.6666667,22.9357798 80.625323,23.4495413 79.0232558,24.4770642 C77.4211886,25.5045872 76.5167959,27.0972477 76.3100775,29.2550459 L67.4728682,29.2550459 C67.627907,26.6862385 68.248062,24.5541284 69.3333333,22.8587156 C70.4186047,21.1633028 71.8010336,19.8018349 73.4806202,18.7743119 C75.1602067,17.746789 77.0594315,17.0275229 79.1782946,16.6165138 C81.2971576,16.2055046 83.4677003,16 85.6899225,16 C87.6537468,16 89.5917313,16.2055046 91.503876,16.6165138 C93.4160207,17.0275229 95.1343669,17.6954128 96.6589147,18.6201835 C98.1834625,19.5449541 99.4108527,20.7394495 100.341085,22.2036697 C101.271318,23.6678899 101.736434,25.453211 101.736434,27.559633 L101.736434,48.0587156 Z M92.8992248,36.9614679 C91.5555556,37.8348624 89.9018088,38.3614679 87.9379845,38.5412844 C85.9741602,38.7211009 84.0103359,38.9908257 82.0465116,39.3504587 C81.1162791,39.5045872 80.2118863,39.7229358 79.3333333,40.0055046 C78.4547804,40.2880734 77.6795866,40.6733945 77.0077519,41.1614679 C76.3359173,41.6495413 75.8062016,42.2917431 75.4186047,43.0880734 C75.0310078,43.8844037 74.8372093,44.8477064 74.8372093,45.9779817 C74.8372093,46.9541284 75.121447,47.7761468 75.6899225,48.4440367 C76.2583979,49.1119266 76.9431525,49.6385321 77.744186,50.0238532 C78.5452196,50.4091743 79.4237726,50.6788991 80.379845,50.8330275 C81.3359173,50.987156 82.2015504,51.0642202 82.9767442,51.0642202 C83.9586563,51.0642202 85.0180879,50.9357798 86.1550388,50.6788991 C87.2919897,50.4220183 88.3643411,49.9853211 89.372093,49.3688073 C90.379845,48.7522936 91.2196382,47.9688073 91.8914729,47.0183486 C92.5633075,46.0678899 92.8992248,44.8990826 92.8992248,43.5119266 L92.8992248,36.9614679 Z" id="Shape"></path>
                <path d="M112,2 L121,2 L121,10.3193277 L112,10.3193277 L112,2 Z M112,17.17507 L121,17.17507 L121,57 L112,57 L112,17.17507 Z" id="Shape"></path>
                <path d="M130,17.0809793 L138.325991,17.0809793 L138.325991,22.9491525 L138.480176,23.1035782 C139.816446,20.8901444 141.563877,19.1528562 143.722467,17.8917137 C145.881057,16.6305712 148.270925,16 150.89207,16 C155.260646,16 158.704112,17.1324545 161.222467,19.3973635 C163.740822,21.6622724 165,25.0596359 165,29.5894539 L165,57 L156.211454,57 L156.211454,31.905838 C156.108664,28.7658506 155.440529,26.4880728 154.207048,25.0725047 C152.973568,23.6569366 151.046256,22.9491525 148.42511,22.9491525 C146.934655,22.9491525 145.598385,23.2193974 144.4163,23.759887 C143.234214,24.3003766 142.232012,25.0467671 141.409692,25.9990584 C140.587372,26.9513497 139.944934,28.0709353 139.482379,29.3578154 C139.019824,30.6446955 138.788546,32.0087884 138.788546,33.4500942 L138.788546,57 L130,57 L130,17.0809793 Z" id="Path"></path>
                <path d="M203.664948,38.2272727 C203.664948,40.3467023 204.025773,42.1559715 204.747423,43.6550802 C205.469072,45.1541889 206.474227,46.3819073 207.762887,47.3382353 C209.051546,48.2945633 210.533505,48.9924242 212.208763,49.4318182 C213.884021,49.8712121 215.701031,50.0909091 217.659794,50.0909091 C219.773196,50.0909091 221.57732,49.8453654 223.072165,49.3542781 C224.56701,48.8631907 225.778351,48.2299465 226.706186,47.4545455 C227.634021,46.6791444 228.304124,45.7874332 228.716495,44.7794118 C229.128866,43.7713904 229.335052,42.7504456 229.335052,41.7165775 C229.335052,39.597148 228.858247,38.0334225 227.904639,37.0254011 C226.951031,36.0173797 225.907216,35.3065954 224.773196,34.8930481 C222.814433,34.1693405 220.533505,33.4844029 217.930412,32.8382353 C215.32732,32.1920677 212.118557,31.3520499 208.304124,30.3181818 C205.93299,29.697861 203.96134,28.8836898 202.389175,27.8756684 C200.81701,26.8676471 199.56701,25.7433155 198.639175,24.5026738 C197.71134,23.2620321 197.054124,21.9438503 196.667526,20.5481283 C196.280928,19.1524064 196.087629,17.7308378 196.087629,16.2834225 C196.087629,13.4919786 196.667526,11.0753119 197.82732,9.03342246 C198.987113,6.99153298 200.520619,5.29857398 202.427835,3.95454545 C204.335052,2.61051693 206.5,1.61541889 208.92268,0.969251337 C211.345361,0.323083779 213.793814,0 216.268041,0 C219.154639,0 221.873711,0.374777184 224.425258,1.12433155 C226.976804,1.87388592 229.219072,2.99821747 231.152062,4.4973262 C233.085052,5.99643494 234.618557,7.84447415 235.752577,10.0414439 C236.886598,12.2384135 237.453608,14.7843137 237.453608,17.6791444 L227.78866,17.6791444 C227.530928,14.1122995 226.319588,11.592246 224.154639,10.118984 C221.989691,8.64572193 219.231959,7.90909091 215.881443,7.90909091 C214.747423,7.90909091 213.587629,8.02540107 212.402062,8.25802139 C211.216495,8.49064171 210.134021,8.87834225 209.154639,9.42112299 C208.175258,9.96390374 207.363402,10.7005348 206.719072,11.631016 C206.074742,12.5614973 205.752577,13.7245989 205.752577,15.1203209 C205.752577,17.0846702 206.358247,18.622549 207.569588,19.7339572 C208.780928,20.8453654 210.365979,21.6853832 212.324742,22.2540107 C212.530928,22.3057041 213.342784,22.5254011 214.760309,22.9131016 C216.177835,23.3008021 217.762887,23.7272727 219.515464,24.1925134 C221.268041,24.657754 222.981959,25.1100713 224.657216,25.5494652 C226.332474,25.9888592 227.530928,26.311943 228.252577,26.5187166 C230.056701,27.087344 231.628866,27.8627451 232.969072,28.8449198 C234.309278,29.8270945 235.430412,30.951426 236.332474,32.2179144 C237.234536,33.4844029 237.904639,34.8413547 238.342784,36.2887701 C238.780928,37.7361854 239,39.1836007 239,40.631016 C239,43.7326203 238.368557,46.3819073 237.10567,48.578877 C235.842784,50.7758467 234.180412,52.5721925 232.118557,53.9679144 C230.056701,55.3636364 227.71134,56.3845811 225.082474,57.0307487 C222.453608,57.6769162 219.773196,58 217.041237,58 C213.896907,58 210.93299,57.6122995 208.149485,56.8368984 C205.365979,56.0614973 202.943299,54.872549 200.881443,53.2700535 C198.819588,51.6675579 197.170103,49.6127451 195.93299,47.105615 C194.695876,44.5984848 194.051546,41.6390374 194,38.2272727 L203.664948,38.2272727 Z" id="Path"></path>
                <path d="M242,16.1344165 L248.811881,16.1344165 L248.811881,4 L257.841584,4 L257.841584,16.1344165 L266,16.1344165 L266,22.788774 L257.841584,22.788774 L257.841584,44.3958641 C257.841584,45.3353028 257.881188,46.1442639 257.960396,46.8227474 C258.039604,47.5012309 258.224422,48.0753323 258.514851,48.5450517 C258.805281,49.014771 259.240924,49.3670606 259.821782,49.6019202 C260.40264,49.8367799 261.194719,49.9542097 262.19802,49.9542097 C262.831683,49.9542097 263.465347,49.941162 264.09901,49.9150665 C264.732673,49.888971 265.366337,49.7976366 266,49.6410635 L266,56.5302806 C264.9967,56.6346627 264.019802,56.7390448 263.069307,56.8434269 C262.118812,56.947809 261.141914,57 260.138614,57 C257.762376,57 255.848185,56.7781881 254.39604,56.3345643 C252.943894,55.8909404 251.808581,55.2385524 250.990099,54.3774003 C250.171617,53.5162482 249.617162,52.4332841 249.326733,51.1285081 C249.036304,49.8237322 248.864686,48.3362875 248.811881,46.6661743 L248.811881,22.788774 L242,22.788774 L242,16.1344165 Z" id="Path"></path>
                <path d="M272,17.0809793 L280.475248,17.0809793 L280.475248,24.8022599 L280.633663,24.8022599 C280.89769,23.7212806 281.412541,22.6660389 282.178218,21.6365348 C282.943894,20.6070308 283.867987,19.6676083 284.950495,18.8182674 C286.033003,17.9689266 287.234323,17.2868801 288.554455,16.7721281 C289.874587,16.257376 291.221122,16 292.594059,16 C293.650165,16 294.376238,16.0257376 294.772277,16.0772128 C295.168317,16.128688 295.577558,16.1801632 296,16.2316384 L296,24.7250471 C295.366337,24.6220967 294.719472,24.5320151 294.059406,24.4548023 C293.39934,24.3775895 292.752475,24.3389831 292.118812,24.3389831 C290.587459,24.3389831 289.148515,24.6349655 287.80198,25.2269303 C286.455446,25.8188952 285.280528,26.6939736 284.277228,27.8521657 C283.273927,29.0103578 282.481848,30.4387947 281.90099,32.1374765 C281.320132,33.8361582 281.029703,35.7922159 281.029703,38.0056497 L281.029703,57 L272,57 L272,17.0809793 Z" id="Path"></path>
                <path d="M324.862231,33.493578 C324.757451,32.106422 324.456209,30.7706422 323.958505,29.4862385 C323.460801,28.2018349 322.779733,27.0844037 321.9153,26.133945 C321.050867,25.1834862 320.003069,24.412844 318.771907,23.8220183 C317.540745,23.2311927 316.165511,22.9357798 314.646204,22.9357798 C313.074508,22.9357798 311.646884,23.2055046 310.363332,23.7449541 C309.07978,24.2844037 307.979592,25.0293578 307.062769,25.9798165 C306.145947,26.9302752 305.412488,28.0477064 304.862395,29.3321101 C304.312301,30.6165138 304.011059,32.0036697 303.958669,33.493578 L324.862231,33.493578 Z M303.958669,39.2733945 C303.958669,40.8146789 304.181326,42.3045872 304.62664,43.7431193 C305.071954,45.1816514 305.739925,46.440367 306.630553,47.5192661 C307.521181,48.5981651 308.647563,49.4587156 310.0097,50.1009174 C311.371837,50.7431193 312.995923,51.0642202 314.881959,51.0642202 C317.501453,51.0642202 319.610145,50.5119266 321.208037,49.4073394 C322.805928,48.3027523 323.997798,46.6458716 324.783646,44.4366972 L333.270806,44.4366972 C332.799297,46.5944954 331.987254,48.5211009 330.834677,50.2165138 C329.682099,51.9119266 328.293768,53.3376147 326.669681,54.493578 C325.045595,55.6495413 323.225047,56.5229358 321.208037,57.1137615 C319.191026,57.7045872 317.082334,58 314.881959,58 C311.686176,58 308.857123,57.4862385 306.394799,56.4587156 C303.932474,55.4311927 301.849977,53.9926606 300.147306,52.1431193 C298.444634,50.293578 297.161082,48.0844037 296.296649,45.5155963 C295.432216,42.946789 295,40.1211009 295,37.0385321 C295,34.212844 295.458411,31.5284404 296.375234,28.9853211 C297.292057,26.4422018 298.601804,24.2073394 300.304475,22.2807339 C302.007146,20.3541284 304.063449,18.8256881 306.473383,17.6954128 C308.883318,16.5651376 311.607591,16 314.646204,16 C317.841987,16 320.710333,16.6550459 323.251242,17.9651376 C325.792151,19.2752294 327.900843,21.0091743 329.57732,23.1669725 C331.253796,25.3247706 332.47186,27.8036697 333.231514,30.6036697 C333.991167,33.4036697 334.187629,36.293578 333.8209,39.2733945 L303.958669,39.2733945 Z" id="Shape"></path>
                <path d="M367.862231,33.493578 C367.757451,32.106422 367.456209,30.7706422 366.958505,29.4862385 C366.460801,28.2018349 365.779733,27.0844037 364.9153,26.133945 C364.050867,25.1834862 363.003069,24.412844 361.771907,23.8220183 C360.540745,23.2311927 359.165511,22.9357798 357.646204,22.9357798 C356.074508,22.9357798 354.646884,23.2055046 353.363332,23.7449541 C352.07978,24.2844037 350.979592,25.0293578 350.062769,25.9798165 C349.145947,26.9302752 348.412488,28.0477064 347.862395,29.3321101 C347.312301,30.6165138 347.011059,32.0036697 346.958669,33.493578 L367.862231,33.493578 Z M346.958669,39.2733945 C346.958669,40.8146789 347.181326,42.3045872 347.62664,43.7431193 C348.071954,45.1816514 348.739925,46.440367 349.630553,47.5192661 C350.521181,48.5981651 351.647563,49.4587156 353.0097,50.1009174 C354.371837,50.7431193 355.995923,51.0642202 357.881959,51.0642202 C360.501453,51.0642202 362.610145,50.5119266 364.208037,49.4073394 C365.805928,48.3027523 366.997798,46.6458716 367.783646,44.4366972 L376.270806,44.4366972 C375.799297,46.5944954 374.987254,48.5211009 373.834677,50.2165138 C372.682099,51.9119266 371.293768,53.3376147 369.669681,54.493578 C368.045595,55.6495413 366.225047,56.5229358 364.208037,57.1137615 C362.191026,57.7045872 360.082334,58 357.881959,58 C354.686176,58 351.857123,57.4862385 349.394799,56.4587156 C346.932474,55.4311927 344.849977,53.9926606 343.147306,52.1431193 C341.444634,50.293578 340.161082,48.0844037 339.296649,45.5155963 C338.432216,42.946789 338,40.1211009 338,37.0385321 C338,34.212844 338.458411,31.5284404 339.375234,28.9853211 C340.292057,26.4422018 341.601804,24.2073394 343.304475,22.2807339 C345.007146,20.3541284 347.063449,18.8256881 349.473383,17.6954128 C351.883318,16.5651376 354.607591,16 357.646204,16 C360.841987,16 363.710333,16.6550459 366.251242,17.9651376 C368.792151,19.2752294 370.900843,21.0091743 372.57732,23.1669725 C374.253796,25.3247706 375.47186,27.8036697 376.231514,30.6036697 C376.991167,33.4036697 377.187629,36.293578 376.8209,39.2733945 L346.958669,39.2733945 Z" id="Shape"></path>
                <path d="M379,16.1344165 L385.811881,16.1344165 L385.811881,4 L394.841584,4 L394.841584,16.1344165 L403,16.1344165 L403,22.788774 L394.841584,22.788774 L394.841584,44.3958641 C394.841584,45.3353028 394.881188,46.1442639 394.960396,46.8227474 C395.039604,47.5012309 395.224422,48.0753323 395.514851,48.5450517 C395.805281,49.014771 396.240924,49.3670606 396.821782,49.6019202 C397.40264,49.8367799 398.194719,49.9542097 399.19802,49.9542097 C399.831683,49.9542097 400.465347,49.941162 401.09901,49.9150665 C401.732673,49.888971 402.366337,49.7976366 403,49.6410635 L403,56.5302806 C401.9967,56.6346627 401.019802,56.7390448 400.069307,56.8434269 C399.118812,56.947809 398.141914,57 397.138614,57 C394.762376,57 392.848185,56.7781881 391.39604,56.3345643 C389.943894,55.8909404 388.808581,55.2385524 387.990099,54.3774003 C387.171617,53.5162482 386.617162,52.4332841 386.326733,51.1285081 C386.036304,49.8237322 385.864686,48.3362875 385.811881,46.6661743 L385.811881,22.788774 L379,22.788774 L379,16.1344165 Z" id="Path"></path>
                <path d="M415.921739,44.1284404 C416.182609,46.6972477 417.173913,48.4954128 418.895652,49.5229358 C420.617391,50.5504587 422.678261,51.0642202 425.078261,51.0642202 C425.913043,51.0642202 426.865217,51 427.934783,50.8715596 C429.004348,50.7431193 430.008696,50.4990826 430.947826,50.1394495 C431.886957,49.7798165 432.656522,49.253211 433.256522,48.559633 C433.856522,47.866055 434.130435,46.9541284 434.078261,45.8238532 C434.026087,44.693578 433.608696,43.7688073 432.826087,43.0495413 C432.043478,42.3302752 431.03913,41.7522936 429.813043,41.3155963 C428.586957,40.8788991 427.191304,40.506422 425.626087,40.1981651 C424.06087,39.8899083 422.469565,39.5559633 420.852174,39.1963303 C419.182609,38.8366972 417.578261,38.4 416.03913,37.8862385 C414.5,37.3724771 413.117391,36.6788991 411.891304,35.8055046 C410.665217,34.9321101 409.686957,33.8146789 408.956522,32.453211 C408.226087,31.0917431 407.86087,29.4091743 407.86087,27.4055046 C407.86087,25.2477064 408.395652,23.4366972 409.465217,21.9724771 C410.534783,20.5082569 411.891304,19.3266055 413.534783,18.4275229 C415.178261,17.5284404 417.004348,16.8990826 419.013043,16.5394495 C421.021739,16.1798165 422.93913,16 424.765217,16 C426.852174,16 428.847826,16.2183486 430.752174,16.6550459 C432.656522,17.0917431 434.378261,17.7981651 435.917391,18.7743119 C437.456522,19.7504587 438.734783,21.0220183 439.752174,22.5889908 C440.769565,24.1559633 441.408696,26.0440367 441.669565,28.253211 L432.356522,28.253211 C431.93913,26.146789 430.96087,24.733945 429.421739,24.0146789 C427.882609,23.2954128 426.121739,22.9357798 424.13913,22.9357798 C423.513043,22.9357798 422.769565,22.987156 421.908696,23.0899083 C421.047826,23.1926606 420.23913,23.3853211 419.482609,23.6678899 C418.726087,23.9504587 418.086957,24.3614679 417.565217,24.9009174 C417.043478,25.440367 416.782609,26.146789 416.782609,27.0201835 C416.782609,28.0990826 417.16087,28.9724771 417.917391,29.640367 C418.673913,30.3082569 419.665217,30.8605505 420.891304,31.2972477 C422.117391,31.733945 423.513043,32.106422 425.078261,32.4146789 C426.643478,32.7229358 428.26087,33.0568807 429.930435,33.4165138 C431.547826,33.7761468 433.13913,34.212844 434.704348,34.7266055 C436.269565,35.240367 437.665217,35.933945 438.891304,36.8073394 C440.117391,37.6807339 441.108696,38.7853211 441.865217,40.1211009 C442.621739,41.4568807 443,43.1009174 443,45.053211 C443,47.4165138 442.452174,49.4201835 441.356522,51.0642202 C440.26087,52.7082569 438.83913,54.0440367 437.091304,55.0715596 C435.343478,56.0990826 433.4,56.8440367 431.26087,57.306422 C429.121739,57.7688073 427.008696,58 424.921739,58 C422.365217,58 420.004348,57.7174312 417.83913,57.1522936 C415.673913,56.587156 413.795652,55.7266055 412.204348,54.5706422 C410.613043,53.4146789 409.36087,51.9761468 408.447826,50.2550459 C407.534783,48.533945 407.052174,46.4917431 407,44.1284404 L415.921739,44.1284404 Z" id="Path"></path>
            </g>
            <path d="M119.111963,169.121364 L140.670915,169.121364 L140.670915,147.455466 L119.111963,147.455466 L119.111963,169.121364 Z M119.111963,107.505063 L140.670915,107.505063 L140.670915,85.8391649 L119.111963,85.8391649 L119.111963,107.505063 Z M148.848029,138.313214 L170.40698,138.313214 L170.40698,116.647315 L148.848029,116.647315 L148.848029,138.313214 Z M107.4269,213.4481 L181.4269,213.4481 L181.4269,47.4481 L107.4269,47.4481 L107.4269,213.4481 Z" id="Fill-280" fill="#002940"></path>
            <polygon id="Fill-281" fill="#002940" points="197.4269 84.4481 197.4269 213.4481 224.13388 213.4481 224.13388 176.944163 245.692832 176.944163 245.692832 213.4481 271.4269 213.4481 271.4269 84.4481"></polygon>
            <path d="M29.127149,169.261433 L50.6861005,169.261433 L50.6861005,147.663997 L29.127149,147.663997 L29.127149,169.261433 Z M58.8632149,169.261433 L80.4221664,169.261433 L80.4221664,147.663997 L58.8632149,147.663997 L58.8632149,169.261433 Z M17.4269,213.4481 L91.4269,213.4481 L91.4269,117.4481 L17.4269,117.4481 L17.4269,213.4481 Z" id="Fill-282" fill="#002940"></path>
            <polygon id="Stroke-283" fill="#00ADF2" fill-rule="nonzero" points="124.328744 -10.3938697 128.631407 -2.75520188 213.33 147.613 283.354062 53.9152648 292.347938 60.6367352 217.164938 161.237735 212.006 168.140816 207.776593 160.632202 123.15 10.393 4.54898934 174.384938 -4.54898934 167.805062 119.191011 -3.28993799"></polygon>
        </g>
    </g>
</svg>