<?xml version="1.0" encoding="UTF-8"?>
<svg width="589px" height="98px" viewBox="0 0 589 98" version="1.1" xmlns="http://www.w3.org/2000/svg" xmlns:xlink="http://www.w3.org/1999/xlink">
    <title>Combined Shape</title>
    <g id="Page-1" stroke="none" stroke-width="1" fill="none" fill-rule="evenodd">
        <path d="M236.633,25.519097 L219.068,25.519097 L219.068,73.169297 L223.902,73.169297 L223.902,56.643497 L236.633,56.643497 C246.494,56.643497 253.115,50.457297 253.115,41.244097 C253.115,32.030797 246.494,25.510297 236.633,25.510297 L236.633,25.519097 Z M236.633,52.155697 L223.902,52.155697 L223.902,30.006897 L236.633,30.006897 C243.606,30.006897 248.29,34.521097 248.29,41.252897 C248.29,47.984597 243.606,52.155697 236.633,52.155697 Z M264.79,51.055697 L291.715,51.055697 L291.715,46.559097 L264.79,46.559097 L264.79,30.006897 L293.132,30.006897 L293.132,25.518997 L259.957,25.518997 L259.957,73.169297 L293.801,73.169297 L293.801,68.681397 L264.79,68.681397 L264.79,51.055697 Z M336.618,67.220697 C336.618,68.725397 335.966,69.693397 334.954,69.693397 C334.073,69.693397 333.122,68.716597 332.453,67.123897 L324.423,49.251797 L315.716,29.690097 C314.175,26.390197 311.666,24.507097 308.831,24.507097 C304.948,24.507097 302.333,27.305397 302.333,31.476397 L302.333,73.178097 L307.166,73.178097 L307.166,31.476397 C307.166,29.971697 307.818,29.003697 308.831,29.003697 C309.711,29.003697 310.662,29.980497 311.331,31.573197 L319.361,49.445397 L328.068,68.936597 C329.627,72.271697 332.136,74.189997 334.954,74.189997 C338.836,74.189997 341.451,71.391697 341.451,67.220697 L341.451,25.518997 L336.618,25.518997 L336.618,67.220697 Z M399.887,67.220697 C399.887,68.725397 399.236,69.693397 398.223,69.693397 C397.343,69.693397 396.392,68.716597 395.723,67.123897 L387.693,49.251797 L378.985,29.690097 C377.444,26.390197 374.935,24.507097 372.1,24.507097 C368.217,24.507097 365.602,27.305397 365.602,31.476397 L365.602,73.178097 L370.436,73.178097 L370.436,31.476397 C370.436,29.971697 371.088,29.003697 372.1,29.003697 C372.981,29.003697 373.94,29.980497 374.601,31.573197 L382.63,49.445397 L391.338,68.936597 C392.896,72.271697 395.406,74.189997 398.223,74.189997 C402.106,74.189997 404.721,71.391697 404.721,67.220697 L404.721,25.518997 L399.887,25.518997 L399.887,67.220697 Z M505.137,39.906497 C505.137,31.036397 498.824,25.518997 488.655,25.518997 L470.077,25.518997 L470.077,73.169297 L474.911,73.169297 L474.911,53.950797 L488.655,53.950797 C489.553,53.950797 490.407,53.889197 491.226,53.827597 L501.351,73.054897 L501.413,73.169297 L507.118,73.169297 L495.998,52.771597 C501.817,50.712497 505.146,46.039897 505.146,39.897697 L505.137,39.906497 Z M500.303,39.906497 C500.303,45.802297 495.839,49.462997 488.646,49.462997 L474.902,49.462997 L474.902,30.015697 L488.646,30.015697 C495.83,30.015697 500.303,33.808297 500.303,39.906497 Z M508.333,30.006897 L523.64,30.006897 L523.64,73.169297 L528.48,73.169297 L528.48,30.006897 L543.87,30.006897 L543.87,25.518997 L508.333,25.518997 L508.333,30.006897 Z M584.18,25.518997 L584.18,46.559097 L554.25,46.559097 L554.25,25.518997 L549.42,25.518997 L549.42,73.169297 L554.25,73.169297 L554.25,51.055697 L584.18,51.055697 L584.18,73.169297 L589,73.169297 L589,25.518997 L584.18,25.518997 Z M186.993,74.365997 C173.188,74.365997 161.962,63.137597 161.962,49.348497 C161.962,35.559397 173.197,24.331097 186.993,24.331097 C200.79,24.331097 212.025,35.559397 212.025,49.348497 C212.025,63.137597 200.79,74.365997 186.993,74.365997 Z M186.993,29.311697 C175.944,29.311697 166.945,38.296097 166.945,49.348497 C166.945,60.400897 175.935,69.385397 186.993,69.385397 C198.052,69.385397 207.041,60.400897 207.041,49.348497 C207.041,38.296097 198.052,29.311697 186.993,29.311697 Z M437.527,74.365997 C423.721,74.365997 412.495,63.137597 412.495,49.348497 C412.495,35.559397 423.73,24.331097 437.527,24.331097 C451.323,24.331097 462.558,35.559397 462.558,49.348497 C462.558,63.137597 451.323,74.365997 437.527,74.365997 Z M437.527,29.311697 C426.477,29.311697 417.479,38.296097 417.479,49.348497 C417.479,60.400897 426.468,69.385397 437.527,69.385397 C448.585,69.385397 457.575,60.400897 457.575,49.348497 C457.575,38.296097 448.585,29.311697 437.527,29.311697 Z M50.2674617,0.415874863 C50.5653906,0.416356059 50.7724375,0.418521437 50.919,0.422371 C51.3148333,0.422371 51.3565,0.672916833 51.3593935,0.756432111 L51.359,0.783157 C51.359,2.393497 50.135,3.634247 48.436,3.704647 C47.74,3.731047 47.054,3.775047 46.508,3.801447 C22.542,4.822207 3.357,23.961497 3.357,48.802997 C3.357,73.644497 23.581,93.857297 48.436,93.857297 C73.291,93.857297 93.515,73.618097 93.515,48.732597 C93.515,47.095797 94.748,45.837497 96.482,45.837497 L96.491,45.846297 C98.129,45.846297 99.458,47.104597 99.458,48.741397 L99.458,96.136397 L96.13,96.136397 L96.13,57.101097 C92.159,79.839397 72.287,97.183597 48.445,97.183597 C21.749,97.183597 0.037,74.964397 0.037,48.802997 C0.037,22.641497 20.922,1.293537 46.904,0.475169 L48.603,0.422371 C49.184875,0.418521437 49.6367852,0.416356059 49.9891282,0.415874863 Z M60.357,0.017578 L60.357,0.800747 C60.357,7.365307 55.013,12.715497 48.436,12.715497 C28.52,12.715497 12.32,28.906897 12.32,48.811797 C12.32,68.716597 28.511,84.907997 48.436,84.907997 C68.361,84.907997 84.561,68.681397 84.561,48.732597 C84.561,41.868797 89.571,36.888197 96.483,36.888197 L96.483,36.905797 C103.051,36.905797 108.404,42.247197 108.404,48.820597 L108.404,96.145197 L105.076,96.145197 L105.076,48.820597 C105.076,44.077497 101.219,40.223297 96.474,40.223297 C91.323,40.223297 87.872,43.655197 87.872,48.750197 C87.872,70.529397 70.175,88.243097 48.427,88.243097 C26.68,88.243097 8.983,70.555797 8.983,48.820597 C8.983,27.085397 26.68,9.398027 48.427,9.398027 C53.173,9.398027 57.029,5.543777 57.029,0.800747 L57.029,0.017578 L60.357,0.017578 Z M69.312,0 L69.312,0.783167 C69.312,4.109447 68.519,7.259727 67.128,10.057997 C69.646,8.174897 72.349,6.529357 75.228,5.156607 C75.457,3.775057 75.58,2.358317 75.589,0.950367 L75.589,0 L78.917,0 L78.917,0.959167 C78.917,1.856727 78.873,2.754297 78.785,3.651867 C84.244,1.566347 90.205,0.422384 96.482,0.422384 L96.474,0.431184 C123.169,0.431184 144.881,22.139997 144.881,48.811797 L144.881,96.136397 L141.553,96.136397 L141.553,48.811797 C141.553,23.970297 121.751,3.757457 96.474,3.757457 C71.196,3.757457 51.394,23.521497 51.394,48.741397 C51.385,50.334097 50.091,51.636497 48.489,51.636497 C46.886,51.636497 45.583,50.334097 45.583,48.732597 C45.583,47.245397 46.71,46.031097 48.154,45.863897 C48.26,43.936797 48.489,42.053597 48.806,40.196897 C48.682,40.196897 48.55,40.205697 48.427,40.205697 C43.681,40.205697 39.825,44.059997 39.825,48.802997 C39.825,53.545997 43.681,57.400297 48.427,57.400297 C53.173,57.400297 57.029,53.510797 57.029,48.732597 C57.029,26.662997 74.726,9.380447 96.474,9.380447 C118.221,9.380447 135.918,27.067797 135.918,48.802997 L135.918,96.127597 L132.59,96.127597 L132.59,48.802997 C132.59,28.898097 116.724,12.706697 96.474,12.706697 C76.223,12.706697 60.357,28.528497 60.357,48.732597 C60.357,55.341197 55.004,60.717697 48.436,60.717697 C41.868,60.717697 36.515,55.367497 36.515,48.802997 C36.515,42.238397 41.859,36.888197 48.436,36.888197 C48.788,36.888197 49.149,36.870597 49.501,36.861797 C49.986,34.890697 50.593,32.981197 51.297,31.124397 C50.355,31.212397 49.396,31.256397 48.445,31.256397 C38.769,31.256397 30.888,39.132097 30.888,48.802997 C30.888,58.473797 38.769,66.349497 48.445,66.349497 C58.121,66.349497 66.001,58.438597 66.001,48.723797 C66.001,31.678797 79.674,18.329697 96.482,18.329697 C113.29,18.329697 126.964,31.995597 126.964,48.794197 L126.964,96.118797 L123.636,96.118797 L123.636,48.794197 C123.636,33.825897 111.705,21.647197 96.474,21.647197 C81.242,21.647197 69.312,33.544397 69.312,48.723797 C69.312,60.268997 59.943,69.666997 48.427,69.666997 C36.911,69.666997 27.543,60.304197 27.543,48.794197 C27.543,37.284197 36.911,27.921397 48.427,27.921397 C49.889,27.921397 51.35,27.789397 52.785,27.560597 C54.15,24.691897 55.805,21.981597 57.69,19.473697 C54.89,20.863997 51.746,21.647197 48.418,21.647197 C33.442,21.647197 21.256,33.825897 21.256,48.794197 C21.256,63.762397 33.442,75.941197 48.418,75.941197 C63.395,75.941197 75.58,63.727197 75.58,48.723797 C75.58,36.861797 84.948,27.921397 96.465,27.921397 C107.981,27.921397 117.349,37.284197 117.349,48.794197 L117.349,96.118797 L114.021,96.118797 L114.021,48.794197 C114.021,39.123397 106.476,31.247597 96.465,31.247597 C86.454,31.247597 78.908,38.762597 78.908,48.723797 C78.908,65.557597 65.235,79.258697 48.427,79.258697 C31.619,79.258697 17.946,65.592797 17.946,48.794197 C17.946,31.995597 31.619,18.329697 48.427,18.329697 C58.103,18.329697 65.983,10.462797 65.983,0.783167 L65.983,0 L69.312,0 Z" id="Combined-Shape" fill="#FFFFFF" fill-rule="nonzero"></path>
    </g>
</svg>