<svg width="76" height="18" viewBox="0 0 76 18" fill="none" xmlns="http://www.w3.org/2000/svg">
<path d="M0 5C0 2.23858 2.23858 0 5 0H25C27.7614 0 30 2.23858 30 5V13C30 15.7614 27.7614 18 25 18H15H5C2.23858 18 0 15.7614 0 13V5Z" fill="#002940"/>
<path d="M0 4.5C0 2.01472 1.03319 0 2.30769 0H27.6923C28.9668 0 30 2.01472 30 4.5V13.5C30 15.9853 28.9668 18 27.6923 18H2.30769C1.03319 18 0 15.9853 0 13.5V4.5Z" fill="#002940"/>
<path d="M33 5C33 2.23858 35.2386 0 38 0H59.5086C61.0484 0 62.5023 0.709493 63.4498 1.92327L69.695 9.92327C72.2578 13.2063 69.9186 18 65.7537 18H38C35.2386 18 33 15.7614 33 13V5Z" fill="#002940"/>
<path d="M3.5 3H8.5V8H3.5V3Z" fill="white"/>
<path d="M11.5 3H16.5V8H11.5V3Z" fill="white"/>
<path d="M3.5 3H8.5V8H3.5V3Z" fill="white"/>
<path d="M46 3H51V8H46V3Z" fill="white"/>
<path d="M54 3H59V8H54V3Z" fill="white"/>
<path d="M46 3H51V8H46V3Z" fill="white"/>
<path d="M19 3H24V8H19V3Z" fill="white"/>
</svg>
