<?xml version="1.0" encoding="utf-8"?>
<!-- Generator: Adobe Illustrator 26.3.1, SVG Export Plug-In . SVG Version: 6.00 Build 0)  -->
<svg version="1.1" id="Layer_1" xmlns="http://www.w3.org/2000/svg" xmlns:xlink="http://www.w3.org/1999/xlink" x="0px" y="0px"
	 viewBox="0 0 312 112" style="enable-background:new 0 0 312 112;" xml:space="preserve">
<style type="text/css">
	.st0{fill:#1E3765;}
	.st1{fill-rule:evenodd;clip-rule:evenodd;fill:#1E3765;}
</style>
<g id="Group">
	<path id="University_of_Toronto_Mark_Stacked" class="st0" d="M294.8,64.3c10,0,16.2,8,16.2,16.1c0,9-7.8,16.5-16.7,16.5
		c-8.9,0-15.8-7.4-15.8-16.5S286.2,64.3,294.8,64.3 M296.5,94.9c5.9,0,9.6-5.8,9.6-11.4c0-8.9-5.1-17.2-12.7-17.2
		c-6,0-9.7,5.3-9.7,11.5C283.6,86,288.3,94.9,296.5,94.9L296.5,94.9z M263.9,65h-6.7c-2.9,0-5.1,0-6.9-0.1c-1.7-0.1-2-0.5-2.3-0.8
		h-0.9c-0.1,0.4-2.3,6-2.3,6.3l1,0.6c1-2.7,2.2-4.1,7.8-4.1c0.5,0,2.3,0,4.5,0.2c0.3,4,0.4,7.9,0.4,11.9c0,2.5-0.1,11.9-0.4,13.9
		c-0.2,0.9-0.6,1.4-3.2,1.9c-1.1,0.2-1.8,0.2-2.4,0.3l0.2,1.3c0.8-0.1,1.8-0.1,3.1-0.2c1.3-0.1,2.8-0.1,5.1-0.1c0.9,0,2.3-0.1,3.6,0
		c1.3,0.1,2.5,0.1,4.1,0.1l0.1-1.3c-0.3,0-0.8-0.1-1.5-0.2c-0.9-0.1-2.3-0.4-2.8-0.9c-1-1.2-1-9.6-1-11.9c0-2,0.3-11.8,0.3-14.1
		c0-0.9,0.3-0.9,3.1-0.9h0.1c1.3,0,1.6,0,2.1,0c5.6,0,5.7,1.3,6.7,4.1l1-0.6c-0.1-0.3-1.2-6-1.3-6.3h-0.9c-0.2,0.3-0.6,0.7-2.3,0.8
		c-2.1,0.1-4.7,0.1-7.2,0.1L263.9,65L263.9,65z M212.3,65c-1.2,0.1-2.2,0.1-3.8,0.1c-0.8,0-1.6,0-2.3-0.1c-0.8-0.1-0.9-0.1-1.7-0.1
		v1.3c4.5,0.9,4.9,1.6,4.8,10.7v5.6c0,2.1-0.2,8.4-0.4,10.2c-0.2,2-1.1,2.2-2.3,2.4c-0.6,0.1-1.3,0.3-1.8,0.4v1.2
		c1.2,0,2.3-0.1,3.5-0.1c1.2-0.1,2.8-0.1,3.9-0.1s2.4,0.1,3.5,0.1c1,0,1.7,0.1,2.2,0.1v-1.3c-6.2-1.1-6.2-2-6.1-7.2V74.8l0.1-2.5
		c0,0,0,0,23,24.4h1.6c-0.1-2.6-0.1-9.2-0.1-12.1c0-4.1,0-14.9,0.1-16.2c0.3-2,3-2.2,4.5-2.2V65c-3.4,0-5.2,0.1-6.7-0.1
		c-1.4-0.1-2.4-0.2-3.3-0.2c-0.7,0-1.5-0.1-2,0l-0.2,1.2c5.2,0.3,5.1,0.8,5.1,12.6c0,1.4-0.1,8.3-0.1,9.7L212.3,65L212.3,65z
		 M183.9,64.3c10,0,16.2,8,16.2,16.1c0,9-7.8,16.5-16.7,16.5c-8.9,0-15.8-7.4-15.8-16.5S175.3,64.3,183.9,64.3z M185.5,94.9
		c5.9,0,9.6-5.8,9.6-11.4c0-8.9-5.1-17.2-12.7-17.2c-6,0-9.7,5.3-9.7,11.5C172.7,86,177.4,94.9,185.5,94.9L185.5,94.9z M134.1,64.8
		c1,0.1,2,0.1,3,0.1c0.9,0.1,2,0.1,2.9,0.1c0.7,0,2.5-0.1,4.3-0.3c1.8-0.1,3.1-0.1,4.2-0.1c6.7,0,10.9,3.6,10.9,8.5
		c0,4.4-4,7.1-7.1,7.8c6.5,9.4,7.7,10.8,10.2,13.2c0.3,0.3,2.3,2.1,4.7,2.3l-0.1,1.2c-5.4,0-8.1-2.1-9.5-3.2
		c-4.8-3.8-9.5-11.2-10.3-12.8c-1.3,0-1.9,0-4.1-0.1v4.5c0,2-0.1,6.6,0.6,7.8c0.4,0.7,2.7,1.4,4.3,1.9l0.1,1.2
		c-1.9-0.3-4.9-0.5-6.9-0.5c-1.1,0-6,0.3-7,0.4l-0.2-0.9c0.5-0.1,3.3-0.7,4-2c0.5-1.2,0.5-7.8,0.5-9.9v-7.5c0-9.7-0.5-9.9-4.4-10.1
		L134.1,64.8L134.1,64.8z M143.2,79.5c0.9,0.1,2.4,0.1,3.4,0.1c1.2,0,7.8,0,7.8-6.3c0-2.9-2.1-7.1-7.7-7.1c-3.3,0-3.3,0.4-3.4,5.7
		L143.2,79.5L143.2,79.5z M112.4,64.3c10,0,16.2,8,16.2,16.1c0,9-7.8,16.5-16.7,16.5s-15.8-7.4-15.8-16.5S103.8,64.3,112.4,64.3z
		 M114,94.9c5.9,0,9.6-5.8,9.6-11.4c0-8.9-5.1-17.2-12.7-17.2c-6,0-9.7,5.3-9.7,11.5C101.2,86,105.9,94.9,114,94.9L114,94.9z
		 M80.7,65H74c-2.9,0-5.1,0-6.9-0.1c-1.6-0.1-2-0.5-2.3-0.8h-0.9c-0.1,0.4-2.3,6-2.3,6.3l1,0.6c1-2.7,2.2-4.1,7.8-4.1
		c0.5,0,2.3,0,4.5,0.2c0.3,4,0.4,7.9,0.4,11.9c0,2.5-0.1,11.9-0.4,13.9c-0.1,0.9-0.6,1.4-3.2,1.9c-1.1,0.2-1.8,0.2-2.4,0.3l0.2,1.3
		c0.8-0.1,1.8-0.1,3.1-0.2c1.3-0.1,2.8-0.1,5.1-0.1c0.9,0,2.3-0.1,3.6,0c1.3,0.1,2.5,0.1,4.1,0.1l0.1-1.3c-0.3,0-0.8-0.1-1.5-0.2
		c-0.9-0.1-2.3-0.4-2.8-0.9c-1-1.2-1-9.6-1-11.9c0-2,0.3-11.8,0.3-14.1c0-0.9,0.3-0.9,3.1-0.9h0.1c1.3,0,1.6,0,2.1,0
		c5.6,0,5.7,1.3,6.7,4.1l1-0.6c-0.1-0.3-1.2-6-1.3-6.3h-0.9c-0.2,0.3-0.6,0.7-2.3,0.8C86.9,65,84.4,65,81.8,65L80.7,65L80.7,65z
		 M283.1,37.4c-2,0.2-2.5,0.2-4.7,0.2l-2.4,0l-2.5-0.1l-0.8,0.1l-0.6,0.1v0.6h0.1c0.6,0,1.2,0.1,1.5,0.5c0.4,0.5,0.4,1.1,0.4,6
		c0,2.3-0.2,4.9-0.3,5.3c-0.1,0.5-0.9,0.7-1.5,0.8h-0.1l-0.1,0.8h0.1c1.4-0.1,2.9-0.1,3.3-0.1l1.2,0l2.3,0.1v-0.8h-0.1
		c-1.6-0.2-2.2-0.4-2.3-0.7s-0.2-1-0.2-1.9c0-0.3,0-0.5,0-0.8c0,0,0.1-2.1,0.1-2.6c0.2,0,1.2-0.1,1.2-0.1c1.3,0,2.8,0.3,3.2,0.5
		c0.2,0.1,0.4,0.5,0.5,1.2v0.1h0.7v-0.1c0.1-1.5,0.1-2.9,0.1-4v-0.1h-0.7v0.1c-0.2,1-0.3,1.5-3,1.5c-0.8,0-1.1,0-1.9-0.1h-0.1
		c0-0.3,0-0.5,0-0.8c0-0.3,0-0.7,0-1c0,0,0-2.9,0.1-3.3c0.8-0.1,1.5-0.1,1.7-0.1c1.5,0,2.9,0.3,3.4,0.7c0.4,0.3,0.6,0.9,0.7,1.4v0.1
		l0.8-0.1v-0.1c0-0.2,0-1,0.1-1.7l0.1-1.5L283.1,37.4L283.1,37.4z M261.8,37.3c4.6,0,7.4,3.7,7.4,7.2c0,4-3.5,7.3-7.6,7.3
		s-7.2-3.2-7.2-7.3C254.5,40.7,257.9,37.3,261.8,37.3L261.8,37.3z M262.6,50.7c2.6,0,4.1-2.5,4.1-4.9c0-3.6-2.1-7.4-5.6-7.4
		c-2.8,0-4.2,2.5-4.2,4.9C256.9,47,259,50.7,262.6,50.7L262.6,50.7z M235.7,37.6v0.7h0.2c0.7,0,1.7,0.1,1.7,0.7c0,0.2-0.3,1-2.9,4.8
		c-1.1-1.4-3.7-4.6-3.7-5c0-0.1,0-0.3,1.6-0.4h0.1v-0.8l-1.3,0l-2.6,0l-2.8,0v0.7h0.1c0.7,0,1.1,0.1,1.5,0.3c0.9,0.6,3.9,4.4,4,4.6
		c0,0,1.2,1.5,1.3,1.7c0.1,1,0.1,2.1,0.1,3.5c0,2.1,0,2.5-2,2.6h-0.1l-0.1,0.7h0.1c0.3,0,1.2,0,2-0.1l1.5-0.1l1.1,0.1h0.2l1.5,0.1
		V51h-0.1c-1.9-0.2-1.9-0.4-2-0.8V50c0-0.9-0.1-1.8-0.1-2.9c0-0.8,0-1.6,0-2.5c0-0.1,2.8-4.2,2.8-4.2c0.9-1.3,1.4-2.1,3.2-2.1h0.1
		v-0.8h-0.1c-0.2,0-1,0-1.7,0.1l-0.9,0l-1.1-0.1l-0.8,0l-1,0h-0.1L235.7,37.6L235.7,37.6z M223.3,37.2h-0.4l0,0c0,0-0.2,0.3-0.9,0.3
		l-2.8,0h-3.9l-3.1,0c-0.7,0-0.9-0.2-0.9-0.3l0,0h-0.5l0,0.1c-0.1,0.1-1,2.6-1.1,2.8v0.1l0.6,0.4l0.1-0.1c0.4-1.2,0.9-1.7,3.4-1.7
		c0.8,0,1.4,0.1,1.9,0.1c0.1,1.9,0.2,3.7,0.2,5.1c0,1.4,0,5.2-0.2,6.1c-0.1,0.3-0.1,0.5-1.3,0.7l-0.9,0.1l-0.3,0l0.1,0.8l1.2-0.1
		h0.3l2.3-0.1h1.6l0.9,0l1,0v-0.1l0.1-0.7l-0.6-0.1h-0.1c-0.6-0.1-1-0.2-1.2-0.4c-0.1-0.2-0.4-1.1-0.4-5.1l0.1-2.9l0.1-3.3
		c0-0.3,0-0.3,1.3-0.3h1c2.3,0,2.4,0.5,2.8,1.5l0.1,0.3l0.7-0.4l-0.1-0.7C223.6,38.3,223.4,37.4,223.3,37.2L223.3,37.2L223.3,37.2
		L223.3,37.2z M199.9,37.6v0.7h0.1c1.8,0.1,2.1,0.4,2.3,0.8c0.3,0.6,0.3,4.6,0.3,6.1v0.2c0,1.2,0,4-0.4,4.7
		c-0.1,0.2-0.6,0.6-2.4,0.7h-0.1v0.7l2.2-0.1h2l3.4,0.1v-0.1l-0.1-0.7h-0.1c-1.5,0-2,0-2.1-0.6c-0.1-0.3-0.1-1.6-0.1-3.9
		c0-5.5,0-6.9,0.3-7.4c0.4-0.6,1.7-0.5,2.1-0.5h0.1v-0.8h-1.7l-2.3,0.1l-1.5,0h-0.7l-1.2-0.1h-0.1V37.6L199.9,37.6z M187.5,41.4
		c0,2.4,2,3.2,3.5,3.8l0.1,0.1c2.5,1,3.7,1.5,3.7,3.3c0,1-0.8,2.2-2.5,2.2c-1.5,0-2.6-0.6-3.3-1.2c-0.8-0.7-1-1.7-1.1-2v-0.1h-0.9
		l0,0.1c0.5,1.5,0.6,2.3,0.6,4v0.1l0.7,0.1l0-0.1c0,0,0.1-0.3,0.3-0.3s0.7,0.1,0.9,0.2h0.1l0.2,0.1c0.4,0.1,0.8,0.2,1.7,0.2
		c3.4,0,5.3-2.1,5.3-4c0-2.8-2.7-3.8-4.5-4.5c-1.7-0.7-3-1.3-3-2.6s1.1-2.3,2.6-2.3c1.4,0,2.4,0.8,2.6,1.1c0.6,0.5,0.7,1.1,0.8,1.7
		v0.1l0.1,0h0.6l-0.2-1.8c0-0.7,0.1-1.4,0.2-1.7l0-0.1l-0.6-0.1c0,0-0.4,0.3-0.4,0.3c-1.3-0.3-1.9-0.4-2.8-0.4
		C189.5,37.4,187.5,39.1,187.5,41.4L187.5,41.4z M177.6,37.4c2.9,0,5,1.6,5,3.8c0,1.8-1.6,3.1-3.1,3.5c2.8,4,3.3,4.6,4.4,5.6
		c0,0,0.9,0.9,2,1h0.1l-0.1,0.7h-0.1c-2.4,0-3.6-0.9-4.3-1.4c-2.1-1.7-4.2-4.9-4.6-5.6c-0.1,0-1.5-0.1-1.7-0.1v1.9c0,0,0,0.5,0,0.6
		c0,0.9,0,2.3,0.2,2.7c0.1,0.3,1.3,0.6,1.9,0.8h0.1l0.1,0.8h-0.1c-0.8-0.2-2.2-0.3-3.1-0.3c-0.5,0-2.6,0.1-3.1,0.2h-0.1l-0.2-0.6
		h0.1c0.3-0.1,1.4-0.4,1.7-0.9c0.2-0.4,0.2-2.9,0.2-4v-3.6c0-4.2-0.2-4.2-1.9-4.3H171l0.1-0.8h0.2c0,0,1.2,0.1,1.2,0.1l1.3,0
		c0.3,0,1.1-0.1,1.9-0.1l0,0L177.6,37.4L177.6,37.4z M175.3,44c0.4,0.1,1,0.1,1.4,0.1c1.2,0,3.3-0.3,3.3-2.6c0-1.2-0.9-3-3.3-3
		c-1.4,0-1.4,0-1.4,2.4C175.4,40.8,175.3,43.8,175.3,44z M167,37.5c-1.7,0.1-4.4,0.1-6.2,0.1c-1.1,0-3.8-0.1-4.8-0.1h-0.1v0.7h0.1
		c1.2,0.2,1.3,0.2,1.3,0.5c0.1,0.3,0.3,1.6,0.3,5.8c0,1.8-0.1,4.7-0.3,5.7c-0.1,0.5-0.7,0.6-1.6,0.7h-0.1l0.1,0.8h0.1
		c1.9-0.2,4.2-0.2,5.5-0.2l5.6,0.1l0.1-0.1c0.3-0.5,0.7-1.2,1-3.4v-0.1l-0.7-0.1l0,0.1c-0.5,1.3-1.4,2.6-4.8,2.6
		c-1.2,0-1.7-0.1-2.4-0.4c-0.1-0.4-0.1-1-0.2-2.7c0,0,0-2.1,0-2.6c0.9-0.1,1.7-0.1,2.1-0.1c2.7,0,2.9,0.2,3.3,1.9v0.1h0.7v-0.1
		c0-1.8,0-2.3,0.1-4.2v-0.1h-0.7v0.1c-0.3,1-0.5,1.2-0.9,1.3c-2,0.3-4,0.2-4.4,0.1c0-0.2-0.1-1.8-0.1-1.8c0-0.9,0.1-2.3,0.2-3.3
		c0.7-0.1,2.1-0.3,2.7-0.3c1.5,0,2.5,0.2,2.9,0.6c0.3,0.4,0.3,0.9,0.3,1.5v0.1l0.8,0.1v-0.1c0-0.1,0.1-0.7,0.2-1.1L167,39
		C167.1,38.3,167.1,37.9,167,37.5L167,37.5L167,37.5L167,37.5z M136.7,37.6l0,0.6h0.1c1.9,0.2,2,0.3,3.5,3.4l3.2,6.4v0.1
		c0.6,1.1,1.4,2.8,1.6,3.8V52h0.7v-0.1c0.5-1.4,0.9-2.4,2-4.6l3.4-6.7c0.8-1.6,1.1-2,2.6-2.3h0.1v-0.8h-0.1c-0.9,0-1.7,0-2.6,0
		l-2.7-0.1v0.1l-0.1,0.7h0.1c0.7,0,1.6,0.1,1.6,0.8c0,0.4-0.3,1.1-0.5,1.5l-0.1,0.1c-0.7,1.6-1.1,2.4-1.6,3.3l-1.5,3.2
		c0,0-0.2,0.5-0.4,0.8c-1.5-2.5-4.3-9.1-4.3-9.5c0-0.2,0-0.2,1.2-0.3l0.4,0v-0.8h-3.3c-0.8,0-2.4,0-3.3-0.1h-0.1V37.6L136.7,37.6z
		 M127.2,37.6v0.7h0.1c1.8,0.1,2.1,0.4,2.3,0.8c0.3,0.6,0.3,4.6,0.3,6.1v0.2c0,1.2,0,4-0.4,4.7c-0.1,0.2-0.6,0.6-2.4,0.7H127v0.7
		l2.2-0.1h2l3.4,0.1v-0.1l-0.1-0.7h-0.1c-1.5,0-2,0-2.1-0.6c-0.1-0.3-0.1-1.6-0.1-3.9c0-5.5,0-6.9,0.3-7.4c0.4-0.6,1.7-0.5,2.1-0.5
		h0.1v-0.8h-1.7l-2.3,0.1l-1.5,0h-0.7L127.2,37.6L127.2,37.6L127.2,37.6L127.2,37.6z M119.2,37.4L119.2,37.4L119.2,37.4l-0.2,0.7
		h0.1c2.7,0.2,2.3,0.2,2.4,5.8c0,0,0,3.4,0,3.8c-0.2-0.2-9.7-10.2-9.7-10.2l0,0l-1.6,0l-1,0H109l-0.9-0.1v0.8h0.1
		c2,0.4,2.3,0.6,2.2,4.6l0,2.4c0,0.9-0.1,3.7-0.2,4.4c-0.1,0.8-0.4,0.9-0.9,1l-0.9,0.2v0.7l3.3-0.1l1.6,0.1l1.1,0.1v-0.8h-0.1
		c-2.7-0.5-2.7-0.8-2.6-3.1l0.1-5.8c0,0,0-0.5,0-0.8c0.5,0.5,10.2,10.5,10.1,10.5l0,0h0.9v-0.1c-0.1-1.1-0.1-4.1-0.1-5.3
		c0-1.9,0.1-6.3,0.2-6.8c0.1-0.9,0.9-1.2,1.7-1.2h0.1v-0.7h-0.1c-1.5,0-2.3,0.1-2.9,0l-0.4-0.1l-1-0.1L119.2,37.4L119.2,37.4z
		 M93.7,37.6h-0.8c-0.9,0-2.9,0.1-3.2,0.1h-0.1l0.1,0.8h0.1c0.9,0,1.2,0,1.4,0.1c0.3,0.2,0.5,1.8,0.5,3.9l-0.2,4.6
		c0,3.2,2,4.8,5.8,4.8c6,0,6.4-3.2,6.5-9.9l0-2v-0.1c0-1,0-1.4,1.7-1.5h0.1l0.1-0.8h-0.3l-2.4,0.1l-1.9-0.1h-0.8v0.8h0.1
		c0.7,0,1.4,0,1.7,0.4c0.4,0.4,0.6,2.3,0.6,3.3v1.2c0,4.7-0.3,7.5-4.7,7.5c-3.9,0-3.9-3.1-3.9-4.7v-2.6c0-4.9,0.2-4.9,2.3-5.1h0.1
		v-0.8h-0.1C95.8,37.5,94.6,37.6,93.7,37.6L93.7,37.6z"/>
	<path id="Shield___Scroll" class="st0" d="M46,85.4L45.3,84l-0.9-1.9c-0.7-1.4-1.8-2.2-3.2-2.3c3-5.3,5.2-11.7,5.2-19.1V37.3
		c0-0.1-0.1-0.3-0.3-0.3H0c-0.1,0-0.3,0.1-0.3,0.3v23.3c0,7.4,2.2,13.8,5.2,19.1c-1.3,0.1-2.5,1-3.2,2.3L0.9,84l-0.7,1.4
		c-0.6,1.2-1.2,3.8,1.2,6.9c2,2.5,6.2,5.2,11.3,7.2l0.2,0.1c0.4,0.2,0.9,0.3,1.2,0.5c-0.4,0.4-1,0.9-1.5,1.2l-0.4,0.3
		c-0.1,0.1-0.2,0.2-0.3,0.2c0,0,0,0,0,0c0,0-0.1,0.1-0.1,0.1c-0.4,0.5-0.7,1-0.7,1.9v4.5c0,1.8,2.5,2.5,4.9,2.5h13.6
		c2.4,0,4.9-0.7,4.9-2.5V104c0-0.9-0.2-1.5-0.7-1.9c0,0-0.1-0.1-0.1-0.1c0,0,0,0,0,0c-0.1-0.1-0.2-0.2-0.3-0.2l-0.4-0.3
		c-0.5-0.4-1-0.9-1.5-1.3c0.4-0.2,0.8-0.3,1.3-0.5l0.2-0.1c5.1-2,9.3-4.7,11.3-7.2C47.1,89.2,46.5,86.7,46,85.4L46,85.4z M0.3,55.5
		h45.6v5.2c0,23-21.4,36.1-22.8,36.9C21.7,96.8,0.3,83.7,0.3,60.7V55.5z M43,81.5c0.6,1,0.6,2.3,0,3.6c-0.1,0.2-0.2,0.5-0.4,0.7
		L41,83.4c0,0-0.2-0.1-0.3-0.1c-0.1,0-0.2,0.1-0.2,0.2c-0.1,0.4-0.5,0.8-1,1c-0.5,0.2-1.1,0.2-1.5,0.1c1-1.3,2-2.8,2.9-4.3
		c0.1,0,0.2,0,0.3,0h0C41.9,80.3,42.6,80.8,43,81.5L43,81.5z M28.4,104.4l0.3,0.3H17.5l0.3-0.3c0.7-0.6,1.2-1.1,1.2-2.5v-3.2
		c0-3.1-2.7-4.3-5.7-5.7c-1.1-0.5-2.2-1-3.3-1.6c-1-0.6-2.4-1.5-3.7-2.6l2.4-3.5C15.2,93.6,22.8,98,23,98.1c0.1,0.1,0.2,0.1,0.3,0
		c0.1-0.1,7.8-4.5,14.3-12.9l2.4,3.5c-1.3,1.1-2.7,2-3.7,2.6C35.1,92,34,92.5,32.9,93c-3.1,1.4-5.7,2.6-5.7,5.7v3.2
		C27.2,103.3,27.7,103.8,28.4,104.4L28.4,104.4z M5.8,88.4c-0.8-0.7-1.5-1.4-2-2.1c0.3-0.4,1.2-1.8,1.5-2.2c0.2,0.4,0.6,0.7,1.1,0.9
		c0.5,0.2,1.1,0.3,1.6,0.2L5.8,88.4L5.8,88.4z M38.1,85.2c0.5,0.1,1.1,0.1,1.6-0.2c0.5-0.2,0.8-0.5,1.1-0.9c0.3,0.4,1.2,1.8,1.5,2.2
		c-0.5,0.7-1.2,1.5-2,2.1L38.1,85.2L38.1,85.2z M0.3,37.6h45.6V55H0.3V37.6L0.3,37.6z M3.2,81.5c0.4-0.7,1.1-1.2,1.8-1.2h0
		c0,0,0.2,0,0.2,0c0.9,1.5,1.9,3,2.9,4.3c-0.5,0.1-1,0.1-1.5-0.1c-0.5-0.2-0.9-0.6-1-1c0-0.1-0.1-0.2-0.2-0.2c-0.1,0-0.2,0-0.3,0.1
		l-1.6,2.4c-0.1-0.2-0.3-0.5-0.4-0.7C2.6,83.8,2.6,82.5,3.2,81.5L3.2,81.5z M13.2,99.2L13,99.1c-5-2-9.1-4.6-11.1-7.1
		c-2.2-2.8-1.8-4.9-1.2-6.3l0.7-1.4l0.9-1.9v0c-0.1,0.7-0.1,1.8,0.4,3.1c1,2.4,4.4,5,7.1,6.5c1.1,0.7,2.3,1.2,3.3,1.7
		c3,1.4,5.4,2.5,5.4,5.2v3.2c0,0.3,0,0.6-0.1,0.8c-0.1-0.3-0.2-0.7-0.5-0.9C16.9,100.6,15.2,100,13.2,99.2L13.2,99.2z M12.3,102.6
		L12.3,102.6L12.3,102.6c0.2-0.2,0.3-0.3,0.4-0.4l0.4-0.3c0.5-0.4,1.2-1,1.7-1.5c1.1,0.5,2.1,1,2.7,1.7c0.5,0.5,0.5,1.4,0.2,1.7l0,0
		c0,0-0.2,0.1-0.2,0.2l-0.7,0.7h-0.5c-2.2,0-3.7-0.8-4-1.5C12.2,103,12.2,102.8,12.3,102.6L12.3,102.6z M34.3,103.7
		c0,0.1,0,0.2,0,0.4v4.5c0,1.4-2.4,2-4.4,2H16.3c-2,0-4.4-0.5-4.4-2v-4.5c0-0.1,0-0.3,0-0.4c0.5,0.8,2,1.6,4.4,1.6h13.6
		C32.2,105.3,33.8,104.5,34.3,103.7z M33,101.9l0.4,0.3c0.1,0.1,0.3,0.2,0.4,0.4h0l0,0.1c0.1,0.2,0.1,0.4,0,0.6
		c-0.3,0.8-1.8,1.5-4,1.5h-0.5l-0.7-0.7c0,0-0.2-0.1-0.2-0.2l0,0c-0.3-0.3-0.3-1.2,0.2-1.7c0.6-0.7,1.6-1.2,2.7-1.7
		C31.8,100.9,32.5,101.4,33,101.9L33,101.9z M44.3,92c-2,2.5-6.1,5.1-11.1,7.1L33,99.2c-2,0.8-3.7,1.5-4.7,2.6
		c-0.2,0.3-0.4,0.6-0.5,0.9c-0.1-0.2-0.1-0.5-0.1-0.8v-3.2c0-2.8,2.4-3.9,5.4-5.2c1.1-0.5,2.2-1,3.3-1.7c2.6-1.5,6-4.1,7.1-6.5
		c0.5-1.3,0.5-2.3,0.4-3.1v0l0.9,1.9l0.7,1.4C46.2,87.1,46.5,89.2,44.3,92L44.3,92z"/>
	<path id="Text" class="st1" d="M8.3,92.4c0.1-0.1,0.1-0.2,0.2-0.3c-0.4-0.2-0.7-0.5-1.1-0.7c-0.1,0.1-0.1,0.2-0.2,0.3
		c0.1,0.1,0.2,0.1,0.3,0.2c-0.4,0.8-0.7,1.6-1.1,2.4c-0.1-0.1-0.2-0.1-0.3-0.1c-0.1,0.1-0.1,0.2-0.1,0.3c0.6,0.4,1.2,0.8,1.9,1.2
		c0.2-0.2,0.4-0.4,0.5-0.7v0c0,0-0.2-0.2-0.3-0.3c-0.1,0.1-0.3,0.4-0.5,0.4C7.4,95,7,94.8,6.8,94.6c0-0.2,0.8-1.8,1.1-2.4
		C8,92.2,8.2,92.4,8.3,92.4L8.3,92.4L8.3,92.4z M5.4,92.6c0.1-0.3,0.3-0.5,0.4-0.8c-0.1-0.1-0.1-0.1-0.2-0.2
		c-0.1,0.1-0.1,0.1-0.1,0.2c0,0-0.4-0.3-0.5-0.4c0.2-0.3,0.3-0.7,0.5-1C5.6,90.6,6,90.9,6.1,91C6.1,91.2,6,91.4,6,91.6
		c0,0.1,0.2,0.1,0.3,0.2c0.1-0.3,0.3-0.6,0.4-0.8C6.1,90.5,5.5,90,5,89.6c-0.1,0.1-0.1,0.2-0.2,0.3C4.9,90,5,90,5,90.1
		c-0.4,0.8-0.7,1.5-1.2,2.3c-0.1-0.1-0.2-0.1-0.2-0.2c-0.1,0.1-0.1,0.2-0.1,0.3C4,93,4.5,93.5,5.1,93.9c0.2-0.2,0.3-0.5,0.5-0.7v0
		l-0.2-0.3c0,0-0.3,0.4-0.4,0.4c-0.1,0-0.6-0.4-0.7-0.6c0-0.2,0.4-0.8,0.5-1C5,91.9,5.2,92,5.3,92.2c0,0.1-0.1,0.2-0.1,0.3
		C5.3,92.5,5.3,92.6,5.4,92.6L5.4,92.6L5.4,92.6z M15.2,95.6c-0.8-0.4-1.7-0.8-2.5-1.2c-0.1,0.3-0.3,0.5-0.4,0.8
		c0.1,0.1,0.2,0.1,0.3,0.2c0.1-0.1,0.2-0.3,0.3-0.4c0.1,0,0.4,0.1,0.6,0.2c-0.4,0.8-0.7,1.6-1.1,2.4c-0.1-0.1-0.2-0.1-0.4-0.1
		c0,0.1-0.1,0.2-0.1,0.3c0.4,0.2,0.9,0.4,1.3,0.6c0-0.1,0.1-0.2,0.1-0.3c-0.1-0.1-0.2-0.1-0.4-0.2c0.4-0.8,0.8-1.6,1.1-2.4
		c0.2,0.1,0.4,0.2,0.5,0.4c-0.1,0.2-0.1,0.3-0.2,0.5c0,0.1,0.3,0.1,0.4,0.2C15,96.1,15.1,95.8,15.2,95.6L15.2,95.6L15.2,95.6z
		 M12.3,94.2c-0.4-0.2-0.7-0.4-1.1-0.5c0,0.1-0.1,0.2-0.1,0.3c0.1,0.1,0.2,0.1,0.4,0.2c-0.4,0.8-1,2.6-1.8,2.1
		c-0.6-0.4-0.4-0.9,0-1.5c0.2-0.4,0.4-0.8,0.6-1.2c0.1,0.1,0.2,0.1,0.4,0.2c0-0.1,0.1-0.2,0.1-0.3c-0.4-0.2-0.8-0.4-1.2-0.6
		c-0.1,0.1-0.1,0.2-0.1,0.3c0.1,0,0.2,0.1,0.2,0.1c0,0.2-0.3,0.6-0.4,0.8c-0.4,0.8-0.8,1.5-0.4,2c0.1,0.1,0.2,0.3,0.4,0.4
		c0.2,0.2,0.5,0.3,0.7,0.3c1,0.1,1.4-1.2,1.9-2.3l0.3,0.1C12.2,94.4,12.2,94.3,12.3,94.2L12.3,94.2L12.3,94.2z M4.3,89.5
		c0,0,0.1,0.1,0.2,0.2c0-0.1,0.1-0.2,0.1-0.3c-0.3-0.3-0.6-0.5-0.8-0.8c0,0.1-0.1,0.2-0.2,0.3c0.1,0.1,0.2,0.2,0.3,0.3
		c-0.3,0.3-1.3,1.4-1.4,1.5l0,0c0,0,0.4-2.3,0.4-2.5c0.1,0.1,0.2,0.2,0.3,0.3c0.1-0.1,0.1-0.2,0.2-0.3c-0.3-0.4-0.6-0.7-0.8-1.1
		c-0.1,0.1-0.1,0.2-0.2,0.3c0.1,0.1,0.1,0.2,0.1,0.3C2.5,87.7,2,90.6,2,90.9c0.1,0.1,0.2,0.2,0.3,0.4C2.9,90.9,4.1,89.6,4.3,89.5
		L4.3,89.5L4.3,89.5z M33.9,95.9L33.9,95.9c0-0.5,0.1-0.9,0.1-1.4h0c0.2,0.4,0.3,0.7,0.5,1.1C34.4,95.7,34.1,95.8,33.9,95.9
		L33.9,95.9z M36.5,95.6c0,0.1,0.1,0.4,0.1,0.5c-0.1,0.1-0.8,0.5-0.9,0.5c-0.2-0.3-0.3-0.7-0.4-1c0.2-0.1,0.7-0.4,0.8-0.4
		c0.1,0.1,0.1,0.2,0.1,0.2c0.1-0.1,0.2-0.1,0.3-0.1c-0.1-0.3-0.3-0.6-0.4-0.9c-0.1,0.1-0.2,0.1-0.3,0.1c0,0.1,0.1,0.2,0.1,0.3
		c-0.1,0.1-0.6,0.4-0.7,0.4c-0.2-0.4-0.4-0.8-0.5-1.2c0.3-0.1,0.7-0.4,0.9-0.4c0.1,0.1,0.2,0.3,0.3,0.4c0.1-0.1,0.2-0.1,0.3-0.2
		c0-0.1-0.3-0.6-0.4-0.7c-0.6,0.3-1.4,0.7-2,1c-0.1,1.1-0.2,2.3-0.3,3.4c-0.1,0.1-0.2,0.1-0.3,0.2c0,0.1,0.1,0.2,0.1,0.3
		c0.4-0.1,0.7-0.3,1-0.5l-0.1-0.3c-0.1,0-0.2,0.1-0.3,0.1c0-0.4,0-0.8,0-1.2c0.3-0.1,0.6-0.3,0.8-0.4c0.1,0.3,0.3,0.7,0.4,1
		C35.1,96.9,35,97,34.9,97c0.1,0.1,0.1,0.2,0.1,0.3c0.7-0.3,1.5-0.7,2.1-1C37.1,96,37,95.7,37,95.4C36.8,95.5,36.7,95.5,36.5,95.6
		L36.5,95.6L36.5,95.6z M39,91.7c0,0,0.1-0.1,0.2-0.2c-0.1-0.1-0.1-0.2-0.1-0.3c-0.3,0.2-0.7,0.4-1,0.7c0.1,0.1,0.1,0.2,0.1,0.3
		c0.1-0.1,0.2-0.1,0.3-0.2c0.1,0.5,0.2,1.8,0.3,2.2c0,0.1,0,0.3,0,0.4l0,0c0,0-0.3-0.3-0.4-0.4l-0.8-0.9c-0.1-0.1-0.3-0.3-0.4-0.4
		c0.1-0.1,0.2-0.1,0.4-0.2c0-0.1-0.1-0.2-0.1-0.3c-0.4,0.2-0.8,0.5-1.2,0.7c0,0.1,0.1,0.2,0.1,0.3c0.1,0,0.2-0.1,0.3-0.1
		c0.1,0.2,0.4,0.4,0.5,0.5c0.4,0.4,0.8,0.8,1.1,1.2c0.2,0.2,0.3,0.3,0.5,0.5c0.1-0.1,0.3-0.2,0.4-0.2c-0.1-0.8-0.1-1.6-0.1-2.4
		C39,92.4,39,92,39,91.7L39,91.7L39,91.7z M29.7,107.9c0-0.4,0-0.9,0-1.3c0.2,0,0.4,0,0.5,0c0.4,0.1,0.6,0.7,0.3,1
		C30.3,107.9,30.1,107.9,29.7,107.9L29.7,107.9z M31.2,108.9c-0.1-0.2-0.3-0.8-0.6-0.9v0c0.6-0.1,0.9-1,0.4-1.5
		c-0.4-0.4-1.4-0.3-2.1-0.3v0.3l0,0c0.1,0,0.2,0,0.3,0v2.6h-0.3v0.3h1.2v-0.3c-0.1,0-0.2,0-0.4,0c0-0.3,0-0.7,0-1c0.1,0,0.3,0,0.4,0
		c0.3,0.1,0.5,1,0.7,1.3c0.1,0.1,0.7,0,0.8,0v-0.3h-0.3C31.3,109.1,31.3,109,31.2,108.9L31.2,108.9L31.2,108.9z M23.7,108.8
		c-0.1,0.3-0.3,0.4-0.6,0.4c-0.1,0-0.4,0-0.4-0.1c0-0.1,0-0.2,0-0.3c0-0.1,0-0.8,0-0.9C23.2,108,23.8,108.2,23.7,108.8L23.7,108.8
		L23.7,108.8z M22.6,106.6c0.4,0,0.6,0,0.8,0.2c0.1,0.1,0.1,0.2,0.1,0.4c-0.1,0.4-0.4,0.5-0.9,0.5C22.6,107.3,22.6,107,22.6,106.6
		L22.6,106.6L22.6,106.6z M23.5,107.8L23.5,107.8L23.5,107.8c0.6-0.3,0.9-1,0.2-1.4c-0.4-0.2-1.4-0.1-2-0.1v0.3c0.1,0,0.2,0,0.3,0
		v2.6c-0.1,0-0.2,0-0.3,0v0.3c0.7,0,1.6,0.1,2.1-0.2c0.3-0.2,0.7-0.7,0.3-1.2C24,107.9,23.8,107.9,23.5,107.8L23.5,107.8L23.5,107.8
		z M19.2,107.9c0-0.4,0-0.9,0-1.3c0.2,0,0.4,0,0.5,0c0.4,0.1,0.6,0.7,0.3,1C19.9,107.9,19.6,107.9,19.2,107.9L19.2,107.9z
		 M20.7,108.9c-0.1-0.2-0.3-0.8-0.6-0.9v0c0.6-0.1,0.9-1,0.4-1.5c-0.4-0.4-1.4-0.3-2.1-0.3c0,0.1,0,0.2,0,0.3l0,0c0.1,0,0.2,0,0.3,0
		v2.6h-0.3c0,0.1,0,0.2,0,0.3h1.2v-0.3c-0.1,0-0.2,0-0.4,0c0-0.3,0-0.7,0-1c0.1,0,0.3,0,0.4,0c0.3,0.1,0.5,1,0.7,1.3
		c0.1,0.1,0.7,0,0.8,0v-0.3h-0.3C20.8,109.1,20.8,109,20.7,108.9L20.7,108.9L20.7,108.9z M15.7,108.3c0.1-0.4,0.3-0.9,0.4-1.3
		c0,0,0,0,0,0l0.4,1.3L15.7,108.3L15.7,108.3z M16.5,106.2c-0.1,0-0.4,0-0.5,0c-0.4,1-0.7,2-1.1,2.9c-0.1,0-0.2,0-0.3,0v0.3h1.2
		v-0.3c-0.1,0-0.2,0-0.4,0c0.1-0.2,0.1-0.4,0.2-0.6c0.4,0,0.7,0,1.1,0c0.1,0.1,0.2,0.4,0.2,0.6c-0.1,0-0.2,0-0.4,0v0.3h1.2v-0.3
		c-0.1,0-0.2,0-0.3,0C17.2,108.2,16.8,107.3,16.5,106.2L16.5,106.2L16.5,106.2z M42,92.8c-0.7,0.6-1.4-0.3-1.6-1.2
		c-0.1-0.4-0.1-0.8,0.1-1.1c0.1-0.1,0.1-0.1,0.2-0.2c0.2-0.1,0.3-0.2,0.5-0.2C42,90.2,42.8,92.1,42,92.8L42,92.8L42,92.8z
		 M42.2,90.1c-0.4-0.4-1-0.5-1.7-0.1c-0.1,0.1-0.2,0.2-0.3,0.3c-0.3,0.3-0.4,0.7-0.5,1.2c0,0.2,0,0.4,0.1,0.5c0,0.2,0.2,0.5,0.3,0.7
		c0.4,0.6,1,0.8,1.7,0.5C43,92.8,43.1,91,42.2,90.1L42.2,90.1L42.2,90.1z M26.7,109.2c-0.9,0.1-1.2-0.9-1-1.8
		c0.1-0.4,0.3-0.7,0.6-0.9l0.3-0.1c0.2,0,0.4,0,0.5,0.1C27.7,107.1,27.7,109.1,26.7,109.2L26.7,109.2L26.7,109.2z M26.5,106.2
		c-0.1,0-0.3,0.1-0.4,0.1c-0.4,0.1-0.7,0.4-0.9,0.7c-0.1,0.1-0.1,0.3-0.2,0.5c0,0.2-0.1,0.5,0,0.7c0.1,0.8,0.5,1.2,1.3,1.3
		c1.3,0.2,2.1-1.3,1.7-2.5C27.8,106.5,27.4,106.2,26.5,106.2L26.5,106.2L26.5,106.2z"/>
	<path id="Shape" class="st0" d="M0.1,55.2l45.9,0.1v5.1c0,23-21.6,36.6-23,37.4c-1.4-0.8-23-14-23-37.1L0.1,55.2L0.1,55.2z
		 M31.8,74.8c-4.2-5.1-10.2-2.5-10.3-2.5c-1.1,0.2-2.1,0.7-2.7,1.1l-0.6,0.3l-0.7,0.1l-1.3,0.2c-0.7,0.1-1.5,0.6-2.6,1.2l-0.8,0.4
		c-1.3,0.7-1.6,1.2-1.6,1.4c-0.3,0.1-0.4,0.4-0.5,0.6c0,0.1,0,0.1,0,0.1c0,0.2,0.1,0.4,0.2,0.6c0.2,0.7,0.9,0.6,0.9,0.6
		c0,0,0.2-0.1,0.2-0.1c0.3-0.1,0.6,0,0.8,0.4v0.1c-0.1,0.1-0.3,0.3-0.4,0.4c-0.1,0-0.2,0.1-0.1,0.2c0.2,0.6,1.1,0.4,1.5,0.4h0.1
		l0.4-0.1c0.5-0.1,1.4-0.1,1.8,0c0.3,0.1,0.6,0.2,0.9,0.4c-0.1,0.1-0.1,0.3-0.2,0.4L16.5,81c-0.6,0.1-1.5,0.1-1.8,0.9
		c-0.3,0.7-0.1,1.3,0,1.5l0.2,0.3c0.1,0.1,0.5-0.2,0.7-0.3c0.6-0.4,0.5-0.5,0.5-0.6c0-0.2,0.2-0.3,0.2-0.3l0.1,0.1
		c0.4,0.1,1.3,0.4,1.8,0.2c0,0.2-0.2,0.7-0.5,0.9c-0.2,0.1-0.6,0.1-0.8,0.1c-0.3,0-0.5,0-0.6,0.1c-0.2,0.2-0.6,0.7-0.7,0.9
		c0,0.1,0,0.1,0,0.2l0.1,0.1c0,0,0.1,0.1,0.2,0.1h2c0.5,0,1.1-0.1,1.5-0.4l0.3-0.2l0.9-0.7l0.9-0.7l0.4-0.3c0,0,0.1-0.2,0.2-0.4
		c0.4,0.2,1.2,0.7,1.5,0.8c-0.1,0-0.6,0.1-1.1,0.2c-0.5,0.2-0.8,0.4-1.2,1c0,0,0,0.1-0.1,0.1c0,0.1-0.1,0.1,0,0.1
		c0.1,0.2,0.9,0.6,1.1,0.7c0.2,0.1,0.5,0,0.8-0.1l0.5-0.1c0.2,0,2.3-0.1,3.7-0.1l-0.8,0.7c-0.8,0.5-2,1.2-3.2,2.3
		c-1.4,1.1-2.4,2.6-2.4,3.7c0,0.1-0.2,0.3-0.1,0.4c0.1,0.3,0.3,0.6,0.9,0.7c2.7,0.3,4.3-1.4,5.7-2.8l0.3-0.4c0.9-1,1.6-2.1,2-2.9
		c0.2-0.3,0.4-0.7,0.4-0.7c1.3-0.9,2.9-3.3,3.2-5.9C33.5,78.1,33,76.3,31.8,74.8L31.8,74.8z M42.4,58.7h-1l-1-0.7l0,0
		c0,0-0.1-0.1-0.2-0.1h-1.3c-0.3,0-0.5-0.1-0.8-0.4c-0.4-0.3-1.1-0.8-2.2-0.8c-1.2,0-1.9,0.5-2.1,0.9c-0.3-0.4-0.9-0.9-2.1-0.9
		c-1.1,0-1.7,0.4-2.2,0.8c-0.3,0.2-0.5,0.4-0.8,0.4h-1.3c0,0-0.1,0-0.2,0.1l-1,0.6h-1c-0.1,0-0.3,0.1-0.3,0.3v9
		c0,0.1,0.1,0.3,0.3,0.3h7c0.2,0.1,0.5,0.4,1.1,0.5c0.3,0.1,0.7,0,1,0c0.5-0.1,0.9-0.4,1.1-0.5h7c0.1,0,0.3-0.1,0.3-0.3v-9
		C42.7,58.8,42.6,58.7,42.4,58.7L42.4,58.7z M20.6,58.7h-1l-1-0.6c0,0-0.1-0.1-0.2-0.1h-1.3c-0.3,0-0.5-0.1-0.8-0.4
		c-0.4-0.3-1.1-0.8-2.1-0.8c-1.2,0-1.8,0.5-2.1,0.9c-0.3-0.4-0.9-0.9-2.1-0.9c-1.1,0-1.7,0.4-2.2,0.8C7.6,57.8,7.4,58,7.1,58H5.8
		c0,0-0.1,0-0.2,0.1l-1,0.6h-1c-0.1,0-0.3,0.1-0.3,0.3v9c0,0.1,0.1,0.3,0.3,0.3h7c0.2,0.1,0.5,0.4,1.1,0.5c0.3,0.1,0.7,0,1,0
		c0.5-0.1,0.9-0.4,1.1-0.5h7c0.1,0,0.3-0.1,0.3-0.3v-9C20.9,58.8,20.8,58.7,20.6,58.7L20.6,58.7z"/>
	<g id="Beaver" transform="translate(10.845189, 72.258741)">
		<path id="Shape_00000027564551919174500740000000742016632837759908_" class="st0" d="M21.1,2.5c-4.3-5.2-10.4-2.6-10.4-2.6
			C9.5,0.2,8.5,0.7,7.9,1L7.3,1.3L6.6,1.4L5.3,1.5C4.6,1.7,3.7,2.1,2.6,2.8L1.8,3.2C0.5,3.9,0.2,4.5,0.2,4.6C-0.1,4.8-0.3,5-0.3,5.2
			c0,0.1,0,0.1,0,0.1c0,0.2,0.1,0.4,0.2,0.6c0.2,0.7,0.9,0.8,1,0.8s0.2-0.1,0.2-0.1C1.5,6.6,1.7,6.6,1.8,7v0.1
			C1.8,7.2,1.5,7.4,1.4,7.4c-0.1,0-0.1,0.1-0.1,0.2c0.2,0.7,1.1,0.5,1.5,0.5h0.1l0.4-0.1C3.7,8,4.6,7.8,5.1,7.9C5.4,8,5.7,8.2,6,8.3
			C6,8.5,5.9,8.5,5.8,8.6L5.4,8.6C4.8,8.7,4,8.9,3.7,9.6c-0.3,0.7-0.1,1.3,0,1.5l0.3,0.4c0.1,0.1,0.5-0.1,0.8-0.3
			c0.6-0.4,0.7-0.6,0.7-0.7c0-0.2,0.2-0.3,0.2-0.3l0.1,0.1c0.4,0.2,1.1,0.5,1.6,0.2c0,0.2-0.1,0.4-0.4,0.6c-0.3,0.1-0.6,0.1-0.9,0.1
			c-0.3,0-0.5,0-0.6,0.1c-0.2,0.2-0.7,0.9-0.8,1.1c0,0.1,0,0.1,0,0.2l0.1,0.1c0,0,0.1,0.1,0.2,0.1h2c0.5,0,1.2,0,1.5-0.3l0.3-0.2
			l0.9-0.8l0.9-0.8l0.4-0.3c0,0,0.1-0.2,0.2-0.3c0.4,0.2,0.7,0.4,1.1,0.6c-0.1,0-0.4,0-0.9,0.2c-0.5,0.2-0.9,0.6-1.2,1.2
			c0,0,0,0.1,0,0.1c0,0.1,0,0.1,0,0.1c0.1,0.2,0.9,0.6,1.1,0.7c0.2,0.1,0.5,0,0.8-0.1l0.5-0.1c0.2,0,2.1,0,3.5,0l-0.8,0.6
			c-0.8,0.5-1.9,1.3-3.2,2.4c-1.4,1.2-2.4,2.8-2.4,3.9c0,0.1,0,0.3,0.1,0.4c0.1,0.3,0.3,0.6,0.9,0.7c2.8,0.3,4.4-1.5,5.8-2.9
			l0.3-0.4c0.9-1,1.6-2.2,2.1-3c0.2-0.3,0.4-0.7,0.5-0.7c1.3-0.9,2.9-3.3,3.3-5.9C22.7,5.8,22.2,3.9,21.1,2.5L21.1,2.5z M7.2,10.1
			c-0.3,0.3-1,0-1.4-0.1L5.6,9.9C5.3,9.9,5,10.1,5,10.5c0,0.1-0.1,0.1-0.3,0.3c0-0.1-0.1-0.2-0.1-0.3c0-0.2,0-0.6-0.1-0.6
			C4.5,9.8,4.1,10.4,4.3,11c-0.1,0.1-0.2,0.1-0.3,0.1c-0.1-0.1-0.2-0.3-0.2-0.7c0-0.2,0-0.4,0.1-0.7C4.2,9.2,5,9.1,5.5,9l0.4-0.1
			c0.2-0.1,0.4-0.2,0.4-0.4C6.6,8.7,6.7,8.9,6.8,9C6.9,9.2,7.1,9.8,7.2,10.1C7.2,10.1,7.2,10.1,7.2,10.1L7.2,10.1z M12.5,12.5
			l-0.6,0.1c-0.2,0.1-0.5,0.1-0.6,0.1c0,0,0,0-0.1,0c0.1-0.1,0.2-0.4,0.4-0.5c0.4-0.3,0.9-0.4,0.8-0.5c-0.2-0.1-0.7,0-1,0.1
			c-0.4,0.2-0.6,0.5-0.8,0.7c-0.1-0.1-0.2-0.2-0.3-0.2c0.2-0.5,0.6-0.8,1-0.9c0.6-0.2,0.8-0.2,0.8-0.2c0.2,0,1.8,0.3,2.1,0.3
			c0,0,0,0,0,0c0.1,0,0.1,0.1,0.2,0.1c0.7,0.4,1.5,0.5,1.9,0.5c0,0.1-0.1,0.3-0.2,0.4C15.7,12.5,12.8,12.5,12.5,12.5L12.5,12.5z
			 M22.1,7.8c-0.3,2.4-1.9,4.8-3.1,5.7c-0.1,0.1-0.3,0.3-0.6,0.8c-0.4,0.8-1.1,1.9-2,2.9l-0.4,0.4c-1.3,1.5-2.9,3.1-5.5,2.8
			c-0.3,0-0.5-0.2-0.5-0.4c-0.2-0.8,0.6-2.5,2.2-3.9c1.3-1.1,2.4-1.8,3.2-2.3l0.9-0.7c0,0,0.1-0.1,0.2-0.2c0,0,0,0,0-0.1
			c0.2-0.4,0.3-0.8,0.3-0.8c0-0.1,0-0.1,0-0.1c0,0-0.1-0.1-0.1-0.1c0,0-1.1-0.1-2-0.5c-0.7-0.3-1.1-0.9-1.4-1.7
			c-0.4-1.2,0.2-2,0.8-2.7c0.5-0.6,0.9-1.1,0.8-1.8c0-0.1-0.1-0.2-0.2-0.1c-0.1,0-0.2,0.1-0.2,0.2v0c0,0,0,0.1,0,0.1
			c0,0.4-0.3,0.9-0.7,1.4c-0.5,0.6-1,1.3-1,2.2c0,0.3,0,0.6,0.1,0.9c0.2,0.5,0.4,0.9,0.7,1.3c-0.7-0.2-1.6-0.5-2.5-1.1
			c0,0-0.1,0-0.1,0c0.1-0.8,0-1.9-0.1-2.3c0-0.1-0.1-0.2-0.2-0.2c-0.1,0-0.2,0.1-0.2,0.2c0.1,1.1,0.1,2.5-0.1,2.7l-0.4,0.3l-0.9,0.8
			L8.4,12l-0.3,0.2c-0.2,0.2-0.9,0.2-1.3,0.2H6c0.1-0.2,0.1-0.4,0.1-0.5c-0.1-0.1-0.4,0.3-0.6,0.5H5.1c0.2-0.3,0.4-0.7,0.6-0.8H6
			c0.3,0,0.7,0,1-0.2c0.6-0.3,0.6-0.8,0.7-0.9c0-0.2-0.4-1.5-0.5-1.8c-0.2-0.4-1.2-1-1.9-1.2c-0.5-0.1-1.5,0.1-2,0.1L2.9,7.7H2.7
			c-0.2,0-0.7,0.1-1-0.1c0.2-0.1,0.3-0.2,0.4-0.4V6.9C1.9,6.1,1.3,6.3,1.1,6.3l-0.1,0c0,0-0.4-0.1-0.6-0.5l0.4-0.2
			c0,0,0.1-0.2,0.1-0.3C0.7,5.3,0.5,5.3,0.5,5.3L0.1,5.5c0,0-0.1-0.2,0-0.2c0-0.1,0.1-0.3,0.4-0.4c0.1,0,0.1-0.1,0.1-0.1
			c0,0,0.2-0.6,1.5-1.3l0.8-0.4C3.9,2.5,4.8,2,5.4,1.9l2.1-0.3l0.6-0.3C8.7,1,9.7,0.5,10.8,0.3c0.1,0,5.9-2.5,10,2.5
			C22,4.1,22.4,5.8,22.1,7.8L22.1,7.8z"/>
		<path id="Path" class="st0" d="M5.1,2.6c-0.2-0.1-0.4-0.1-0.6,0C4.1,2.7,4,3.1,4.2,3.2c0.2,0.1,0.3-0.1,0.4-0.1c0,0,0.1-0.1,0.2,0
			c0.1,0.1,0.1,0.1,0.1,0.2c0,0,0,0.2,0.2,0.3C5.3,3.5,5.6,2.9,5.1,2.6L5.1,2.6z"/>
		<path id="Path_00000166651690786794487770000009749915763427991698_" class="st0" d="M1.9,5.1C1.6,5.6,2.3,6.3,2.5,6.2
			c0.2-0.1-0.3-0.6-0.2-0.9c0.2-0.3,1.3-0.8,1.3-1C3.6,4.1,2.1,4.6,1.9,5.1L1.9,5.1z"/>
		<path id="Path_00000034090048459424780390000002969631565432411026_" class="st0" d="M15.6,15c-0.5,0-1-0.1-1.1,0.1
			s0.5,0.3,1.1,0.3c0.4,0,1-0.1,1-0.3C16.6,15,16,15.1,15.6,15L15.6,15z"/>
		<path id="Path_00000163055271978183157610000003843373099773862590_" class="st0" d="M14.3,16.2c-0.6,0-1.2-0.1-1.3,0.1
			c0,0.2,0.6,0.3,1.3,0.3c0.4,0,1.2-0.1,1.2-0.3C15.5,16.2,14.7,16.3,14.3,16.2z"/>
		<path id="Path_00000034793136784422037740000017350089116522199436_" class="st0" d="M13.2,17.5c-0.6,0-1.2-0.1-1.2,0.1
			s0.6,0.3,1.2,0.3c0.4,0,1.2-0.1,1.1-0.3S13.6,17.5,13.2,17.5L13.2,17.5z"/>
		<path id="Path_00000047042711747747596670000016575683715921000085_" class="st0" d="M12.1,18.8c-0.4,0-0.9-0.1-0.9,0.1
			c0,0.2,0.4,0.3,0.9,0.3c0.3,0,0.9-0.1,0.8-0.2C12.9,18.8,12.4,18.8,12.1,18.8L12.1,18.8z"/>
		<path id="Path_00000169528414827011768360000012210807224720480921_" class="st0" d="M2.2,4.4l0.1-0.1c0.1,0,0.2-0.2,0.2-0.3
			c0-0.1-0.2-0.2-0.3-0.2L2,3.9c-0.1,0-0.2,0.2-0.2,0.3C1.9,4.4,2.1,4.5,2.2,4.4z"/>
		<path id="Path_00000098211253210859098640000006405197123808137378_" class="st0" d="M10.5,1.5c0,0-0.1-0.1-0.2-0.1L8.8,2
			C8.7,2,8.6,2.2,8.7,2.4c0.1,0.1,0.2,0.2,0.4,0.2l1.4-0.8C10.5,1.8,10.6,1.6,10.5,1.5L10.5,1.5z"/>
		<path id="Path_00000024703817246719778490000005683877456089464720_" class="st0" d="M10.6,3.1c0,0,0.1-0.1,0.1-0.2
			c0-0.1-0.1-0.1-0.2-0.1L9.4,2.9C9.2,3,9.2,3.1,9.2,3.3c0,0.1,0.2,0.3,0.3,0.2L10.6,3.1L10.6,3.1z"/>
		<path id="Path_00000156577721845402448690000000255214747626866604_" class="st0" d="M10.6,4.2l-0.9,0c-0.1,0-0.2,0.2-0.2,0.3
			c0,0.1,0.1,0.3,0.3,0.3l0.9-0.2c0,0,0.1-0.1,0.1-0.2C10.8,4.2,10.6,4.1,10.6,4.2L10.6,4.2z"/>
		<path id="Path_00000018944771272879486870000002175972524965328539_" class="st0" d="M10.4,5.5L9.7,5.3c-0.1,0-0.2,0.1-0.2,0.2
			c0,0.1,0.1,0.3,0.2,0.3l0.7-0.1c0,0,0.1-0.1,0.1-0.2C10.6,5.5,10.5,5.5,10.4,5.5L10.4,5.5z"/>
		<path id="Path_00000119086912302401080590000014767934057311551874_" class="st0" d="M16.6,0.7c-0.1,0-0.3,0.1-0.3,0.2
			c0,0.1,0.1,0.3,0.2,0.3c0,0,0.8,0.2,1.4,0.5c0.1,0.1,0.2,0,0.3-0.1c0.1-0.1,0-0.2-0.1-0.3C17.4,1,16.6,0.8,16.6,0.7z"/>
		<path id="Path_00000092414301490646821690000017784873806629998728_" class="st0" d="M16.9,2c-0.1,0-0.3,0.1-0.3,0.2
			s0.1,0.3,0.2,0.3c0,0,0.6,0.1,1,0.4c0.1,0,0.2,0,0.3-0.1c0.1-0.1,0-0.2-0.1-0.3C17.4,2.2,16.9,2.1,16.9,2L16.9,2z"/>
		<path id="Path_00000020396209033011566010000008370235624255990405_" class="st0" d="M16.9,3.2c-0.1,0-0.2,0-0.2,0.1
			c0,0.1,0,0.2,0.1,0.2c0,0,0.5,0.2,0.7,0.2c0.1,0,0.2,0,0.2-0.1c0-0.1,0-0.2-0.1-0.2C17.2,3.2,17,3.2,16.9,3.2L16.9,3.2z"/>
		<path id="Path_00000168097637202477560620000011117871852665684137_" class="st0" d="M16.9,4.2c0,0-0.2,0-0.2,0.1
			c0,0.1,0,0.2,0.1,0.2c0,0,0.3,0.1,0.5,0.1c0.1,0,0.2,0,0.2-0.1c0-0.1,0-0.2-0.1-0.2C17.2,4.3,16.9,4.2,16.9,4.2L16.9,4.2z"/>
		<path id="Path_00000005971939885251098430000001307503578761222335_" class="st0" d="M20.4,3.5c-0.5-0.5-0.8-0.7-0.9-0.7
			c-0.1-0.1-0.3,0-0.4,0.1c-0.1,0.1,0,0.3,0.1,0.4c0,0,0.3,0.1,0.8,0.6c0.1,0.1,0.2,0.1,0.3,0C20.5,3.8,20.5,3.6,20.4,3.5L20.4,3.5z
			"/>
		<path id="Path_00000119835329593291995720000015992326959835991426_" class="st0" d="M19.4,4.1c-0.1-0.1-0.3,0-0.3,0.1
			c-0.1,0.1,0,0.3,0.1,0.3c0,0,0.2,0.1,0.6,0.4c0.1,0.1,0.2,0.1,0.3,0C20,4.8,20,4.7,20,4.6C19.5,4.1,19.4,4.1,19.4,4.1L19.4,4.1z"
			/>
		<path id="Path_00000064340654012978431450000016085215180532412057_" class="st0" d="M19,5.1c-0.1-0.1-0.2,0-0.3,0.1
			c-0.1,0.1,0,0.2,0.1,0.3c0,0,0.2,0.1,0.4,0.2c0.1,0.1,0.2,0.1,0.2,0c0.1-0.1,0.1-0.2,0-0.2C19.3,5.3,19.1,5.1,19,5.1z"/>
		<path id="Path_00000119826843264206012680000007457421063824669346_" class="st0" d="M18.6,5.9c0,0-0.2,0-0.2,0
			c-0.1,0.1,0,0.2,0,0.2c0,0,0.1,0,0.2,0.1c0.1,0.1,0.1,0.1,0.2,0c0.1-0.1,0.1-0.1,0-0.2C18.7,5.9,18.7,5.9,18.6,5.9L18.6,5.9z"/>
		<path id="Path_00000158726869050023090180000001797532097074600331_" class="st0" d="M21.1,6.1c0,0,0.1,0.1,0.2,0.1
			c0.1-0.1,0.1-0.1,0.1-0.2c-0.1-0.1-0.1-0.3-0.2-0.4c-0.1-0.1-0.2-0.1-0.3,0c-0.1,0.1-0.1,0.2,0,0.3C20.9,5.8,21,5.9,21.1,6.1
			L21.1,6.1z"/>
		<path id="Path_00000106860551107760416120000001823322910032558985_" class="st0" d="M20.6,6.3c0,0-0.2-0.1-0.2,0
			c-0.1,0.1-0.1,0.2,0,0.2c0.1,0.1,0.1,0.1,0.1,0.1c0.1,0.1,0.1,0.1,0.2,0.1c0.1,0,0.1-0.1,0.1-0.2C20.7,6.4,20.7,6.3,20.6,6.3
			L20.6,6.3z"/>
	</g>
	<g id="Right_Book" transform="translate(25.168615, 57.343561)">
		<path id="Shape_00000147928297740260155540000004485887101539379898_" class="st0" d="M17.5,1.2h-1l-1-0.7l0,0
			c0,0-0.1-0.1-0.2-0.1h-1.3c-0.3,0-0.5-0.2-0.8-0.4c-0.5-0.3-1.1-0.8-2.2-0.8C9.6-0.7,9-0.2,8.7,0.2C8.4-0.2,7.8-0.7,6.5-0.7
			c-1.1,0-1.7,0.5-2.2,0.8C4,0.3,3.8,0.4,3.5,0.4H2.2c0,0-0.1,0-0.2,0.1L1,1.2h-1c-0.1,0-0.3,0.1-0.3,0.3v9.3c0,0.1,0.1,0.3,0.3,0.3
			h7.2c0.2,0.1,0.5,0.4,1.1,0.5c0.3,0.1,0.7,0,1,0c0.6-0.1,0.9-0.4,1.1-0.5h7.2c0.1,0,0.3-0.1,0.3-0.3V1.5
			C17.7,1.3,17.6,1.2,17.5,1.2L17.5,1.2z M9,0.7c0,0,0.3-0.9,1.9-0.9c0.9,0,1.5,0.4,1.9,0.7C13.1,0.7,13.5,1,13.9,1H15v7.6h-1.1
			c-0.4,0-0.7-0.2-1.2-0.4c-0.6-0.2-1.2-0.5-1.9-0.5C9.9,7.7,9.3,8.1,9,8.4L9,0.7L9,0.7z M2.5,1h1.1C4,1,4.3,0.7,4.6,0.5
			c0.4-0.3,0.9-0.7,1.9-0.7c1.6,0,1.9,0.9,1.9,1c0,0,0,6.9,0,7.6C8.2,8.1,7.5,7.7,6.7,7.7C6,7.7,5.3,7.9,4.8,8.2
			C4.3,8.4,4,8.5,3.6,8.5H2.5L2.5,1L2.5,1z M1.3,1.6c0.1-0.1,0.4-0.2,0.6-0.4v7.6c0,0.1,0.1,0.3,0.3,0.3h1.4C4,9.1,4.5,8.9,5,8.7
			c0.5-0.2,1.1-0.5,1.7-0.5C7.6,8.2,8.3,9,8.3,9C8.3,9,8.4,9.1,8.5,9.1H9c0,0,0.1,0,0.2-0.1c0,0,0.7-0.8,1.6-0.8
			c0.6,0,1.2,0.2,1.7,0.5c0.5,0.2,0.9,0.4,1.4,0.4h1.4c0.1,0,0.3-0.1,0.3-0.3V1.2c0.2,0.1,0.5,0.3,0.6,0.4v7.7h-6c0,0-0.1,0-0.2,0.1
			c0,0-0.4,0.4-1,0.5H8.7c-0.6-0.1-1-0.5-1-0.5C7.6,9.4,7.5,9.3,7.4,9.3h-6L1.3,1.6L1.3,1.6z M17.2,10.5h-7c0,0-0.1,0-0.2,0.1
			c0,0-0.3,0.4-0.9,0.5c-0.2,0-0.6,0-0.8,0c-0.6-0.1-0.9-0.5-0.9-0.5c-0.1-0.1-0.1-0.1-0.2-0.1h-7V1.7h0.6v7.9
			c0,0.1,0.1,0.3,0.3,0.3h6.2C7.5,10,8,10.4,8.6,10.5H9c0.6-0.1,1.1-0.4,1.2-0.6h6.2c0.1,0,0.3-0.1,0.3-0.3V1.7h0.6L17.2,10.5
			L17.2,10.5z"/>
		<path id="Path_00000111898199675049780160000013725536134170179517_" class="st0" d="M3.6,2.3c0.1,0,0.6,0,1.2-0.3l0.4-0.2
			l0.8-0.3c0.5-0.1,1-0.1,1.2,0c-0.1,0-0.1-0.1-0.1-0.1c0-0.1,0.1-0.1,0.1-0.1c0,0-0.6-0.1-1.3,0L5.2,1.6L4.8,1.8
			C4.2,2,3.8,2.1,3.7,2.1c-0.1,0-0.1,0.1-0.1,0.1S3.6,2.3,3.6,2.3L3.6,2.3z"/>
		<path id="Path_00000165198928340550987510000000311865969898848147_" class="st0" d="M3.6,3.9c0.1,0,0.6,0,1.2-0.3l0.4-0.2
			l0.8-0.3c0.5-0.1,1-0.1,1.2,0c0.1,0,0.1,0,0.1-0.1c0-0.1,0-0.1-0.1-0.1c0,0-0.6-0.1-1.3,0L5.2,3.2L4.8,3.4c-0.6,0.2-1,0.3-1.1,0.3
			c-0.1,0-0.1,0.1-0.1,0.1C3.6,3.9,3.6,3.9,3.6,3.9L3.6,3.9z"/>
		<path id="Path_00000124124192159981977340000013476515180743435427_" class="st0" d="M3.6,5.5c0.1,0,0.6,0,1.2-0.3L5.3,5l0.8-0.3
			c0.5-0.1,1-0.1,1.2,0c0.1,0,0.1,0,0.1-0.1c0-0.1,0-0.1-0.1-0.1c0,0-0.6-0.1-1.3,0L5.2,4.8L4.8,5c-0.6,0.2-1,0.3-1.1,0.3
			c-0.1,0-0.1,0.1-0.1,0.1C3.5,5.5,3.6,5.5,3.6,5.5L3.6,5.5z"/>
		<path id="Path_00000062882641224835005080000012635780894595470754_" class="st0" d="M4.8,6.8l0.4-0.2l0.8-0.3
			c0.5-0.1,1-0.1,1.2,0c-0.1,0-0.1-0.1-0.1-0.1C7.2,6,7.3,6,7.4,6c0,0-0.6-0.1-1.3,0L5.2,6.4L4.8,6.6c-0.6,0.2-1,0.3-1.1,0.3
			C3.6,6.9,3.6,6.9,3.6,7c0,0.1,0.1,0.1,0.1,0.1C3.8,7.1,4.3,7.1,4.8,6.8L4.8,6.8z"/>
		<path id="Path_00000039115127684980702100000013463219134195734418_" class="st0" d="M10.1,1.5c0.2,0,0.7-0.1,1.2,0l0.8,0.3
			L12.5,2c0.6,0.3,1.1,0.3,1.2,0.3c0.1,0,0.1-0.1,0.1-0.1c0-0.1-0.1-0.1-0.1-0.1c-0.1,0-0.6,0-1.1-0.3l-0.4-0.2l-0.9-0.4
			c-0.6-0.2-1.3,0-1.3,0C10,1.2,10,1.3,10.1,1.5C10,1.4,10.1,1.5,10.1,1.5L10.1,1.5z"/>
		<path id="Path_00000149356552095380398440000000009950740553769348_" class="st0" d="M10.1,3.1c0.1,0,0.7-0.1,1.2,0l0.8,0.3
			l0.4,0.2c0.6,0.3,1.1,0.3,1.2,0.3c0.1,0,0.1-0.1,0.1-0.1c0-0.1-0.1-0.1-0.1-0.1c-0.1,0-0.6,0-1.1-0.3l-0.4-0.2l-0.9-0.4
			c-0.7-0.2-1.3,0-1.3,0C10,2.8,10,2.9,10.1,3.1C10,3.1,10.1,3.1,10.1,3.1L10.1,3.1z"/>
		<path id="Path_00000132083488178798861300000009603149744329273479_" class="st0" d="M10.1,4.7c0.2,0,0.7-0.1,1.2,0L12.1,5
			l0.4,0.2c0.6,0.3,1.1,0.3,1.2,0.3c0.1,0,0.1-0.1,0.1-0.1c0-0.1-0.1-0.1-0.1-0.1c-0.1,0-0.6,0-1.1-0.3l-0.4-0.2l-0.9-0.4
			c-0.5-0.1-1.1-0.1-1.3,0C10,4.4,10,4.5,10,4.6C10,4.7,10.1,4.7,10.1,4.7L10.1,4.7z"/>
		<path id="Path_00000153685985351495407630000014694519927609571477_" class="st0" d="M12.1,6.6l0.4,0.2c0.6,0.3,1.1,0.3,1.2,0.3
			c0.1,0,0.1-0.1,0.1-0.1c0-0.1-0.1-0.1-0.1-0.1c-0.1,0-0.6,0-1.1-0.3l-0.4-0.2l-0.9-0.4c-0.5-0.1-1.1-0.1-1.3,0C10,6,10,6.1,10,6.2
			c0,0.1,0.1,0.1,0.1,0.1c0.2,0,0.7-0.1,1.2,0L12.1,6.6L12.1,6.6z"/>
	</g>
	<g id="Left_Book" transform="translate(3.441653, 57.362164)">
		<path id="Path_00000071557500133730164400000008005901892152089993_" class="st0" d="M3.7,2.3c0.1,0,0.6,0,1.2-0.3l0.4-0.2
			l0.8-0.3c0.5-0.1,1-0.1,1.2,0c-0.1,0-0.1-0.1-0.1-0.1c0-0.1,0.1-0.1,0.1-0.1c0,0-0.6-0.1-1.3,0L5.3,1.6L4.8,1.8
			C4.3,2,3.8,2.1,3.7,2.1c-0.1,0-0.1,0.1-0.1,0.1S3.7,2.3,3.7,2.3L3.7,2.3z"/>
		<path id="Path_00000055688058816822271510000003642524306030371974_" class="st0" d="M3.7,3.9c0.1,0,0.6,0,1.2-0.3l0.4-0.2
			l0.8-0.3c0.5-0.1,1-0.1,1.2,0c0.1,0,0.1,0,0.1-0.1c0-0.1,0-0.1-0.1-0.1c0,0-0.6-0.1-1.3,0L5.3,3.2L4.8,3.4c-0.6,0.2-1,0.3-1.1,0.3
			c-0.1,0-0.1,0.1-0.1,0.1C3.6,3.9,3.6,3.9,3.7,3.9L3.7,3.9z"/>
		<path id="Path_00000083053675087288941070000012399497465860660915_" class="st0" d="M3.7,5.5c0.1,0,0.6,0,1.2-0.3L5.3,5l0.8-0.3
			c0.5-0.1,1-0.1,1.2,0c0.1,0,0.1,0,0.1-0.1c0-0.1,0-0.1-0.1-0.1c0,0-0.6-0.1-1.3,0L5.3,4.8L4.8,5c-0.6,0.2-1,0.3-1.1,0.3
			c-0.1,0-0.1,0.1-0.1,0.1C3.6,5.5,3.7,5.5,3.7,5.5L3.7,5.5z"/>
		<path id="Path_00000098183170866343615940000012707782529188284585_" class="st0" d="M3.7,7.1c0.1,0,0.6,0,1.2-0.3l0.4-0.2
			l0.8-0.3c0.5-0.1,1-0.1,1.2,0c-0.1,0-0.1-0.1-0.1-0.1C7.2,6,7.3,6,7.4,6c0,0-0.6-0.1-1.3,0L5.3,6.4L4.8,6.6
			c-0.6,0.2-1,0.3-1.1,0.3C3.6,6.9,3.6,6.9,3.6,7C3.6,7.1,3.7,7.1,3.7,7.1L3.7,7.1z"/>
		<path id="Path_00000121975547914710966680000012241926030793546886_" class="st0" d="M10.2,1.3c0,0,0,0.1-0.1,0.1
			c0.2,0,0.7-0.1,1.2,0l0.8,0.3L12.6,2c0.6,0.3,1.1,0.3,1.2,0.3c0.1,0,0.1-0.1,0.1-0.1c0-0.1-0.1-0.1-0.1-0.1c-0.1,0-0.6,0-1.1-0.3
			l-0.4-0.2l-0.9-0.4C10.8,1.1,10.1,1.2,10.2,1.3C10.2,1.2,10.3,1.2,10.2,1.3L10.2,1.3z"/>
		<path id="Path_00000054962508719157734510000017106784798378326665_" class="st0" d="M10.1,3c0.1,0,0.7-0.1,1.2,0l0.8,0.3l0.4,0.2
			c0.6,0.3,1.1,0.3,1.2,0.3c0.1,0,0.1-0.1,0.1-0.1c0-0.1-0.1-0.1-0.1-0.1c-0.1,0-0.6,0-1.1-0.3l-0.4-0.2l-0.9-0.4
			c-0.7-0.2-1.3,0-1.3,0C10.1,2.8,10,2.9,10.1,3C10,3,10.1,3.1,10.1,3L10.1,3z"/>
		<path id="Path_00000150063373933174493250000007028699493035823766_" class="st0" d="M11.3,4.7L12.1,5l0.4,0.2
			c0.6,0.3,1.1,0.3,1.2,0.3c0.1,0,0.1-0.1,0.1-0.1c0-0.1-0.1-0.1-0.1-0.1c-0.1,0-0.6,0-1.1-0.3l-0.4-0.2l-0.9-0.4
			c-0.6-0.2-1.3,0-1.3,0c-0.1,0-0.1,0.1-0.1,0.1c0,0.1,0.1,0.1,0.1,0.1C10.3,4.6,10.9,4.6,11.3,4.7L11.3,4.7z"/>
		<path id="Path_00000063633090675685187420000005817430709247212446_" class="st0" d="M12.1,6.6l0.4,0.2c0.6,0.3,1.1,0.3,1.2,0.3
			c0.1,0,0.1-0.1,0.1-0.1c0-0.1-0.1-0.1-0.1-0.1c-0.1,0-0.6,0-1.1-0.3l-0.4-0.2L11.4,6c-0.6-0.2-1.3,0-1.3,0c0.1,0,0.1,0,0.1,0.1
			c0,0.1,0,0.1-0.1,0.1c0.2,0,0.7-0.1,1.2,0L12.1,6.6L12.1,6.6z"/>
		<path id="Shape_00000147918573938956142220000005013031574162309028_" class="st0" d="M17.5,1.2h-1l-1-0.7c0,0-0.1-0.1-0.2-0.1
			h-1.3c-0.3,0-0.5-0.2-0.8-0.4c-0.5-0.3-1.1-0.8-2.2-0.8C9.6-0.7,9-0.2,8.7,0.2C8.4-0.2,7.7-0.7,6.5-0.7c-1.1,0-1.7,0.5-2.2,0.8
			C4,0.3,3.7,0.4,3.5,0.4H2.1c0,0-0.1,0-0.2,0.1L1,1.2h-1c-0.1,0-0.3,0.1-0.3,0.3v9.3c0,0.1,0.1,0.3,0.3,0.3h7.2
			c0.2,0.1,0.5,0.4,1.1,0.5c0.3,0.1,0.7,0,1,0c0.6-0.1,0.9-0.4,1.1-0.5h7.2c0.1,0,0.3-0.1,0.3-0.3V1.5C17.7,1.3,17.6,1.2,17.5,1.2
			L17.5,1.2z M9,0.7c0,0,0.3-0.9,1.9-0.9c0.9,0,1.5,0.4,1.9,0.7C13.1,0.7,13.4,1,13.9,1h1.1v7.6h-1.1c-0.4,0-0.7-0.2-1.2-0.4
			c-0.6-0.2-1.2-0.5-1.9-0.5C9.9,7.7,9.3,8.1,9,8.4L9,0.7L9,0.7z M2.5,1h1.1C4,1,4.3,0.7,4.6,0.5c0.4-0.3,0.9-0.7,1.9-0.7
			c1.6,0,1.9,0.9,1.9,1c0,0,0,6.9,0,7.6C8.2,8.1,7.5,7.6,6.7,7.6C6,7.6,5.3,7.9,4.8,8.2C4.3,8.4,3.9,8.5,3.6,8.5H2.5L2.5,1L2.5,1z
			 M1.3,1.6c0.1-0.1,0.4-0.2,0.6-0.4v7.6C1.9,9,2,9.1,2.2,9.1h1.4C4,9.1,4.5,8.9,5,8.7C5.5,8.4,6,8.2,6.7,8.2C7.6,8.2,8.2,9,8.2,9
			C8.3,9,8.4,9.1,8.5,9.1H9c0,0,0.1,0,0.2-0.1c0,0,0.7-0.8,1.6-0.8c0.6,0,1.2,0.2,1.7,0.5c0.5,0.2,0.9,0.4,1.4,0.4h1.4
			c0.1,0,0.3-0.1,0.3-0.3V1.2c0.2,0.1,0.5,0.3,0.6,0.4v7.7h-6c0,0-0.1,0-0.2,0.1c0,0-0.4,0.4-1,0.5H8.6c-0.6-0.1-1-0.5-1-0.5
			C7.5,9.3,7.5,9.3,7.4,9.3H1.3V1.6L1.3,1.6z M17.2,10.5h-7c0,0-0.1,0-0.2,0.1c0,0-0.3,0.4-0.9,0.5c-0.2,0-0.6,0-0.8,0
			c-0.6-0.1-0.9-0.5-0.9-0.5c-0.1-0.1-0.1-0.1-0.2-0.1h-7V1.7h0.6v7.9c0,0.1,0.1,0.3,0.3,0.3h6.2c0.2,0.2,0.6,0.5,1.3,0.6h0.4
			c0.6-0.1,1.1-0.4,1.2-0.6h6.2c0.1,0,0.3-0.1,0.3-0.3V1.7h0.6V10.5z"/>
	</g>
	<g id="Crown" transform="translate(12.872791, 38.889106)">
		<path id="Path_00000047767459248617787320000015388775307285974171_" class="st0" d="M10.1,11c-3.4,0-7.1,0.8-7.1,2.3
			C3.1,14,3.8,14.6,5,15c0.1,0,0.5,0.1,0.5,0.1l-0.4-0.2c-1-0.5-1.5-1.1-1.5-1.5c0-0.9,2.8-1.8,6.5-1.8s6.5,0.9,6.5,1.8
			c0,0.4-0.4,1-1.4,1.5c0,0-0.4,0.2-0.4,0.2c0,0.1,0.4-0.1,0.4-0.1c1.1-0.4,1.9-0.9,1.9-1.6C17.2,11.8,13.6,11,10.1,11L10.1,11z"/>
		<path id="Path_00000095340902518578658540000015889395178892296576_" class="st0" d="M18.2,8.3c-0.3,0.4-1,1.6-1.1,1.9v0h0
			c-0.3-0.2-0.6-0.4-1.1-0.5c-1.5-0.6-3.6-0.9-5.8-0.9h0C8,8.9,5.9,9.2,4.4,9.8c-0.5,0.2-0.8,0.4-1.1,0.5h0C3.1,9.9,2.5,8.7,2.1,8.4
			C2.1,8.2,1.9,8.4,2,8.5c0.5,1,0.7,1.9,0.7,2.2c0,0.2,0.1,0.3,0.2,0.3c0.1,0,0.2,0,0.3,0c0.3-0.2,0.7-0.4,1.4-0.7
			C6,9.8,8,9.5,10.2,9.5h0c2.2,0,4.2,0.3,5.6,0.8c0.7,0.2,1.1,0.5,1.4,0.7c0.1,0.1,0.2,0.1,0.3,0c0.1-0.1,0.2-0.2,0.2-0.3
			c0.1-0.3,0.2-1.2,0.7-2.2C18.4,8.4,18.3,8.2,18.2,8.3L18.2,8.3z"/>
		<path id="Path_00000083769399860368191040000018223947987552034734_" class="st0" d="M10.6,10.2c0-0.3-0.2-0.5-0.5-0.5
			c-0.3,0-0.5,0.2-0.5,0.5s0.2,0.5,0.5,0.5C10.4,10.7,10.6,10.5,10.6,10.2z"/>
		<path id="Path_00000150092215882943789030000003869345005805241516_" class="st0" d="M7.3,10.5C7.3,10.2,7,10,6.8,10
			s-0.5,0.2-0.5,0.5c0,0.3,0.2,0.5,0.5,0.5S7.3,10.7,7.3,10.5z"/>
		<path id="Path_00000032628780968792310280000002576250705098706104_" class="st0" d="M3.8,11.9C4,11.8,4.1,11.5,4,11.3
			c-0.1-0.2-0.4-0.3-0.7-0.2c-0.2,0.1-0.3,0.4-0.2,0.7C3.3,12,3.6,12.1,3.8,11.9z"/>
		<path id="Path_00000014620071137991551770000012744666916933373628_" class="st0" d="M5.4,10.8c0-0.1-0.1-0.2-0.2-0.2
			s-0.2,0.1-0.2,0.2c0,0.1,0.1,0.2,0.2,0.2S5.4,11,5.4,10.8z"/>
		<path id="Path_00000005968381235645324830000008210136047030463625_" class="st0" d="M8.7,10.3c0-0.1-0.1-0.2-0.2-0.2
			s-0.2,0.1-0.2,0.2c0,0.1,0.1,0.2,0.2,0.2S8.7,10.4,8.7,10.3z"/>
		<path id="Path_00000174601306899198258390000010688432693585483424_" class="st0" d="M14,10.5c0-0.3-0.2-0.5-0.5-0.5
			c-0.3,0-0.5,0.2-0.5,0.5c0,0.3,0.2,0.5,0.5,0.5C13.8,10.9,14,10.7,14,10.5z"/>
		<path id="Path_00000133515419036727239400000006245523157518669456_" class="st0" d="M17,11.1c-0.2-0.1-0.5,0-0.7,0.2
			c-0.1,0.2,0,0.5,0.2,0.7c0.2,0.1,0.5,0.1,0.7-0.2C17.3,11.5,17.2,11.2,17,11.1z"/>
		<path id="Path_00000180334178154415912060000015171837354184995993_" class="st0" d="M15.4,10.8c0-0.1-0.1-0.2-0.2-0.2
			S15,10.7,15,10.8c0,0.1,0.1,0.2,0.2,0.2S15.4,11,15.4,10.8z"/>
		<path id="Path_00000069391450340380870420000006571762857026048144_" class="st0" d="M12.1,10.3c0-0.1-0.1-0.2-0.2-0.2
			c-0.1,0-0.2,0.1-0.2,0.2c0,0.1,0.1,0.2,0.2,0.2C12,10.5,12.1,10.4,12.1,10.3z"/>
		<path id="Path_00000006696773340679211540000016975441267059924874_" class="st0" d="M10.2,4.3c-0.3,0-0.5,0.2-0.5,0.5
			c0,0.3,0.2,0.5,0.5,0.5c0.3,0,0.5-0.2,0.5-0.5C10.6,4.6,10.4,4.3,10.2,4.3z"/>
		<path id="Path_00000163063520180451184820000014920472271961654423_" class="st0" d="M10.2,3C9.9,3,9.7,3.2,9.7,3.4
			s0.2,0.5,0.5,0.5c0.3,0,0.5-0.2,0.5-0.5S10.4,3,10.2,3z"/>
		<path id="Path_00000003076174959912372770000010263784776544860044_" class="st0" d="M10.2,1.6c-0.3,0-0.5,0.2-0.5,0.5
			s0.2,0.5,0.5,0.5c0.3,0,0.5-0.2,0.5-0.5S10.4,1.6,10.2,1.6z"/>
		<path id="Path_00000026149521786245789020000017822099970858011015_" class="st0" d="M7.8,2.7c0.3,0,0.5-0.2,0.5-0.5
			S8.1,1.7,7.8,1.7C7.5,1.7,7.3,2,7.3,2.2S7.5,2.7,7.8,2.7z"/>
		<ellipse id="Oval" class="st0" cx="6.2" cy="1.7" rx="1" ry="1"/>
		<path id="Path_00000029753257142684253750000005171015123687474312_" class="st0" d="M4.6,1.8c0.3,0,0.5-0.2,0.5-0.5
			S4.8,0.8,4.6,0.8S4.1,1.1,4.1,1.3S4.3,1.8,4.6,1.8z"/>
		<path id="Path_00000039134573988316155740000009611294304711817369_" class="st0" d="M2.9,2c0.3,0,0.5-0.2,0.5-0.5
			S3.2,1.1,2.9,1.1S2.4,1.3,2.4,1.6S2.6,2,2.9,2z"/>
		<ellipse id="Oval_00000170249091905858765500000000967770685807024555_" class="st0" cx="1.4" cy="2.5" rx="1" ry="1"/>
		<path id="Path_00000152979854927448287010000003878028897743135622_" class="st0" d="M0.6,4.4c0.3,0,0.5-0.2,0.5-0.5
			S0.8,3.5,0.6,3.5S0.1,3.7,0.1,3.9S0.3,4.4,0.6,4.4z"/>
		<path id="Path_00000014596447352271263000000009219234649191333289_" class="st0" d="M1.1,5.7c0-0.3-0.2-0.5-0.5-0.5
			S0.1,5.4,0.1,5.7c0,0.3,0.2,0.5,0.5,0.5S1.1,5.9,1.1,5.7z"/>
		<path id="Path_00000165939435091707389320000011206613774758110116_" class="st0" d="M1.2,6.8C1,6.8,0.7,7,0.7,7.2
			c0,0.3,0.2,0.5,0.5,0.5s0.5-0.2,0.5-0.5C1.7,7,1.5,6.8,1.2,6.8z"/>
		<path id="Shape_00000119812251620217919500000000696475771516717447_" class="st0" d="M15.8,13.7c0-1.2-3.7-1.5-5.6-1.5
			s-5.7,0.3-5.7,1.5s3.7,1.5,5.7,1.5S15.8,14.9,15.8,13.7z M10.1,14.7C6.8,14.7,5,14,5,13.7s1.7-0.9,5.1-0.9s5.1,0.7,5.1,0.9
			S13.5,14.7,10.1,14.7z"/>
		<path id="Path_00000142175214673657542360000017508597719499264413_" class="st0" d="M9.4,0.6h0.5v0.5c0,0.1,0.1,0.3,0.3,0.3
			c0.1,0,0.3-0.1,0.3-0.3V0.6H11c0.1,0,0.3-0.1,0.3-0.3S11.1,0,11,0h-0.5v-0.5c0-0.1-0.1-0.3-0.3-0.3S9.9-0.6,9.9-0.5V0H9.4
			C9.3,0,9.1,0.2,9.1,0.3S9.3,0.6,9.4,0.6z"/>
		<path id="Shape_00000183951806060967939860000017879267951676744848_" class="st0" d="M3,8.5L3,8.5L3,8.5L3,8.5
			C3.3,9,3.9,9.4,4.6,9.2C5,9.1,5.4,9,5.7,8.5C5.8,8.3,5.9,8,5.6,7.6C5.6,7.5,5.4,7.4,5.3,7.5c-0.1,0-0.1,0.2,0,0.3
			c0.1,0.1,0.1,0.4-0.2,0.5c-0.1,0.1-0.3,0-0.3-0.1c0,0,0.3-0.2,0-0.4c-0.2-0.1-0.7-0.7,0-1c0.6-0.3,1,0.5,1,0.6
			c0.1,0.1,0.1,0.1,0.1,0C5.8,6.8,5.3,6.7,5.2,6.1C5.1,5.6,5.4,5.3,5.6,5.1c0.1-0.1,0.2-0.1,0.2,0c0.2,0.1,0.6,0.3,0.7,0.7
			c0.1,0.6-0.2,0.9-0.1,1.5c0,0.1,0.1,0.1,0.1,0c0-0.1,0.1-1,0.7-0.9C8,6.4,7.7,7,7.6,7.2C7.5,7.5,7.8,7.6,7.8,7.6
			c0,0.1-0.1,0.2-0.3,0.2c-0.2,0-0.4-0.2-0.4-0.4c0-0.1-0.1-0.2-0.1-0.2c-0.1,0-0.2,0.2-0.3,0.3C6.6,7.9,6.8,8.1,7,8.3
			c0.4,0.3,1,0.3,1.3,0.3c1.1-0.1,1.2-0.8,1.2-0.8C9.3,7.9,8.8,8,8.8,8s0,0-0.1,0C8.6,8,8.6,8,8.6,7.9V6.8c0-0.1,0.1-0.2,0.2-0.2
			c0,0,0,0,0.1,0l0.7,0.3L9.3,6.3c0,0,0,0,0-0.1c0-0.1,0.1-0.2,0.2-0.2h1.3c0.1,0,0.2,0.1,0.2,0.2c0,0,0,0,0,0.1l-0.2,0.6l0.7-0.3
			h0.1c0.1,0,0.2,0.1,0.2,0.2v1.1C11.7,8,11.6,8,11.5,8c0,0,0,0-0.1,0c0,0-0.5-0.2-0.7-0.3c0,0,0.1,0.7,1.2,0.8
			c0.3,0,0.9,0.1,1.3-0.3c0.2-0.2,0.4-0.4,0.3-0.8c0-0.1-0.2-0.3-0.3-0.3c-0.1,0-0.2,0.1-0.1,0.2c0.1,0.2-0.1,0.4-0.4,0.4
			c-0.2,0-0.3-0.1-0.3-0.2c0,0,0.3-0.1,0.2-0.4C12.5,7,12.2,6.3,13,6.3c0.6,0,0.7,0.8,0.7,0.9c0,0.1,0.1,0.1,0.1,0
			c0.1-0.5-0.2-0.9-0.1-1.5c0.1-0.4,0.5-0.6,0.7-0.7c0.1,0,0.2,0,0.2,0c0.2,0.1,0.5,0.5,0.4,0.9c-0.1,0.6-0.6,0.8-0.7,1.3
			c0,0.1,0,0.1,0.1,0c0.1-0.1,0.5-0.9,1-0.6c0.7,0.3,0.2,0.8,0,1c-0.3,0.2,0,0.4,0,0.4c0,0.1-0.2,0.1-0.3,0.1
			C15,8.2,14.9,7.9,15,7.8c0.1-0.1,0-0.3,0-0.3c-0.1,0-0.3,0.1-0.4,0.1c-0.3,0.3-0.2,0.7-0.1,0.9c0.2,0.5,0.7,0.5,1,0.7
			C16.4,9.4,17,9,17.3,8.6l0,0v0C17.8,7.8,19,6.2,19,4.7s-1.3-2.6-3-2.6c-0.7,0-1.5,0.3-2.2,0.5c-0.7,0.3-1.5,0.5-2.2,0.4V1.6
			c0-0.1-0.1-0.3-0.3-0.3c-0.1,0-0.3,0.1-0.3,0.3v4H9.1v-4c0-0.1-0.1-0.3-0.3-0.3S8.6,1.4,8.6,1.6v1.5C7.9,3.1,7.2,2.9,6.4,2.6
			C5.7,2.4,5,2.1,4.3,2.1c-1.7,0-3,1.1-3,2.6S2.4,7.8,3,8.5L3,8.5z M14.1,3.1c0.7-0.2,1.3-0.5,2-0.5c1.4,0,2.5,0.9,2.5,2
			c0,0.4-0.1,0.8-0.3,1.2c-0.1-0.3-0.2-0.6-0.4-0.8c-0.4-0.6-1.2-0.9-2.2-0.9c-0.4-0.5-1.3-0.8-2.2-0.8c-0.1,0-0.1,0-0.2,0
			C13.5,3.3,13.8,3.2,14.1,3.1L14.1,3.1z M11.7,3.6c0.2,0,0.3,0,0.5,0c-0.2,0.1-0.4,0.2-0.5,0.3V3.6z M11.7,4.6
			C12.2,4,13,3.9,13.5,3.9c0.9,0,1.7,0.4,1.9,0.7c0.1,0.1,0.1,0.1,0.2,0.1c0.9,0,1.5,0.2,1.8,0.7c0.4,0.5,0.4,1.2,0.3,1.5l0,0
			c-0.1,0.2-0.2,0.3-0.3,0.4c0.1-0.9-0.5-1.6-1.2-1.9c0,0-0.2-0.1-0.3,0c-0.1,0.2,1.2,1.1,0.8,2.2c-0.2,0.7-0.6,0.9-0.9,1
			c0,0-0.1,0-0.1,0c0.1-0.1,0.2-0.3,0.2-0.5c0-0.1,0-0.1,0-0.1c0,0,0,0,0,0c0.2-0.2,0.4-0.5,0.4-0.8c0,0,0-0.1,0-0.1
			c0-0.2-0.2-0.6-0.7-0.8c-0.1,0-0.1,0-0.2-0.1c0,0,0-0.1,0-0.1c0-0.1,0-0.2,0-0.3c0-0.6-0.4-1.1-0.7-1.3c0,0-0.2-0.1-0.4-0.1
			c-0.3,0.1-1.1,0.4-1.2,1.2c0,0,0,0.1,0,0.1c-0.1,0-0.1,0-0.2,0c-0.4,0-0.6,0.1-0.8,0.3c0-0.1-0.1-0.2-0.4-0.2
			c0.1-0.2,0.4-0.5,0.7-0.7C13,5,13.4,4.8,13.4,4.7S13.2,4.6,13,4.6c-0.2,0-0.5,0.1-0.5,0.1c-0.3,0.1-0.6,0.4-0.8,0.6L11.7,4.6
			L11.7,4.6L11.7,4.6z M8.1,6.1C7.9,5.9,7.7,5.8,7.3,5.8c-0.1,0-0.1,0-0.2,0c0,0,0-0.1,0-0.1C6.9,4.9,6.2,4.6,5.9,4.5
			C5.6,4.4,5.4,4.6,5.4,4.6C5.1,4.8,4.7,5.3,4.7,5.9c0,0.1,0,0.2,0,0.3c0,0,0,0.1,0,0.1c-0.1,0-0.1,0-0.2,0.1
			C4.1,6.5,3.9,6.9,3.9,7.1c0,0,0,0.1,0,0.1c0,0.4,0.2,0.6,0.4,0.8c0,0,0,0,0,0c0,0.1,0,0.1,0,0.1c0,0.2,0.1,0.3,0.2,0.5
			c0,0-0.1,0-0.1,0c-0.3-0.1-0.7-0.3-0.9-1c-0.3-1.1,0.9-2,0.8-2.2c-0.1-0.1-0.3,0-0.3,0c-0.6,0.3-1.3,1-1.2,1.9
			C2.8,7.2,2.7,7.1,2.7,7l0,0C2.6,6.6,2.5,5.9,2.9,5.4c0.4-0.5,1-0.7,1.8-0.7c0.1,0,0.2,0,0.2-0.1c0.3-0.3,1-0.7,1.9-0.7
			c0.4,0,1.3,0.1,1.8,0.7h0v0.7C8.5,5.1,8.2,4.9,7.9,4.7c-0.1,0-0.3-0.1-0.5-0.1C7.2,4.6,7,4.6,7,4.7s0.4,0.2,0.8,0.5
			c0.3,0.2,0.5,0.5,0.7,0.7C8.2,5.8,8.1,5.9,8.1,6.1L8.1,6.1z M8.7,3.6v0.3C8.5,3.8,8.3,3.7,8.2,3.6C8.3,3.6,8.5,3.6,8.7,3.6z
			 M4.3,2.7c0.7,0,1.3,0.2,2,0.5c0.3,0.1,0.5,0.2,0.8,0.3c-0.1,0-0.1,0-0.2,0C6,3.4,5.1,3.8,4.7,4.2c-1,0-1.7,0.3-2.2,0.9
			C2.3,5.4,2.2,5.7,2.1,5.9C2,5.5,1.9,5.1,1.9,4.7C1.9,3.6,2.9,2.7,4.3,2.7L4.3,2.7z"/>
		<path id="Path_00000089570082779410522300000015903278509626456497_" class="st0" d="M12.5,2.7c0.3,0,0.5-0.2,0.5-0.5
			s-0.2-0.5-0.5-0.5c-0.3,0-0.5,0.2-0.5,0.5S12.3,2.7,12.5,2.7z"/>
		<path id="Path_00000182515859822255852930000001452032394811530398_" class="st0" d="M14.1,2.2c0.3,0,0.5-0.2,0.5-0.5
			s-0.2-0.5-0.5-0.5s-0.5,0.2-0.5,0.5S13.9,2.2,14.1,2.2z"/>
		<path id="Path_00000079463993445923319100000006043606102240306070_" class="st0" d="M15.8,1.8c0.3,0,0.5-0.2,0.5-0.5
			s-0.2-0.5-0.5-0.5s-0.5,0.2-0.5,0.5S15.5,1.8,15.8,1.8z"/>
		<path id="Path_00000075844309779533282340000004488542288586306433_" class="st0" d="M17.5,2C17.7,2,18,1.8,18,1.6
			s-0.2-0.5-0.5-0.5c-0.3,0-0.5,0.2-0.5,0.5S17.2,2,17.5,2z"/>
		<path id="Path_00000067944752129957290970000014513034853452457895_" class="st0" d="M18.9,3c0.3,0,0.5-0.2,0.5-0.5S19.2,2,18.9,2
			c-0.3,0-0.5,0.2-0.5,0.5S18.7,3,18.9,3z"/>
		<path id="Path_00000066487274948979554390000015842193350005788067_" class="st0" d="M19.8,4.4c0.3,0,0.5-0.2,0.5-0.5
			S20,3.5,19.8,3.5s-0.5,0.2-0.5,0.5S19.5,4.4,19.8,4.4z"/>
		<path id="Path_00000161609326674729336320000008390297705486719907_" class="st0" d="M19.7,5.2c-0.3,0-0.5,0.2-0.5,0.5
			c0,0.3,0.2,0.5,0.5,0.5c0.3,0,0.5-0.2,0.5-0.5C20.2,5.4,20,5.2,19.7,5.2z"/>
		<path id="Path_00000054237905396871464820000006119057676941435551_" class="st0" d="M19.2,6.8c-0.3,0-0.5,0.2-0.5,0.5
			c0,0.3,0.2,0.5,0.5,0.5s0.5-0.2,0.5-0.5C19.6,7,19.4,6.8,19.2,6.8z"/>
	</g>
	<path id="Tree" class="st0" d="M38.8,17c0,0,0.1-0.2,0.1-0.3c0-0.2-0.1-0.4-0.3-0.7c-0.6-0.6-1.5,0-1.9,0.3c0-0.1-0.1-0.3-0.3-0.4
		c0-0.1,0.1-0.2,0-0.3c0-0.4-0.4-0.5-0.6-0.6h0c0.4,0,1.1,0,1.2-0.6v-0.3l0.4,0c0.6,0.1,1.5,0.3,1.8-0.3c0-0.1,0.1-0.2,0.1-0.3
		c0-0.2-0.1-0.4-0.2-0.6c0,0,0,0-0.1-0.1c0.3-0.1,1-0.5,1-1.2c0-0.2,0-0.4-0.1-0.6c-0.3-0.7-1.1-0.5-1.5-0.4c0,0-0.1,0-0.1,0v0
		c0,0,0-0.1,0-0.2c0-0.2,0-0.4-0.2-0.5c-0.1-0.1-0.2-0.2-0.4-0.2c0.2-0.2,0.3-0.4,0.3-0.7c0-0.1,0-0.3-0.1-0.4
		c-0.1-0.2-0.3-0.4-0.5-0.5c-0.5-0.2-1.1,0.1-1.4,0.2c0-0.1-0.1-0.1-0.1-0.2c0-0.1,0.1-0.2,0.1-0.3c0-0.2-0.1-0.4-0.1-0.6
		c0.3-0.2,0.6-0.5,0.7-0.9c0-0.1,0-0.1,0-0.1c0-0.2-0.1-0.4-0.2-0.5c-0.5-0.6-1.3-0.4-1.6-0.2h-0.1c-0.1-0.2-0.3-0.4-0.7-0.6
		c-0.5-0.1-0.9,0.3-1.3,0.6l-0.1,0.1l-0.1-0.1l-0.5-0.3c-0.5-0.1-1,0.7-1.1,0.9l0,0C31,6.1,30.9,6,30.8,5.9l0.1-0.1
		c0.3-0.2,0.7-0.6,0.7-1l0,0c0-0.3-0.1-0.5-0.3-0.7c-0.3-0.3-0.6-0.4-0.9-0.4c-0.6,0-1,0.5-1.2,0.8l0,0c0,0-0.1-0.2-0.1-0.3
		c0-0.1,0-0.2,0-0.3c0-0.1,0-0.2-0.1-0.4c0-0.1-0.1-0.1-0.1-0.2c0.3-0.2,0.7-0.7,0.7-1.1c0-0.1,0-0.2-0.1-0.4
		c-0.3-0.5-0.6-0.6-0.8-0.6l0,0c0-0.1,0-0.3,0-0.4c0-0.4-0.1-0.9-0.7-1c-0.7-0.2-1.2,0.4-1.4,0.8l-0.1,0.1c-0.1-0.1-0.4-0.4-0.8-0.4
		c-0.2-0.3-0.5-0.5-0.8-0.5c-0.7-0.1-0.9,0.7-1.1,1.2c0,0-0.1,0.2-0.1,0.3h-0.1c-0.2-0.1-0.5-0.1-0.8,0c-0.3,0.1-0.4,0.4-0.4,0.7
		c0,0.4,0.3,0.9,0.4,1.3c0,0,0,0.1,0.1,0.2c-0.3,0.1-0.6,0.2-0.7,0.4C22.1,3.9,22.1,4,22,4.1C22,4.1,22,4,21.9,4
		c0.1-0.5,0.3-1.9,0-2.3c-0.1-0.1-0.2-0.2-0.4-0.2c-0.1,0-0.1,0-0.2,0.1c0-0.5-0.1-1.3-0.7-1.5c-0.4-0.1-0.7,0-0.8,0.1
		c-0.3-0.4-1-1.2-1.7-0.9c-0.3,0.1-0.4,0.4-0.4,0.7c0,0.4,0.2,0.8,0.3,1.1v0.1c-0.2,0-0.6,0.1-0.7,0.6c0,0.1,0,0.1,0,0.2
		c0,0,0,0,0,0.1c-0.4-0.3-0.9-0.5-1.6-0.1c-0.3,0.2-0.4,0.5-0.4,0.8c0,0.5,0.3,1,0.4,1.2c-0.2,0.1-0.6,0.3-0.6,0.7
		c0,0.1,0,0.1,0,0.1c0,0.9,0.9,1.1,1.4,1.3c0,0,0,0,0.1,0l0,0c0,0-0.3,0.2-0.4,0.2L16,6.3c-0.4-0.3-1.3-0.9-2.1,0
		c-0.2,0.2-0.2,0.4-0.2,0.6c0,0.4,0.3,0.8,0.5,1l0.2,0.2l-0.1,0.2l-0.2,0.5c0,0,0,0.1,0,0.1L14,9l0-0.3c0-0.5-0.1-1.2-0.6-1.3
		c-0.3-0.1-0.5,0.1-0.7,0.3v0c-0.1-0.5-0.2-1.4-0.9-1.5c-0.4,0-0.6,0.4-0.7,0.6l0,0.1l-0.1-0.1c-0.2-0.3-0.6-0.7-1.1-0.5
		c-0.5,0.2-0.6,0.6-0.6,1c0,0.3,0.1,0.5,0.1,0.7v0.1l0,0C9,8.3,8.8,8.4,8.6,8.7c0,0.1,0,0.2,0,0.2c0,0.6,0.7,1,1.2,1.2
		c-0.1,0.1-0.2,0.2-0.3,0.3c-0.3-0.1-0.7-0.2-1-0.1C8,10.5,8,10.8,8,11.1c0,0,0,0.1,0,0.1c-0.3-0.1-0.9-0.2-1.2,0.5
		c-0.1,0.2-0.1,0.4-0.1,0.6c0,0.2,0.1,0.4,0.1,0.5c0.2,0.4,0.7,0.7,1.1,0.8c-0.1,0.1-0.2,0.2-0.2,0.4l0.2,0.6
		c0.4,0.4,0.9,0.2,1.3,0.1c0.4-0.2,0.6-0.2,0.7-0.1c0,0.1-0.1,0.2-0.3,0.4c-0.1,0-0.2,0-0.3,0c-0.4,0.1-0.5,0.3-0.6,0.5
		c-0.3-0.3-0.9-0.7-1.4-0.6c-0.4,0.1-0.5,0.4-0.5,0.7c0,0.1,0,0.3,0,0.4H6.7c-0.3-0.1-0.8-0.2-1.1,0.1c-0.2,0.1-0.3,0.3-0.4,0.6
		c0,0.1,0,0.1,0,0.2c0,0.7,0.8,1,1.2,1.1c-0.1,0.1-0.2,0.3-0.2,0.5c0,0.2,0.1,0.3,0.3,0.5c0.7,0.6,1.3,0.1,1.6-0.1h0
		c0,0,0,0.2,0.1,0.3c0,0,0,0.1,0,0.2l-0.1,0c-0.3,0.1-0.6,0.2-0.8,0.5c-0.1,0.1-0.1,0.2-0.1,0.3c0,0.1,0,0.2,0.1,0.3
		c0.2,0.7,1,0.7,1.4,0.7c0,0,0.1,0,0.1,0v0.1c0,0.2,0.1,0.5,0.3,0.7c0.7,0.6,1.6-0.1,1.9-0.5l0,0c0,0,0.1,0.1,0.2,0.1
		c0.1,0.2,0.1,0.3,0.2,0.4l0,0L11.3,22c-0.2,0.2-0.7,0.7-0.7,1.2c0,0.2,0.1,0.4,0.2,0.6c0.3,0.5,1.1,0.1,1.7-0.1
		c0,0,0.4-0.1,0.4-0.2l0,0v0.1c0.1,0.2,0.2,0.7,0.9,0.6c0.9-0.2,1.1-0.8,1.3-1.3c0.1-0.1,0.1-0.3,0.2-0.4c0.1,0.1,0.3,0.4,0.3,0.4
		l0.4-0.1c0.5-0.3,0.9-1.5,1-1.9c1,0.5,2,2,2.2,2.4c0.1,0.2,0.5,0.9,1.1,1.8c0.3,0.5,0.7,1.2,0.8,1.4C20.7,27.9,20,29,19,29.5
		l-0.4,0.2c-0.9,0.5-2.4,1.2-3.1,1.8c-0.1,0-0.1,0-0.2,0c-0.6,0-0.9,0.2-1.1,0.3c-0.4-0.2-0.8-0.3-1.2-0.3c-1,0-1.5,0.5-1.7,0.9
		c-0.3,0.7-0.2,1.5,0,1.9c0.4,0.6,1,0.8,1.7,0.8c0.5,0,0.8-0.1,1-0.3c0.2,0.1,0.5,0.2,1,0.2c0.6,0,0.9-0.1,1.1-0.3
		c0.3,0.2,0.6,0.3,1,0.3c0.5,0,0.8-0.1,0.9-0.3c0.2,0.1,0.5,0.2,1,0.2c0.5,0,0.9-0.1,1-0.2c0.3,0.2,0.6,0.3,1,0.3
		c0.5,0,0.8-0.1,0.9-0.3c0.2,0.1,0.5,0.2,1,0.2c0.5,0,0.8-0.1,1-0.2c0.3,0.2,0.6,0.3,1,0.3c0.5,0,0.8-0.1,0.9-0.3
		c0.2,0.1,0.5,0.2,1,0.2c0.5,0,0.9-0.1,1-0.2c0.3,0.2,0.6,0.3,1,0.3c0.5,0,0.8-0.1,0.9-0.3c0.2,0.1,0.5,0.2,1,0.2
		c0.6,0,0.9-0.2,1.1-0.3c0.4,0.2,0.8,0.3,1.2,0.3c0.8,0,1.5-0.3,1.8-0.9c0.3-0.7,0.2-1.5-0.1-1.9c-0.4-0.6-1-0.8-1.7-0.8
		c-0.5,0-0.8,0.1-1,0.3c-0.1-0.1-0.4-0.2-0.8-0.2c-0.3-0.6-0.8-0.8-2.4-1.5L28.7,30c-1.7-0.7-2.2-1.5-2.5-2l0-0.1
		c-0.3-0.5-0.9-3.6,0.4-5.5c0.7-1.1,1.6-1.6,2.1-1.8c0.1,0.5,0.2,1.2,0.5,1.5l0.4,0.2c0,0,0.1-0.1,0.2-0.1c0,0.1,0.1,0.2,0.1,0.2
		c0.2,0.5,0.5,1.2,1.1,1.3c0.5,0.1,0.7-0.1,0.8-0.3c0.2,0.3,0.6,0.6,1,0.6c0.4,0,0.6-0.3,0.7-0.4c0.3,0.1,0.9,0.3,1.3-0.3
		c0.1-0.2,0.1-0.3,0.1-0.4c0-0.4-0.3-0.6-0.5-0.7h0c0.1-0.1,0.2-0.3,0.2-0.5c0.2,0,0.3,0,0.5-0.1c0.3-0.2,0.3-0.4,0.3-0.6
		c0,0,0,0,0,0c0.3,0,0.8,0.1,1-0.4c0.1-0.1,0.1-0.2,0.1-0.3c0.2-0.1,0.4-0.3,0.4-0.5l0,0c0.4,0.2,0.8,0.4,1.2,0.2
		c0.4-0.2,0.4-0.6,0.5-0.9l0,0c0.3,0.1,0.8,0.2,1.2-0.1c0.2-0.1,0.3-0.4,0.4-0.7c0-0.1,0-0.1,0-0.2C40.3,17.2,39.3,17,38.8,17
		L38.8,17z M36.3,16.1c0,0.1-0.1,0.2-0.2,0.2C36.2,16.2,36.3,16.2,36.3,16.1z M35.9,15.7l-0.2,0.1l-0.2,0.2l-0.1,0.2
		c-0.1,0.3-0.3,1-1.5,1.2l-0.1-0.1c-0.2-0.3-0.4-0.6-0.4-1c-0.1-0.6,0-1.1,0.1-1.4c1-0.1,1.7,0,1.9,0.4c0,0,0.3,0.2,0.3,0.2
		C35.7,15.6,35.9,15.7,35.9,15.7L35.9,15.7z M30.2,15.8l0.2,0.4l0.1,0.1c-0.4,0.3-0.9,0.1-1.3,0l-0.5,0c-0.2,0.1-0.2,0.3-0.3,0.4
		l0,0.1c-0.2,0-1.1-0.2-1.5-0.4c0.2-0.3,0.4-0.5,0.7-0.7l0,0c0.3-0.1,0.6-0.3,0.9-0.4c0.7-0.2,1.5-0.6,1.5-0.8c-0.1-0.1-1,0-1.6,0.2
		c-0.5,0.2-1.3,0.5-1.7,0.6c0.2-0.6,0.6-1.4,0.8-1.4c0.1,0.2,0.3,0.2,0.3,0.2l0.5-0.4c0.7-0.6,0.9-0.7,1-0.7l0.1,0.1l0.3,0.3
		c0.2,0.1,0.4,0,0.6-0.2c0.1-0.1,0.4-0.3,0.5-0.2c0.1,0.1,0.1,0.1,0.2,0.2l0.2,0.3h0.5c0.2-0.1,0.7-0.2,0.8,0c0.1,0.4,0,0.5-0.4,0.7
		c-0.2,0.1-0.4,0.2-0.4,0.4l0.1,0.4l0,0.2c0,0.1-0.1,0.2-0.2,0.2c-0.1,0-0.1,0-0.1,0c-0.1,0-0.3,0-0.6,0l-0.5,0c0,0-0.1,0-0.1,0
		C30.2,15.7,30.2,15.7,30.2,15.8L30.2,15.8z M26.6,19.2c-0.2,0.3-0.5,0.5-0.7,0.8c0-0.1,0-0.1,0-0.2c0-0.6,0.1-1.3,0.3-1.8
		c0.1-0.4,0.3-0.7,0.5-1c0.2,0.1,0.4,0.2,0.7,0.3c0,0.2-0.1,0.2-0.2,0.3l-0.5,0.4C26.3,18.3,26.3,18.9,26.6,19.2L26.6,19.2z
		 M25.4,14.6c0.1-0.3,0.1-0.5,0.2-0.8c0.1-0.5,1.1-2.1,0.9-2.2c-0.2-0.1-1.1,1.5-1.3,2c-0.1,0.2-0.1,0.3-0.1,0.5
		c-0.2-0.4-0.4-0.9-0.4-1.3c0-0.2,0-0.3,0.1-0.4c0.1-0.1,0.1-0.1,0.2-0.1l0.2,0c0.1-0.1,0.1-0.1,0.1-0.2c0-0.1-0.1-0.2-0.1-0.3
		c-0.1-0.2-0.3-0.7-0.3-1c0-0.1,0-0.2,0.1-0.3c0.1-0.1,0.2-0.2,0.4-0.3l0.1,0.1c0.2,0.1,0.3,0.1,0.5,0l0.1-0.3c0-0.3,0.1-1,0.5-1
		l0.1,0.1c0,0,0.2,0.1,0.4,0l0.1-0.1c0.6-0.5,0.7-0.4,0.7-0.4C27.9,8.3,28,8.6,28,8.8c0,0.2,0,0.4,0.2,0.6l0.4,0.1h0.2
		c0.2,0.5-0.2,0.9-0.6,1.2c-0.1,0.1-0.2,0.2-0.2,0.4l0.2,0.2l0.2,0.1c0.1,0.2-0.7,0.6-0.9,0.8l-0.4,0.3c0,0-0.1,0-0.1,0.1
		c0,0.1,0.1,0.1,0.1,0.1l0.3,0.2h0.1C27.7,13.5,26.1,14.3,25.4,14.6L25.4,14.6z M26.4,14.7c-0.2,0.4-0.3,0.9-0.3,1
		c-0.1,0.1-0.2,0.1-0.3,0.2c0,0-0.1,0-0.2,0.1V16c0-0.4,0-0.6-0.1-0.8C25.6,15,26,14.9,26.4,14.7z M24.7,14.4c-0.1,0-0.3,0-0.4,0
		l0,0c-0.1-0.4-0.2-1.2-0.6-1.5c-0.4-0.3-0.8,0-1,0.1c-0.2-0.5-0.7-1.1-1.2-1.2c0,0-0.1-0.1-0.1-0.1c-0.2-0.2-0.4-0.4-0.4-0.7
		c0-0.1,0.2-0.2,0.4-0.3c0.3-0.1,0.3-0.3,0.2-0.6c-0.1-0.7,0-1.1,0.3-1.1c0.4-0.1,0.8,0.4,1.2,0.8l0.4,0.4c0.2,0.1,0.4-0.1,0.5-0.3
		c0.2-0.2,0.2-0.2,0.2-0.2c0.2,0.1,0.3,0.4,0.3,0.5c-0.1,0.1-0.1,0.3-0.1,0.5c0,0.4,0.2,0.9,0.3,1.2c-0.1,0-0.2,0.1-0.4,0.2
		c-0.2,0.2-0.3,0.5-0.3,0.8C24.1,13.3,24.4,14,24.7,14.4L24.7,14.4z M24,17.7c0.1,0.4,0.1,0.9,0.1,1.2c0,0.1,0,0.3,0,0.4
		c0,0.3-0.2,1.1-0.4,1.6l-0.9-1.5c-0.4-0.7-0.5-1.4-0.6-1.8h0c0.7,0.3,1,0.2,1.5,0.1L24,17.7L24,17.7z M24.3,16.5
		c-0.1-0.1-0.2-0.2-0.4-0.4c-0.1-0.1-0.3-0.4-0.7-0.7c-0.6-0.5-1.5-0.9-1.5-0.8s0.7,0.7,1.2,1.1c0.4,0.3,0.6,0.7,0.7,1
		c0,0,0,0.1,0,0.1c0,0.1,0.1,0.2,0.1,0.3h-0.1c-0.5,0.1-0.7,0.1-1.2-0.1l-0.2-0.1l0-0.4c0-0.1,0-0.1,0-0.2c-0.1-0.1-0.1,0-0.2,0
		l-0.5,0.1c-0.3,0.1-0.7,0.3-0.9,0.2c0,0-0.1-0.1-0.2-0.2c-0.1-0.4,0-0.5,0.1-0.7c0.1-0.1,0.2-0.2,0.2-0.4c0-0.2-0.3-0.3-0.6-0.3
		c-0.5-0.1-0.8-0.2-0.8-0.4c0-0.1,0.2-0.4,0.4-0.5c0.1,0,0.1-0.1,0.1-0.2c0-0.1,0-0.1-0.1-0.2c0,0-0.4-0.6,0-0.9
		c0.4-0.3,0.6-0.1,0.7,0c0.1,0.1,0.2,0.1,0.3,0.1c0.1,0,0.2-0.1,0.2-0.2c0,0,0-0.4,0.3-0.4c0.2-0.1,0.8,0.6,1,1.2
		c0,0.1,0.1,0.2,0.2,0.2c0.2,0.1,0.3,0,0.5-0.1c0.1-0.1,0.3-0.2,0.4-0.2c0.2,0.2,0.4,1.1,0.4,1.3c0,0.1,0.1,0.2,0.1,0.3
		c0.1,0.1,0.3,0.1,0.5,0.1h0.2C24.6,14.9,24.5,15.5,24.3,16.5L24.3,16.5z M20,16.5L20,16.5v0.2c0,0.3-0.5,0.7-0.8,0.9
		c-0.1-0.1-0.2-0.2-0.3-0.2c0-0.1-0.2-0.7-0.3-1.4c-0.2-1.2-0.3-1.7-0.4-1.6c-0.1,0.1-0.2,0.4-0.1,1.6c0,0.3,0.1,0.5,0.1,0.7
		c0,0-0.1-0.1-0.1-0.1l-0.4-0.1c0,0,0,0-0.1,0.1c-0.1-0.6-0.3-1-0.6-1.3c0,0,0-0.1,0-0.1c0-0.1,0-0.3,0-0.3c0,0,0.4-0.4,0.4-0.4
		c0-0.2-0.1-0.3-0.2-0.4c-0.3-0.2-0.5-0.5-0.4-0.7c0,0,0-0.1,0.2-0.1l0.2-0.1c0.1-0.1,0.1-0.3,0.1-0.5c0-0.5,0-1,0.4-1.2h0.1
		c0.2,0.1,0.5,0.6,0.6,0.9c0,0,0,0.1,0.1,0.1c0.1,0.1,0.3,0.1,0.4,0c0.2-0.1,0.4-0.1,0.6,0c-0.2,0.2-0.4,0.5-0.4,0.7
		c0,0.3,0.1,0.5,0.2,0.7c-0.2,0.2-0.4,0.4-0.4,0.8c0,0.7,0.8,0.9,1.2,0.9c-0.1,0.1-0.2,0.3-0.2,0.6C19.9,16.3,19.9,16.4,20,16.5
		L20,16.5z M19.7,18.4L19.7,18.4c0.6,0.2,1.7,0.5,2.1,2.6c0.2,0.9,0.2,1.5,0.2,2c0,0.3,0,0.4,0,0.5c-0.5-0.4-2-1.7-2-3.4
		c0,0,0-0.2,0-0.3C19.9,19.2,19.8,18.8,19.7,18.4z M16.4,15.2c-0.1,0-0.2,0.2-0.3,0.3c-0.2-0.4-0.5-0.7-0.9-0.8
		c-0.3-0.1-0.5,0.2-0.6,0.4c-0.3-0.2-0.7-0.4-1.1-0.4c-0.1,0-0.2,0.1-0.2,0.1c-0.4-0.2-0.8-0.2-1-0.1c0-0.1,0-0.1,0-0.2l-0.3-0.3
		c-0.3-0.2-0.5-0.4-0.4-0.7c0.1-0.2,0.2-0.3,0.5-0.4l0,0c0,0,0.2,0,0.2-0.1l0.5-0.2l0.1-0.2c0.1-0.2,0.1-0.2,0.1-0.3
		c0.2,0.3,0.4,0.6,0.8,0.8c0.1,0.4,0.3,0.7,0.6,0.9c0.6,0.3,1.5,0.1,2-0.1c0.1,0.2,0.3,0.4,0.4,0.5l0,0l-0.2,0.2
		C16.4,14.8,16.4,15,16.4,15.2C16.4,15.2,16.4,15.2,16.4,15.2L16.4,15.2z M11,16.7l-0.1-0.3l0-0.1c-0.1-0.1-0.1-0.3,0-0.4
		c0.1-0.1,0.2-0.1,0.4-0.1h0.2l0.2-0.1c0.2-0.2,0.6-0.5,1.2-0.3c-0.1,0.1-0.1,0.3-0.1,0.4c0,0.3,0.2,0.6,0.3,0.7l-1,1.7
		c-0.2-0.1-0.6-0.4-0.8-0.7L11,16.7L11,16.7z M14.2,12.6c-0.2,0.2-0.3,0.2-0.3,0.2h0c-0.6-0.4-0.8-1-0.8-1.6l0,0L13,10.8v-0.1l0.1,0
		h0.2l0.2-0.1c0.3-0.1,0.9-0.2,1.7,0.1C15.2,11.1,14.7,12.1,14.2,12.6L14.2,12.6z M18.1,7.2c0,0-0.1-0.3,0-0.4
		c0.1,0,0.3,0.1,0.4,0.2c0,0,0,0.1,0.1,0.1l0.3,0.1c0.3,0,0.9,0.1,1.4,0.9c-0.3,0.1-0.8,0.3-1.2,0.5c-0.4,0.2-0.7,0.4-0.9,0.6
		C17.7,8.4,17.9,8,18,7.7l0.1-0.2L18.1,7.2L18.1,7.2z M25.5,6.5l0.2-0.1c0.1-0.1,0.3-0.2,0.4-0.1c0.1,0,0.2,0.1,0.2,0.3l0,0.1
		c0.1,0.2,0.3,0.7,0.2,1.4c0,0,0,0,0,0c-0.2-0.1-1.4-0.5-2.3-0.5C24.5,6.9,25.2,6.6,25.5,6.5L25.5,6.5z M29.3,9.3
		c0.2-0.1,0.5-0.4,0.6-0.7c0-0.1,0-0.2,0-0.2c0-0.2-0.1-0.3-0.1-0.4c0.1-0.1,0.3-0.1,0.4-0.2c0.1,0.1,0.3,0.4,0.4,0.5
		c0,0.1,0.3,0.3,0.3,0.3c0.2,0.1,0.4-0.1,0.7-0.2c0.4-0.2,0.7-0.4,1-0.2c0.2,0.2,0.3,0.4,0.2,0.4c-0.4,0.2-0.7,0.7-0.8,0.9
		c-0.5-0.1-1,0-1.5,0.3c-0.2-0.1-1,0.1-1.4,0.8c-0.1,0.2-0.2,0.4-0.2,0.6c0-0.1-0.1-0.1-0.2-0.3c0.4-0.4,0.7-0.8,0.7-1.2
		C29.4,9.6,29.3,9.4,29.3,9.3L29.3,9.3z M32.8,10.1l-0.1,0.2v0.1c0,0,0,0.1,0,0.3c0,0.4-0.1,0.9-0.6,1.3c-0.5-0.2-0.9-0.4-1.2-0.8
		l-0.2-0.4c-0.1-0.2-0.1-0.4-0.1-0.6C31.4,9.8,32,10,32.3,10c0,0,0,0,0.1,0l0.4-0.1c0,0,0.2-0.1,0.2-0.1
		C32.9,9.9,32.8,10.1,32.8,10.1L32.8,10.1z M29.6,10.8L29.6,10.8c0.1-0.2,0.2-0.3,0.4-0.4L29.6,10.8z M29.8,12.5
		C29.8,12.5,29.7,12.4,29.8,12.5c-0.2-0.3-0.3-0.5-0.3-0.7L29.8,12.5z M28.2,12.8c0-0.1-0.1-0.2-0.2-0.3c0.3-0.2,0.8-0.5,0.9-0.8
		c0,0.3,0.1,0.7,0.3,1c-0.4,0.1-0.9,0.5-1.2,0.8l0,0c0,0,0,0,0.1-0.1c0.1-0.2,0.2-0.4,0.2-0.6C28.2,12.9,28.2,12.8,28.2,12.8
		L28.2,12.8z M37.9,10.7v0.4c0.2,0.3,0.5,0.2,0.8,0.1c0.5-0.1,0.7-0.1,0.8,0.1c0.2,0.5,0,0.8-0.6,1.1l-0.3,0.2
		c-0.1,0.2,0,0.4,0.1,0.6c0.1,0.1,0.2,0.2,0.1,0.3c-0.1,0.3-0.8,0.1-1.2,0c-0.4-0.1-0.7-0.1-0.9,0c-0.2,0.2-0.2,0.4-0.2,0.5v0.1
		c-0.1,0.2-0.4,0.2-0.8,0.2c-0.2,0-0.4,0-0.5,0.1c-0.4-0.2-1-0.2-1.7-0.2c0,0,0-0.1-0.1-0.1c-0.1-0.1-0.3-0.1-0.4-0.2
		c0-0.1,0.1-0.2,0.1-0.3c0,0,0-0.1,0-0.1c0.7,0,2.2,0.1,2.6-0.8c0-0.1,0.1-0.2,0.1-0.2c0-0.2-0.1-0.4-0.2-0.5c0.7,0,1.9,0,2-0.8
		c0,0,0-0.1,0-0.1c0-0.5-0.3-0.7-0.5-0.8c0.1-0.1,0.1-0.1,0.2-0.1c0.1,0,0.1-0.1,0.2-0.1c0.3,0,0.4,0.1,0.5,0.1
		C37.9,10.4,37.9,10.6,37.9,10.7L37.9,10.7z M36.4,8.8c0.2-0.1,0.8-0.4,1.1-0.2c0.1,0,0.1,0.1,0.2,0.2c0.1,0.4,0,0.6-0.4,0.9
		c0,0-0.1,0-0.1,0.1c-0.1,0.1-0.1,0.1-0.2,0.1c-0.3,0.2-0.5,0.4-0.6,0.6c0,0.1-0.1,0.1,0,0.2l0.3,0.2c0.2,0.1,0.4,0.1,0.4,0.5
		c0,0.1-0.2,0.3-1.6,0.3c-0.3,0-0.5,0-0.6,0.2c-0.1,0.1,0,0.3,0.1,0.4c0.1,0.1,0.3,0.4,0.2,0.5c-0.2,0.6-1.7,0.5-2.1,0.4h-0.2
		c-0.1-0.1-0.2-0.1-0.4-0.1c0.1-0.2,0.1-0.4,0.1-0.5c0.2-0.2,0.4-0.4,0.5-0.6l0,0c0,0,0.2-0.1,0.4-0.3c0.8-0.5,1.6-1.4,1.5-1.5
		c-0.1-0.1-1.1,0.6-1.6,0.9c0-0.3,0-0.5,0-0.6c0-0.1,0-0.2,0-0.2c0.1-0.2,0.2-0.5-0.1-0.8c-0.2-0.2-0.5-0.1-0.7-0.1
		C32.7,9.2,32.9,9,33.1,9c0.2-0.1,0.3,0,0.5,0.2l0.4,0.2c0.3,0.1,0.4-0.1,0.7-0.4c0.3-0.4,0.6-0.7,1-0.6c0.1,0,0.1,0.1,0.2,0.3
		c0,0.1,0.1,0.3,0.3,0.3L36.4,8.8L36.4,8.8z M31.2,6.7h0.1l0.2-0.2c0.1-0.1,0.4-0.6,0.6-0.6c0,0,0.2,0.2,0.2,0.2l0.4,0.3l0.5-0.3
		c0.2-0.2,0.6-0.5,0.8-0.5c0.2,0.1,0.3,0.2,0.3,0.3L34.7,6L35.2,6c0.4-0.1,0.8-0.2,1,0.1c0.1,0.1,0.1,0.2,0.1,0.2
		c-0.1,0.2-0.5,0.5-0.7,0.6c-0.1,0-0.1,0.1-0.1,0.2s0,0.1,0,0.2c0.1,0.1,0.1,0.3,0.1,0.5c-0.7-0.1-1.2,0.5-1.5,0.8
		c0,0-0.1,0.1-0.1,0.2c0,0-0.1-0.1-0.1-0.1c-0.1-0.1-0.4-0.3-0.7-0.3c0-0.2-0.1-0.4-0.3-0.6c0.1-0.1,0.2-0.2,0.4-0.3
		c0.5-0.3,1-0.6,0.9-0.7c-0.1-0.1-0.7,0.1-1.2,0.3c-0.2,0.1-0.4,0.2-0.6,0.4c-0.5-0.1-0.9,0.1-1.2,0.3c0,0-0.1,0.1-0.2,0.1
		c-0.1-0.2-0.2-0.4-0.4-0.5C31,7.2,31.2,6.9,31.2,6.7L31.2,6.7z M29,5.1l0.5-0.3c0.2-0.2,0.5-0.6,0.9-0.6c0.1,0,0.3,0.1,0.5,0.2
		C30.9,4.6,31,4.7,31,4.8c0,0.2-0.3,0.5-0.5,0.7l-0.3,0.5c0,0.2,0.2,0.3,0.3,0.4c0.1,0.1,0.2,0.1,0.2,0.3c0,0.1-0.1,0.3-0.5,0.5
		c0,0-0.1,0-0.1,0.1c-0.2,0.1-0.4,0.2-0.6,0.3c-0.1,0-0.2,0.1-0.2,0.2c0,0.1,0,0.3,0.1,0.3c0.1,0.1,0.1,0.2,0.1,0.3
		c-0.1,0.2-0.4,0.4-0.5,0.5c-0.1,0-0.2,0-0.2,0h-0.1V8.7c0-0.3-0.1-0.8-0.4-1c-0.2-0.1-0.3-0.1-0.5,0c0.1-0.1,0.2-0.3,0.4-0.5
		c0.4-0.5,0.9-0.9,0.8-1c-0.1-0.1-0.7,0.2-1.2,0.7c-0.2,0.2-0.4,0.4-0.5,0.6c0-0.4-0.1-0.7-0.3-1c0,0,0-0.1,0-0.1
		c0-0.1-0.1-0.3-0.2-0.4c0.2-0.2,0.3-0.1,0.5-0.1h0.2c0.2,0,0.3-0.2,0.4-0.4c0.1-0.3,0.3-0.9,0.7-1h0.1c0,0,0.1,0.2,0.1,0.3
		C28.7,4.8,28.7,5.1,29,5.1L29,5.1z M26,1.1l0.3,0.2c0.2,0.1,0.4-0.1,0.5-0.4c0.3-0.4,0.5-0.7,0.9-0.6c0.3,0.1,0.3,0.4,0.3,0.9
		c0,0.2,0,0.4,0.1,0.5l0.3,0.1c0.2,0,0.4,0.1,0.5,0.4c0.1,0.3-0.4,0.8-0.8,1c-0.1,0.1-0.1,0.2-0.1,0.3c0,0.1,0.1,0.2,0.2,0.2
		c0.1,0,0.1,0,0.1,0.1c0,0.1,0,0.1,0,0.2h-0.3c-0.6,0.2-0.8,0.9-1,1.4v0.1c-0.2,0-0.4-0.1-0.6,0.1c0.1-0.3,0.3-0.6,0.3-0.9
		c0-0.1,0-0.2,0-0.2c-0.1-0.3-0.3-0.4-0.5-0.4c0.2-0.3,0.5-0.7,0.5-1.2c0-0.3-0.1-0.6-0.3-0.9c-0.2-0.3-0.4-0.3-0.6-0.2
		c0-0.1,0-0.1,0-0.2c0-0.1,0-0.3,0-0.4C25.9,1,25.9,1,26,1.1L26,1.1z M25.8,1.9C25.8,1.9,25.8,1.9,25.8,1.9c0,0.1,0,0.1,0,0.2
		C25.7,2,25.7,1.9,25.8,1.9z M22.6,4.1C22.7,4,23,3.9,23.2,3.9c0.1,0,0.2-0.1,0.3-0.1c0.1-0.2,0-0.4-0.2-0.7c-0.2-0.4-0.5-1-0.3-1.2
		c0.1-0.1,0.2,0,0.4,0h0.5c0.1-0.1,0.2-0.3,0.3-0.6c0.1-0.3,0.3-0.9,0.5-0.9c0.2,0,0.3,0.1,0.4,0.3c0.2,0.4,0.2,1,0.1,1.2
		c0,0.1,0,0.3,0.1,0.3c0.1,0.1,0.3,0,0.4,0c0.1,0,0.2-0.1,0.3-0.1c0.4,0.6,0,1.2-0.4,1.7c-0.1,0.1-0.2,0.3-0.1,0.4
		c0.1,0.2,0.3,0.2,0.4,0.2c0.2,0,0.3,0,0.4,0.1c0,0.1-0.2,0.8-0.5,1.3c-0.1,0.1-0.2,0.1-0.3,0.2c-0.3,0.1-0.7,0.3-1,0.6
		c0.1-0.4,0.3-1.2,0.4-1.9s0.1-1.3-0.1-1.3c-0.1,0-0.2,0.7-0.4,1.4c-0.2,0.7-0.4,1.5-0.4,1.7c-0.1,0-0.1,0-0.2,0c0,0-0.1,0-0.2,0
		l0,0c0.1-0.2,0.3-0.7,0.3-1.1c0-0.4-0.1-0.7-0.6-1c-0.2-0.1-0.4-0.1-0.6,0C22.5,4.2,22.6,4.2,22.6,4.1L22.6,4.1z M21.9,4.8l0.3,0.3
		c0.2,0,0.3-0.1,0.4-0.2l0.2-0.2c0.5,0.3,0.4,0.8,0.1,1.5l-0.1,0.4C22.9,7,23.3,7,23.6,7h0.3c-0.1,0.2-0.2,0.4-0.3,0.6
		c-0.2,0.1-0.4,0.1-0.5,0.3c-0.2,0.2-0.2,0.5-0.2,0.8c-0.2-0.2-0.4-0.3-0.7-0.4c-0.1-0.2-0.1-0.4-0.2-0.7c-0.1-0.7-0.3-1.5-0.5-1.4
		c-0.1,0-0.1,0.8,0,1.4c0,0.3,0.1,0.5,0.1,0.7c-0.2,0.1-0.3,0.1-0.4,0.2c-0.1-0.1-0.1-0.3-0.2-0.4C20.9,8.1,20.8,8,20.7,8
		c-0.1-0.2-0.2-0.3-0.3-0.5c0.1-0.1,0.1-0.2,0.2-0.2c0-0.1-0.1-0.2-0.2-0.4c-0.4-0.5-0.6-0.8-0.6-0.9c0.1-0.1,0.1-0.1,0.3-0.1
		c0.1,0,0.3,0,0.4-0.1c0.1-0.1,0.1-0.3,0.1-0.6c0-0.5-0.1-1,0.2-1C21.2,4,21.6,4.5,21.9,4.8L21.9,4.8z M17.8,2
		c0-0.1,0.1-0.2,0.4-0.2c0.1,0,0.3,0,0.4-0.2c0.1-0.1,0-0.3-0.1-0.6c-0.1-0.4-0.4-1-0.1-1.1c0.4-0.2,0.9,0.5,1.1,0.8L19.7,1
		c0,0,0.3,0.1,0.4-0.2c0.1-0.1,0.1-0.1,0.3-0.1c0.3,0.1,0.3,0.9,0.3,1.4c0,0.1,0.1,0.2,0.2,0.3c0.1,0.1,0.2,0,0.3-0.1
		c0.1-0.1,0.2-0.2,0.2-0.2c0.1,0.2,0,1-0.1,1.6c-0.2-0.1-0.4-0.2-0.7-0.1c-0.2,0-0.3,0.1-0.4,0.2c-0.3-0.1-0.5-0.1-0.7-0.1
		c0-0.6-0.1-1.6-0.9-1.7c-0.4-0.1-0.6,0.2-0.8,0.5C17.8,2.4,17.7,2.2,17.8,2L17.8,2z M15.6,4.9c0-0.2,0.2-0.3,0.4-0.4
		c0.1-0.1,0.3-0.1,0.3-0.3l-0.1-0.4c-0.3-0.5-0.6-1.1-0.2-1.4c0.5-0.3,0.9-0.1,1.4,0.5c0.2,0.2,0.3,0.3,0.5,0.3
		c0.2,0,0.3-0.2,0.4-0.4c0.1-0.1,0.2-0.4,0.3-0.4c0.4,0.1,0.5,1,0.5,1.4c0,0.2,0,0.4,0.2,0.5c0.1,0.1,0.3,0,0.4-0.1
		c0.1-0.1,0.3-0.2,0.5,0c0,0.1,0,0.2,0,0.4c0,0.2,0,0.4,0,0.5v0.1c-0.2,0-0.5,0-0.7,0.4c0,0.1-0.1,0.2-0.1,0.3
		c0,0.3,0.2,0.6,0.4,0.9c-0.2-0.1-0.4-0.1-0.5-0.2c-0.1-0.2-0.2-0.6-0.4-1c-0.2-0.4-0.9-1.1-1-0.9c-0.2,0.2,0.3,0.8,0.5,1.1
		c0.1,0.2,0.2,0.4,0.3,0.6c-0.2-0.1-0.4-0.2-0.7-0.1c-0.4,0.2-0.4,0.6-0.3,0.9c-0.7-0.1-0.8-0.2-0.8-0.2c0-0.1,0.1-0.1,0.2-0.2
		l0.3-0.5c0-0.3-0.3-0.4-0.6-0.5C16,5.6,15.5,5.5,15.6,4.9L15.6,4.9z M14.3,6.8c0.4-0.4,0.9-0.2,1.4,0.1l0.5,0.2c0,0,0.1,0,0.1,0
		c0.1,0.4,0.6,0.6,1.2,0.7c-0.1,0.4-0.2,1,0.3,1.8l0,0c-0.1,0.1-0.1,0.3-0.1,0.5c0.1,0.4,0.5,0.8,1,1c0.6,0.2,1.2,0.3,1.7,0.1h0.1
		l0.1-0.1c0,0,0,0,0.1,0c0,0.4,0.2,0.6,0.4,0.8c-0.1,0.1-0.2,0.2-0.3,0.4c-0.2-0.1-0.4-0.1-0.6-0.1c-0.4-0.6-0.9-0.4-1.2-0.3
		c-0.1-0.3-0.4-0.8-0.8-1h-0.6c0,0-0.2,0.1-0.2,0.1c-0.2-0.5-0.6-0.8-1-0.9c0,0-0.1,0-0.1,0c0-0.1,0-0.3,0-0.5
		c-0.1-0.3-0.4-0.3-0.7-0.3c-0.6,0-0.8-0.1-0.8-0.4l0.1-0.3l0.1-0.5l-0.3-0.5C14.2,7.2,14.1,7,14.3,6.8L14.3,6.8z M9.1,9
		c0-0.1,0.2-0.2,0.4-0.2l0.3-0.2c0.1-0.1,0.1-0.3,0-0.6C9.7,7.4,9.7,7,10,6.9c0.1-0.1,0.3,0.1,0.5,0.4l0.4,0.3
		c0.3,0.1,0.5-0.2,0.6-0.4c0.1-0.1,0.1-0.3,0.2-0.3c0.2,0,0.3,0.7,0.4,1c0.1,0.4,0.1,0.6,0.3,0.7c0.3,0.1,0.5-0.1,0.6-0.3
		C13,8.1,13,8,13.1,8.1c0.2,0.1,0.2,0.6,0.2,0.9c0,0.3,0,0.6,0.2,0.7c0.1,0.1,0.4,0.2,0.7-0.1c0.3,0.3,0.7,0.3,1,0.3
		c0,0,0.2,0,0.2,0l0,0c0,0.1-0.1,0.3-0.1,0.4c-0.9-0.3-1.7-0.2-2-0.1l-0.1,0H13l-0.6,0.2c0,0,0,0,0,0.1c-0.3-0.2-0.6-0.5-0.9-0.8
		c-0.4-0.5-0.6-1.2-0.8-1.1c-0.3,0.1,0.1,1,0.3,1.3c0.3,0.5,1,1.1,1.4,1.3l0,0c0,0.2,0,0.5,0.1,0.7c-0.3,0.1-0.4,0.5-0.5,0.7v0h-0.1
		l0,0c-0.1-0.1-0.1-0.4-0.2-0.5c-0.1-0.3-0.1-0.5-0.3-0.6c-0.2-0.2-0.5-0.1-0.8,0.1l-0.3,0.1c0,0-0.2-0.1-0.2-0.2c0,0,0,0,0,0
		L9.8,11h0c0.1-0.1,0.4-0.3,0.5-0.3s0.3-0.1,0.3-0.2c0.1-0.2-0.1-0.3-0.3-0.4C9.2,9.6,9,9.3,9.1,9L9.1,9z M8.8,14.1
		c-0.4,0.1-0.6,0.2-0.7,0.1l-0.1-0.2c0-0.2,0.2-0.3,0.3-0.4c0.1-0.1,0.1-0.2,0.1-0.3c0-0.1-0.1-0.2-0.2-0.2c-0.2,0-0.9-0.2-1.1-0.6
		c-0.1-0.1-0.1-0.3,0-0.5c0.1-0.3,0.4-0.3,0.7-0.2h0.4c0.2-0.1,0.2-0.3,0.1-0.5c0-0.3,0-0.4,0.1-0.4c0.3-0.1,0.7,0.1,0.9,0.3
		l0.4,0.5l0.2,0.2c0.2,0.2,0.5,0.1,0.8,0c0,0,0.3-0.1,0.3-0.1c0,0,0,0,0,0c0,0.1,0.1,0.3,0.1,0.3c0,0.2,0.1,0.4,0.1,0.5
		c-0.3,0.1-0.5,0.3-0.6,0.7c0,0.1,0,0.2,0,0.2c0,0.5,0.5,0.9,0.7,1c0,0,0,0,0.1,0c0,0.1,0,0.1,0,0.1c0,0,0,0.1,0,0.1
		c-0.1,0.1-0.2,0.1-0.3,0.2c-0.2,0-0.7,0-0.9,0.4l0,0c-0.1-0.1-0.2-0.2-0.4-0.3c0.2-0.3,0.4-0.7,0.2-1C9.8,13.8,9.2,14,8.8,14.1
		L8.8,14.1z M8.1,18.3l-0.4,0.2c-0.4,0.2-0.6,0.4-0.9,0.1c-0.1-0.1-0.1-0.1,0.1-0.4c0.1-0.1,0.3-0.3,0.1-0.5l-0.4-0.2
		c-0.6-0.2-0.9-0.3-0.9-0.7c0-0.2,0.1-0.2,0.1-0.2c0.1-0.1,0.5,0,0.7,0h0.5c0.2-0.1,0.2-0.4,0.2-0.6c-0.1-0.4,0-0.4,0.1-0.4
		c0.3-0.1,0.7,0.3,1,0.5c0.2,0.2,0.3,0.3,0.5,0.3c0.2,0,0.3-0.3,0.3-0.4c0.1-0.2,0.1-0.3,0.2-0.3c0.2,0,0.7,0.4,1,0.9h0
		c0,0,0,0.1,0.1,0.1c0,0.1,0.1,0.3,0.1,0.3l0.2,0.4c-0.2-0.1-0.5-0.1-0.7-0.2c-0.6-0.1-2.2,0-2.2,0.2c0,0.2,1.5,0.2,2,0.3
		c0.1,0,0.2,0,0.3,0.1c-0.2,0.1-0.2,0.4-0.2,0.7c0,0.1,0,0.1,0,0.2v0.1l-0.1,0c-0.3-0.2-0.8-0.5-1.3-0.3C8.3,18.3,8.2,18.3,8.1,18.3
		L8.1,18.3z M11.3,20.9c0,0-0.1,0.2-0.1,0.2l-0.1-0.1c0,0-0.1-0.1-0.2-0.1l-0.4,0.2c-0.3,0.2-0.9,0.8-1.2,0.5
		c-0.1-0.1-0.1-0.2-0.1-0.4L9,20.8l-0.5-0.1c-0.5,0-0.7,0-0.8-0.3c0-0.1-0.1-0.2,0-0.2C7.7,20,8,20,8.1,19.9l0.5-0.2v-0.9
		c0.2-0.1,0.4,0,0.7,0.3c0.2,0.2,0.5,0.3,0.7,0.2c0.2-0.1,0.2-0.4,0.2-0.7c0-0.1,0-0.4,0-0.4c0.2-0.1,0.6-0.2,0.8,0c0,0,0,0,0,0
		c0.2,0.2,0.5,0.4,0.6,0.5c-0.1,0.3,0,0.7,0.3,0.9c0.1,0.1,0.2,0.2,0.5,0.3c-0.1,0.1-0.2,0.2-0.3,0.4c0,0,0,0,0,0.1
		c0,0.1,0,0.1,0.1,0.2C12,20.4,11.7,20.5,11.3,20.9L11.3,20.9z M15.6,22.4L15.6,22.4c-0.1-0.2-0.2-0.4-0.4-0.4c-0.1,0-0.2,0-0.3,0.1
		c-0.2,0.2-0.3,0.4-0.4,0.7c-0.2,0.4-0.3,0.9-0.9,1c-0.2,0.1-0.2,0-0.3-0.2c0-0.1-0.1-0.5-0.5-0.5l-0.6,0.2c-0.2,0.1-0.8,0.4-1,0.3
		c-0.2-0.3,0-0.7,0.4-1.1l0.2-0.3c0.1-0.2,0-0.4-0.1-0.5c-0.1-0.2-0.2-0.3,0-0.6c0.2-0.3,0.5-0.3,0.8-0.3c0.2,0,0.4,0.1,0.5-0.1
		c0.1-0.1,0.1-0.1,0.1-0.2c0-0.2-0.1-0.3-0.2-0.4c0,0-0.1-0.1-0.1-0.1c0,0,0.1-0.1,0.1-0.1c0.4-0.2,1.1,0.1,1.3,0.2
		c0.1,0.1,0.2,0.1,0.3,0.1c0.1,0,0.1-0.1,0.2-0.2c0.1-0.1,0-0.3-0.1-0.4l-0.1-0.3c0.1-0.1,0.2-0.1,0.3-0.1c0.1,0,0.2,0,0.3,0
		c-0.1,0.1-0.1,0.3-0.1,0.4c0,0.1,0,0.1,0.1,0.2c0.1,0.2,0.2,0.3,0.4,0.4c-0.7,0.2-1,0.5-1.5,0.8c-0.3,0.2-0.9,0.7-0.9,0.9
		s1.7-0.8,2.4-1.1c0.2-0.1,0.6-0.2,0.9-0.2c0,0,0,0.1,0,0.1C16.2,21.5,15.9,22.1,15.6,22.4L15.6,22.4z M15.5,19.8l0.1-0.2l0.2-0.4
		c0-0.3-0.3-0.3-0.5-0.3c-0.1,0-0.3,0-0.4,0l0,0c0,0,0,0-0.1,0c-0.4,0-0.7-0.1-0.9-0.5c0,0.1,0.2-0.1,0.2-0.1
		c0.1-0.1,0.4-0.4,0.2-0.6l-0.4-0.1c-0.5-0.1-0.7-0.2-0.7-0.4c0-0.1,0.1-0.1,0.2-0.1c0.1-0.1,0.3-0.2,0.3-0.4l-0.3-0.4
		c-0.3-0.3-0.5-0.5-0.3-0.8c0.1-0.1,0.1-0.1,0.2-0.2c0.3-0.1,0.7,0.2,0.8,0.4l0.1,0.1c0.3,0.1,0.4-0.2,0.5-0.3c0,0,0.1-0.1,0.1-0.2
		c0.5,0.2,0.7,0.7,0.7,0.9c0,0.1,0.1,0.2,0.2,0.2c0.1,0,0.2-0.1,0.3-0.2c0.1-0.2,0.2-0.4,0.2-0.5c0.1,0.1,0.5,0.8,0.5,1.5
		c0,0.1,0.1,0.2,0.2,0.3c0.1,0,0.2,0,0.3-0.1c0.1-0.1,0.2-0.2,0.2-0.2c0.1,0.1,0.4,0.5,0.4,1.6v0.1c-0.1,0.1-0.6-0.1-1-0.4h0
		L17,18.4c-0.3-0.2-0.6-0.4-1-0.7c0,0-0.9-0.6-1-0.4c-0.1,0.2,0.7,0.9,0.7,0.9c0.4,0.3,0.7,0.5,1,0.7c0,0,0.1,0,0.1,0.1
		c0.3,0.3,0.6,0.7,0.6,0.8C16.4,20.1,15.7,20.1,15.5,19.8L15.5,19.8z M15,34.6c-0.6,0-0.9-0.2-0.9-0.2c-0.1-0.1-0.3-0.1-0.4,0
		c0,0-0.2,0.2-0.8,0.2c-0.6,0-1-0.2-1.3-0.6c-0.2-0.2-0.3-0.9,0-1.3c0.2-0.4,0.7-0.6,1.3-0.6c0.5,0,1.1,0.2,1.4,0.6l1.1,1.7
		c0,0,0.1,0.1,0.2,0.2C15.6,34.6,15.4,34.6,15,34.6L15,34.6z M23,34.6c-0.5,0-0.8-0.2-0.8-0.2c-0.1-0.1-0.3-0.1-0.4,0
		c0,0-0.2,0.2-0.7,0.2c-0.5,0-0.9-0.2-1.2-0.6l-1.2-1.7c0,0-0.1-0.1-0.2-0.2c0.1,0,0.3-0.1,0.6-0.1c0.5,0,0.8,0.2,0.8,0.2
		c0.1,0.1,0.3,0.1,0.4,0c0,0,0.2-0.2,0.7-0.2c0.5,0,0.9,0.2,1.2,0.6l1.1,1.7c0,0,0.1,0.1,0.2,0.2C23.4,34.6,23.2,34.7,23,34.6
		L23,34.6z M20.5,31.6c-0.2,0.1-0.4,0.1-0.5,0.2c-0.2-0.1-0.5-0.2-1-0.2c0,0-0.1,0-0.1,0c0.5-0.3,1.2-0.3,1.5-0.2
		C20.5,31.4,20.5,31.5,20.5,31.6L20.5,31.6z M24,31.8c-0.2-0.1-0.5-0.2-1-0.2c-0.1,0-0.2,0-0.3,0c0.1-0.3,0.4-0.6,0.8-0.6
		c0.1,0,0.3,0.1,0.4,0.1C24,31.3,24.1,31.6,24,31.8C24,31.8,24,31.8,24,31.8L24,31.8z M30.8,34.6c-0.5,0-0.8-0.2-0.8-0.2
		c-0.1-0.1-0.3-0.1-0.4,0c0,0-0.2,0.2-0.7,0.2c-0.5,0-0.9-0.2-1.2-0.6l-1.2-1.7c0,0-0.1-0.1-0.1-0.2c0.1-0.1,0.3-0.1,0.6-0.1
		c0.5,0,0.8,0.2,0.8,0.2c0.1,0.1,0.3,0.1,0.4,0c0,0,0.2-0.2,0.7-0.2c0.5,0,0.9,0.2,1.2,0.6l1.2,1.7c0,0.1,0.1,0.1,0.2,0.2
		C31.3,34.6,31.1,34.6,30.8,34.6z M26,22.1c-1.4,2.2-0.7,5.5-0.4,6.1l0,0.1c0.3,0.6,0.8,1.4,2.7,2.2l0.2,0.1c1.3,0.5,1.7,0.7,2,1
		c-0.4,0-0.6,0.1-0.7,0.2c-0.3-0.2-0.6-0.3-1-0.3c-0.2,0-0.4,0-0.5,0.1c-0.1-0.1-0.1-0.3-0.1-0.3c-0.3-0.6-0.9-0.8-1.4-1.1
		c-0.7-0.3-1.4-0.6-1.8-1.7c-0.2-0.6-0.3-1.4-0.4-2.1c0-0.5-0.2-2.2-0.3-2.2s-0.2,1.7-0.2,2.2c0,0.8,0.2,1.6,0.4,2.3
		c0.5,1.3,1.4,1.7,2.1,2c0.5,0.2,1,0.4,1.2,0.9v0.1c-0.2-0.1-0.5-0.2-0.8-0.2c-0.5,0-0.9,0.1-1,0.3c-0.3-0.2-0.7-0.3-1-0.3
		c-0.1,0-0.2,0-0.3,0c0-0.2-0.1-0.6-0.4-0.8c-0.2-0.2-0.5-0.3-0.8-0.3c-0.6,0-1.1,0.5-1.4,1.3c0,0,0,0,0,0.1h0
		c-0.3-0.1-0.6-0.2-0.9-0.2c0-0.1,0-0.2,0-0.4l0,0c0,0,0-0.1,0-0.1c0-0.2,0.1-0.4,0.2-0.6c0.1-0.2,0.2-0.4,0.3-0.6
		c0.6-1.1,0.7-2.1,0.5-2.1s-0.7,1.2-1,1.8c-0.1,0.2-0.2,0.4-0.3,0.6c-0.1,0.2-0.2,0.4-0.2,0.6c-0.6-0.1-1.9-0.1-2.5,1c0,0,0,0,0,0
		l0,0c-0.3-0.2-0.6-0.3-1-0.3c-0.5,0-0.8,0.1-0.9,0.3c0,0-0.1,0-0.1,0c0.7-0.5,1.8-1.1,2.6-1.5l0.4-0.2c1.2-0.6,2-1.9,2.2-3.6
		c0-0.1,0-0.2-0.9-1.7c-0.4-0.7-0.9-1.5-1-1.7c-0.2-0.4-1.3-2.3-2.6-2.7c0.3-0.1,0.5-0.1,0.8-0.2c0.2-0.1,0.3-0.2,0.3-0.3
		c0,0,0-0.1,0-0.1c0-0.1-0.1-0.3-0.1-0.4c0.2,0,0.4,0.1,0.5,0c0.1-0.1,0.3-0.3,0.3-0.6c0-0.3,0-0.5-0.1-0.8h0c0.1,0,0.7,0.5,0.7,2.1
		c-0.1,2.4,2.4,4.1,2.6,4.1c0.1,0,0.2,0,0.3-0.1c0.2-0.2,0.3-0.6,0.3-1.1c0-0.6-0.1-1.4-0.2-2c-0.4-2.4-1.9-2.8-2.4-3l-0.1,0
		c0.2-0.2,0.5-0.4,0.7-0.8c0,0,0.1,0.1,0.1,0.1c0.4,0.2,0.9,0,1.3-0.1v0.1c0,0.5,0,1.5,0.6,2.6l0.8,1.3l0.4,0.7
		c0.1,0.1,0.2,0.1,0.3,0.1c0.4-0.1,0.8-2.4,0.8-2.5c0-0.1,0-0.2,0-0.4c0-0.5-0.1-1.3-0.4-2l0,0c0,0,0.1,0.1,0.1,0.1
		c0.1,0,0.3,0,0.3-0.2c0.1-0.4,0.2-0.8,0.3-1.1c0,0.1,0,0.2,0,0.2l0.1,0.6c0.2,0.2,0.4,0.1,0.8-0.1c0.2-0.1,0.4-0.2,0.6-0.3
		c-0.3,0.4-0.6,0.9-0.9,1.6c-0.2,0.6-0.3,1.4-0.3,2c0,0.5,0,0.9-0.1,1.2c0,0,0,0.1,0,0.1c0,0.1,0.1,0.2,0.1,0.2
		c0.1,0.1,0.3,0,0.4-0.1c0.3-0.4,1-1.3,1.6-1.9c-0.1,0.3-0.2,0.5-0.3,0.7v0c0,0,0,0.2,0.1,0.2c0.1,0.1,0.2,0.1,0.3,0
		c0,0,0.4-0.2,1-0.1l0,0C27.9,20.3,26.8,20.8,26,22.1L26,22.1z M27.7,19.6c0.1-0.3,0.3-0.7,0.5-1c0.1-0.1,0.3-0.3,0.6-0.4
		c0.1,0,0.8-0.5,0.7-0.7c-0.1-0.2-0.8,0.1-0.9,0.2c-0.4,0.2-0.7,0.4-0.8,0.4c-0.2,0.1-0.5,0.4-0.8,0.6c-0.1-0.2-0.1-0.4,0.1-0.7
		l0.3-0.2c0.2-0.1,0.5-0.3,0.5-0.7c0.4,0.1,0.7,0.1,0.8,0c0.2-0.1,0.3-0.4,0.3-0.5c0,0,0.1,0,0.1,0c0.4,0.1,1.2,0.3,1.8-0.2
		c0.1-0.1,0.2-0.2,0.2-0.4c0-0.1-0.1-0.1-0.1-0.2c0.1,0,0.3,0,0.5,0c0,0,0,0.1,0,0.1v0c0,0.1-0.1,0.2-0.3,0.3l-0.3,0.3
		c0,0,0,0.1,0,0.1c0,0.1,0.1,0.3,0.2,0.3c0.1,0.1,0.1,0.1,0.1,0.3v0.1c0,0.3-0.4,0.4-0.9,0.5l-0.6,0.2c0,0-0.1,0.1-0.1,0.2
		c0,0.2,0.1,0.3,0.2,0.4l0.1,0.2l-0.1,0.1c-0.1,0.1-0.5,0.2-0.8,0.2l-0.4,0.1C28.3,19.5,28,19.5,27.7,19.6L27.7,19.6z M34.3,23
		c-0.1,0.2-0.3,0.2-0.7,0.1l-0.2-0.1c-0.2,0-0.3,0.1-0.4,0.2c-0.1,0.1-0.2,0.2-0.4,0.2c-0.2,0-0.5-0.3-0.7-0.4l-0.4-0.3
		c-0.2,0-0.3,0.2-0.4,0.2c-0.1,0.1-0.1,0.2-0.3,0.2c-0.3,0-0.5-0.7-0.7-1c-0.1-0.3-0.2-0.5-0.4-0.6c-0.2-0.1-0.4,0.1-0.4,0.1
		c-0.2-0.2-0.4-1-0.4-1.6c0.4,0.1,1,0.4,1.4,0.7c0.3,0.2,0.9,0.7,1,0.6c0.1-0.1-0.4-0.7-0.7-1c-0.4-0.3-0.7-0.5-1.1-0.7
		c1-0.4,1.7-0.3,1.8-0.2l0,0.1l0,0.3c0,0.3,0.3,0.3,0.9,0.4c0.3,0,0.8,0.1,0.9,0.2l0,0c0,0,0,0.1-0.1,0.2c0,0.1-0.1,0.2-0.1,0.3
		c0,0,0,0.1,0,0.1c0.1,0.2,0.3,0.2,0.6,0.3c0.2,0,0.5,0.1,0.6,0.2c0,0-0.1,0.1-0.1,0.1c-0.1,0.1-0.2,0.2-0.2,0.4c0,0,0,0.1,0,0.1
		l0.3,0.3c0.2,0.1,0.3,0.2,0.3,0.3C34.4,22.9,34.4,23,34.3,23L34.3,23z M36,20.4c-0.1,0.1-0.1,0.1-0.5,0.1l-0.5,0.1l-0.1,0.4
		c0,0.1,0,0.1-0.1,0.2c-0.1,0.1-0.3,0.1-0.5,0h-0.2C34,21,33.9,21,33.7,20.9l-0.2-0.1c0.1-0.1,0.1-0.2,0.1-0.4c0-0.1,0-0.2-0.1-0.4
		c-0.2-0.2-0.6-0.3-1.3-0.4l-0.4-0.1c0,0,0-0.1,0-0.2c0-0.1,0-0.3-0.2-0.4c-0.2-0.2-0.8-0.2-1.5-0.1c0-0.1-0.1-0.2-0.1-0.3h0.1
		c0.3,0,0.8-0.1,1.1-0.4c0.8,0.5,1.8,0.4,2.3,0.2c0,0,0.1,0,0.1-0.1c0.1,0.1,0.2,0.2,0.3,0.3l0.6,0c0.2,0,0.6-0.1,0.7-0.1
		c0.2,0.2,0.2,0.2,0.1,0.4l-0.1,0.5c0.1,0.1,0.2,0.2,0.3,0.3C36.1,20,36.2,20.1,36,20.4L36,20.4z M39.7,18.3c0,0.2-0.1,0.3-0.2,0.3
		c-0.2,0.1-0.5,0.1-0.8,0h-0.4c-0.1,0.1-0.2,0.3-0.2,0.5c0,0.2-0.1,0.4-0.1,0.4c-0.1,0.1-0.6-0.1-0.7-0.2c-0.3-0.1-0.4-0.2-0.6,0
		l-0.1,0.3c0,0.1,0,0.2-0.1,0.2c-0.2-0.2-0.4-0.3-0.5-0.4v0c0,0,0.1-0.2,0.1-0.4c0-0.2-0.1-0.4-0.4-0.7c-0.3-0.2-0.7-0.1-1.1-0.1
		l-0.3,0.1c0,0-0.1-0.1-0.2-0.3c0.1,0,0.3-0.1,0.4-0.1c0.1,0,0.2,0,0.3,0c0.5,0,2.4,0.3,2.4,0c0-0.2-1.1-0.4-1.9-0.5
		c0.4-0.4,0.5-0.8,0.6-1v-0.1c0,0,0.1,0,0.1-0.1c0.1,0,0.1,0.1,0.2,0.3c0,0.1,0.1,0.3,0.2,0.4c0.1,0.1,0.3,0,0.5-0.1
		c0.3-0.2,1-0.6,1.3-0.4c0.2,0.2,0.1,0.3,0.1,0.5c-0.1,0.2-0.1,0.4,0.1,0.5l0.3,0.1C39.4,17.6,39.7,17.8,39.7,18.3L39.7,18.3z"/>
</g>
</svg>
